<?xml version="1.0" encoding="utf-8"?>
<!-- Generator: Adobe Illustrator 25.0.1, SVG Export Plug-In . SVG Version: 6.00 Build 0)  -->
<svg version="1.1" id="Capa_1" xmlns="http://www.w3.org/2000/svg" xmlns:xlink="http://www.w3.org/1999/xlink" x="0px" y="0px"
	 viewBox="0 0 512 512" style="enable-background:new 0 0 512 512;" xml:space="preserve">
<style type="text/css">
	.st0{fill:#D2010D;}
	.st1{fill:#FFFFFF;}
</style>
<g id="Capa_1_1_">
	<rect x="-1334.4" y="-125.5" class="st0" width="805" height="805"/>
	<path class="st1" d="M-801.4,281.4c-82.5,40.3-178.9,40.3-261.4-0.2c-41-19.8-77.7-49-109-84.2l-11.2,28.6
		c93.4,138.4,281.3,174.8,419.7,81.4c32.3-21.8,60.1-49.6,81.8-82l-10.8-27.8C-723.6,232.5-760.3,261.6-801.4,281.4z"/>
</g>
<g id="Capa_1_2_">
	<rect class="st0" width="512" height="512"/>
	<path class="st1" d="M339,258.8c-52.5,25.6-113.8,25.6-166.2-0.1c-26.1-12.6-49.4-31.1-69.3-53.6l-7.1,18.2
		c59.4,88,178.9,111.2,266.9,51.8c20.5-13.9,38.2-31.6,52-52.1l-6.9-17.7C388.5,227.7,365.1,246.2,339,258.8z"/>
</g>
<g id="Capa_1_3_">
	<rect x="-362.8" y="160" class="st0" width="192" height="192"/>
	<path class="st1" d="M-235.6,257c-19.7,9.6-42.7,9.6-62.3,0c-9.8-4.7-18.5-11.7-26-20.1l-2.7,6.8c22.3,33,67.1,41.7,100.1,19.4
		c7.7-5.2,14.3-11.8,19.5-19.6l-2.6-6.6C-217.1,245.4-225.8,252.3-235.6,257z"/>
</g>
</svg>
