<?xml version="1.0" encoding="utf-8"?>
<!-- Generator: Adobe Illustrator 25.0.1, SVG Export Plug-In . SVG Version: 6.00 Build 0)  -->
<svg version="1.1" id="Capa_1" xmlns="http://www.w3.org/2000/svg" xmlns:xlink="http://www.w3.org/1999/xlink" x="0px" y="0px"
	 viewBox="0 0 130.4 130.4" style="enable-background:new 0 0 130.4 130.4;" xml:space="preserve">
<style type="text/css">
	.st0{fill:url(#SVGID_1_);}
	.st1{fill-rule:evenodd;clip-rule:evenodd;fill:#A0383B;}
	.st2{fill-rule:evenodd;clip-rule:evenodd;fill:#FDFDFD;}
	.st3{fill:#E83B42;}
	.st4{fill:#FFFFFF;}
</style>
<linearGradient id="SVGID_1_" gradientUnits="userSpaceOnUse" x1="-5.8783" y1="65.2064" x2="136.3479" y2="65.2064" gradientTransform="matrix(0.7071 0.7071 -0.7071 0.7071 65.2348 -27.0211)">
	<stop  offset="0" style="stop-color:#E83B42"/>
	<stop  offset="1" style="stop-color:#C93739"/>
</linearGradient>
<path class="st0" d="M121.7,32.6C110,12.4,88.5,0,65.2,0C53.7,0,42.5,3,32.6,8.8C1.4,26.8-9.2,66.6,8.8,97.8
	c18,31.2,57.9,41.8,89.1,23.8C129,103.6,139.7,63.7,121.7,32.6z"/>
<path class="st1" d="M19.7,94.7c-14.9-25.9-6.1-59,19.8-73.9s59-6.1,73.9,19.8s6.1,59-19.8,73.9c0,0,0,0,0,0
	C67.8,129.4,34.7,120.6,19.7,94.7C19.7,94.7,19.7,94.7,19.7,94.7"/>
<path class="st2" d="M19.7,91.5C5.2,66.4,13.8,34.2,38.9,19.7s57.3-5.9,71.8,19.2s5.9,57.3-19.2,71.8c0,0,0,0,0,0
	C66.4,125.2,34.2,116.6,19.7,91.5"/>
<path class="st3" d="M87.2,47.8c0-9.7-8-16.6-21.9-16.6c-7.5,0.1-14.9,1.6-21.8,4.6l1.7,8.3c5.8-2.6,12-4,18.4-4.1
	c8.1,0,12.9,3.7,12.9,9.3c0,6.9-5.9,10.8-15.7,10.8h-4.5v8.1h5.6c11.3,0,16.9,3.4,16.9,10.3c0,7.3-6.3,12-17,12
	c-6.7,0-13.2-1.6-19.2-4.6l-1.4,8.9c5.4,2.6,13.1,4.4,21.9,4.4c15.4,0,26.3-7.7,26.3-20.3c0-8.5-5.1-14-13.3-15.5v-0.3
	C83.3,60.7,87.2,55.1,87.2,47.8"/>
<path class="st4" d="M102.4,64.8c1.1-0.1,1.8-1,1.8-2c-0.1-0.9-0.8-1.7-1.8-1.8c-1.1,0.1-1.8,1-1.8,2
	C100.7,64,101.5,64.8,102.4,64.8z"/>
</svg>
