<?xml version="1.0" encoding="utf-8"?>
<!-- Generator: Adobe Illustrator 25.0.1, SVG Export Plug-In . SVG Version: 6.00 Build 0)  -->
<svg version="1.1" id="Capa_1" xmlns="http://www.w3.org/2000/svg" xmlns:xlink="http://www.w3.org/1999/xlink" x="0px" y="0px"
	 viewBox="0 0 131.1 131.1" style="enable-background:new 0 0 131.1 131.1;" xml:space="preserve">
<style type="text/css">
	.st0{fill:url(#SVGID_1_);}
	.st1{fill-rule:evenodd;clip-rule:evenodd;fill:#A0383B;}
	.st2{fill-rule:evenodd;clip-rule:evenodd;fill:#FDFDFD;}
	.st3{fill:#E83B42;}
	.st4{fill:#FFFFFF;}
</style>
<linearGradient id="SVGID_1_" gradientUnits="userSpaceOnUse" x1="-5.8123" y1="66.2347" x2="136.4139" y2="66.2347" gradientTransform="matrix(0.7071 0.7071 -0.7071 0.7071 66.2348 -27.4353)">
	<stop  offset="0" style="stop-color:#E83B42"/>
	<stop  offset="1" style="stop-color:#C93739"/>
</linearGradient>
<path class="st0" d="M122,32.9C110.3,12.7,88.8,0.3,65.5,0.4c-11.4,0-22.6,3-32.5,8.8C1.8,27.1-8.9,67,9.1,98.2
	C27.1,129.3,67,140,98.2,122C129.3,104,140,64.1,122,32.9z"/>
<path class="st1" d="M19.8,95.1c-15-26-6.1-59.3,19.9-74.3S99,14.8,114,40.8c15,26,6.1,59.3-19.9,74.3
	C68.1,130.1,34.9,121.2,19.8,95.1C19.8,95.2,19.8,95.2,19.8,95.1"/>
<path class="st2" d="M19.8,92c-14.6-25.3-6-57.6,19.3-72.2s57.6-6,72.2,19.3c14.6,25.2,6,57.5-19.3,72.1
	C66.8,125.9,34.4,117.3,19.8,92C19.8,92,19.8,92,19.8,92"/>
<path class="st3" d="M89.9,90.3H51.5c0.1-4.3,1.3-6.7,3.1-8.9c1.7-2.1,4.5-3.9,14.9-8.2c10.9-4.5,18.5-9,18.5-21.3
	c0-13.3-9-19.9-23.3-19.9C57.2,32,49.9,33.6,43,36.7l1.9,8.5c5.7-2.5,12.6-4.5,18.8-4.5c8.3,0,13.8,3.5,13.8,11.4
	c0,8-6.1,10.3-14.2,13.6c-7.2,2.9-12.7,5.3-16.7,10c-3.6,4.2-5.5,9.8-5.5,18.1v5.3h45.7L89.9,90.3z"/>
<path class="st4" d="M96.2,61.6c2.5,0,2.5-3.8,0-3.8S93.8,61.6,96.2,61.6z"/>
</svg>
