<svg xmlns="http://www.w3.org/2000/svg" viewBox="0 0 300 300"><defs><style>.cls-1,.cls-2{fill:none;stroke-miterlimit:10;}.cls-1{stroke:#d1d1d1;stroke-width:12.48px;opacity:0.3;}.cls-2{stroke:#da291c;stroke-width:9.96px;}.cls-3{fill:#979797;}</style></defs><g id="_1-4" data-name="1-4"><rect class="cls-1" x="14.7" y="15.51" width="270.6" height="268.99" rx="14.6"/><path class="cls-2" d="M107.38,136.53A85.93,85.93,0,0,1,128,70.24c-.27,0-.53,0-.8.05a86.25,86.25,0,1,0,74.86,142.17A86.23,86.23,0,0,1,107.38,136.53Z"/><polygon class="cls-3" points="178.8 77.45 173.3 71.41 166.93 76.52 170.98 69.42 164.15 64.95 172.14 66.6 174.29 58.72 175.19 66.84 183.35 66.45 175.9 69.81 178.8 77.45"/><polygon class="cls-3" points="153.89 114.22 148.39 108.18 142.02 113.3 146.07 106.2 139.24 101.72 147.24 103.38 149.38 95.5 150.28 103.62 158.44 103.22 151 106.58 153.89 114.22"/><polygon class="cls-3" points="208.28 139.25 201.37 131.65 193.36 138.08 198.45 129.15 189.85 123.52 199.91 125.6 202.62 115.69 203.75 125.9 214.01 125.41 204.64 129.64 208.28 139.25"/><circle class="cls-3" cx="137.05" cy="80.26" r="2.49"/><circle class="cls-3" cx="225.59" cy="167.42" r="2.49"/><circle class="cls-3" cx="186.37" cy="137.49" r="2.49"/></g></svg>