<svg xmlns="http://www.w3.org/2000/svg" xmlns:xlink="http://www.w3.org/1999/xlink" viewBox="0 0 300 300"><defs><style>.cls-1,.cls-4{fill:none;stroke-miterlimit:10;}.cls-1{stroke:#d1d1d1;stroke-width:12.48px;opacity:0.3;}.cls-2{fill:#898888;}.cls-3{fill:#da291c;}.cls-4{stroke:#da291c;stroke-width:9.49px;}.cls-5{fill:url(#Degradado_sin_nombre_7);}</style><linearGradient id="Degradado_sin_nombre_7" x1="126.53" y1="183.75" x2="197.52" y2="118.21" gradientUnits="userSpaceOnUse"><stop offset="0" stop-color="#fff" stop-opacity="0"/><stop offset="0.05" stop-color="#f9dddb" stop-opacity="0.16"/><stop offset="0.13" stop-color="#f2b3af" stop-opacity="0.35"/><stop offset="0.21" stop-color="#eb8e87" stop-opacity="0.53"/><stop offset="0.3" stop-color="#e66f66" stop-opacity="0.68"/><stop offset="0.39" stop-color="#e2554b" stop-opacity="0.79"/><stop offset="0.49" stop-color="#de4136" stop-opacity="0.89"/><stop offset="0.61" stop-color="#dc3427" stop-opacity="0.95"/><stop offset="0.75" stop-color="#da2b1f" stop-opacity="0.99"/><stop offset="1" stop-color="#da291c"/></linearGradient></defs><g id="_1-4" data-name="1-4"><rect class="cls-1" x="14.7" y="15.51" width="270.6" height="268.99" rx="14.6"/><path class="cls-2" d="M239.35,129.81H225.79a5.22,5.22,0,0,1-5.22-5.22V93.39c0-12.76,6.76-25,18.78-34h0Z"/><rect class="cls-3" x="224.55" y="126.87" width="14.09" height="108" rx="0.75"/><path class="cls-2" d="M83.93,64.12a3,3,0,0,0-3,3V96.93a3,3,0,0,1-3,3h0a3,3,0,0,1-3-3V94h0V67.1a3,3,0,0,0-6,0V94h0v3a3,3,0,1,1-6,0V94h0V67.1a3,3,0,0,0-6,0v38c0,6.22,3.53,9.55,8.14,11.21L67,125.8h9.72l1.79-9.29a14.94,14.94,0,0,0,3.67-2.06,11.4,11.4,0,0,0,4.69-9.31v-38A3,3,0,0,0,83.93,64.12Z"/><rect class="cls-3" x="64.7" y="120.92" width="14.2" height="113.6" rx="1.1"/><circle class="cls-4" cx="149.75" cy="162.53" r="54.54"/><path class="cls-5" d="M111.06,162.53c.26-15.73,9.64-30.18,24.45-36a38.75,38.75,0,0,1,50.26,50.25c-5.84,14.81-20.28,24.19-36,24.46-4.81.08-4.82,7.57,0,7.49,29.92-.51,52.6-29.15,44.54-58.47-7.9-28.73-42.11-42.67-67.85-27.6a46.91,46.91,0,0,0-22.87,39.88c-.08,4.82,7.41,4.82,7.49,0Z"/></g></svg>