<?xml version="1.0" encoding="utf-8"?>
<!-- Generator: Adobe Illustrator 25.0.1, SVG Export Plug-In . SVG Version: 6.00 Build 0)  -->
<svg version="1.1" id="Capa_1" xmlns="http://www.w3.org/2000/svg" xmlns:xlink="http://www.w3.org/1999/xlink" x="0px" y="0px"
	 viewBox="0 0 130.3 130.3" style="enable-background:new 0 0 130.3 130.3;" xml:space="preserve">
<style type="text/css">
	.st0{fill:url(#SVGID_1_);}
	.st1{fill-rule:evenodd;clip-rule:evenodd;fill:#A0383B;}
	.st2{fill-rule:evenodd;clip-rule:evenodd;fill:#FDFDFD;}
	.st3{fill:#E83B42;}
	.st4{fill:#FFFFFF;}
</style>
<linearGradient id="SVGID_1_" gradientUnits="userSpaceOnUse" x1="-5.9567" y1="65.2347" x2="136.2695" y2="65.2347" gradientTransform="matrix(0.7071 0.7071 -0.7071 0.7071 65.2348 -27.0211)">
	<stop  offset="0" style="stop-color:#E83B42"/>
	<stop  offset="1" style="stop-color:#C93739"/>
</linearGradient>
<path class="st0" d="M121.6,32.5C109.9,12.3,88.4-0.1,65.1,0C53.6,0,42.4,3,32.5,8.7C1.4,26.7-9.3,66.6,8.7,97.8
	c18,31.2,57.9,41.8,89.1,23.8C128.9,103.6,139.6,63.7,121.6,32.5z"/>
<path class="st1" d="M19.7,94.6C4.8,68.7,13.6,35.7,39.5,20.7s58.9-6.1,73.8,19.8s6.1,58.9-19.8,73.8c0,0,0,0,0,0
	C67.7,129.3,34.7,120.5,19.7,94.6C19.7,94.6,19.7,94.6,19.7,94.6"/>
<path class="st2" d="M19.7,91.4C5.2,66.3,13.8,34.2,38.9,19.7s57.2-5.9,71.7,19.2c14.5,25.1,5.9,57.2-19.2,71.7
	C66.3,125.1,34.2,116.5,19.7,91.4C19.7,91.4,19.7,91.4,19.7,91.4"/>
<polygon class="st3" points="71.3,32.2 63.3,32.2 39.4,48 42.9,56.8 61.2,44.8 61.2,89.2 42.3,89.2 42.3,98.1 88,98.1 90.9,89.2 
	71.3,89.2 "/>
<path class="st4" d="M94.8,58.2c1,0,1.9-0.9,1.9-1.9c0-1-0.9-1.9-1.9-1.9C92.4,54.4,92.4,58.2,94.8,58.2z"/>
</svg>
