<svg id="Capa_3" data-name="Capa 3" xmlns="http://www.w3.org/2000/svg" viewBox="0 0 474 103"><defs><style>.cls-1{fill:#d2010d;}</style></defs><polygon class="cls-1" points="376.88 92.54 411 66 409 22 466.42 83.16 376.88 92.54"/><path class="cls-1" d="M465.5,82.5c-5-1.09-9.87-2.33-14.77-3.55s-9.75-2.56-14.64-3.76-9.74-2.49-14.59-3.75-9.72-2.44-14.56-3.67c-9.66-2.57-19.39-4.77-29-7.21L363.4,57.2l-7.24-1.68c-2.43-.49-4.84-1-7.26-1.55-9.64-2.19-19.34-4-29-5.95-4.84-.87-9.69-1.65-14.52-2.54-1.2-.21-2.41-.45-3.62-.64l-3.63-.54-7.26-1.13c-19.34-2.89-38.7-5-58.06-6a475.41,475.41,0,0,0-58,.57c-2.41.16-4.82.43-7.23.64s-4.83.37-7.24.67-4.81.58-7.23.83l-3.62.4-3.61.51-7.24,1L131.45,43c-4.84.7-9.65,1.64-14.48,2.51C97.66,49.08,78.33,53.69,58.8,58.2,49,60.46,39.22,62.74,29.34,64.85S9.53,68.94-.5,70.5c9-4.65,18.13-9,27.26-13.31,4.55-2.18,9.14-4.25,13.72-6.37s9.23-4.1,13.85-6.15a532.24,532.24,0,0,1,57.22-21.3c9.84-2.92,19.79-5.63,29.92-7.73l3.79-.83,3.81-.74c2.54-.5,5.09-.94,7.64-1.41,5.11-.85,10.25-1.58,15.39-2.27a359.15,359.15,0,0,1,62.19-2.14,416.81,416.81,0,0,1,61.38,7.87,484.45,484.45,0,0,1,59.26,15.94c2.42.79,4.84,1.58,7.25,2.41l7.17,2.63c4.77,1.77,9.57,3.45,14.27,5.37s9.42,3.81,14.09,5.78,9.3,4.06,13.92,6.14l6.91,3.18c2.3,1.06,4.6,2.1,6.86,3.27,4.53,2.27,9.07,4.51,13.56,6.84s9,4.75,13.38,7.21S461.16,79.87,465.5,82.5Z"/></svg>