<?xml version="1.0" encoding="utf-8"?>
<!-- Generator: Adobe Illustrator 25.0.1, SVG Export Plug-In . SVG Version: 6.00 Build 0)  -->
<svg version="1.1" id="Capa_1" xmlns="http://www.w3.org/2000/svg" xmlns:xlink="http://www.w3.org/1999/xlink" x="0px" y="0px"
	 viewBox="0 0 487.6 137.4" style="enable-background:new 0 0 487.6 137.4;" xml:space="preserve">
<style type="text/css">
	.st0{fill:#AF0614;}
	.st1{fill:#FFFFFF;}
	.st2{fill:#8F111F;}
</style>
<path class="st0" d="M487.6,114.4c-161.1,30.7-326.5,30.7-487.6,0C7.3,76.3,14.5,38.1,21.8,0c146.7,28,297.3,28,443.9,0L487.6,114.4
	"/>
<g>
	<g>
		<path class="st1" d="M109.7,53.3c-2-1.6-3.5-3.5-4.3-5.8s-1-4.8-0.5-7.4c0.5-2.7,1.5-5.1,3.1-7s3.6-3.3,6-4.2c2.4-0.8,5.1-1,8-0.6
			c1.6,0.2,3.1,0.7,4.6,1.3s2.7,1.3,3.7,2c-0.2,0.9-0.5,1.7-0.8,2.6c-2.3-1.7-5-2.8-8-3.3c-2.3-0.4-4.4-0.2-6.3,0.5
			c-1.9,0.7-3.5,1.9-4.7,3.5s-2.1,3.5-2.5,5.8c-0.4,2.2-0.2,4.3,0.5,6.2s1.8,3.5,3.4,4.7c1.6,1.2,3.5,2,5.8,2.4
			c1.5,0.2,3.1,0.3,4.6,0.2c1.6-0.1,3-0.4,4.3-0.8c0,0.9,0,1.7,0,2.6c-3,0.9-6.1,1.1-9.4,0.6C114.2,55.9,111.7,54.9,109.7,53.3z"/>
		<path class="st1" d="M133,56.7c-1.5-1.6-2-3.8-1.6-6.7c0.6-4.4,1.2-8.9,1.9-13.3c1,0.1,2,0.3,3,0.4c-0.6,4.5-1.2,8.9-1.8,13.4
			c-0.3,1.9,0.1,3.4,1.1,4.6c1,1.2,2.5,1.9,4.5,2.1c2,0.3,3.5-0.1,4.7-1c1.1-0.9,1.8-2.3,2-4.1c0.5-4.5,1.1-8.9,1.6-13.4
			c1,0.1,2,0.2,3,0.4c-0.5,4.4-1,8.9-1.6,13.3c-0.3,2.6-1.3,4.5-3.1,5.8s-4.1,1.8-7,1.4C136.7,59.2,134.5,58.2,133,56.7z"/>
		<path class="st1" d="M158.1,35.5c-0.4-0.5-0.6-1.1-0.5-1.7c0.1-0.7,0.4-1.2,0.9-1.6c0.5-0.4,1.1-0.5,1.7-0.5
			c0.7,0.1,1.2,0.3,1.6,0.8c0.4,0.5,0.6,1.1,0.5,1.7c-0.1,0.7-0.4,1.2-0.9,1.6c-0.5,0.4-1.1,0.5-1.8,0.5
			C159.1,36.2,158.5,36,158.1,35.5z M157.9,39.8c1,0.1,2,0.2,3,0.3c-0.7,7.1-1.5,14.2-2.2,21.3c-1-0.1-2-0.2-3.1-0.3
			C156.3,54,157.1,46.9,157.9,39.8z"/>
		<path class="st1" d="M169.4,61.5c-1.5-1.1-2.7-2.5-3.4-4.2s-1-3.7-0.8-5.8c0.2-2.2,0.9-4.1,2.1-5.7c1.1-1.6,2.6-2.8,4.4-3.6
			c1.8-0.8,3.6-1.1,5.5-0.9c1.5,0.1,2.9,0.5,4,1.1c1.2,0.6,2,1.3,2.6,2.1h0.1c0.3-3.4,0.5-6.7,0.8-10.1c1-0.2,2-0.4,3-0.6
			c-0.6,8.2-1.2,16.4-1.8,24.6c-0.1,1.3-0.2,3.1-0.3,5.4c-0.9-0.1-1.7-0.1-2.6-0.2c0-0.5-0.1-1.5-0.2-3h-0.1c-0.9,0.9-2,1.6-3.4,2.2
			c-1.4,0.5-2.9,0.7-4.5,0.6C172.7,63.1,170.9,62.5,169.4,61.5z M179.7,60.2c1.3-0.6,2.4-1.5,3.1-2.6c0.2-2.3,0.4-4.7,0.5-7
			c0.1-1.8-0.4-3.4-1.5-4.7s-2.8-2-4.9-2.2c-1.5-0.1-2.9,0.1-4.2,0.8c-1.2,0.6-2.3,1.6-3,2.8c-0.8,1.3-1.2,2.7-1.4,4.4
			c-0.2,1.8,0,3.3,0.6,4.7s1.4,2.4,2.5,3.2s2.4,1.2,3.9,1.4C176.9,61.1,178.4,60.8,179.7,60.2z"/>
		<path class="st1" d="M193.5,62.8c-1.4-1.3-2-3.1-1.9-5.2c0.1-1.7,0.8-3,2.1-3.8c1.3-0.9,3.1-1.2,5.5-1.1c1.2,0.1,2.3,0.1,3.5,0.2
			c1.1,0.1,2.3,0.2,3.8,0.3c0-0.7,0.1-1.3,0.1-2c0.1-2-0.3-3.4-1.2-4.3c-0.9-0.9-2.3-1.4-4.3-1.6c-2.1-0.1-4.3,0.1-6.6,0.6
			c-0.1-0.8-0.1-1.5-0.2-2.3c1-0.2,2.2-0.4,3.5-0.6c1.3-0.1,2.6-0.2,3.9-0.1c2.7,0.1,4.7,0.9,6,2.2c1.4,1.3,2,3.2,1.9,5.7
			c-0.1,3-0.3,5.9-0.4,8.9c-0.1,1.3-0.1,3.1-0.1,5.4c-0.9,0-1.7-0.1-2.6-0.1c-0.1-0.6-0.1-1.5-0.3-2.7h-0.1
			c-0.6,0.9-1.5,1.6-2.7,2.1s-2.6,0.7-4.3,0.6C196.7,64.9,194.9,64.1,193.5,62.8z M204.3,61.4c1.2-0.9,1.8-2.2,1.9-3.9
			c0-0.7,0.1-1.4,0.1-2.2c-2.6-0.1-5.1-0.3-7.7-0.4c-1.2-0.1-2.1,0.1-2.8,0.5s-1,1.2-1.1,2.3c-0.1,1.4,0.3,2.6,1.3,3.4
			c0.9,0.8,2.2,1.3,3.7,1.4C201.6,62.7,203.2,62.3,204.3,61.4z"/>
		<path class="st1" d="M219.5,64.5c-1.6-1-2.8-2.3-3.6-4s-1.2-3.6-1.1-5.7c0.1-2.2,0.6-4.2,1.7-5.8c1-1.7,2.4-2.9,4.1-3.8
			c1.7-0.9,3.5-1.3,5.5-1.3c1.5,0,2.9,0.3,4.1,0.9c1.2,0.5,2.1,1.2,2.7,2h0.1c0-3.4,0.1-6.8,0.1-10.1c1-0.3,2-0.5,3-0.8
			c-0.1,8.2-0.2,16.4-0.2,24.6c0,1.3,0,3.1,0,5.4c-0.9,0-1.7,0-2.6,0c-0.1-0.5-0.2-1.5-0.3-3h-0.1c-0.8,1-1.9,1.8-3.3,2.4
			c-1.3,0.6-2.8,0.9-4.4,0.9C223,66,221.1,65.5,219.5,64.5z M229.8,62.6c1.3-0.7,2.3-1.6,3-2.8c0-2.3,0.1-4.7,0.1-7
			c0-1.8-0.6-3.4-1.8-4.6c-1.2-1.2-2.9-1.9-5-1.9c-1.5,0-2.9,0.3-4.1,1c-1.2,0.7-2.2,1.7-2.9,3s-1.1,2.8-1.1,4.5
			c-0.1,1.8,0.2,3.3,0.9,4.6c0.6,1.3,1.5,2.3,2.7,3.1c1.2,0.7,2.5,1.1,4,1.1C227.1,63.6,228.5,63.3,229.8,62.6z"/>
		<path class="st1" d="M245.6,64.8c-1.7-1-2.9-2.3-3.7-4s-1.3-3.6-1.2-5.6c0-2.1,0.4-4,1.3-5.7c0.9-1.7,2.1-3,3.8-4s3.7-1.5,6-1.5
			c2.2,0,4.1,0.4,5.7,1.4c1.6,0.9,2.8,2.3,3.7,3.9c0.9,1.7,1.3,3.6,1.4,5.6c0,2-0.3,3.9-1.1,5.6c-0.8,1.7-2.1,3.1-3.7,4.1
			c-1.7,1-3.7,1.6-6.1,1.6C249.2,66.2,247.2,65.8,245.6,64.8z M257.2,61.4c1.4-1.6,2.1-3.7,2-6.5c-0.1-2.7-0.8-4.8-2.2-6.3
			s-3.3-2.3-5.6-2.3s-4.2,0.8-5.6,2.4c-1.4,1.6-2.1,3.7-2.1,6.4c0,1.8,0.3,3.3,1,4.7c0.7,1.3,1.6,2.3,2.8,3s2.5,1.1,4.1,1
			C253.9,63.8,255.8,63,257.2,61.4z"/>
		<path class="st1" d="M281.1,64c-1.7-0.8-3-2.1-3.9-3.7c-1-1.6-1.5-3.5-1.6-5.6c-0.1-2.2,0.3-4.2,1.3-5.9c0.9-1.7,2.2-3.1,3.8-4.1
			s3.4-1.6,5.4-1.7c1.5-0.1,2.9,0.1,4.1,0.6c1.2,0.4,2.2,1,2.8,1.8h0.1c-0.2-3.4-0.4-6.7-0.6-10.1c1-0.3,1.9-0.7,2.9-1
			c0.5,8.2,1.1,16.4,1.6,24.6c0.1,1.3,0.2,3.1,0.4,5.4c-0.9,0.1-1.7,0.1-2.6,0.2c-0.1-0.5-0.3-1.5-0.6-2.9h-0.1
			c-0.8,1-1.8,1.9-3.1,2.6s-2.7,1.1-4.3,1.2C284.7,65.2,282.8,64.9,281.1,64z M291.2,61.4c1.2-0.8,2.1-1.8,2.8-3
			c-0.1-2.3-0.3-4.7-0.4-7c-0.1-1.8-0.8-3.3-2.1-4.5c-1.3-1.1-3-1.7-5.2-1.5c-1.5,0.1-2.9,0.5-4,1.3s-2,1.9-2.6,3.2
			c-0.6,1.4-0.9,2.9-0.8,4.6c0.1,1.8,0.5,3.3,1.2,4.6s1.7,2.2,2.9,2.8s2.6,0.9,4,0.8C288.6,62.6,290,62.2,291.2,61.4z"/>
		<path class="st1" d="M305,61.2c-2.1-1.7-3.3-4.4-3.6-8.1c-0.2-2.1,0.1-4.1,0.9-5.8c0.7-1.7,1.8-3.1,3.3-4.2
			c1.5-1.1,3.3-1.7,5.5-1.9c2.9-0.2,5.2,0.4,6.8,1.9s2.5,3.6,2.9,6.2c0.1,1.1,0.1,2.1,0.1,3c-5.4,0.5-10.8,1-16.2,1.4
			c0.3,2.4,1.1,4.3,2.6,5.6s3.6,1.8,6.4,1.6c1-0.1,2-0.3,3.2-0.6s2.2-0.8,3.1-1.3c0.2,0.7,0.5,1.5,0.7,2.2c-2.3,1.2-4.7,1.9-7.1,2.2
			C309.9,63.6,307.1,62.9,305,61.2z M317.7,50.3c0-0.2,0-0.6-0.1-1.1c-0.2-1.8-0.8-3.2-1.8-4.2s-2.6-1.5-4.7-1.3
			c-2.2,0.2-3.8,1-5,2.4c-1.1,1.4-1.7,3.2-1.7,5.3C308.8,51,313.2,50.7,317.7,50.3z"/>
		<path class="st1" d="M333.3,31.6c1-0.4,1.9-0.8,2.9-1.2c1.2,10,2.3,19.9,3.5,29.9c-1,0.1-2,0.2-3.1,0.4
			C335.5,51,334.4,41.3,333.3,31.6z"/>
		<path class="st1" d="M349.4,58c-1.8-0.8-3.2-1.9-4.2-3.5c-1.1-1.6-1.7-3.4-2-5.4c-0.3-2.1-0.1-4,0.6-5.8c0.6-1.8,1.7-3.2,3.3-4.4
			c1.5-1.2,3.4-1.9,5.8-2.2c2.2-0.3,4.1-0.1,5.8,0.6c1.7,0.7,3.1,1.9,4.2,3.4c1.1,1.6,1.8,3.4,2.1,5.4s0.2,3.9-0.4,5.7
			c-0.6,1.8-1.7,3.3-3.2,4.5s-3.5,2-5.9,2.3C353.1,59,351.1,58.8,349.4,58z M360.6,53.2c1.2-1.8,1.6-4,1.2-6.7c-0.4-2.7-1.4-4.6-3-6
			s-3.6-1.9-5.9-1.6c-2.3,0.3-4,1.3-5.2,3.1c-1.2,1.7-1.6,3.9-1.3,6.6c0.2,1.8,0.7,3.3,1.6,4.5c0.8,1.2,1.9,2.1,3.1,2.7
			c1.3,0.6,2.7,0.7,4.2,0.5C357.6,56,359.4,55,360.6,53.2z"/>
		<path class="st1" d="M373.9,55.5c-1.3-0.1-2.5-0.3-3.5-0.6c0-0.8-0.1-1.7-0.1-2.5c1.1,0.4,2.3,0.6,3.5,0.7c1.2,0.1,2.4,0,3.6-0.1
			c1.6-0.3,2.8-0.8,3.6-1.6s1.1-1.7,0.9-2.9c-0.1-0.8-0.4-1.4-0.8-1.8c-0.4-0.4-0.9-0.7-1.6-0.9c-0.7-0.2-1.7-0.4-3.2-0.7
			c-2.6-0.5-4.5-1.1-5.6-1.9c-1.2-0.8-1.8-1.9-2.1-3.4c-0.3-1.7,0.2-3.1,1.5-4.3c1.2-1.2,3-2,5.3-2.4c1.9-0.3,3.8-0.3,5.7,0
			c0,0.8,0.1,1.6,0.1,2.4c-1.9-0.3-3.7-0.3-5.3-0.1c-1.5,0.3-2.6,0.7-3.4,1.4c-0.7,0.7-1,1.5-0.9,2.4s0.6,1.6,1.4,2.1
			c0.8,0.5,2.2,0.9,4.2,1.2c2.3,0.4,4.1,0.9,5.3,1.6c1.2,0.7,1.9,1.9,2.2,3.5c0.3,2-0.1,3.6-1.4,5c-1.3,1.3-3.1,2.2-5.4,2.6
			C376.5,55.5,375.2,55.6,373.9,55.5z"/>
		<path class="st1" d="M99.3,81.2c0.9,0.2,1.9,0.3,2.8,0.5c0,0.6,0,1.3-0.1,1.9c1.2-0.5,2.5-0.8,3.9-1s2.7-0.2,4.1,0
			c1.3,0.2,2.4,0.6,3.4,1.2s1.8,1.4,2.3,2.3c1.3-0.6,2.7-1,4.3-1.2c1.6-0.3,3.1-0.3,4.5-0.1c2.5,0.3,4.2,1.3,5.4,2.7
			c1.1,1.5,1.6,3.4,1.2,5.9c-0.6,4.7-1.2,9.3-1.9,14c-1.1-0.1-2.2-0.3-3.2-0.4c0.6-4.3,1.2-8.6,1.8-12.9c0.3-1.9,0.1-3.4-0.3-4.5
			c-0.6-1.4-2-2.2-4.1-2.5c-1.1-0.2-2.3-0.1-3.7,0.1s-2.6,0.6-3.5,1.1c0.1,0.9,0.1,2-0.2,3.4c-0.7,4.5-1.4,9-2,13.5
			c-1.1-0.2-2.2-0.3-3.2-0.5c0.7-4.3,1.3-8.6,2-12.8c0.2-1.1,0.2-2,0.2-2.6c0-0.7-0.1-1.3-0.3-1.9c-0.6-1.4-1.9-2.2-3.9-2.6
			c-1.2-0.2-2.5-0.2-3.8,0.1c-1.3,0.3-2.4,0.6-3.3,1.1c-0.9,5.6-1.9,11.2-2.8,16.8c-1.1-0.2-2.1-0.4-3.2-0.6
			C96.8,95.3,98,88.2,99.3,81.2z"/>
		<path class="st1" d="M137.6,107c-1.4-1.4-2-3.2-1.7-5.3c0.2-1.7,1-2.9,2.5-3.7c1.4-0.8,3.4-1,5.9-0.7c1.2,0.1,2.5,0.3,3.7,0.4
			c1.1,0.1,2.5,0.3,4,0.6c0.1-0.7,0.1-1.3,0.2-2c0.2-2-0.1-3.4-1-4.4s-2.4-1.6-4.5-1.8c-2.2-0.3-4.6-0.2-7,0.1c0-0.8,0-1.5-0.1-2.3
			c1.1-0.2,2.3-0.3,3.7-0.3s2.8,0,4.1,0.2c2.8,0.3,4.9,1.2,6.3,2.6c1.4,1.4,1.9,3.3,1.7,5.8c-0.3,2.9-0.6,5.9-0.9,8.8
			c-0.1,1.3-0.3,3.1-0.5,5.4c-0.9-0.1-1.8-0.2-2.7-0.3c0-0.6-0.1-1.5-0.1-2.7h-0.1c-0.7,0.9-1.7,1.5-3,1.9s-2.8,0.5-4.6,0.3
			C141,109.3,139,108.5,137.6,107z M149.2,106.4c1.3-0.8,2-2.1,2.2-3.7c0.1-0.7,0.2-1.4,0.2-2.2c-2.7-0.3-5.4-0.6-8.2-0.9
			c-1.2-0.1-2.2,0-3,0.3c-0.7,0.4-1.2,1.1-1.3,2.2c-0.2,1.4,0.2,2.6,1.2,3.5s2.2,1.5,3.9,1.7C146.3,107.5,147.9,107.2,149.2,106.4z
			 M143.7,83c3.3-1.3,6.5-2.6,9.7-4c0.5,0.9,1,1.8,1.5,2.8c-3.3,1.1-6.7,2.2-10.1,3.3C144.5,84.4,144.1,83.7,143.7,83z"/>
		<path class="st1" d="M163.3,111.3c-1.3-0.4-2.5-0.9-3.4-1.5c0.2-0.8,0.4-1.6,0.6-2.5c1,0.6,2.2,1.1,3.4,1.5s2.5,0.7,3.7,0.8
			c1.7,0.2,3.1,0,4.1-0.6c1-0.5,1.5-1.4,1.6-2.5c0.1-0.8,0-1.4-0.3-1.9s-0.8-0.9-1.4-1.2c-0.6-0.4-1.7-0.8-3.1-1.5
			c-2.5-1.1-4.3-2.2-5.3-3.3c-1-1.1-1.4-2.3-1.2-3.8c0.2-1.7,1-2.9,2.6-3.8c1.6-0.8,3.6-1.2,6-0.9c2,0.2,3.9,0.6,5.8,1.4
			c-0.2,0.8-0.4,1.6-0.5,2.4c-1.9-0.8-3.7-1.2-5.4-1.4c-1.6-0.1-2.9,0-3.8,0.5c-0.9,0.5-1.4,1.2-1.5,2.1s0.2,1.7,0.9,2.3
			c0.7,0.7,2,1.4,4,2.3c2.3,0.9,4,1.9,5,2.9s1.5,2.3,1.3,3.9c-0.2,2-1.1,3.5-2.7,4.5c-1.7,1-3.8,1.4-6.3,1.1
			C165.9,111.9,164.6,111.7,163.3,111.3z"/>
		<path class="st1" d="M192.7,92.1c1,0.1,1.9,0.1,2.9,0.2c0,1.1,0,2.2,0,3.3c1-1.1,2.2-1.9,3.7-2.5s3.1-0.8,4.8-0.7
			c1.9,0.1,3.7,0.6,5.3,1.5s2.9,2.2,3.8,3.9c0.9,1.7,1.4,3.6,1.3,5.9c-0.1,2.2-0.6,4.2-1.7,5.9c-1.1,1.7-2.5,2.9-4.3,3.8
			s-3.8,1.2-6,1.1c-1.6-0.1-3.1-0.4-4.5-1c-1.3-0.6-2.4-1.3-3.3-2.1c-0.2,3.7-0.4,7.4-0.6,11.1c-1.1,0.2-2.2,0.4-3.3,0.7
			C191.4,112.7,192,102.4,192.7,92.1z M208.7,109.8c1.5-1.6,2.2-3.7,2.3-6.2c0.1-1.8-0.2-3.4-0.9-4.7c-0.6-1.3-1.6-2.3-2.7-3
			c-1.2-0.7-2.5-1.1-4-1.2c-1.4-0.1-2.7,0.2-3.9,0.7s-2.2,1.3-2.9,2.2c-0.8,1-1.2,2-1.2,3.1c-0.1,2.5-0.3,5-0.4,7.6
			c0.8,1,1.9,1.9,3.2,2.6s2.8,1.1,4.4,1.1C205.2,112.2,207.3,111.4,208.7,109.8z"/>
		<path class="st1" d="M221.5,112.4c-2.1-1.9-3-4.7-2.9-8.4c0.1-2.1,0.6-4,1.5-5.7s2.3-2.9,4-3.9c1.7-0.9,3.7-1.4,6-1.3
			c3.1,0.1,5.4,0.9,7,2.5c1.5,1.7,2.3,3.8,2.4,6.5c0,1.1-0.1,2.1-0.2,3c-5.8,0-11.5-0.1-17.3-0.3c0,2.5,0.7,4.4,2.1,5.8
			c1.4,1.4,3.6,2.2,6.6,2.2c1,0,2.2-0.1,3.4-0.3c1.3-0.2,2.4-0.5,3.4-1c0.2,0.8,0.3,1.5,0.5,2.3c-2.5,1-5.1,1.5-7.8,1.4
			C226.4,115.3,223.6,114.3,221.5,112.4z M236,102.8c0-0.2,0.1-0.6,0.1-1.1c0-1.8-0.5-3.3-1.5-4.4s-2.6-1.7-4.8-1.7
			c-2.3,0-4.1,0.6-5.5,1.9s-2.1,3-2.4,5.1C226.6,102.6,231.3,102.7,236,102.8z"/>
		<path class="st1" d="M262.7,112.1c-0.8,0.9-1.9,1.7-3.3,2.3c-1.4,0.6-2.9,0.9-4.6,0.9c-2.2,0-4.2-0.4-5.9-1.3
			c-1.8-0.9-3.1-2.2-4.1-3.8c-1-1.7-1.5-3.7-1.5-6c0-2.2,0.6-4.2,1.7-5.9c1.1-1.7,2.5-2.9,4.3-3.8c1.7-0.9,3.5-1.4,5.4-1.4
			c1.8,0,3.3,0.2,4.7,0.8c1.3,0.6,2.4,1.3,3.1,2.3c0.1-1,0.2-1.9,0.3-2.9c0.9,0,1.8,0,2.7-0.1c0.3,10.1,0.5,20.1,0.8,30.2
			c-1.1,0.3-2.2,0.6-3.3,0.9C262.8,120.4,262.8,116.2,262.7,112.1z M259.5,111.8c1.3-0.7,2.4-1.7,3.1-2.8c-0.1-2.4-0.1-4.8-0.2-7.2
			c0-1-0.3-2-1-3c-0.6-1-1.5-1.7-2.7-2.3c-1.1-0.6-2.5-0.9-4-0.8c-1.4,0-2.8,0.4-4.1,1.1s-2.3,1.7-3,3c-0.8,1.3-1.1,2.8-1.1,4.6
			c0,1.7,0.3,3.2,1,4.5s1.7,2.4,2.9,3.1c1.3,0.7,2.8,1.1,4.5,1.1C256.7,112.9,258.2,112.6,259.5,111.8z"/>
		<path class="st1" d="M275.6,112.8c-1.8-1.3-2.8-3.4-2.9-6.3c-0.1-4.5-0.3-8.9-0.4-13.4c1.1,0,2.1-0.1,3.2-0.1
			c0.2,4.5,0.3,9,0.5,13.5c0.1,1.9,0.7,3.3,2,4.3s3,1.4,5.1,1.3s3.7-0.7,4.7-1.8c1-1.1,1.5-2.6,1.4-4.4c-0.2-4.5-0.5-9-0.7-13.5
			c1.1-0.1,2.1-0.1,3.2-0.2c0.2,4.5,0.5,8.9,0.7,13.4c0.1,2.6-0.6,4.7-2.2,6.3c-1.6,1.6-4,2.5-7.1,2.6
			C280,114.7,277.5,114.1,275.6,112.8z"/>
		<path class="st1" d="M301.3,110.8c-2.2-1.7-3.4-4.4-3.7-8.1c-0.1-2.1,0.2-4.1,1-5.8c0.8-1.7,2-3.1,3.6-4.2s3.6-1.7,5.8-1.9
			c3.1-0.2,5.5,0.4,7.2,1.9s2.7,3.6,2.9,6.3c0.1,1.1,0.1,2.1,0.1,3c-5.7,0.5-11.5,0.9-17.2,1.3c0.3,2.4,1.1,4.3,2.7,5.6
			c1.5,1.3,3.8,1.8,6.8,1.6c1-0.1,2.1-0.3,3.4-0.6c1.2-0.3,2.3-0.8,3.3-1.3c0.2,0.7,0.5,1.5,0.7,2.2c-2.4,1.2-5,1.9-7.6,2.1
			C306.5,113.2,303.6,112.5,301.3,110.8z M314.9,99.9c0-0.2,0-0.6,0-1.1c-0.2-1.8-0.8-3.2-1.9-4.2c-1.1-1-2.7-1.5-5-1.3
			s-4.1,1-5.3,2.4s-1.9,3.2-1.9,5.3C305.6,100.6,310.3,100.3,314.9,99.9z"/>
		<path class="st1" d="M322.8,90c1-0.1,1.9-0.2,2.9-0.3c0.2,0.6,0.3,1.3,0.5,1.9c1.1-0.8,2.4-1.5,3.9-2.1c1.4-0.6,2.9-0.9,4.3-1.1
			c2.7-0.3,4.7,0.1,6.2,1.3c0.7,0.6,1.2,1.2,1.6,2.1c0.4,0.8,0.7,1.9,0.8,3.1c0.6,4.8,1.1,9.5,1.7,14.3c-1.1,0.1-2.2,0.2-3.2,0.4
			c-0.5-4.7-1-9.3-1.6-14c-0.2-1.7-0.7-2.9-1.5-3.7c-0.5-0.5-1.1-0.8-1.8-0.9c-0.7-0.2-1.6-0.2-2.6-0.1c-1.3,0.1-2.6,0.5-3.9,1
			c-1.3,0.6-2.5,1.2-3.5,2.1c0.5,5.6,1.1,11.3,1.6,16.9c-1.1,0.1-2.2,0.2-3.2,0.3C324.1,104.2,323.4,97.1,322.8,90z M324.6,85
			c0.3-1.4,0.9-2.5,1.7-3.3s1.7-1.3,2.6-1.4c0.6-0.1,1.2,0,1.8,0.1s1.2,0.4,2,0.8c1.3,0.6,2.2,0.9,2.8,0.8c0.5-0.1,0.9-0.3,1.2-0.7
			c0.3-0.4,0.5-1,0.7-1.8c0.7,0.2,1.4,0.5,2.2,0.7c-0.2,1.2-0.6,2.2-1.3,3s-1.5,1.3-2.6,1.4c-0.6,0.1-1.2,0-1.8-0.1
			s-1.2-0.4-1.9-0.7c-0.7-0.3-1.2-0.5-1.7-0.7c-0.5-0.1-0.9-0.2-1.2-0.1c-0.5,0.1-1,0.3-1.4,0.8s-0.7,1.1-0.9,1.9
			C326,85.5,325.3,85.2,324.6,85z"/>
		<path class="st1" d="M355.2,106.9c-1.9-0.7-3.3-1.9-4.4-3.4c-1.1-1.6-1.8-3.4-2-5.4c-0.3-2.1,0-4,0.7-5.8s1.9-3.3,3.5-4.4
			c1.6-1.2,3.7-1.9,6.1-2.3c2.3-0.3,4.4-0.1,6.2,0.6s3.3,1.8,4.4,3.4c1.1,1.5,1.8,3.3,2.1,5.4c0.3,2,0.1,3.9-0.5,5.7
			c-0.6,1.8-1.8,3.3-3.4,4.6c-1.6,1.2-3.7,2-6.2,2.4C359.2,107.8,357.1,107.6,355.2,106.9z M367.1,102c1.3-1.8,1.7-4,1.3-6.7
			s-1.4-4.6-3.1-6c-1.7-1.3-3.8-1.8-6.2-1.5s-4.3,1.4-5.6,3.1c-1.3,1.8-1.8,4-1.4,6.6c0.2,1.8,0.8,3.3,1.6,4.5
			c0.9,1.2,2,2.1,3.3,2.7c1.3,0.5,2.8,0.7,4.4,0.5C363.9,104.8,365.8,103.8,367.1,102z"/>
		<path class="st1" d="M381.1,104.2c-1.4-0.1-2.6-0.3-3.7-0.6c0-0.8,0-1.7-0.1-2.5c1.2,0.3,2.4,0.6,3.7,0.6c1.3,0.1,2.6,0,3.8-0.2
			c1.7-0.3,3-0.8,3.8-1.6c0.8-0.8,1.2-1.7,1-2.9c-0.1-0.8-0.4-1.4-0.8-1.8c-0.4-0.4-1-0.7-1.7-0.9c-0.7-0.2-1.8-0.4-3.3-0.6
			c-2.7-0.4-4.7-1.1-5.9-1.8c-1.2-0.8-1.9-1.9-2.2-3.4c-0.3-1.7,0.3-3.1,1.6-4.3c1.3-1.2,3.2-2,5.6-2.4c2-0.3,4-0.3,6-0.1
			c0,0.8,0,1.6,0.1,2.4c-2-0.3-3.9-0.3-5.6,0c-1.6,0.3-2.8,0.7-3.6,1.4c-0.8,0.7-1.1,1.5-1,2.4s0.6,1.5,1.4,2.1
			c0.8,0.5,2.3,0.9,4.5,1.2c2.5,0.3,4.3,0.9,5.6,1.6c1.2,0.7,2,1.9,2.3,3.5c0.3,2-0.2,3.6-1.5,5c-1.4,1.4-3.3,2.2-5.8,2.7
			C383.9,104.2,382.5,104.2,381.1,104.2z"/>
	</g>
</g>
<path class="st0" d="M487.6-45.7C326.5-15,161.1-15,0-45.7C7.3-83.8,14.5-122,21.8-160.1c146.7,28,297.3,28,443.9,0L487.6-45.7"/>
<g>
	<g>
		<path class="st1" d="M87.6-78c-2-1.6-3.4-3.5-4.2-5.8s-1-4.8-0.5-7.4c0.5-2.7,1.5-5.1,3.1-7s3.6-3.3,6-4.2c2.4-0.8,5.1-1,8-0.6
			c1.6,0.3,3.1,0.7,4.6,1.3c1.5,0.6,2.7,1.3,3.7,2c-0.3,0.9-0.5,1.7-0.8,2.6c-2.3-1.7-5-2.9-8-3.3c-2.3-0.4-4.4-0.2-6.3,0.5
			c-1.9,0.7-3.5,1.8-4.7,3.5c-1.2,1.6-2.1,3.5-2.5,5.8c-0.4,2.2-0.2,4.3,0.5,6.2c0.7,1.9,1.8,3.5,3.4,4.7c1.6,1.2,3.5,2,5.8,2.4
			c1.5,0.2,3.1,0.3,4.6,0.2c1.6-0.1,3-0.4,4.3-0.8c0,0.9,0,1.7,0,2.6c-2.9,0.9-6.1,1.1-9.4,0.6C92.2-75.4,89.7-76.4,87.6-78z"/>
		<path class="st1" d="M110.9-74.6c-1.5-1.6-2-3.8-1.6-6.7c0.6-4.4,1.3-8.8,1.9-13.3c1,0.1,2,0.3,3,0.4c-0.6,4.5-1.3,8.9-1.9,13.4
			c-0.3,1.9,0.1,3.4,1.1,4.6s2.5,1.9,4.5,2.2c2,0.3,3.5-0.1,4.6-1s1.8-2.3,2-4.1c0.6-4.5,1.1-8.9,1.7-13.4c1,0.1,2,0.2,3,0.4
			c-0.5,4.4-1.1,8.9-1.6,13.3c-0.3,2.6-1.4,4.5-3.1,5.8c-1.8,1.3-4.1,1.8-7,1.4S112.3-73,110.9-74.6z"/>
		<path class="st1" d="M136.1-95.6c-0.4-0.5-0.6-1.1-0.5-1.7c0.1-0.7,0.4-1.2,0.9-1.5c0.5-0.4,1.1-0.5,1.7-0.5
			c0.7,0.1,1.2,0.4,1.6,0.8c0.4,0.5,0.6,1.1,0.5,1.7c-0.1,0.7-0.4,1.2-0.9,1.6s-1.1,0.5-1.8,0.5C137-94.9,136.5-95.2,136.1-95.6z
			 M135.8-91.3c1,0.1,2,0.2,3,0.3c-0.8,7.1-1.6,14.2-2.4,21.3c-1-0.1-2-0.2-3-0.3C134.1-77.2,135-84.3,135.8-91.3z"/>
		<path class="st1" d="M147-69.6c-1.5-1.1-2.6-2.5-3.3-4.2c-0.7-1.8-0.9-3.7-0.7-5.8c0.2-2.2,0.9-4.1,2.1-5.7
			c1.2-1.6,2.6-2.8,4.4-3.5c1.8-0.8,3.6-1,5.5-0.9c1.5,0.1,2.9,0.5,4,1.2c1.2,0.6,2,1.3,2.5,2.2h0.1c0.3-3.4,0.6-6.7,0.9-10.1
			c1-0.2,2-0.4,3-0.6c-0.7,8.2-1.4,16.4-2.1,24.6c-0.1,1.3-0.2,3.1-0.4,5.4c-0.8-0.1-1.7-0.1-2.5-0.2c0-0.5-0.1-1.5-0.1-3h-0.1
			c-0.9,0.9-2,1.6-3.4,2.1s-2.9,0.7-4.5,0.5C150.4-67.8,148.6-68.5,147-69.6z M157.4-70.7c1.3-0.6,2.4-1.5,3.2-2.6
			c0.2-2.3,0.4-4.7,0.6-7c0.2-1.8-0.3-3.4-1.5-4.7c-1.1-1.3-2.8-2.1-4.9-2.3c-1.5-0.1-2.9,0.1-4.2,0.7c-1.2,0.6-2.3,1.6-3.1,2.8
			c-0.8,1.3-1.3,2.7-1.4,4.4c-0.2,1.8,0,3.3,0.5,4.7c0.5,1.4,1.4,2.4,2.5,3.2c1.1,0.8,2.4,1.3,3.9,1.4
			C154.6-69.9,156-70.1,157.4-70.7z"/>
		<path class="st1" d="M171-68c-1.4-1.4-2-3.1-1.8-5.2c0.1-1.7,0.9-3,2.2-3.8s3.1-1.2,5.5-1c1.2,0.1,2.3,0.2,3.5,0.2
			c1.1,0.1,2.3,0.2,3.8,0.4c0-0.7,0.1-1.3,0.1-2c0.1-2-0.3-3.4-1.2-4.4c-0.9-0.9-2.3-1.5-4.3-1.6c-2.1-0.1-4.3,0-6.6,0.5
			c-0.1-0.8-0.1-1.5-0.2-2.3c1-0.2,2.2-0.4,3.5-0.5s2.6-0.1,3.9,0c2.7,0.2,4.7,0.9,6,2.3c1.3,1.3,2,3.2,1.8,5.7
			c-0.2,3-0.3,5.9-0.5,8.9c-0.1,1.3-0.2,3.1-0.2,5.4c-0.8,0-1.7-0.1-2.5-0.2c-0.1-0.6-0.1-1.5-0.2-2.7h-0.1
			c-0.7,0.9-1.6,1.6-2.7,2.1c-1.2,0.5-2.6,0.7-4.3,0.5C174.3-65.8,172.4-66.6,171-68z M181.9-69.2c1.2-0.9,1.8-2.2,1.9-3.8
			c0-0.7,0.1-1.4,0.1-2.2c-2.6-0.2-5.1-0.3-7.7-0.5c-1.2-0.1-2.1,0.1-2.8,0.5s-1.1,1.2-1.1,2.3c-0.1,1.4,0.3,2.6,1.2,3.4
			c0.9,0.9,2.2,1.3,3.7,1.5C179.2-67.9,180.7-68.3,181.9-69.2z"/>
		<path class="st1" d="M197-65.9c-1.6-1-2.8-2.3-3.6-4.1c-0.8-1.7-1.1-3.6-1-5.8c0.1-2.2,0.7-4.1,1.8-5.8c1.1-1.7,2.5-2.9,4.2-3.8
			c1.7-0.8,3.5-1.2,5.5-1.2c1.5,0.1,2.9,0.4,4.1,0.9c1.2,0.6,2.1,1.2,2.7,2h0.1c0.1-3.4,0.2-6.7,0.3-10.1c1-0.3,2-0.5,3-0.8
			c-0.2,8.2-0.5,16.4-0.7,24.6c0,1.3-0.1,3.1-0.1,5.4c-0.9,0-1.7-0.1-2.6-0.1c-0.1-0.5-0.2-1.5-0.3-3h-0.1c-0.9,1-2,1.7-3.3,2.3
			c-1.4,0.6-2.8,0.8-4.4,0.8C200.4-64.3,198.5-64.9,197-65.9z M207.2-67.6c1.3-0.7,2.3-1.6,3-2.7c0.1-2.3,0.2-4.7,0.2-7
			c0.1-1.8-0.5-3.4-1.7-4.6c-1.2-1.3-2.9-1.9-5-2c-1.5-0.1-2.9,0.2-4.1,0.9c-1.2,0.7-2.2,1.7-2.9,3s-1.1,2.8-1.2,4.5
			c-0.1,1.8,0.2,3.3,0.8,4.7c0.6,1.3,1.5,2.4,2.7,3.1s2.5,1.1,3.9,1.2C204.5-66.6,205.9-66.9,207.2-67.6z"/>
		<path class="st1" d="M222.9-65.1c-1.6-1-2.8-2.4-3.6-4.1c-0.8-1.7-1.2-3.6-1.1-5.7c0.1-2.1,0.5-4,1.4-5.6c0.9-1.7,2.2-3,3.9-3.9
			s3.7-1.4,6-1.4c2.2,0,4.1,0.5,5.7,1.5c1.6,1,2.8,2.3,3.6,4s1.2,3.6,1.2,5.7c0,2-0.4,3.9-1.3,5.6c-0.8,1.7-2.1,3-3.8,4
			s-3.7,1.5-6.1,1.4C226.4-63.6,224.5-64.1,222.9-65.1z M234.6-68.2c1.4-1.6,2.1-3.7,2.1-6.4c0-2.7-0.7-4.8-2.1-6.4
			c-1.4-1.6-3.2-2.4-5.5-2.4s-4.2,0.7-5.6,2.3c-1.4,1.5-2.2,3.7-2.2,6.3c0,1.8,0.3,3.3,0.9,4.7c0.6,1.3,1.5,2.4,2.7,3.1
			s2.5,1.1,4,1.1C231.3-65.8,233.2-66.6,234.6-68.2z"/>
		<path class="st1" d="M254.6-91.7c5.8-0.1,11.6-0.2,17.4-0.4c-0.4,0.9-0.7,1.8-1.1,2.7c-4.4,0.1-8.9,0.3-13.3,0.3
			c0.1,3.5,0.1,6.9,0.2,10.4c4-0.1,8.1-0.2,12.1-0.3c0,0.9-0.1,1.8-0.1,2.6c-4,0.1-8,0.2-12,0.3c0.1,4,0.1,8,0.2,12.1
			c-1,0-2.1,0-3.1,0.1C254.9-73.2,254.8-82.4,254.6-91.7z"/>
		<path class="st1" d="M276-66c-1.5-1.2-2.3-2.9-2.4-5c-0.1-1.7,0.5-3,1.7-4s3-1.5,5.3-1.6c1.2-0.1,2.3-0.1,3.5-0.2
			c1.1-0.1,2.3-0.1,3.8,0c0-0.7-0.1-1.3-0.1-2c-0.1-2-0.6-3.4-1.6-4.2c-1-0.8-2.5-1.2-4.4-1.1c-2.1,0.1-4.3,0.5-6.5,1.2
			c-0.1-0.8-0.3-1.5-0.4-2.3c1-0.3,2.1-0.6,3.4-0.9c1.3-0.3,2.6-0.4,3.9-0.5c2.7-0.1,4.7,0.4,6.2,1.6s2.3,3,2.4,5.5
			c0.2,3,0.3,5.9,0.5,8.9c0.1,1.3,0.2,3.1,0.4,5.4c-0.8,0-1.7,0.1-2.5,0.1c-0.1-0.6-0.3-1.4-0.5-2.6h-0.1c-0.5,1-1.4,1.8-2.5,2.4
			s-2.5,0.9-4.2,1C279.4-64.3,277.5-64.8,276-66z M286.6-68.4c1.1-1,1.6-2.3,1.5-4c0-0.7-0.1-1.4-0.1-2.2c-2.6,0.1-5.1,0.3-7.7,0.4
			c-1.2,0.1-2.1,0.3-2.7,0.8c-0.6,0.5-0.9,1.3-0.9,2.4c0.1,1.4,0.6,2.5,1.6,3.3s2.3,1.1,3.8,1C284.1-66.9,285.5-67.4,286.6-68.4z"/>
		<path class="st1" d="M297-87c0.9-0.1,1.8-0.1,2.7-0.2c0.1,0.6,0.2,1.3,0.4,1.9c1-0.7,2.1-1.4,3.4-1.9c1.2-0.5,2.5-0.8,3.7-0.9
			s2.3,0.1,3.4,0.4c1,0.4,1.9,0.9,2.6,1.7c1-0.9,2.3-1.6,3.6-2.2c1.4-0.6,2.8-1,4.1-1.1c2.3-0.2,4.2,0.3,5.5,1.5
			c1.4,1.2,2.2,3,2.4,5.5c0.5,4.7,0.9,9.4,1.4,14.1c-1,0.1-2,0.2-3.1,0.3c-0.4-4.3-0.8-8.6-1.2-12.9c-0.2-1.9-0.6-3.3-1.3-4.3
			c-0.9-1.2-2.3-1.7-4.3-1.6c-1,0.1-2.1,0.4-3.3,0.9s-2.2,1.2-3,1.9c0.3,0.9,0.5,2,0.6,3.4c0.4,4.5,0.7,9.1,1.1,13.6
			c-1,0.1-2,0.2-3.1,0.2c-0.3-4.3-0.7-8.6-1-13c-0.1-1.1-0.2-2-0.4-2.6c-0.2-0.7-0.4-1.2-0.7-1.7c-0.8-1.2-2.2-1.8-4.1-1.6
			c-1.2,0.1-2.3,0.4-3.4,0.9c-1.1,0.5-2.1,1.2-2.8,1.8c0.4,5.7,0.7,11.3,1.1,17c-1,0.1-2,0.1-3.1,0.2C297.9-72.8,297.5-79.9,297-87z
			"/>
		<path class="st1" d="M334.1-94.4c-0.5-0.4-0.8-0.9-0.8-1.6c-0.1-0.7,0.1-1.2,0.5-1.7s0.9-0.8,1.6-0.8c0.7-0.1,1.2,0.1,1.8,0.5
			c0.5,0.4,0.8,0.9,0.9,1.6c0.1,0.7-0.1,1.2-0.5,1.7s-1,0.8-1.6,0.8C335.1-93.8,334.6-94,334.1-94.4z M334.7-90.1c1-0.1,2-0.2,3-0.3
			c0.8,7.1,1.5,14.2,2.3,21.3c-1,0.1-2,0.2-3,0.3C336.2-75.9,335.4-83,334.7-90.1z"/>
		<path class="st1" d="M343.7-98.9c1-0.4,1.9-0.8,2.9-1.2c1.2,9.9,2.3,19.9,3.5,29.8c-1,0.1-2,0.2-3,0.4
			C345.9-79.6,344.8-89.3,343.7-98.9z"/>
		<path class="st1" d="M353.7-96.6c-0.5-0.4-0.8-0.9-0.9-1.5c-0.1-0.7,0.1-1.2,0.5-1.7s0.9-0.8,1.6-0.9c0.7-0.1,1.2,0.1,1.8,0.4
			c0.5,0.4,0.8,0.9,0.9,1.5c0.1,0.7-0.1,1.2-0.5,1.7s-0.9,0.8-1.6,0.9S354.2-96.2,353.7-96.6z M354.4-92.4c1-0.1,2-0.3,3-0.4
			c0.9,7.1,1.8,14.2,2.7,21.2c-1,0.1-2,0.3-3,0.4C356.2-78.2,355.3-85.3,354.4-92.4z"/>
		<path class="st1" d="M367.9-74.1c-1.6-1-2.6-2.6-2.9-4.7c-0.2-1.7,0.2-3.1,1.3-4.2s2.8-1.8,5.2-2.2c1.2-0.2,2.3-0.3,3.5-0.5
			c1.1-0.2,2.3-0.3,3.8-0.4c-0.1-0.6-0.2-1.3-0.3-1.9c-0.3-1.9-1-3.3-2-4c-1.1-0.7-2.6-1-4.5-0.7c-2.1,0.3-4.2,0.9-6.3,1.8
			c-0.2-0.7-0.4-1.5-0.6-2.2c1-0.4,2.1-0.8,3.3-1.2c1.2-0.4,2.5-0.7,3.8-0.9c2.6-0.4,4.8-0.1,6.4,1c1.6,1,2.6,2.8,3,5.2
			c0.5,2.9,0.9,5.9,1.4,8.8c0.2,1.3,0.5,3.1,0.9,5.3c-0.8,0.1-1.7,0.3-2.5,0.4c-0.2-0.6-0.4-1.4-0.8-2.6h-0.1
			c-0.4,1-1.2,1.9-2.3,2.6s-2.4,1.2-4.1,1.4C371.5-72.7,369.5-73,367.9-74.1z M378.2-77.5c1-1.1,1.3-2.5,1.1-4.2
			c-0.1-0.7-0.2-1.4-0.3-2.1c-2.5,0.4-5.1,0.8-7.6,1.1c-1.2,0.2-2,0.5-2.6,1.1s-0.8,1.4-0.6,2.4c0.2,1.4,0.8,2.4,1.9,3.1
			c1.1,0.6,2.4,0.9,3.9,0.6C375.8-75.7,377.3-76.4,378.2-77.5z"/>
		<path class="st1" d="M386.8-97c0.9-0.1,1.8-0.3,2.7-0.4c0.2,1,0.5,2,0.7,3c0.7-1,1.7-2,3-2.8c1.3-0.9,2.6-1.5,4.1-1.9
			c0.1,1,0.2,1.9,0.3,2.9c-1.3,0.2-2.5,0.8-3.8,1.6c-1.3,0.8-2.4,1.7-3.2,2.6c0.9,5.3,1.7,10.5,2.6,15.8c-1,0.2-2,0.3-3,0.5
			C389.1-83,387.9-90,386.8-97z"/>
	</g>
</g>
<path class="st0" d="M487.6-204.3c-161.1,30.7-326.5,30.7-487.6,0c7.3-38.1,14.5-76.3,21.8-114.4c146.7,28,297.3,28,443.9,0
	L487.6-204.3"/>
<g>
	<g>
		<path class="st1" d="M88.2-263.6c3.2,0.6,6.3,1.1,9.5,1.6c2.9,0.5,5.1,1.4,6.4,2.6c1.4,1.3,1.9,3.2,1.5,5.7
			c-0.4,2.8-2,4.6-4.7,5.4v0.1c1.6,0.6,2.9,1.5,3.7,2.9c0.8,1.3,1.1,2.8,0.8,4.4c-0.4,2.7-1.6,4.6-3.5,5.7s-4.4,1.3-7.6,0.8
			c-3.6-0.6-7.3-1.2-10.9-1.8C85.1-245.4,86.6-254.5,88.2-263.6z M96.3-250c1.8,0.3,3.2,0.1,4.2-0.5c1.1-0.6,1.7-1.8,2-3.4
			s0-2.9-0.9-3.7c-0.9-0.8-2.2-1.4-4-1.7c-2.3-0.4-4.6-0.8-6.8-1.1c-0.5,3.1-1.1,6.2-1.6,9.3C91.5-250.8,93.9-250.4,96.3-250z
			 M95-237c2.1,0.3,3.8,0.2,5-0.5s2-1.9,2.3-3.8c0.3-1.8-0.1-3.1-1.2-4.1c-1.1-1-2.7-1.6-4.8-2c-2.5-0.4-5-0.8-7.5-1.3
			c-0.6,3.4-1.2,6.8-1.8,10.3C89.6-237.9,92.3-237.5,95-237z"/>
		<path class="st1" d="M113.6-261c1-0.1,2-0.3,3.1-0.4c-1.4,9.9-2.8,19.8-4.2,29.8c-1-0.1-2-0.3-3-0.4
			C110.8-241.8,112.2-251.4,113.6-261z"/>
		<path class="st1" d="M120.6-232.1c-1.3-1.4-1.8-3.2-1.5-5.3c0.2-1.7,1-2.9,2.4-3.7c1.4-0.8,3.2-1,5.5-0.7c1.2,0.1,2.3,0.3,3.5,0.4
			c1.1,0.1,2.3,0.3,3.7,0.6c0.1-0.7,0.2-1.3,0.2-2c0.2-2-0.1-3.4-0.9-4.4c-0.8-1-2.2-1.6-4.2-1.9c-2.1-0.3-4.3-0.2-6.6,0.1
			c0-0.8,0-1.5,0-2.3c1-0.2,2.2-0.3,3.5-0.3s2.6,0,3.9,0.2c2.6,0.3,4.6,1.2,5.9,2.6c1.3,1.4,1.8,3.3,1.5,5.8c-0.3,2.9-0.7,5.9-1,8.8
			c-0.2,1.3-0.3,3.1-0.5,5.4c-0.8-0.1-1.7-0.2-2.5-0.3c0-0.6,0-1.5-0.1-2.7h-0.1c-0.7,0.9-1.7,1.5-2.9,1.9s-2.7,0.5-4.4,0.3
			C123.7-229.8,121.9-230.6,120.6-232.1z M131.5-232.7c1.2-0.8,2-2,2.2-3.7c0.1-0.7,0.2-1.4,0.3-2.2c-2.6-0.3-5.1-0.6-7.7-0.9
			c-1.2-0.1-2.1,0-2.8,0.3c-0.7,0.4-1.1,1.1-1.3,2.2c-0.2,1.4,0.2,2.6,1,3.5c0.9,0.9,2.1,1.5,3.6,1.7
			C128.7-231.6,130.3-231.9,131.5-232.7z"/>
		<path class="st1" d="M144.9-249.2c0.9,0.1,1.8,0.2,2.7,0.3c0,0.7,0,1.3,0,2c1.2-0.6,2.5-1,4-1.3c1.4-0.3,2.8-0.4,4.1-0.2
			c2.5,0.2,4.3,1.1,5.5,2.5c0.5,0.7,0.9,1.5,1.1,2.3c0.2,0.9,0.3,2,0.2,3.2c-0.4,4.8-0.8,9.5-1.2,14.3c-1-0.1-2-0.2-3.1-0.3
			c0.4-4.7,0.8-9.3,1.3-14c0.2-1.7-0.1-3-0.7-3.9c-0.4-0.6-0.8-1-1.4-1.3c-0.6-0.3-1.4-0.5-2.4-0.6c-1.2-0.1-2.5,0-3.8,0.3
			s-2.5,0.7-3.7,1.3c-0.6,5.6-1.2,11.3-1.8,16.9c-1-0.1-2-0.2-3.1-0.3C143.4-235,144.2-242.1,144.9-249.2z"/>
		<path class="st1" d="M184.8-227.1c-0.8,0.9-1.9,1.6-3.3,2.1c-1.3,0.5-2.8,0.7-4.4,0.6c-2.1-0.1-3.9-0.7-5.5-1.7s-2.8-2.4-3.5-4.1
			c-0.8-1.7-1.1-3.8-0.9-6.1c0.2-2.2,0.9-4.1,2-5.7c1.2-1.6,2.6-2.7,4.3-3.5s3.4-1.1,5.2-1c1.7,0.1,3.1,0.5,4.3,1.2s2.1,1.5,2.7,2.6
			c0.2-1,0.4-1.9,0.6-2.9c0.8,0.1,1.7,0.1,2.5,0.2c-0.6,10-1.2,20.1-1.8,30.1c-1,0.2-2.1,0.5-3.1,0.7
			C184.3-218.9,184.6-223,184.8-227.1z M181.9-227.6c1.3-0.6,2.3-1.5,3.1-2.6c0.1-2.4,0.3-4.8,0.4-7.2c0.1-1-0.2-2.1-0.7-3.1
			s-1.3-1.8-2.3-2.5s-2.2-1.1-3.7-1.2c-1.4-0.1-2.7,0.2-3.9,0.8c-1.2,0.6-2.3,1.5-3.1,2.8c-0.8,1.2-1.3,2.7-1.4,4.5
			c-0.1,1.7,0.1,3.2,0.6,4.6s1.4,2.5,2.5,3.3s2.5,1.3,4.1,1.4C179.2-226.8,180.6-227,181.9-227.6z"/>
		<path class="st1" d="M196.9-225.3c-1.6-1.4-2.3-3.6-2.2-6.5c0.2-4.5,0.5-8.9,0.7-13.4c1,0.1,2,0.1,3,0.1c-0.2,4.5-0.4,9-0.6,13.5
			c-0.1,1.9,0.4,3.4,1.5,4.4c1.1,1.1,2.7,1.7,4.7,1.7c2,0.1,3.5-0.4,4.5-1.4s1.6-2.4,1.7-4.3c0.2-4.5,0.3-9,0.5-13.5
			c1,0,2,0.1,3,0.1c-0.1,4.5-0.3,8.9-0.4,13.4c-0.1,2.6-0.9,4.6-2.6,6.1c-1.6,1.5-3.9,2.1-6.8,2
			C200.8-223.1,198.6-223.9,196.9-225.3z"/>
		<path class="st1" d="M221.2-225.2c-1.9-1.9-2.9-4.7-2.8-8.4c0.1-2.1,0.5-4,1.4-5.7s2.1-3,3.7-3.9c1.6-0.9,3.5-1.4,5.6-1.3
			c2.9,0,5.1,0.9,6.5,2.5s2.2,3.8,2.2,6.5c0,1.1-0.1,2.1-0.2,3c-5.4,0-10.8-0.1-16.2-0.2c0,2.5,0.7,4.4,2,5.8s3.4,2.1,6.2,2.2
			c1,0,2-0.1,3.2-0.3c1.2-0.2,2.2-0.6,3.2-1c0.2,0.8,0.3,1.5,0.5,2.3c-2.4,1-4.8,1.5-7.3,1.5C225.8-222.4,223.1-223.4,221.2-225.2z
			 M234.8-234.9c0-0.2,0-0.6,0-1.1c0-1.8-0.5-3.3-1.4-4.4s-2.4-1.7-4.5-1.7c-2.2,0-3.9,0.6-5.2,1.9s-2,3-2.2,5.1
			C226-235,230.4-234.9,234.8-234.9z"/>
		<path class="st1" d="M244.1-224.1c-1.5-1.3-2.2-2.9-2.2-5.1c0-1.7,0.6-3,1.9-4c1.2-0.9,3-1.4,5.4-1.4c1.2,0,2.3,0,3.5,0
			c1.1,0,2.3,0,3.8,0.1c0-0.7,0-1.3,0-2c0-2-0.5-3.4-1.5-4.3s-2.4-1.3-4.4-1.3c-2.1,0-4.3,0.4-6.5,1c-0.1-0.8-0.2-1.5-0.3-2.3
			c1-0.3,2.1-0.6,3.4-0.8c1.3-0.2,2.6-0.3,3.9-0.3c2.7,0,4.7,0.6,6.2,1.8c1.5,1.2,2.2,3.1,2.3,5.5c0.1,3,0.1,5.9,0.2,8.9
			c0,1.3,0.1,3.1,0.2,5.4c-0.9,0-1.7,0-2.6,0c-0.1-0.6-0.2-1.5-0.4-2.7h-0.1c-0.6,1-1.4,1.7-2.6,2.3c-1.1,0.6-2.6,0.9-4.3,0.9
			C247.5-222.3,245.6-222.9,244.1-224.1z M254.9-226.2c1.1-1,1.7-2.3,1.6-4c0-0.7,0-1.4,0-2.2c-2.6,0-5.1,0.1-7.7,0.1
			c-1.2,0-2.1,0.2-2.7,0.7c-0.6,0.5-1,1.2-1,2.3c0,1.4,0.5,2.5,1.5,3.3s2.3,1.2,3.8,1.2C252.2-224.7,253.7-225.2,254.9-226.2z"/>
		<path class="st1" d="M265.9-244.4c0.9,0,1.8-0.1,2.7-0.1c0.1,0.6,0.2,1.3,0.3,1.9c1-0.7,2.2-1.3,3.4-1.8s2.5-0.7,3.7-0.8
			c1.2,0,2.3,0.1,3.4,0.6c1,0.4,1.9,1,2.6,1.8c1.1-0.8,2.3-1.5,3.7-2s2.8-0.9,4.1-0.9c2.3-0.1,4.1,0.4,5.5,1.7
			c1.3,1.2,2.1,3,2.2,5.5c0.3,4.7,0.6,9.4,0.9,14.1c-1,0.1-2,0.1-3.1,0.2c-0.3-4.3-0.5-8.6-0.8-13c-0.1-1.9-0.5-3.3-1.1-4.4
			c-0.8-1.2-2.2-1.8-4.2-1.7c-1,0.1-2.1,0.3-3.4,0.8c-1.2,0.5-2.3,1.1-3,1.8c0.3,0.9,0.4,2,0.5,3.4c0.2,4.5,0.4,9.1,0.6,13.6
			c-1,0-2,0.1-3.1,0.1c-0.2-4.3-0.4-8.7-0.6-13c0-1.1-0.1-2-0.3-2.6c-0.1-0.7-0.4-1.2-0.7-1.8c-0.8-1.3-2.1-1.8-4-1.8
			c-1.2,0-2.3,0.3-3.5,0.8c-1.1,0.5-2.1,1.1-2.9,1.7c0.2,5.7,0.4,11.3,0.5,17c-1,0-2,0.1-3.1,0.1
			C266.3-230.2,266.1-237.3,265.9-244.4z"/>
		<path class="st1" d="M303.1-250.6c-0.5-0.4-0.7-0.9-0.8-1.6c0-0.7,0.1-1.2,0.6-1.7c0.4-0.5,1-0.7,1.6-0.8c0.7,0,1.2,0.1,1.7,0.5
			s0.8,0.9,0.8,1.6s-0.1,1.2-0.6,1.7c-0.4,0.5-1,0.7-1.6,0.8S303.6-250.2,303.1-250.6z M303.6-246.3c1-0.1,2-0.1,3-0.2
			c0.5,7.1,1,14.2,1.6,21.3c-1,0.1-2,0.1-3.1,0.2C304.6-232,304.1-239.2,303.6-246.3z"/>
		<path class="st1" d="M316.5-228.2c-2.1-1.7-3.3-4.4-3.6-8c-0.2-2.1,0.1-4.1,0.8-5.8c0.7-1.7,1.8-3.2,3.3-4.2
			c1.5-1.1,3.3-1.7,5.5-1.9c2.9-0.3,5.2,0.3,6.8,1.8s2.6,3.6,2.9,6.2c0.1,1.1,0.2,2.1,0.1,3c-5.4,0.5-10.8,1-16.2,1.5
			c0.3,2.4,1.2,4.3,2.6,5.6c1.5,1.3,3.6,1.8,6.4,1.5c1-0.1,2-0.3,3.2-0.7c1.1-0.4,2.2-0.8,3.1-1.3c0.2,0.7,0.5,1.5,0.7,2.2
			c-2.3,1.2-4.6,2-7.1,2.2C321.4-225.8,318.6-226.5,316.5-228.2z M329-239.2c0-0.2,0-0.6-0.1-1.1c-0.2-1.8-0.8-3.2-1.9-4.2
			c-1-1-2.6-1.4-4.7-1.2c-2.2,0.2-3.8,1-4.9,2.4c-1.1,1.4-1.7,3.2-1.7,5.3C320.2-238.4,324.6-238.8,329-239.2z"/>
		<path class="st1" d="M336.2-249.2c0.9-0.1,1.8-0.2,2.7-0.3c0.2,0.6,0.3,1.3,0.5,1.9c1.1-0.8,2.3-1.5,3.6-2.1s2.7-1,4-1.1
			c2.5-0.3,4.5,0.1,5.9,1.3c0.7,0.6,1.2,1.2,1.6,2.1c0.4,0.8,0.7,1.9,0.8,3.1c0.6,4.7,1.2,9.5,1.8,14.2c-1,0.1-2,0.3-3,0.4
			c-0.6-4.7-1.2-9.3-1.7-14c-0.2-1.7-0.7-2.9-1.5-3.7c-0.5-0.5-1-0.8-1.7-0.9c-0.6-0.2-1.5-0.2-2.5-0.1c-1.2,0.1-2.4,0.5-3.7,1.1
			c-1.2,0.6-2.3,1.3-3.3,2.1c0.6,5.6,1.2,11.3,1.9,16.9c-1,0.1-2,0.2-3.1,0.3C337.7-235,337-242.1,336.2-249.2z"/>
		<path class="st1" d="M365-232.4c-1.2-0.8-2-2.2-2.2-4.2c-0.9-6.7-1.8-13.5-2.7-20.2c0.9-0.4,1.9-0.8,2.8-1.3c0.3,2,0.5,4,0.8,5.9
			c2.6-0.4,5.2-0.7,7.8-1.1c-0.2,0.9-0.4,1.7-0.7,2.6c-2.2,0.3-4.5,0.6-6.7,1c0.6,4.1,1.1,8.1,1.7,12.2c0.2,1.4,0.6,2.4,1.2,3
			c0.6,0.5,1.6,0.7,3,0.5s2.7-0.5,3.9-1c0.2,0.7,0.4,1.4,0.5,2.2c-1.2,0.6-2.6,1-4.3,1.2C367.9-231.4,366.2-231.6,365-232.4z"/>
		<path class="st1" d="M381.3-234.6c-1.8-0.7-3.2-1.8-4.3-3.4c-1.1-1.5-1.8-3.3-2.1-5.4s-0.2-4,0.4-5.8c0.6-1.8,1.6-3.3,3.1-4.5
			s3.4-2,5.7-2.4c2.2-0.4,4.1-0.2,5.9,0.5c1.7,0.7,3.2,1.8,4.3,3.3s1.8,3.3,2.2,5.4c0.3,2,0.2,3.9-0.3,5.7c-0.5,1.8-1.6,3.3-3.1,4.6
			c-1.5,1.3-3.4,2.1-5.8,2.5C385-233.7,383-233.8,381.3-234.6z M392.3-239.6c1.1-1.8,1.5-4,1-6.7c-0.5-2.6-1.5-4.6-3.2-5.9
			s-3.6-1.8-5.9-1.4c-2.3,0.4-4,1.4-5.1,3.2c-1.2,1.8-1.5,4-1.1,6.6c0.3,1.8,0.8,3.2,1.7,4.4c0.9,1.2,1.9,2.1,3.2,2.6
			s2.7,0.7,4.2,0.4C389.4-236.7,391.2-237.8,392.3-239.6z"/>
	</g>
</g>
<path class="st0" d="M-28.6,114.4c-161.1,30.7-326.5,30.7-487.6,0c7.3-38.1,14.5-76.3,21.8-114.4c146.7,28,297.3,28,443.9,0
	L-28.6,114.4"/>
<g>
	<g>
		<path class="st1" d="M-388.7,83c-1.5-0.6-2.9-1.4-4.2-2.3c0.3-0.8,0.7-1.7,1-2.5c1.1,0.9,2.4,1.7,3.9,2.3c1.5,0.7,2.9,1.1,4.3,1.3
			c2.4,0.4,4.4,0.2,5.7-0.6c1.4-0.8,2.2-2,2.4-3.6c0.1-1,0.1-1.8-0.2-2.4c-0.3-0.7-0.9-1.3-1.8-1.9c-0.9-0.6-2.2-1.3-3.9-2.2
			c-2-1-3.6-1.9-4.7-2.8c-1.1-0.9-1.9-1.9-2.3-2.9c-0.4-1-0.5-2.3-0.3-3.6c0.4-2.2,1.6-3.7,3.6-4.6c2-0.9,4.3-1.2,7-0.8
			c2.3,0.4,4.7,1.1,7.1,2.3c-0.2,0.9-0.5,1.8-0.7,2.6c-2.3-1.3-4.6-2.1-6.7-2.4c-2.1-0.3-3.8-0.2-5,0.4c-1.2,0.6-1.9,1.6-2.2,2.9
			c-0.2,1-0.1,1.8,0.2,2.4s0.8,1.3,1.7,1.9c0.8,0.6,2.1,1.3,3.8,2.3c2.1,1.1,3.7,2,4.8,2.8c1.1,0.8,1.9,1.7,2.3,2.7
			c0.5,1,0.6,2.3,0.4,3.8c-0.4,2.4-1.6,4.2-3.8,5.3c-2.2,1.1-4.8,1.4-8,0.9C-385.7,84-387.2,83.6-388.7,83z"/>
		<path class="st1" d="M-365.9,84.2c-1.7-2.1-2.4-5-1.9-8.6c0.3-2.1,1-3.9,2-5.5c1.1-1.6,2.4-2.7,4.1-3.4c1.7-0.7,3.6-1,5.8-0.7
			c2.9,0.4,5,1.4,6.3,3.2c1.3,1.8,1.8,4,1.6,6.7c-0.1,1.1-0.3,2.1-0.5,3c-5.4-0.6-10.9-1.2-16.3-2c-0.2,2.4,0.2,4.4,1.4,6
			c1.2,1.5,3.2,2.5,6,2.8c1,0.1,2.1,0.1,3.3,0c1.2-0.1,2.3-0.3,3.3-0.6c0.1,0.8,0.1,1.5,0.2,2.3c-2.5,0.7-5,1-7.5,0.7
			C-361.5,87.5-364.1,86.3-365.9,84.2z M-351.1,76c0.1-0.2,0.1-0.6,0.2-1.1c0.2-1.8-0.1-3.3-1-4.5c-0.8-1.2-2.3-2-4.4-2.2
			c-2.2-0.3-3.9,0.2-5.4,1.3c-1.4,1.2-2.3,2.8-2.8,4.9C-360,75-355.5,75.5-351.1,76z"/>
		<path class="st1" d="M-342,67.8c0.9,0.1,1.8,0.2,2.7,0.3c0,0.7,0,1.3,0.1,2c1.2-0.6,2.5-1,4-1.3c1.4-0.3,2.8-0.4,4.2-0.3
			c2.5,0.2,4.4,1,5.5,2.4c0.5,0.7,0.9,1.4,1.2,2.3c0.2,0.9,0.3,2,0.2,3.2c-0.3,4.8-0.7,9.5-1,14.3c-1-0.1-2.1-0.1-3.1-0.2
			c0.4-4.7,0.7-9.3,1.1-14c0.1-1.7-0.1-3-0.8-3.9c-0.4-0.6-0.9-1-1.5-1.2c-0.6-0.3-1.4-0.5-2.4-0.5c-1.2-0.1-2.5,0-3.8,0.3
			c-1.3,0.3-2.5,0.8-3.7,1.4c-0.5,5.6-1.1,11.3-1.6,16.9c-1-0.1-2.1-0.2-3.1-0.3C-343.4,82-342.7,74.9-342,67.8z"/>
		<path class="st1" d="M-316.5,91.2c-1.3-0.4-2.4-0.8-3.3-1.3c0.2-0.8,0.3-1.7,0.5-2.5c1,0.6,2.1,1.1,3.3,1.4
			c1.2,0.4,2.4,0.6,3.6,0.6c1.6,0.1,2.9-0.2,3.8-0.8c0.9-0.6,1.4-1.5,1.5-2.6c0-0.8-0.1-1.4-0.4-1.9s-0.7-0.9-1.4-1.2
			c-0.6-0.3-1.6-0.8-3-1.3c-2.4-1-4.1-2-5.1-3.1c-1-1-1.4-2.3-1.3-3.8c0.1-1.7,0.9-3,2.4-3.9s3.3-1.3,5.6-1.2
			c1.9,0.1,3.7,0.5,5.5,1.2c-0.1,0.8-0.3,1.6-0.4,2.4c-1.8-0.7-3.5-1.1-5.1-1.2c-1.5-0.1-2.7,0.1-3.6,0.6c-0.9,0.5-1.3,1.2-1.4,2.2
			c-0.1,0.9,0.2,1.6,0.9,2.3c0.7,0.7,1.9,1.4,3.9,2.1c2.2,0.8,3.8,1.7,4.8,2.7c1,0.9,1.5,2.2,1.4,3.9c-0.1,2-0.9,3.5-2.4,4.6
			c-1.6,1-3.5,1.5-5.9,1.4C-314,91.8-315.3,91.6-316.5,91.2z"/>
		<path class="st1" d="M-298.4,66.3c-0.4-0.5-0.6-1-0.6-1.7s0.3-1.2,0.7-1.6c0.5-0.4,1-0.6,1.7-0.6c0.7,0,1.2,0.3,1.7,0.7
			c0.5,0.5,0.7,1,0.7,1.7s-0.3,1.2-0.7,1.6c-0.5,0.4-1.1,0.6-1.7,0.6C-297.5,67-298,66.8-298.4,66.3z M-298.4,70.7c1,0,2,0.1,3,0.1
			c-0.2,7.1-0.4,14.3-0.6,21.4c-1,0-2.1-0.1-3.1-0.1C-298.9,84.9-298.6,77.8-298.4,70.7z"/>
		<path class="st1" d="M-284.6,92.2c-1.7-0.4-3.1-0.9-4.4-1.6c0.2-9.2,0.3-18.4,0.5-27.5c1-0.3,2-0.5,3-0.8c0,3.8-0.1,7.6-0.1,11.4
			c0.1,0,0.1,0,0.2,0c0.8-0.9,1.8-1.6,3.1-2.2c1.3-0.6,2.8-0.9,4.4-0.9c1.9,0,3.6,0.4,5.1,1.2c1.5,0.8,2.7,2,3.6,3.6
			c0.9,1.6,1.3,3.5,1.4,5.7c0,2.3-0.4,4.4-1.3,6.1c-0.9,1.8-2.2,3.1-4,4.1c-1.7,1-3.8,1.4-6.1,1.4
			C-281.1,92.8-282.9,92.6-284.6,92.2z M-273.2,88.1c1.5-1.6,2.2-3.8,2.1-6.6c0-2.7-0.7-4.8-2-6.2c-1.3-1.5-3-2.2-5.2-2.2
			c-1.3,0-2.5,0.3-3.7,0.8c-1.1,0.6-2,1.3-2.7,2.3c-0.7,1-1,2.1-1.1,3.3c0,3.2-0.1,6.4-0.1,9.7c1.9,0.8,4.1,1.2,6.5,1.2
			C-276.7,90.4-274.6,89.6-273.2,88.1z"/>
		<path class="st1" d="M-262.9,66.5c-0.5-0.4-0.7-1-0.7-1.6c0-0.7,0.2-1.2,0.6-1.7c0.4-0.4,1-0.7,1.7-0.7c0.7,0,1.2,0.2,1.7,0.6
			s0.7,1,0.7,1.6c0,0.7-0.2,1.2-0.7,1.7s-1,0.7-1.7,0.7C-261.8,67.2-262.4,67-262.9,66.5z M-262.6,70.8c1,0,2,0,3-0.1
			c0.2,7.1,0.4,14.3,0.6,21.4c-1,0-2.1,0.1-3.1,0.1C-262.3,85.1-262.4,78-262.6,70.8z"/>
		<path class="st1" d="M-253,62.8c1-0.3,2-0.7,2.9-1c0.4,10,0.8,20,1.3,30c-1,0-2.1,0.1-3.1,0.1C-252.2,82.2-252.6,72.5-253,62.8z"
			/>
		<path class="st1" d="M-243.2,65.8c-0.5-0.4-0.7-0.9-0.8-1.6c0-0.7,0.2-1.2,0.6-1.7s1-0.7,1.6-0.7c0.7,0,1.2,0.2,1.7,0.6
			c0.5,0.4,0.8,0.9,0.8,1.6s-0.2,1.2-0.6,1.7s-1,0.7-1.7,0.8C-242.1,66.4-242.7,66.2-243.2,65.8z M-242.7,70.1c1-0.1,2-0.1,3-0.2
			c0.4,7.1,0.8,14.2,1.2,21.4c-1,0.1-2.1,0.1-3.1,0.2C-242,84.3-242.4,77.2-242.7,70.1z"/>
		<path class="st1" d="M-227.8,89.6c-1.7-0.8-3.1-2-4.1-3.6s-1.6-3.5-1.7-5.6c-0.1-2.2,0.2-4.2,1.1-6s2.1-3.2,3.7-4.2
			c1.6-1.1,3.4-1.7,5.3-1.8c1.5-0.1,2.9,0,4.2,0.4c1.3,0.4,2.2,1,2.9,1.7h0.1c-0.3-3.4-0.6-6.7-0.9-10.1c1-0.4,1.9-0.8,2.9-1.1
			c0.8,8.2,1.6,16.3,2.4,24.5c0.1,1.3,0.3,3.1,0.6,5.4c-0.9,0.1-1.7,0.2-2.6,0.2c-0.1-0.5-0.4-1.5-0.7-2.9h-0.1
			c-0.7,1.1-1.7,2-3,2.7s-2.7,1.2-4.3,1.3C-224.2,90.7-226.1,90.4-227.8,89.6z M-217.8,86.7c1.2-0.8,2.1-1.9,2.7-3.1
			c-0.2-2.3-0.4-4.7-0.6-7c-0.2-1.8-0.9-3.3-2.3-4.4s-3.1-1.6-5.2-1.4c-1.5,0.1-2.9,0.6-4,1.4s-2,1.9-2.5,3.3
			c-0.6,1.4-0.8,2.9-0.7,4.6c0.1,1.8,0.6,3.3,1.3,4.5c0.8,1.2,1.8,2.2,3,2.8c1.3,0.6,2.6,0.8,4.1,0.7C-220.4,88-219,87.5-217.8,86.7
			z"/>
		<path class="st1" d="M-203.7,86.9c-1.6-1.1-2.6-2.7-2.8-4.8c-0.2-1.7,0.3-3.1,1.5-4.1c1.2-1.1,2.9-1.7,5.3-2
			c1.2-0.1,2.3-0.3,3.5-0.4c1.1-0.1,2.3-0.2,3.8-0.3c-0.1-0.7-0.2-1.3-0.3-2c-0.3-2-0.9-3.3-2-4.1c-1.1-0.8-2.6-1-4.5-0.8
			c-2.1,0.3-4.2,0.8-6.4,1.7c-0.2-0.7-0.4-1.5-0.6-2.2c1-0.4,2.1-0.8,3.3-1.1c1.3-0.4,2.5-0.6,3.8-0.8c2.7-0.3,4.8,0,6.4,1.1
			s2.6,2.8,2.9,5.2c0.4,2.9,0.8,5.9,1.2,8.8c0.2,1.3,0.4,3.1,0.8,5.4c-0.9,0.1-1.7,0.2-2.6,0.3c-0.2-0.6-0.4-1.4-0.7-2.6h-0.1
			c-0.5,1-1.3,1.9-2.3,2.6c-1.1,0.7-2.5,1.1-4.2,1.3C-200,88.4-202,88-203.7,86.9z M-193.1,83.7c1-1.1,1.4-2.5,1.2-4.1
			c-0.1-0.7-0.2-1.4-0.3-2.2c-2.6,0.3-5.1,0.6-7.7,0.9c-1.2,0.1-2.1,0.5-2.7,1s-0.8,1.3-0.7,2.4c0.2,1.4,0.8,2.5,1.9,3.1
			c1.1,0.7,2.4,0.9,3.9,0.7C-195.5,85.4-194.1,84.8-193.1,83.7z"/>
		<path class="st1" d="M-177.4,84c-1.8-0.7-3.2-1.8-4.3-3.3c-1.1-1.5-1.8-3.3-2.1-5.5c-0.3-2.2-0.1-4.2,0.7-6
			c0.7-1.8,1.9-3.3,3.4-4.5s3.3-1.9,5.2-2.2c1.5-0.2,2.9-0.2,4.2,0.1c1.3,0.3,2.3,0.8,3,1.4h0.1c-0.6-3.3-1.1-6.7-1.7-10
			c0.9-0.4,1.9-0.9,2.8-1.4c1.4,8.1,2.8,16.2,4.2,24.3c0.2,1.3,0.6,3.1,1,5.3c-0.9,0.1-1.7,0.3-2.6,0.4c-0.2-0.5-0.5-1.4-0.9-2.8
			h-0.1c-0.7,1.1-1.6,2.1-2.8,2.9c-1.2,0.8-2.6,1.4-4.2,1.6C-173.7,84.9-175.7,84.7-177.4,84z M-167.6,80.3c1.1-0.9,1.9-2,2.5-3.3
			c-0.4-2.3-0.8-4.6-1.2-6.9c-0.3-1.8-1.2-3.2-2.6-4.2s-3.2-1.3-5.3-1c-1.5,0.2-2.8,0.8-3.9,1.7c-1.1,0.9-1.8,2.1-2.3,3.5
			s-0.6,3-0.3,4.6c0.3,1.8,0.8,3.2,1.7,4.4c0.9,1.2,1.9,2,3.2,2.5c1.3,0.5,2.7,0.6,4.2,0.4C-170.1,81.8-168.7,81.2-167.6,80.3z"/>
	</g>
</g>
<path class="st0" d="M-28.6-45.7C-189.7-15-355.1-15-516.2-45.7c7.3-38.1,14.5-76.3,21.8-114.4c146.7,28,297.3,28,443.9,0
	L-28.6-45.7"/>
<g>
	<g>
		<path class="st1" d="M-400.6-77.1c-1.5-0.6-2.9-1.4-4.2-2.3c0.3-0.8,0.7-1.7,1-2.5c1.1,0.9,2.4,1.7,3.9,2.3
			c1.5,0.7,2.9,1.1,4.3,1.3c2.4,0.4,4.3,0.2,5.7-0.6c1.4-0.8,2.2-2,2.4-3.6c0.1-1,0.1-1.8-0.2-2.4c-0.3-0.7-0.9-1.3-1.7-1.9
			c-0.9-0.6-2.2-1.3-3.9-2.2c-2-1-3.6-1.9-4.7-2.8c-1.1-0.9-1.9-1.9-2.3-2.9s-0.5-2.3-0.3-3.6c0.4-2.2,1.6-3.7,3.6-4.6
			s4.3-1.2,7-0.8c2.3,0.4,4.7,1.2,7.1,2.3c-0.2,0.9-0.5,1.8-0.7,2.6c-2.3-1.3-4.5-2.1-6.6-2.4c-2.1-0.3-3.8-0.2-5,0.4
			c-1.2,0.6-1.9,1.6-2.2,2.9c-0.2,1-0.1,1.8,0.2,2.4c0.3,0.6,0.8,1.3,1.7,1.9c0.8,0.6,2.1,1.4,3.8,2.3c2.1,1.1,3.7,2,4.8,2.8
			c1.1,0.8,1.9,1.7,2.3,2.7c0.5,1,0.6,2.3,0.4,3.8c-0.4,2.4-1.6,4.2-3.8,5.3c-2.2,1.1-4.8,1.4-7.9,0.9
			C-397.5-76-399.1-76.5-400.6-77.1z"/>
		<path class="st1" d="M-378.4-75.1c-1.3-1.5-1.8-3.2-1.5-5.3c0.2-1.7,1-2.9,2.4-3.7c1.4-0.8,3.2-1,5.6-0.7c1.2,0.2,2.3,0.3,3.5,0.4
			c1.1,0.1,2.3,0.3,3.8,0.6c0.1-0.7,0.2-1.3,0.2-2c0.2-2-0.1-3.4-0.9-4.4c-0.8-1-2.2-1.6-4.2-1.9c-2.1-0.3-4.3-0.2-6.6,0.1
			c0-0.8,0-1.5,0-2.3c1-0.2,2.2-0.3,3.5-0.3s2.6,0,3.9,0.2c2.6,0.3,4.6,1.2,5.9,2.6c1.3,1.4,1.8,3.3,1.5,5.8c-0.3,2.9-0.7,5.9-1,8.8
			c-0.2,1.3-0.3,3.1-0.5,5.4c-0.9-0.1-1.7-0.2-2.6-0.3c0-0.6,0-1.5-0.1-2.7h-0.1c-0.7,0.9-1.7,1.5-2.9,1.9s-2.7,0.5-4.4,0.3
			C-375.3-72.7-377.1-73.6-378.4-75.1z M-367.4-75.6c1.2-0.8,2-2,2.2-3.7c0.1-0.7,0.2-1.4,0.3-2.2c-2.6-0.3-5.1-0.6-7.7-1
			c-1.2-0.2-2.1,0-2.8,0.3c-0.7,0.4-1.1,1.1-1.3,2.2c-0.2,1.4,0.2,2.6,1,3.5c0.9,0.9,2.1,1.5,3.6,1.7
			C-370.2-74.5-368.6-74.8-367.4-75.6z"/>
		<path class="st1" d="M-353-99.9c1-0.2,2-0.4,3-0.5c-1,10-2,19.9-3.1,29.9c-1-0.1-2.1-0.2-3.1-0.3C-355-80.5-354-90.2-353-99.9z"/>
		<path class="st1" d="M-343.5-71.3c-1.6-1.5-2.2-3.7-1.9-6.6c0.4-4.4,0.8-8.9,1.2-13.3c1,0.1,2,0.2,3,0.3c-0.4,4.5-0.8,9-1.2,13.4
			c-0.2,1.9,0.3,3.4,1.4,4.5c1.1,1.1,2.6,1.8,4.6,1.9c2,0.2,3.5-0.2,4.6-1.2c1.1-1,1.7-2.4,1.8-4.2c0.3-4.5,0.6-9,1-13.5
			c1,0.1,2,0.1,3,0.2c-0.3,4.5-0.6,8.9-0.9,13.4c-0.2,2.6-1.1,4.6-2.8,6c-1.7,1.4-4,2-7,1.7C-339.7-68.9-342-69.8-343.5-71.3z"/>
		<path class="st1" d="M-317.1-68.7c-1.6-1-2.8-2.4-3.6-4.1s-1.1-3.6-1-5.8c0.1-2.2,0.8-4.1,1.8-5.8c1.1-1.6,2.5-2.9,4.2-3.7
			c1.7-0.8,3.6-1.2,5.5-1.1c1.5,0.1,2.9,0.4,4.1,1c1.2,0.6,2.1,1.2,2.7,2h0.1c0.1-3.4,0.2-6.7,0.4-10.1c1-0.3,2-0.5,3-0.8
			c-0.3,8.2-0.5,16.4-0.8,24.6c0,1.3-0.1,3.1-0.1,5.4c-0.9,0-1.7-0.1-2.6-0.1c-0.1-0.5-0.2-1.5-0.3-3h-0.1c-0.9,1-2,1.7-3.3,2.3
			c-1.4,0.6-2.9,0.8-4.5,0.8C-313.6-67.1-315.5-67.7-317.1-68.7z M-306.8-70.4c1.3-0.7,2.3-1.6,3-2.7c0.1-2.3,0.2-4.7,0.3-7
			c0.1-1.8-0.5-3.4-1.7-4.6c-1.2-1.3-2.9-1.9-5-2c-1.5-0.1-2.9,0.2-4.1,0.9c-1.2,0.7-2.2,1.7-2.9,2.9c-0.7,1.3-1.1,2.8-1.2,4.5
			c-0.1,1.8,0.2,3.3,0.8,4.7c0.6,1.3,1.5,2.4,2.7,3.1c1.2,0.7,2.5,1.2,4,1.2C-309.5-69.4-308-69.7-306.8-70.4z"/>
		<path class="st1" d="M-283.9-94.4c0.8,0,1.7,0,2.5,0c5.8,7.4,11.7,14.8,17.8,22.1c-0.1-7.4-0.3-14.8-0.4-22.2c0.9,0,1.9,0,2.8-0.1
			c0.2,9.2,0.4,18.5,0.6,27.7c-0.7,0-1.5,0-2.2,0c-6.3-7.4-12.4-15-18.3-22.5c0,7.6-0.1,15.1-0.1,22.7c-1,0-2,0-3,0
			C-284-75.9-284-85.2-283.9-94.4z"/>
		<path class="st1" d="M-252.2-68.6c-1.5-1.2-2.3-2.9-2.4-5c-0.1-1.7,0.5-3,1.8-4c1.2-1,3-1.5,5.4-1.6c1.2,0,2.3-0.1,3.5-0.2
			c1.1,0,2.3-0.1,3.8,0c0-0.7-0.1-1.3-0.1-2c-0.1-2-0.6-3.4-1.6-4.2c-1-0.8-2.5-1.2-4.4-1.1c-2.1,0.1-4.3,0.5-6.5,1.2
			c-0.1-0.8-0.3-1.5-0.4-2.3c1-0.3,2.1-0.6,3.4-0.9s2.6-0.4,3.9-0.5c2.7-0.1,4.7,0.4,6.2,1.6s2.3,3,2.5,5.5c0.2,3,0.3,5.9,0.5,8.9
			c0.1,1.3,0.2,3.1,0.4,5.4c-0.9,0-1.7,0.1-2.6,0.1c-0.1-0.6-0.3-1.4-0.5-2.6h-0.1c-0.5,1-1.4,1.8-2.5,2.4s-2.6,0.9-4.3,1
			C-248.7-66.8-250.7-67.4-252.2-68.6z M-241.5-71c1.1-1,1.6-2.3,1.5-4c0-0.7-0.1-1.4-0.1-2.2c-2.6,0.1-5.2,0.2-7.7,0.4
			c-1.2,0-2.1,0.3-2.7,0.8s-0.9,1.3-0.9,2.4c0,1.4,0.6,2.5,1.6,3.3s2.3,1.1,3.8,1C-244-69.4-242.5-70-241.5-71z"/>
		<path class="st1" d="M-228.2-69.6c-1.2-0.9-1.8-2.3-1.9-4.4c-0.4-6.8-0.9-13.6-1.3-20.3c1-0.3,1.9-0.7,2.9-1.1c0.1,2,0.3,4,0.4,6
			c2.6-0.2,5.2-0.4,7.8-0.6c-0.3,0.8-0.6,1.7-0.8,2.5c-2.3,0.2-4.5,0.3-6.8,0.5c0.3,4.1,0.6,8.2,0.8,12.3c0.1,1.4,0.4,2.5,1,3
			c0.6,0.6,1.6,0.8,3,0.7c1.4-0.1,2.7-0.4,4-0.8c0.1,0.7,0.3,1.5,0.4,2.2c-1.2,0.5-2.7,0.8-4.4,0.9C-225.3-68.3-227-68.7-228.2-69.6
			z"/>
		<path class="st1" d="M-212.8-71.1c-1.8-1.2-2.8-3.2-3.1-6.1c-0.4-4.5-0.7-8.9-1.1-13.4c1-0.1,2-0.2,3-0.3c0.4,4.5,0.8,9,1.2,13.4
			c0.2,1.9,0.9,3.3,2.1,4.2c1.3,0.9,2.9,1.3,4.9,1.1c2-0.2,3.4-0.9,4.3-2s1.2-2.6,1.1-4.5c-0.5-4.5-0.9-8.9-1.4-13.4
			c1-0.1,2-0.2,3-0.3c0.5,4.4,1,8.9,1.5,13.3c0.3,2.6-0.3,4.7-1.7,6.4c-1.4,1.7-3.6,2.6-6.6,2.9C-208.6-69.4-211-69.9-212.8-71.1z"
			/>
		<path class="st1" d="M-192.4-93.1c0.9-0.1,1.8-0.2,2.7-0.3c0.2,1,0.4,2,0.6,3c0.8-1,1.8-1.9,3.1-2.7c1.3-0.8,2.7-1.4,4.2-1.7
			c0.1,1,0.1,1.9,0.2,2.9c-1.3,0.2-2.6,0.7-3.9,1.4c-1.3,0.7-2.4,1.6-3.3,2.5c0.6,5.3,1.3,10.6,1.9,15.9c-1,0.1-2,0.2-3.1,0.4
			C-190.7-78.9-191.6-86-192.4-93.1z"/>
		<path class="st1" d="M-175.1-75.2c-1.7-1-2.6-2.6-2.9-4.7c-0.2-1.7,0.2-3.1,1.3-4.2c1.1-1.1,2.8-1.8,5.2-2.2
			c1.2-0.2,2.3-0.3,3.5-0.5c1.1-0.2,2.3-0.3,3.8-0.4c-0.1-0.6-0.2-1.3-0.3-1.9c-0.3-1.9-1-3.3-2.1-4s-2.6-1-4.6-0.7
			c-2.1,0.3-4.2,0.9-6.3,1.9c-0.2-0.7-0.4-1.5-0.6-2.2c1-0.4,2.1-0.8,3.3-1.2c1.3-0.4,2.5-0.7,3.8-0.9c2.6-0.4,4.8-0.1,6.4,0.9
			s2.6,2.7,3,5.2c0.5,2.9,0.9,5.9,1.4,8.8c0.2,1.3,0.5,3.1,0.9,5.3c-0.8,0.1-1.7,0.3-2.5,0.4c-0.2-0.6-0.4-1.4-0.8-2.6h-0.1
			c-0.4,1-1.2,1.9-2.3,2.6c-1.1,0.7-2.4,1.2-4.2,1.5C-171.4-73.8-173.4-74.2-175.1-75.2z M-164.6-78.7c1-1.1,1.3-2.5,1.1-4.2
			c-0.1-0.7-0.2-1.4-0.3-2.1c-2.6,0.4-5.1,0.8-7.7,1.2c-1.2,0.2-2.1,0.5-2.6,1.1c-0.6,0.6-0.8,1.4-0.6,2.5c0.2,1.4,0.8,2.4,1.9,3.1
			c1.1,0.6,2.4,0.9,3.9,0.6C-167.1-76.9-165.6-77.6-164.6-78.7z"/>
		<path class="st1" d="M-157.3-106c0.9-0.4,1.9-0.9,2.8-1.4c1.7,9.9,3.4,19.7,5.2,29.6c-1,0.2-2,0.4-3.1,0.5
			C-154.1-86.8-155.7-96.4-157.3-106z"/>
	</g>
</g>
<path class="st0" d="M-28.6-204.3c-161.1,30.8-326.5,30.8-487.6,0c7.3-38.1,14.5-76.3,21.8-114.4c146.7,28,297.3,28,443.9,0
	L-28.6-204.3"/>
<g>
	<g>
		<path class="st1" d="M-417.2-263.6c0.8,0.1,1.6,0.3,2.5,0.4c2.7,7.2,5.4,14.3,8.2,21.5c0.1,0,0.1,0,0.2,0
			c4.9-5.9,9.7-11.9,14.4-17.9c0.8,0.1,1.6,0.2,2.5,0.3c-1.3,9.1-2.6,18.3-3.8,27.4c-1-0.1-1.9-0.3-2.9-0.4c1-7,2-14.1,3-21.1
			c-4.3,5.3-8.7,10.6-13.1,15.8c-0.5-0.1-1.1-0.2-1.6-0.3c-2.6-6.3-5.1-12.7-7.5-19.1c-1.2,7-2.4,14-3.6,21c-1-0.2-1.9-0.3-2.9-0.5
			C-420.4-245.4-418.8-254.5-417.2-263.6z"/>
		<path class="st1" d="M-383.6-232.1c-1.5-1.6-2.1-3.8-1.7-6.6c0.6-4.4,1.2-8.9,1.7-13.3c1,0.1,2,0.3,3,0.4
			c-0.6,4.5-1.1,8.9-1.7,13.4c-0.2,1.9,0.2,3.4,1.2,4.6s2.5,1.9,4.6,2.1c2,0.2,3.5-0.1,4.6-1s1.8-2.3,2-4.1c0.5-4.5,1-8.9,1.5-13.4
			c1,0.1,2,0.2,3,0.3c-0.5,4.4-1,8.9-1.5,13.3c-0.3,2.6-1.3,4.5-3,5.9c-1.7,1.3-4.1,1.8-7,1.5C-379.9-229.6-382.1-230.6-383.6-232.1
			z"/>
		<path class="st1" d="M-358.1-257c1-0.2,2-0.4,3-0.6c-1,10-1.9,19.9-2.9,29.9c-1-0.1-2-0.2-3.1-0.3
			C-360.1-237.6-359.1-247.3-358.1-257z"/>
		<path class="st1" d="M-349.4-228.1c-1-1-1.4-2.6-1.2-4.6c0.6-6.8,1.2-13.5,1.8-20.3c1-0.2,2-0.4,3-0.6c-0.2,2-0.3,4-0.5,6
			c2.6,0.2,5.2,0.4,7.8,0.6c-0.4,0.8-0.8,1.6-1.2,2.4c-2.3-0.2-4.5-0.4-6.8-0.6c-0.4,4.1-0.7,8.2-1.1,12.3c-0.1,1.4,0.1,2.5,0.6,3.2
			s1.4,1,2.8,1.2c1.4,0.1,2.8,0.1,4-0.1c0,0.7,0,1.5,0,2.2c-1.3,0.3-2.8,0.4-4.4,0.2C-346.8-226.4-348.4-227.1-349.4-228.1z"/>
		<path class="st1" d="M-334-251.4c-0.4-0.5-0.6-1-0.6-1.7s0.3-1.2,0.8-1.6s1.1-0.6,1.7-0.5c0.7,0,1.2,0.3,1.6,0.8
			c0.4,0.5,0.6,1,0.6,1.7s-0.3,1.2-0.8,1.6s-1.1,0.6-1.7,0.5C-333-250.7-333.6-250.9-334-251.4z M-334.1-247.1c1,0.1,2,0.1,3,0.2
			c-0.5,7.1-1,14.2-1.4,21.4c-1-0.1-2-0.1-3.1-0.2C-335.1-232.9-334.6-240-334.1-247.1z"/>
		<path class="st1" d="M-321.2-225c-1.6-0.5-3.1-1-4.3-1.7c0.5-9.2,1.1-18.3,1.6-27.5c1-0.2,2-0.5,3-0.7c-0.2,3.8-0.4,7.6-0.6,11.4
			c0.1,0,0.1,0,0.2,0c0.8-0.9,1.9-1.5,3.2-2.1c1.3-0.5,2.8-0.7,4.5-0.7c1.9,0.1,3.5,0.6,5,1.4c1.5,0.9,2.6,2.1,3.4,3.8
			c0.8,1.6,1.2,3.6,1.1,5.8c-0.1,2.3-0.6,4.3-1.6,6.1c-1,1.7-2.4,3-4.1,3.9c-1.8,0.9-3.8,1.3-6.1,1.1
			C-317.9-224.2-319.6-224.5-321.2-225z M-309.8-228.6c1.5-1.5,2.3-3.6,2.4-6.5c0.1-2.7-0.5-4.8-1.7-6.3c-1.2-1.5-2.9-2.3-5.1-2.4
			c-1.3-0.1-2.5,0.2-3.7,0.7s-2.1,1.2-2.8,2.2c-0.7,0.9-1.1,2-1.2,3.3c-0.2,3.2-0.4,6.4-0.5,9.7c1.9,0.9,4,1.4,6.4,1.5
			C-313.4-226.5-311.3-227.1-309.8-228.6z"/>
		<path class="st1" d="M-297.5-226.2c-1.9-1.9-2.8-4.7-2.7-8.4c0.1-2.1,0.5-4,1.4-5.7s2.1-2.9,3.7-3.9c1.6-0.9,3.5-1.4,5.6-1.3
			c2.9,0,5.1,0.9,6.5,2.5c1.4,1.7,2.2,3.8,2.2,6.5c0,1.1-0.1,2.1-0.2,3c-5.4,0-10.9-0.1-16.3-0.3c0,2.5,0.7,4.4,2,5.8
			s3.4,2.1,6.2,2.2c1,0,2-0.1,3.2-0.3c1.2-0.2,2.2-0.5,3.2-1c0.1,0.8,0.3,1.5,0.4,2.3c-2.4,1-4.8,1.5-7.3,1.4
			C-292.9-223.4-295.6-224.4-297.5-226.2z M-283.8-235.9c0-0.2,0-0.6,0.1-1.1c0-1.8-0.5-3.3-1.4-4.4s-2.4-1.7-4.5-1.7
			c-2.2,0-3.9,0.6-5.2,1.9c-1.3,1.3-2,3-2.2,5.1C-292.6-236-288.2-235.9-283.8-235.9z"/>
		<path class="st1" d="M-275.6-245c0.9,0,1.8,0,2.7,0c0.1,0.7,0.2,1.3,0.3,2c1.1-0.7,2.4-1.3,3.8-1.7c1.4-0.4,2.8-0.7,4.1-0.7
			c2.5,0,4.4,0.6,5.7,1.9c0.6,0.6,1,1.4,1.4,2.2c0.3,0.9,0.5,1.9,0.5,3.2c0.1,4.8,0.2,9.6,0.3,14.3c-1,0-2,0-3.1,0.1
			c-0.1-4.7-0.2-9.4-0.3-14.1c0-1.7-0.4-3-1.1-3.8c-0.4-0.5-0.9-0.9-1.6-1.1c-0.6-0.2-1.4-0.3-2.5-0.3c-1.2,0-2.5,0.2-3.7,0.7
			c-1.3,0.4-2.4,1-3.5,1.7c0,5.7,0,11.3,0.1,17c-1,0-2,0-3.1,0C-275.6-230.7-275.6-237.9-275.6-245z"/>
		<path class="st1" d="M-248.7-226.4c-2-1.8-3.1-4.5-3.2-8.2c-0.1-2.1,0.3-4,1.1-5.8c0.8-1.7,2-3.1,3.5-4.1c1.6-1,3.4-1.6,5.6-1.6
			c2.9-0.1,5.2,0.6,6.7,2.2s2.4,3.7,2.6,6.4c0.1,1.1,0.1,2.1,0,3c-5.4,0.3-10.8,0.5-16.3,0.7c0.2,2.5,0.9,4.4,2.3,5.7
			c1.4,1.3,3.5,1.9,6.3,1.8c1,0,2-0.2,3.2-0.5s2.2-0.7,3.1-1.1c0.2,0.7,0.4,1.5,0.6,2.2c-2.3,1.1-4.7,1.7-7.2,1.8
			C-243.9-223.8-246.7-224.6-248.7-226.4z M-235.6-236.8c0-0.2,0-0.6,0-1.1c-0.1-1.8-0.7-3.2-1.6-4.3c-1-1.1-2.5-1.6-4.6-1.5
			c-2.2,0.1-3.9,0.8-5.1,2.2c-1.2,1.4-1.9,3.1-1.9,5.3C-244.4-236.4-240-236.5-235.6-236.8z"/>
		<path class="st1" d="M-228-247.5c-0.1-2.5,0.5-4.5,1.8-5.9s3.2-2.2,5.6-2.4c1.9-0.1,3.6,0,5.2,0.4c-0.1,0.8-0.2,1.5-0.2,2.3
			c-0.6-0.1-1.4-0.2-2.2-0.3c-0.8-0.1-1.6-0.1-2.3,0c-1.8,0.1-3,0.6-3.8,1.5s-1.1,2.2-1,3.9c0,0.6,0.1,1.2,0.1,1.8
			c3-0.2,6-0.4,9-0.6c-0.3,0.8-0.6,1.7-0.9,2.5c-2.7,0.2-5.3,0.4-8,0.5c0.4,6.2,0.7,12.3,1.1,18.5c-1,0.1-2,0.1-3.1,0.2
			C-227.1-232.5-227.6-240-228-247.5z M-212.2-251.7c-0.5-0.4-0.8-0.9-0.8-1.6s0.1-1.2,0.6-1.7c0.4-0.5,1-0.7,1.6-0.8
			c0.7-0.1,1.2,0.1,1.7,0.5s0.8,0.9,0.8,1.6c0.1,0.7-0.1,1.2-0.6,1.7c-0.4,0.5-1,0.7-1.6,0.8C-211.2-251.1-211.8-251.3-212.2-251.7z
			 M-211.7-247.4c1-0.1,2-0.2,3-0.2c0.6,7.1,1.1,14.2,1.7,21.3c-1,0.1-2,0.2-3.1,0.2C-210.6-233.2-211.2-240.3-211.7-247.4z"/>
		<path class="st1" d="M-196.1-228.2c-1.8-0.7-3.3-1.9-4.4-3.5s-1.7-3.5-1.9-5.9c-0.2-2.2,0.1-4.2,1-5.9c0.9-1.7,2.1-3.1,3.7-4.2
			c1.6-1,3.5-1.7,5.6-1.9c2.5-0.2,4.6-0.1,6.5,0.5c-0.1,0.8-0.2,1.6-0.2,2.4c-0.8-0.2-1.7-0.4-2.8-0.5c-1.1-0.1-2.1-0.1-3.1,0
			c-1.7,0.2-3.1,0.7-4.3,1.5c-1.2,0.9-2.1,2-2.6,3.3c-0.6,1.3-0.8,2.8-0.6,4.5c0.2,2.6,1.1,4.6,2.7,6.1s3.8,2.1,6.8,1.8
			c1-0.1,2-0.3,3-0.7c1-0.3,2-0.8,2.9-1.3c0.2,0.7,0.5,1.5,0.7,2.2c-2.1,1.2-4.4,2-6.7,2.2C-192.3-227.2-194.3-227.5-196.1-228.2z"
			/>
		<path class="st1" d="M-181.4-254.7c-0.5-0.4-0.8-0.9-0.9-1.6s0.1-1.2,0.5-1.7s0.9-0.8,1.6-0.8c0.7-0.1,1.2,0.1,1.8,0.5
			c0.5,0.4,0.8,0.9,0.9,1.5c0.1,0.7-0.1,1.2-0.5,1.7s-1,0.8-1.6,0.8C-180.3-254.1-180.9-254.3-181.4-254.7z M-180.8-250.4
			c1-0.1,2-0.2,3-0.3c0.8,7.1,1.7,14.2,2.5,21.3c-1,0.1-2,0.2-3.1,0.4C-179.1-236.2-179.9-243.3-180.8-250.4z"/>
		<path class="st1" d="M-164.9-231.8c-1.8-0.7-3.2-1.9-4.2-3.5c-1.1-1.6-1.7-3.4-2-5.4c-0.3-2.1-0.1-4,0.6-5.8
			c0.6-1.8,1.7-3.2,3.2-4.4c1.5-1.2,3.4-1.9,5.8-2.2c2.2-0.3,4.1-0.1,5.8,0.6c1.7,0.7,3.1,1.9,4.2,3.4c1.1,1.6,1.8,3.4,2.1,5.4
			c0.3,2,0.2,3.9-0.4,5.7c-0.6,1.8-1.7,3.3-3.2,4.5s-3.5,2-5.9,2.3C-161.1-230.9-163.1-231.1-164.9-231.8z M-153.7-236.6
			c1.2-1.8,1.6-4,1.2-6.7c-0.4-2.6-1.4-4.6-3-6s-3.6-1.9-5.9-1.6s-4,1.3-5.2,3.1c-1.2,1.7-1.6,3.9-1.3,6.6c0.2,1.8,0.8,3.3,1.6,4.5
			c0.8,1.2,1.9,2.1,3.1,2.7c1.3,0.6,2.7,0.7,4.2,0.5C-156.7-233.8-154.9-234.9-153.7-236.6z"/>
		<path class="st1" d="M-140.4-234.4c-1.3-0.1-2.5-0.3-3.5-0.6c0-0.8-0.1-1.7-0.1-2.5c1.1,0.4,2.3,0.6,3.5,0.7s2.4,0,3.6-0.1
			c1.6-0.3,2.8-0.8,3.6-1.6c0.8-0.8,1.1-1.7,0.9-2.9c-0.1-0.8-0.4-1.4-0.8-1.8s-0.9-0.7-1.6-0.9c-0.7-0.2-1.7-0.4-3.2-0.7
			c-2.6-0.5-4.5-1.1-5.6-1.9c-1.2-0.8-1.8-1.9-2.1-3.4c-0.3-1.7,0.2-3.1,1.5-4.3c1.2-1.2,3-2,5.3-2.4c1.9-0.3,3.8-0.3,5.7,0
			c0,0.8,0.1,1.6,0.1,2.4c-1.9-0.3-3.7-0.3-5.3-0.1c-1.5,0.3-2.6,0.7-3.4,1.4c-0.7,0.7-1,1.5-0.9,2.4s0.6,1.6,1.4,2.1
			s2.2,0.9,4.2,1.2c2.3,0.4,4.1,0.9,5.3,1.6c1.2,0.7,1.9,1.9,2.2,3.5c0.3,2-0.1,3.6-1.4,5c-1.3,1.3-3.1,2.2-5.4,2.6
			C-137.8-234.3-139.1-234.3-140.4-234.4z"/>
	</g>
</g>
<path class="st0" d="M1575.3,114.4c-161.1,30.7-326.5,30.7-487.6,0c7.3-38.1,14.5-76.3,21.8-114.4c146.7,28,297.3,28,443.9,0
	L1575.3,114.4"/>
<g>
	<g>
		<path class="st1" d="M1195.9,53.3c-2-1.6-3.5-3.5-4.3-5.8s-1-4.8-0.5-7.4c0.5-2.7,1.5-5.1,3.1-7s3.6-3.3,6-4.2
			c2.4-0.8,5.1-1,8-0.6c1.6,0.3,3.1,0.7,4.6,1.3s2.7,1.3,3.7,2c-0.3,0.9-0.5,1.7-0.8,2.6c-2.3-1.7-5-2.8-8-3.3
			c-2.3-0.4-4.4-0.2-6.3,0.5s-3.5,1.9-4.7,3.5s-2.1,3.5-2.5,5.8c-0.4,2.2-0.2,4.3,0.5,6.2s1.8,3.5,3.4,4.7s3.5,2,5.8,2.4
			c1.5,0.2,3.1,0.3,4.6,0.2c1.6-0.1,3-0.4,4.3-0.8c0,0.9,0,1.7,0,2.6c-2.9,0.9-6.1,1.1-9.4,0.6C1200.5,55.9,1198,54.9,1195.9,53.3z"
			/>
		<path class="st1" d="M1220.2,56.8c-1.5-1.6-2-3.8-1.6-6.7c0.6-4.4,1.2-8.9,1.8-13.3c1,0.1,2,0.3,3,0.4c-0.6,4.5-1.2,8.9-1.8,13.4
			c-0.3,1.9,0.1,3.4,1.1,4.6c1,1.2,2.5,1.9,4.5,2.1c2,0.3,3.5-0.1,4.7-1c1.1-0.9,1.8-2.3,2-4.1c0.5-4.5,1.1-8.9,1.6-13.4
			c1,0.1,2,0.2,3,0.4c-0.5,4.4-1,8.9-1.5,13.3c-0.3,2.6-1.3,4.5-3.1,5.8c-1.8,1.3-4.1,1.8-7,1.4C1224,59.4,1221.7,58.4,1220.2,56.8z
			"/>
		<path class="st1" d="M1245.4,35.6c-0.4-0.5-0.6-1.1-0.5-1.7c0.1-0.7,0.4-1.2,0.9-1.6c0.5-0.4,1.1-0.5,1.7-0.5
			c0.7,0.1,1.2,0.3,1.6,0.8s0.6,1.1,0.5,1.7c-0.1,0.7-0.4,1.2-0.9,1.6c-0.5,0.4-1.1,0.5-1.8,0.5
			C1246.3,36.4,1245.8,36.1,1245.4,35.6z M1245.1,39.9c1,0.1,2,0.2,3,0.3c-0.7,7.1-1.5,14.2-2.2,21.3c-1-0.1-2-0.2-3.1-0.3
			C1243.6,54.1,1244.3,47,1245.1,39.9z"/>
		<path class="st1" d="M1256.6,61.6c-1.5-1.1-2.7-2.5-3.4-4.2c-0.7-1.7-1-3.7-0.8-5.8c0.2-2.2,0.9-4.1,2-5.7
			c1.1-1.6,2.6-2.8,4.4-3.6s3.6-1.1,5.5-0.9c1.5,0.1,2.9,0.5,4,1.1c1.2,0.6,2,1.3,2.6,2.1h0.1c0.3-3.4,0.5-6.7,0.8-10.1
			c1-0.2,2-0.4,3-0.6c-0.6,8.2-1.2,16.4-1.8,24.6c-0.1,1.3-0.2,3.1-0.3,5.4c-0.9-0.1-1.7-0.1-2.6-0.2c0-0.5-0.1-1.5-0.2-3h-0.1
			c-0.9,0.9-2,1.6-3.4,2.2c-1.4,0.5-2.9,0.7-4.5,0.6C1260,63.3,1258.1,62.6,1256.6,61.6z M1266.9,60.3c1.3-0.6,2.3-1.5,3.1-2.6
			c0.2-2.3,0.3-4.7,0.5-7c0.1-1.8-0.4-3.4-1.5-4.7s-2.8-2-4.9-2.2c-1.5-0.1-2.9,0.1-4.2,0.8c-1.2,0.6-2.3,1.6-3,2.8
			c-0.8,1.3-1.2,2.7-1.4,4.4c-0.2,1.8,0,3.3,0.6,4.7s1.4,2.4,2.5,3.2s2.4,1.2,3.9,1.4C1264.2,61.2,1265.6,60.9,1266.9,60.3z"/>
		<path class="st1" d="M1280.7,62.9c-1.4-1.3-2-3.1-1.9-5.2c0.1-1.7,0.8-3,2.1-3.8c1.3-0.9,3.1-1.2,5.5-1.1c1.2,0.1,2.3,0.1,3.5,0.2
			c1.1,0.1,2.3,0.2,3.8,0.3c0-0.7,0.1-1.3,0.1-2c0.1-2-0.3-3.4-1.2-4.3c-0.9-0.9-2.3-1.4-4.3-1.6c-2.1-0.1-4.3,0.1-6.6,0.6
			c-0.1-0.8-0.1-1.5-0.2-2.3c1-0.2,2.2-0.4,3.5-0.6c1.3-0.1,2.6-0.2,3.9-0.1c2.7,0.1,4.7,0.9,6,2.2c1.4,1.3,2,3.2,1.9,5.7
			c-0.1,3-0.3,5.9-0.4,8.9c-0.1,1.3-0.1,3.1-0.1,5.4c-0.9,0-1.7-0.1-2.6-0.1c-0.1-0.6-0.1-1.5-0.3-2.7h-0.1
			c-0.6,0.9-1.5,1.6-2.7,2.1s-2.6,0.7-4.3,0.6C1284,65,1282.1,64.3,1280.7,62.9z M1291.6,61.6c1.2-0.9,1.8-2.2,1.9-3.9
			c0-0.7,0.1-1.4,0.1-2.2c-2.6-0.1-5.1-0.3-7.7-0.4c-1.2-0.1-2.1,0.1-2.8,0.5c-0.7,0.4-1,1.2-1.1,2.3c-0.1,1.4,0.3,2.6,1.3,3.4
			c0.9,0.8,2.2,1.3,3.7,1.4C1288.9,62.8,1290.4,62.4,1291.6,61.6z"/>
		<path class="st1" d="M1306.8,64.6c-1.6-1-2.8-2.3-3.6-4c-0.8-1.7-1.2-3.6-1.1-5.7c0.1-2.2,0.7-4.2,1.7-5.8c1-1.7,2.4-2.9,4.1-3.8
			c1.7-0.9,3.5-1.3,5.5-1.3c1.5,0,2.9,0.3,4.1,0.9c1.2,0.5,2.1,1.2,2.7,2h0.1c0-3.4,0.1-6.8,0.1-10.1c1-0.3,2-0.5,3-0.8
			c-0.1,8.2-0.2,16.4-0.3,24.6c0,1.3,0,3.1,0,5.4c-0.9,0-1.7,0-2.6,0c-0.1-0.5-0.2-1.5-0.3-3h-0.1c-0.8,1-1.9,1.8-3.3,2.4
			c-1.3,0.6-2.8,0.9-4.4,0.9C1310.2,66.1,1308.3,65.6,1306.8,64.6z M1317,62.7c1.3-0.7,2.3-1.6,3-2.8c0-2.3,0.1-4.7,0.1-7
			c0-1.8-0.6-3.4-1.8-4.6c-1.2-1.2-2.9-1.9-5-1.9c-1.5,0-2.9,0.3-4.1,1s-2.2,1.7-2.9,3c-0.7,1.3-1.1,2.8-1.1,4.5
			c-0.1,1.8,0.2,3.3,0.9,4.6c0.6,1.3,1.5,2.3,2.7,3.1c1.2,0.7,2.5,1.1,4,1.1C1314.3,63.8,1315.7,63.4,1317,62.7z"/>
		<path class="st1" d="M1333.4,64.9c-1.7-1-2.9-2.3-3.7-4c-0.8-1.7-1.3-3.6-1.3-5.6c0-2.1,0.4-4,1.3-5.7s2.1-3,3.8-4
			c1.7-1,3.7-1.5,6-1.5c2.2,0,4.1,0.4,5.7,1.4c1.6,0.9,2.8,2.3,3.7,3.9c0.9,1.7,1.3,3.6,1.4,5.6c0,2-0.3,3.9-1.1,5.6
			c-0.8,1.7-2.1,3.1-3.7,4.1c-1.7,1-3.7,1.6-6.1,1.6C1337,66.3,1335.1,65.9,1333.4,64.9z M1345.1,61.6c1.4-1.6,2.1-3.7,2-6.5
			c-0.1-2.7-0.8-4.8-2.2-6.3c-1.4-1.5-3.3-2.3-5.6-2.3c-2.3,0-4.2,0.8-5.6,2.4c-1.4,1.6-2.1,3.7-2.1,6.4c0,1.8,0.3,3.3,1,4.7
			c0.7,1.3,1.6,2.3,2.8,3c1.2,0.7,2.5,1.1,4.1,1C1341.8,64,1343.7,63.2,1345.1,61.6z"/>
		<path class="st1" d="M1369,64.2c-1.7-0.8-3-2.1-3.9-3.7c-1-1.6-1.5-3.5-1.6-5.6c-0.1-2.2,0.3-4.2,1.3-5.9c0.9-1.7,2.2-3.1,3.8-4.1
			c1.6-1,3.4-1.6,5.4-1.7c1.5-0.1,2.9,0.1,4.1,0.6c1.2,0.4,2.2,1,2.8,1.8h0.1c-0.2-3.4-0.4-6.7-0.6-10.1c1-0.3,1.9-0.7,2.9-1
			c0.5,8.2,1.1,16.4,1.6,24.6c0.1,1.3,0.2,3.1,0.4,5.4c-0.9,0.1-1.7,0.1-2.6,0.2c-0.1-0.5-0.3-1.5-0.6-2.9h-0.1
			c-0.8,1-1.8,1.9-3.1,2.6c-1.3,0.7-2.7,1.1-4.3,1.2C1372.5,65.4,1370.6,65,1369,64.2z M1379,61.5c1.2-0.8,2.1-1.8,2.8-3
			c-0.1-2.3-0.3-4.7-0.4-7c-0.1-1.8-0.8-3.3-2.1-4.5c-1.3-1.1-3-1.7-5.2-1.5c-1.5,0.1-2.9,0.5-4,1.3s-2,1.9-2.6,3.2
			c-0.6,1.4-0.9,2.9-0.8,4.6c0.1,1.8,0.5,3.3,1.2,4.6s1.7,2.2,2.9,2.8c1.2,0.6,2.6,0.9,4,0.8C1376.4,62.7,1377.8,62.3,1379,61.5z"/>
		<path class="st1" d="M1393.4,61.3c-2.1-1.7-3.3-4.4-3.6-8.1c-0.1-2.1,0.1-4.1,0.8-5.8c0.7-1.7,1.8-3.1,3.3-4.2
			c1.5-1.1,3.3-1.7,5.5-1.9c2.9-0.2,5.2,0.4,6.8,1.9c1.6,1.5,2.5,3.6,2.9,6.2c0.1,1.1,0.1,2.1,0.1,3c-5.4,0.5-10.8,1-16.2,1.4
			c0.3,2.4,1.1,4.3,2.6,5.6s3.6,1.8,6.4,1.6c1-0.1,2-0.3,3.2-0.6s2.2-0.8,3.1-1.3c0.2,0.7,0.5,1.5,0.7,2.2c-2.3,1.2-4.7,1.9-7.1,2.2
			C1398.4,63.7,1395.6,63,1393.4,61.3z M1406.1,50.4c0-0.2,0-0.6-0.1-1.1c-0.2-1.8-0.8-3.2-1.8-4.2s-2.6-1.5-4.7-1.3
			c-2.2,0.2-3.8,1-5,2.4c-1.1,1.4-1.7,3.2-1.7,5.3C1397.3,51.1,1401.7,50.8,1406.1,50.4z"/>
		<path class="st1" d="M1421.7,31.7c1-0.4,1.9-0.8,2.9-1.2c1.2,10,2.3,19.9,3.5,29.9c-1,0.1-2,0.2-3.1,0.4
			C1423.9,51,1422.8,41.4,1421.7,31.7z"/>
		<path class="st1" d="M1438.5,58c-1.8-0.7-3.2-1.9-4.2-3.5c-1.1-1.6-1.7-3.4-2-5.4c-0.3-2.1-0.1-4,0.6-5.8c0.6-1.8,1.7-3.2,3.3-4.4
			c1.5-1.2,3.4-1.9,5.8-2.2c2.2-0.3,4.1-0.1,5.8,0.6c1.7,0.7,3.1,1.9,4.2,3.4c1.1,1.6,1.8,3.4,2.1,5.4c0.3,2,0.2,3.9-0.4,5.7
			s-1.7,3.3-3.2,4.5s-3.5,2-5.9,2.3C1442.2,59,1440.2,58.8,1438.5,58z M1449.6,53.2c1.2-1.8,1.6-4,1.2-6.7s-1.4-4.6-3-6
			s-3.6-1.9-5.9-1.6c-2.3,0.3-4,1.3-5.2,3.1c-1.2,1.7-1.6,3.9-1.3,6.6c0.2,1.8,0.7,3.3,1.6,4.5c0.8,1.2,1.9,2.1,3.1,2.7
			c1.3,0.6,2.7,0.7,4.2,0.5C1446.7,56,1448.5,55,1449.6,53.2z"/>
		<path class="st1" d="M1462.9,55.5c-1.3-0.1-2.5-0.3-3.5-0.6c0-0.8-0.1-1.7-0.1-2.5c1.1,0.4,2.3,0.6,3.5,0.7c1.2,0.1,2.4,0,3.6-0.1
			c1.6-0.3,2.8-0.8,3.6-1.6c0.8-0.8,1.1-1.7,0.9-2.9c-0.1-0.8-0.4-1.4-0.8-1.8c-0.4-0.4-0.9-0.7-1.6-0.9s-1.7-0.4-3.2-0.7
			c-2.6-0.5-4.5-1.1-5.6-1.9c-1.2-0.8-1.8-1.9-2.1-3.4c-0.3-1.7,0.2-3.1,1.5-4.3c1.2-1.2,3-2,5.3-2.4c1.9-0.3,3.8-0.3,5.7,0
			c0,0.8,0.1,1.6,0.1,2.4c-1.9-0.3-3.7-0.3-5.3-0.1c-1.5,0.3-2.6,0.7-3.4,1.4c-0.7,0.7-1,1.5-0.9,2.4s0.6,1.6,1.4,2.1
			s2.2,0.9,4.2,1.2c2.3,0.4,4.1,0.9,5.3,1.6c1.2,0.7,1.9,1.9,2.2,3.5c0.3,2-0.1,3.6-1.4,5c-1.3,1.3-3.1,2.2-5.4,2.6
			C1465.5,55.5,1464.2,55.6,1462.9,55.5z"/>
		<path class="st1" d="M1187,81.5c0.9,0.2,1.9,0.3,2.8,0.5c0,0.6,0,1.3-0.1,1.9c1.2-0.5,2.5-0.8,3.9-1s2.7-0.2,4.1,0
			c1.3,0.2,2.4,0.6,3.4,1.2s1.8,1.4,2.3,2.3c1.3-0.6,2.7-1,4.3-1.3c1.6-0.3,3.1-0.3,4.5-0.1c2.5,0.3,4.2,1.2,5.4,2.7
			c1.1,1.4,1.6,3.4,1.2,5.9c-0.6,4.7-1.2,9.4-1.8,14c-1.1-0.1-2.2-0.3-3.2-0.4c0.6-4.3,1.2-8.6,1.7-12.9c0.3-1.9,0.1-3.4-0.3-4.5
			c-0.6-1.4-2-2.2-4.1-2.5c-1.1-0.1-2.3-0.1-3.7,0.1c-1.4,0.2-2.6,0.6-3.5,1.1c0.1,0.9,0.1,2-0.2,3.4c-0.7,4.5-1.3,9-2,13.5
			c-1.1-0.2-2.2-0.3-3.2-0.5c0.7-4.3,1.3-8.6,2-12.8c0.2-1.1,0.2-2,0.2-2.6c0-0.7-0.1-1.3-0.3-1.9c-0.6-1.4-1.9-2.2-3.9-2.6
			c-1.2-0.2-2.5-0.2-3.8,0.1c-1.3,0.3-2.4,0.6-3.3,1.1c-0.9,5.6-1.9,11.2-2.8,16.8c-1.1-0.2-2.1-0.4-3.2-0.5
			C1184.6,95.5,1185.8,88.5,1187,81.5z"/>
		<path class="st1" d="M1225.4,107.2c-1.4-1.4-2-3.2-1.7-5.3c0.2-1.7,1-2.9,2.5-3.7c1.4-0.8,3.4-1,5.9-0.7c1.2,0.1,2.5,0.3,3.7,0.4
			c1.1,0.1,2.5,0.3,4,0.6c0.1-0.7,0.1-1.3,0.2-2c0.2-2-0.1-3.4-1-4.4s-2.4-1.6-4.5-1.8c-2.2-0.3-4.6-0.2-7,0.1c0-0.8,0-1.5-0.1-2.3
			c1.1-0.2,2.3-0.3,3.7-0.3c1.4,0,2.8,0,4.1,0.2c2.8,0.3,4.9,1.2,6.3,2.6s1.9,3.3,1.7,5.8c-0.3,3-0.6,5.9-0.9,8.9
			c-0.1,1.3-0.3,3.1-0.5,5.4c-0.9-0.1-1.8-0.2-2.7-0.3c0-0.6-0.1-1.5-0.1-2.7h-0.1c-0.7,0.9-1.7,1.5-3,1.9s-2.8,0.5-4.6,0.3
			C1228.7,109.5,1226.8,108.7,1225.4,107.2z M1237,106.6c1.3-0.8,2-2.1,2.2-3.7c0.1-0.7,0.2-1.4,0.2-2.2c-2.7-0.3-5.4-0.6-8.1-0.9
			c-1.2-0.1-2.2,0-3,0.4c-0.7,0.4-1.2,1.1-1.3,2.2c-0.2,1.4,0.2,2.6,1.2,3.5s2.2,1.5,3.9,1.6C1234,107.7,1235.7,107.4,1237,106.6z
			 M1231.5,83.2c3.3-1.3,6.5-2.6,9.7-4c0.5,0.9,1,1.8,1.5,2.8c-3.3,1.1-6.7,2.2-10.1,3.3C1232.2,84.6,1231.8,83.9,1231.5,83.2z"/>
		<path class="st1" d="M1251,111.4c-1.3-0.4-2.5-0.9-3.4-1.5c0.2-0.8,0.4-1.6,0.6-2.5c1,0.6,2.2,1.1,3.4,1.5
			c1.2,0.4,2.5,0.7,3.7,0.8c1.7,0.1,3.1-0.1,4.1-0.6s1.5-1.4,1.6-2.5c0.1-0.8,0-1.4-0.3-1.9s-0.8-0.9-1.4-1.2
			c-0.6-0.4-1.7-0.8-3.1-1.5c-2.5-1.1-4.3-2.2-5.3-3.3c-1-1.1-1.4-2.3-1.2-3.8c0.2-1.7,1-2.9,2.6-3.8c1.6-0.8,3.6-1.2,6-0.9
			c2,0.2,3.9,0.6,5.8,1.4c-0.2,0.8-0.4,1.6-0.5,2.4c-1.9-0.8-3.7-1.2-5.4-1.4c-1.6-0.1-2.9,0-3.8,0.5s-1.4,1.2-1.5,2.1
			s0.2,1.7,0.9,2.3c0.7,0.7,2,1.4,4,2.2c2.3,0.9,4,1.9,5,2.9s1.5,2.3,1.3,3.9c-0.2,2-1.1,3.5-2.7,4.5c-1.7,1-3.7,1.4-6.2,1.1
			C1253.7,112.1,1252.3,111.8,1251,111.4z"/>
		<path class="st1" d="M1280.4,92.2c1,0.1,1.9,0.1,2.9,0.2c0,1.1,0,2.2,0,3.3c1-1.1,2.2-1.9,3.7-2.5s3.1-0.8,4.8-0.7
			c1.9,0.1,3.7,0.6,5.3,1.5c1.6,0.9,2.9,2.2,3.8,3.9c0.9,1.7,1.4,3.6,1.3,5.9c-0.1,2.2-0.6,4.2-1.7,5.9c-1,1.7-2.5,2.9-4.3,3.8
			s-3.8,1.2-6,1.1c-1.6-0.1-3.1-0.4-4.5-1c-1.3-0.6-2.4-1.3-3.3-2.1c-0.2,3.7-0.4,7.4-0.6,11.1c-1.1,0.2-2.2,0.4-3.3,0.7
			C1279.1,112.9,1279.7,102.5,1280.4,92.2z M1296.4,110c1.5-1.6,2.2-3.7,2.3-6.2c0.1-1.8-0.2-3.4-0.9-4.7c-0.6-1.3-1.6-2.3-2.7-3
			c-1.2-0.7-2.5-1.1-4-1.2c-1.4-0.1-2.7,0.2-3.9,0.7c-1.2,0.5-2.2,1.3-2.9,2.2c-0.8,1-1.2,2-1.2,3.1c-0.1,2.5-0.3,5-0.4,7.6
			c0.8,1,1.9,1.9,3.2,2.6c1.3,0.7,2.8,1.1,4.4,1.1C1292.9,112.3,1294.9,111.5,1296.4,110z"/>
		<path class="st1" d="M1309.2,112.5c-2.1-1.9-3-4.7-2.9-8.4c0.1-2.1,0.6-4,1.5-5.7s2.3-2.9,4-3.9c1.7-0.9,3.7-1.4,6-1.3
			c3.1,0.1,5.4,0.9,6.9,2.5c1.5,1.7,2.3,3.8,2.4,6.5c0,1.1-0.1,2.1-0.2,3c-5.8,0-11.5-0.1-17.3-0.3c0,2.5,0.7,4.4,2.1,5.8
			s3.6,2.2,6.6,2.2c1,0,2.2-0.1,3.4-0.3c1.3-0.2,2.4-0.5,3.4-1c0.2,0.8,0.3,1.5,0.5,2.3c-2.5,1-5.1,1.5-7.7,1.4
			C1314.1,115.4,1311.2,114.4,1309.2,112.5z M1323.7,102.9c0-0.2,0.1-0.6,0.1-1.1c0-1.8-0.5-3.3-1.5-4.4s-2.6-1.7-4.8-1.7
			c-2.3,0-4.1,0.6-5.5,1.9s-2.1,3-2.3,5.1C1314.3,102.8,1319,102.9,1323.7,102.9z"/>
		<path class="st1" d="M1350.3,112.3c-0.8,0.9-1.9,1.7-3.3,2.3c-1.4,0.6-2.9,0.9-4.6,0.9c-2.2,0-4.2-0.4-5.9-1.3
			c-1.8-0.9-3.1-2.2-4.1-3.8c-1-1.7-1.5-3.7-1.5-6c0-2.2,0.6-4.2,1.7-5.9c1.1-1.7,2.5-2.9,4.3-3.8c1.7-0.9,3.5-1.4,5.4-1.4
			c1.8,0,3.3,0.2,4.7,0.8c1.3,0.6,2.4,1.3,3.1,2.3c0.1-1,0.2-1.9,0.3-2.9c0.9,0,1.8,0,2.7-0.1c0.2,10.1,0.5,20.1,0.7,30.2
			c-1.1,0.3-2.2,0.6-3.3,0.9C1350.5,120.5,1350.4,116.4,1350.3,112.3z M1347.2,111.9c1.3-0.7,2.3-1.7,3.1-2.8
			c-0.1-2.4-0.1-4.8-0.2-7.2c0-1-0.3-2-1-3c-0.6-1-1.5-1.7-2.7-2.3c-1.1-0.6-2.5-0.9-4-0.8c-1.4,0-2.8,0.4-4.1,1.1
			c-1.3,0.7-2.3,1.7-3,3s-1.1,2.8-1.1,4.6c0,1.7,0.3,3.2,1,4.5s1.7,2.4,2.9,3.1c1.3,0.7,2.8,1.1,4.5,1.1
			C1344.4,113.1,1345.8,112.7,1347.2,111.9z"/>
		<path class="st1" d="M1363.3,113c-1.8-1.3-2.8-3.4-2.9-6.3c-0.1-4.5-0.3-8.9-0.4-13.4c1.1,0,2.1-0.1,3.2-0.1
			c0.2,4.5,0.3,9,0.5,13.5c0.1,1.9,0.7,3.3,2,4.3s3,1.4,5.1,1.3s3.7-0.7,4.7-1.8c1-1.1,1.5-2.6,1.4-4.4c-0.2-4.5-0.5-9-0.7-13.5
			c1.1-0.1,2.1-0.1,3.2-0.2c0.2,4.5,0.5,8.9,0.7,13.4c0.1,2.6-0.6,4.7-2.2,6.3c-1.6,1.6-4,2.5-7.1,2.6
			C1367.6,114.8,1365.1,114.3,1363.3,113z"/>
		<path class="st1" d="M1388.9,110.9c-2.2-1.7-3.4-4.4-3.7-8.1c-0.1-2.1,0.2-4.1,1-5.8c0.8-1.7,2-3.1,3.6-4.2s3.6-1.7,5.8-1.9
			c3.1-0.2,5.5,0.4,7.2,1.9s2.6,3.6,2.9,6.3c0.1,1.1,0.1,2.1,0.1,3c-5.7,0.5-11.5,0.9-17.2,1.3c0.2,2.4,1.1,4.3,2.7,5.6
			c1.5,1.3,3.8,1.8,6.8,1.6c1-0.1,2.1-0.3,3.4-0.6c1.2-0.3,2.3-0.8,3.3-1.3c0.2,0.7,0.5,1.5,0.7,2.2c-2.4,1.2-5,1.9-7.6,2.1
			C1394.1,113.4,1391.2,112.6,1388.9,110.9z M1402.5,100c0-0.2,0-0.6,0-1.1c-0.2-1.8-0.8-3.2-1.9-4.2s-2.7-1.5-5-1.3s-4.1,1-5.3,2.4
			c-1.2,1.4-1.9,3.2-1.9,5.3C1393.2,100.8,1397.9,100.4,1402.5,100z"/>
		<path class="st1" d="M1410.4,90.1c1-0.1,1.9-0.2,2.9-0.3c0.2,0.6,0.3,1.3,0.5,1.9c1.1-0.8,2.4-1.5,3.9-2.1
			c1.4-0.6,2.9-0.9,4.3-1.1c2.7-0.3,4.7,0.1,6.2,1.3c0.7,0.6,1.2,1.2,1.6,2.1c0.4,0.8,0.7,1.9,0.8,3.1c0.5,4.8,1.1,9.5,1.6,14.3
			c-1.1,0.1-2.2,0.2-3.2,0.4c-0.5-4.7-1-9.3-1.6-14c-0.2-1.7-0.7-2.9-1.5-3.7c-0.5-0.5-1.1-0.8-1.8-0.9c-0.7-0.2-1.5-0.2-2.6-0.1
			c-1.3,0.1-2.6,0.5-3.9,1c-1.3,0.6-2.5,1.2-3.5,2.1c0.5,5.6,1.1,11.3,1.6,16.9c-1.1,0.1-2.2,0.2-3.2,0.3
			C1411.7,104.4,1411,97.2,1410.4,90.1z M1412.2,85.2c0.3-1.4,0.9-2.5,1.7-3.3c0.8-0.8,1.7-1.3,2.6-1.4c0.6-0.1,1.2,0,1.7,0.1
			c0.6,0.1,1.2,0.4,2,0.8c1.3,0.6,2.2,0.9,2.8,0.8c0.5-0.1,0.9-0.3,1.2-0.7c0.3-0.4,0.5-1,0.7-1.8c0.7,0.2,1.4,0.5,2.1,0.7
			c-0.2,1.2-0.6,2.2-1.3,3c-0.7,0.8-1.5,1.3-2.6,1.4c-0.6,0.1-1.2,0-1.8-0.1c-0.6-0.1-1.2-0.4-1.9-0.7c-0.7-0.3-1.2-0.5-1.7-0.7
			c-0.5-0.1-0.9-0.2-1.2-0.1c-0.5,0.1-1,0.3-1.4,0.8s-0.7,1.1-0.9,1.9C1413.7,85.7,1412.9,85.4,1412.2,85.2z"/>
		<path class="st1" d="M1442.8,107.1c-1.9-0.7-3.3-1.9-4.4-3.5s-1.8-3.4-2-5.4c-0.3-2.1,0-4,0.7-5.8s1.9-3.3,3.5-4.4
			c1.6-1.2,3.7-1.9,6.1-2.3c2.3-0.3,4.4-0.1,6.2,0.6c1.8,0.7,3.3,1.9,4.4,3.4c1.1,1.6,1.8,3.4,2.1,5.4c0.3,2,0.1,3.9-0.5,5.7
			c-0.6,1.8-1.8,3.3-3.4,4.6c-1.6,1.2-3.7,2-6.2,2.4C1446.7,108,1444.6,107.8,1442.8,107.1z M1454.7,102.2c1.3-1.8,1.7-4,1.3-6.7
			c-0.4-2.7-1.4-4.6-3.1-6c-1.7-1.3-3.8-1.9-6.2-1.5c-2.4,0.3-4.3,1.4-5.6,3.1c-1.3,1.7-1.8,3.9-1.4,6.6c0.2,1.8,0.8,3.3,1.6,4.5
			c0.9,1.2,2,2.1,3.3,2.7c1.3,0.5,2.8,0.7,4.4,0.5C1451.5,105,1453.4,104,1454.7,102.2z"/>
		<path class="st1" d="M1468.7,104.4c-1.4-0.1-2.6-0.3-3.7-0.6c0-0.8,0-1.7-0.1-2.5c1.2,0.3,2.4,0.6,3.7,0.6c1.3,0.1,2.6,0,3.8-0.2
			c1.7-0.3,3-0.8,3.8-1.6c0.8-0.8,1.2-1.7,1-2.9c-0.1-0.8-0.4-1.4-0.8-1.8s-0.9-0.7-1.6-0.9c-0.7-0.2-1.8-0.4-3.3-0.7
			c-2.7-0.4-4.7-1.1-5.9-1.9c-1.2-0.8-1.9-1.9-2.2-3.4c-0.3-1.7,0.3-3.1,1.6-4.3c1.3-1.2,3.2-2,5.6-2.4c2-0.3,4-0.3,6,0
			c0,0.8,0,1.6,0.1,2.4c-2-0.3-3.9-0.3-5.6,0c-1.6,0.3-2.8,0.7-3.6,1.4c-0.8,0.7-1.1,1.5-1,2.4s0.6,1.6,1.4,2.1s2.3,0.9,4.5,1.2
			c2.5,0.3,4.3,0.9,5.6,1.6c1.2,0.7,2,1.9,2.3,3.5c0.3,2-0.2,3.6-1.6,5s-3.3,2.2-5.8,2.6C1471.4,104.4,1470.1,104.5,1468.7,104.4z"
			/>
	</g>
</g>
<path class="st0" d="M1575.3-45.7c-161.1,30.7-326.5,30.7-487.6,0c7.3-38.1,14.5-76.3,21.8-114.4c146.7,28,297.3,28,443.9,0
	L1575.3-45.7"/>
<g>
	<g>
		<path class="st1" d="M1173.7-78c-2-1.6-3.4-3.5-4.2-5.8c-0.8-2.3-1-4.8-0.5-7.4c0.5-2.7,1.5-5.1,3.1-7s3.6-3.3,6-4.2
			c2.4-0.8,5.1-1,8-0.6c1.6,0.3,3.1,0.7,4.6,1.3c1.5,0.6,2.7,1.3,3.7,2c-0.3,0.9-0.5,1.7-0.8,2.6c-2.3-1.7-5-2.9-8-3.3
			c-2.3-0.4-4.4-0.2-6.3,0.5s-3.5,1.8-4.7,3.5c-1.2,1.6-2.1,3.5-2.5,5.8c-0.4,2.2-0.2,4.3,0.5,6.2c0.7,1.9,1.8,3.5,3.4,4.7
			s3.5,2,5.7,2.4c1.5,0.2,3.1,0.3,4.6,0.2c1.6-0.1,3-0.4,4.3-0.8c0,0.9,0,1.7,0,2.6c-2.9,0.9-6.1,1.1-9.4,0.6
			C1178.2-75.4,1175.7-76.4,1173.7-78z"/>
		<path class="st1" d="M1197.9-74.5c-1.5-1.6-2-3.8-1.6-6.7c0.6-4.4,1.3-8.8,1.9-13.3c1,0.1,2,0.3,3,0.4c-0.6,4.5-1.2,8.9-1.9,13.4
			c-0.3,1.9,0.1,3.4,1.1,4.6s2.5,1.9,4.5,2.2c2,0.3,3.5-0.1,4.6-1s1.8-2.3,2-4.1c0.6-4.5,1.1-8.9,1.7-13.4c1,0.1,2,0.2,3,0.4
			c-0.5,4.4-1.1,8.9-1.6,13.3c-0.3,2.6-1.4,4.5-3.1,5.8c-1.8,1.3-4.1,1.8-7,1.4C1201.6-71.9,1199.4-72.9,1197.9-74.5z"/>
		<path class="st1" d="M1223.1-95.5c-0.4-0.5-0.6-1.1-0.5-1.7c0.1-0.7,0.4-1.2,0.9-1.6s1.1-0.5,1.7-0.5c0.7,0.1,1.2,0.4,1.6,0.8
			c0.4,0.5,0.6,1.1,0.5,1.7c-0.1,0.7-0.4,1.2-0.9,1.6s-1.1,0.5-1.8,0.5C1224-94.7,1223.5-95,1223.1-95.5z M1222.8-91.2
			c1,0.1,2,0.2,3,0.3c-0.8,7.1-1.6,14.2-2.4,21.3c-1-0.1-2-0.2-3-0.3C1221.2-77,1222-84.1,1222.8-91.2z"/>
		<path class="st1" d="M1234.1-69.4c-1.5-1.1-2.6-2.5-3.3-4.2c-0.7-1.8-1-3.7-0.7-5.8c0.2-2.2,0.9-4.1,2.1-5.7s2.6-2.8,4.4-3.5
			c1.8-0.8,3.6-1,5.5-0.9c1.5,0.1,2.9,0.5,4,1.2c1.2,0.6,2,1.3,2.5,2.2h0.1c0.3-3.4,0.6-6.7,0.9-10.1c1-0.2,2-0.4,3-0.6
			c-0.7,8.2-1.4,16.4-2.1,24.6c-0.1,1.3-0.2,3.1-0.4,5.4c-0.8-0.1-1.7-0.1-2.5-0.2c0-0.5-0.1-1.5-0.1-3h-0.1c-0.9,0.9-2,1.6-3.4,2.1
			s-2.9,0.7-4.5,0.5C1237.4-67.7,1235.6-68.4,1234.1-69.4z M1244.4-70.6c1.3-0.6,2.4-1.5,3.2-2.6c0.2-2.3,0.4-4.7,0.6-7
			c0.2-1.8-0.3-3.4-1.5-4.7c-1.1-1.3-2.8-2.1-4.9-2.3c-1.5-0.1-2.9,0.1-4.2,0.7c-1.2,0.6-2.3,1.6-3.1,2.8c-0.8,1.3-1.3,2.7-1.4,4.4
			c-0.2,1.8,0,3.3,0.5,4.7c0.5,1.4,1.4,2.4,2.5,3.2c1.1,0.8,2.4,1.3,3.9,1.4C1241.6-69.8,1243.1-70,1244.4-70.6z"/>
		<path class="st1" d="M1258.1-67.8c-1.4-1.4-2-3.1-1.8-5.2c0.1-1.7,0.9-3,2.2-3.8c1.3-0.8,3.1-1.2,5.5-1c1.2,0.1,2.3,0.2,3.5,0.2
			c1.1,0.1,2.3,0.2,3.8,0.4c0-0.7,0.1-1.3,0.1-2c0.1-2-0.3-3.4-1.2-4.4c-0.9-0.9-2.3-1.5-4.3-1.6c-2.1-0.1-4.3,0-6.6,0.5
			c-0.1-0.8-0.1-1.5-0.2-2.3c1-0.2,2.2-0.4,3.5-0.5s2.6-0.1,3.9,0c2.7,0.2,4.7,0.9,6,2.3c1.3,1.3,2,3.2,1.8,5.7
			c-0.2,3-0.3,5.9-0.5,8.9c-0.1,1.3-0.2,3.1-0.2,5.4c-0.8,0-1.7-0.1-2.5-0.2c0-0.6-0.1-1.5-0.2-2.7h-0.1c-0.7,0.9-1.6,1.6-2.7,2.1
			c-1.2,0.5-2.6,0.7-4.3,0.5C1261.3-65.7,1259.4-66.5,1258.1-67.8z M1268.9-69c1.2-0.9,1.8-2.2,1.9-3.8c0-0.7,0.1-1.4,0.1-2.2
			c-2.6-0.2-5.1-0.3-7.7-0.5c-1.2-0.1-2.1,0.1-2.8,0.5c-0.7,0.4-1.1,1.2-1.1,2.3c-0.1,1.4,0.3,2.6,1.2,3.4c0.9,0.9,2.2,1.3,3.7,1.5
			C1266.2-67.8,1267.7-68.2,1268.9-69z"/>
		<path class="st1" d="M1284-65.7c-1.6-1-2.8-2.3-3.6-4.1c-0.8-1.7-1.1-3.6-1-5.8c0.1-2.2,0.7-4.1,1.8-5.8c1.1-1.7,2.5-2.9,4.2-3.8
			c1.7-0.8,3.5-1.2,5.5-1.2c1.5,0.1,2.9,0.4,4.1,0.9c1.2,0.6,2.1,1.2,2.7,2h0.1c0.1-3.4,0.2-6.7,0.3-10.1c1-0.3,2-0.5,3-0.8
			c-0.2,8.2-0.5,16.4-0.7,24.6c0,1.3-0.1,3.1-0.1,5.4c-0.8,0-1.7-0.1-2.5-0.1c-0.1-0.5-0.2-1.5-0.3-3h-0.1c-0.9,1-2,1.7-3.3,2.3
			c-1.4,0.6-2.8,0.8-4.4,0.8C1287.4-64.2,1285.6-64.7,1284-65.7z M1294.2-67.5c1.3-0.7,2.3-1.6,3-2.7c0.1-2.3,0.2-4.7,0.2-7
			c0.1-1.8-0.5-3.4-1.7-4.6c-1.2-1.3-2.9-1.9-5-2c-1.5-0.1-2.9,0.2-4.1,0.9c-1.2,0.7-2.2,1.7-2.9,3c-0.7,1.3-1.1,2.8-1.2,4.5
			c-0.1,1.8,0.2,3.3,0.8,4.7c0.6,1.3,1.5,2.4,2.7,3.1s2.5,1.1,3.9,1.2C1291.5-66.5,1292.9-66.8,1294.2-67.5z"/>
		<path class="st1" d="M1310.5-64.9c-1.6-1-2.8-2.4-3.6-4.1c-0.8-1.7-1.2-3.6-1.1-5.7s0.5-4,1.4-5.6c0.9-1.7,2.2-3,3.9-3.9
			c1.7-0.9,3.7-1.4,6-1.4c2.2,0,4.1,0.5,5.7,1.5s2.8,2.3,3.6,4c0.8,1.7,1.2,3.6,1.2,5.7c0,2-0.4,3.9-1.3,5.6c-0.8,1.7-2.1,3-3.8,4
			c-1.7,1-3.7,1.5-6.1,1.4C1314.1-63.4,1312.1-63.9,1310.5-64.9z M1322.2-68c1.4-1.6,2.1-3.7,2.1-6.4c0-2.7-0.7-4.8-2.1-6.4
			s-3.2-2.4-5.5-2.4s-4.2,0.7-5.6,2.3c-1.4,1.5-2.2,3.7-2.2,6.3c0,1.8,0.3,3.3,0.9,4.7c0.6,1.3,1.5,2.4,2.7,3.1s2.5,1.1,4,1.1
			C1318.9-65.7,1320.8-66.5,1322.2-68z"/>
		<path class="st1" d="M1342.3-91.5c5.8-0.1,11.6-0.2,17.4-0.4c-0.4,0.9-0.7,1.8-1.1,2.7c-4.4,0.1-8.9,0.3-13.3,0.3
			c0.1,3.5,0.1,6.9,0.2,10.4c4-0.1,8.1-0.2,12.1-0.3c0,0.9-0.1,1.8-0.1,2.6c-4,0.1-8,0.2-12,0.3c0.1,4,0.1,8,0.2,12.1
			c-1,0-2.1,0-3.1,0.1C1342.5-73.1,1342.4-82.3,1342.3-91.5z"/>
		<path class="st1" d="M1365.3-65.9c-1.5-1.2-2.3-2.9-2.4-5c-0.1-1.7,0.5-3,1.7-4s3-1.5,5.3-1.6c1.2-0.1,2.3-0.1,3.5-0.2
			c1.1-0.1,2.3-0.1,3.8,0c0-0.7-0.1-1.3-0.1-2c-0.1-2-0.7-3.4-1.6-4.2c-1-0.8-2.5-1.2-4.4-1.1c-2.1,0.1-4.3,0.5-6.5,1.2
			c-0.1-0.8-0.3-1.5-0.4-2.3c1-0.3,2.1-0.6,3.4-0.9s2.6-0.4,3.9-0.5c2.7-0.1,4.7,0.4,6.2,1.6s2.3,3,2.5,5.4c0.2,3,0.3,5.9,0.5,8.9
			c0.1,1.3,0.2,3.1,0.4,5.4c-0.8,0-1.7,0.1-2.5,0.1c-0.1-0.6-0.3-1.4-0.5-2.6h-0.1c-0.5,1-1.4,1.8-2.5,2.4s-2.5,0.9-4.2,1
			C1368.8-64.2,1366.8-64.7,1365.3-65.9z M1375.9-68.4c1.1-1,1.6-2.3,1.5-4c0-0.7-0.1-1.4-0.1-2.2c-2.6,0.1-5.1,0.3-7.7,0.4
			c-1.2,0.1-2.1,0.3-2.7,0.8s-0.9,1.3-0.9,2.4c0.1,1.4,0.6,2.5,1.6,3.3s2.3,1.1,3.8,1C1373.4-66.8,1374.9-67.4,1375.9-68.4z"/>
		<path class="st1" d="M1386.3-86.9c0.9-0.1,1.8-0.1,2.7-0.2c0.1,0.6,0.3,1.3,0.4,1.9c1-0.8,2.1-1.4,3.4-1.9
			c1.2-0.5,2.5-0.8,3.7-0.9s2.3,0.1,3.4,0.4c1,0.4,1.9,0.9,2.6,1.7c1-0.9,2.3-1.6,3.6-2.2c1.4-0.6,2.7-1,4.1-1.1
			c2.3-0.2,4.2,0.3,5.5,1.5c1.4,1.2,2.2,3,2.4,5.5c0.5,4.7,0.9,9.4,1.4,14.1c-1,0.1-2,0.2-3.1,0.3c-0.4-4.3-0.8-8.6-1.2-12.9
			c-0.2-1.9-0.6-3.3-1.3-4.3c-0.9-1.2-2.3-1.7-4.3-1.5c-1,0.1-2.1,0.4-3.3,0.9c-1.2,0.5-2.2,1.2-3,1.9c0.3,0.9,0.5,2,0.6,3.4
			c0.4,4.5,0.7,9.1,1.1,13.6c-1,0.1-2,0.2-3.1,0.2c-0.3-4.3-0.7-8.6-1-13c-0.1-1.1-0.2-2-0.4-2.6c-0.2-0.7-0.4-1.2-0.7-1.7
			c-0.8-1.2-2.2-1.8-4.1-1.6c-1.2,0.1-2.3,0.4-3.4,0.9s-2.1,1.2-2.8,1.8c0.4,5.7,0.8,11.3,1.1,17c-1,0.1-2,0.1-3.1,0.2
			C1387.2-72.7,1386.8-79.8,1386.3-86.9z"/>
		<path class="st1" d="M1423.4-94.4c-0.5-0.4-0.8-0.9-0.8-1.6c-0.1-0.7,0.1-1.2,0.5-1.7s0.9-0.8,1.6-0.8c0.7-0.1,1.2,0.1,1.8,0.5
			c0.5,0.4,0.8,0.9,0.9,1.6s-0.1,1.2-0.5,1.7s-1,0.8-1.6,0.8C1424.4-93.8,1423.9-94,1423.4-94.4z M1424-90.1c1-0.1,2-0.2,3-0.3
			c0.8,7.1,1.5,14.2,2.3,21.3c-1,0.1-2,0.2-3,0.3C1425.5-75.9,1424.7-83,1424-90.1z"/>
		<path class="st1" d="M1432.9-98.9c1-0.4,1.9-0.8,2.8-1.2c1.2,9.9,2.4,19.9,3.5,29.8c-1,0.1-2,0.2-3,0.4
			C1435.2-79.6,1434.1-89.3,1432.9-98.9z"/>
		<path class="st1" d="M1442.9-96.6c-0.5-0.4-0.8-0.9-0.9-1.5c-0.1-0.7,0.1-1.2,0.5-1.7s0.9-0.8,1.6-0.9s1.2,0.1,1.8,0.4
			c0.5,0.4,0.8,0.9,0.9,1.5c0.1,0.7-0.1,1.2-0.5,1.7s-0.9,0.8-1.6,0.9C1444-96.1,1443.4-96.2,1442.9-96.6z M1443.7-92.4
			c1-0.1,2-0.3,3-0.4c0.9,7.1,1.8,14.2,2.7,21.2c-1,0.1-2,0.3-3,0.4C1445.4-78.2,1444.6-85.3,1443.7-92.4z"/>
		<path class="st1" d="M1457.1-74c-1.6-1-2.6-2.6-2.9-4.7c-0.2-1.7,0.2-3.1,1.3-4.2c1.1-1.1,2.8-1.8,5.2-2.2
			c1.2-0.2,2.3-0.3,3.5-0.5c1.1-0.2,2.3-0.3,3.8-0.4c-0.1-0.6-0.2-1.3-0.3-1.9c-0.3-1.9-1-3.3-2-4c-1.1-0.7-2.6-1-4.5-0.7
			c-2.1,0.3-4.2,0.9-6.3,1.8c-0.2-0.7-0.4-1.5-0.6-2.2c1-0.4,2.1-0.8,3.3-1.2c1.3-0.4,2.5-0.7,3.8-0.9c2.6-0.4,4.8-0.1,6.4,1
			c1.6,1,2.6,2.8,3,5.2c0.5,2.9,0.9,5.9,1.4,8.8c0.2,1.3,0.5,3.1,0.9,5.3c-0.8,0.1-1.7,0.3-2.5,0.4c-0.2-0.6-0.4-1.4-0.8-2.6h-0.1
			c-0.4,1-1.2,1.9-2.3,2.6c-1.1,0.7-2.4,1.2-4.1,1.4C1460.8-72.6,1458.8-73,1457.1-74z M1467.5-77.5c1-1.1,1.3-2.5,1.1-4.2
			c-0.1-0.7-0.2-1.4-0.3-2.1c-2.5,0.4-5.1,0.8-7.6,1.1c-1.2,0.2-2,0.5-2.6,1.1s-0.8,1.4-0.6,2.4c0.2,1.4,0.8,2.4,1.9,3.1
			c1.1,0.6,2.4,0.9,3.9,0.6C1465.1-75.7,1466.5-76.4,1467.5-77.5z"/>
		<path class="st1" d="M1476.1-97c0.9-0.1,1.8-0.3,2.7-0.4c0.2,1,0.5,2,0.8,3c0.7-1,1.7-2,3-2.8c1.3-0.9,2.6-1.5,4.1-1.9
			c0.1,1,0.2,1.9,0.3,2.9c-1.3,0.2-2.5,0.8-3.8,1.6c-1.3,0.8-2.4,1.7-3.2,2.6c0.9,5.3,1.7,10.5,2.6,15.8c-1,0.2-2,0.3-3,0.5
			C1478.4-83,1477.2-90,1476.1-97z"/>
	</g>
</g>
<path class="st0" d="M1575.3-204.3c-161.1,30.7-326.5,30.7-487.6,0c7.3-38.1,14.5-76.3,21.8-114.4c146.7,28,297.3,28,443.9,0
	L1575.3-204.3"/>
<g>
	<g>
		<path class="st1" d="M1175.4-263.6c3.2,0.6,6.3,1.1,9.5,1.6c2.9,0.5,5.1,1.4,6.4,2.6c1.4,1.3,1.9,3.2,1.5,5.7
			c-0.4,2.8-2,4.6-4.7,5.4v0.1c1.6,0.6,2.9,1.5,3.7,2.9c0.8,1.3,1.1,2.8,0.8,4.4c-0.4,2.7-1.6,4.6-3.5,5.7s-4.4,1.3-7.6,0.8
			c-3.6-0.6-7.3-1.2-10.9-1.8C1172.2-245.4,1173.8-254.5,1175.4-263.6z M1183.5-250c1.8,0.3,3.2,0.1,4.2-0.5c1.1-0.6,1.7-1.8,2-3.4
			s0-2.9-0.9-3.7c-0.9-0.8-2.2-1.4-4-1.7c-2.3-0.4-4.6-0.8-6.8-1.1c-0.5,3.1-1.1,6.2-1.6,9.3C1178.7-250.8,1181.1-250.4,1183.5-250z
			 M1182.1-237c2.1,0.3,3.8,0.2,5-0.5s2-1.9,2.3-3.8c0.3-1.8-0.1-3.1-1.2-4.1s-2.7-1.6-4.8-2c-2.5-0.4-5-0.8-7.5-1.3
			c-0.6,3.4-1.2,6.8-1.8,10.3C1176.8-237.9,1179.5-237.5,1182.1-237z"/>
		<path class="st1" d="M1200.8-261c1-0.1,2-0.3,3.1-0.4c-1.4,9.9-2.8,19.8-4.2,29.8c-1-0.1-2-0.3-3-0.4
			C1198-241.8,1199.4-251.4,1200.8-261z"/>
		<path class="st1" d="M1207.8-232.1c-1.3-1.4-1.8-3.2-1.5-5.3c0.2-1.7,1-2.9,2.4-3.7c1.4-0.8,3.2-1,5.5-0.7
			c1.2,0.1,2.3,0.3,3.5,0.4c1.1,0.1,2.3,0.3,3.7,0.6c0.1-0.7,0.2-1.3,0.2-2c0.2-2-0.1-3.4-0.9-4.4s-2.2-1.6-4.2-1.9
			c-2.1-0.3-4.3-0.2-6.6,0.1c0-0.8,0-1.5,0-2.3c1-0.2,2.2-0.3,3.5-0.3s2.6,0,3.9,0.2c2.6,0.3,4.6,1.2,5.9,2.6s1.8,3.3,1.5,5.8
			c-0.3,2.9-0.7,5.9-1,8.8c-0.2,1.3-0.3,3.1-0.5,5.4c-0.8-0.1-1.7-0.2-2.5-0.3c0-0.6,0-1.5-0.1-2.7h-0.1c-0.7,0.9-1.7,1.5-2.9,1.9
			c-1.2,0.4-2.7,0.5-4.4,0.3C1210.9-229.8,1209.1-230.6,1207.8-232.1z M1218.7-232.7c1.2-0.8,2-2,2.2-3.7c0.1-0.7,0.2-1.4,0.3-2.2
			c-2.6-0.3-5.1-0.6-7.7-0.9c-1.2-0.1-2.1,0-2.8,0.3c-0.7,0.4-1.1,1.1-1.3,2.2c-0.2,1.4,0.2,2.6,1,3.5c0.9,0.9,2.1,1.5,3.6,1.7
			C1215.9-231.6,1217.5-231.9,1218.7-232.7z"/>
		<path class="st1" d="M1232.1-249.2c0.9,0.1,1.8,0.2,2.7,0.3c0,0.7,0,1.3,0,2c1.2-0.6,2.5-1,4-1.3c1.4-0.3,2.8-0.4,4.1-0.2
			c2.5,0.2,4.3,1.1,5.5,2.5c0.5,0.7,0.9,1.5,1.1,2.3c0.2,0.9,0.3,2,0.2,3.2c-0.4,4.8-0.8,9.5-1.3,14.3c-1-0.1-2-0.2-3.1-0.3
			c0.4-4.7,0.8-9.3,1.3-14c0.2-1.7-0.1-3-0.7-3.9c-0.4-0.6-0.8-1-1.4-1.3s-1.4-0.5-2.4-0.6c-1.2-0.1-2.5,0-3.8,0.3s-2.5,0.7-3.7,1.3
			c-0.6,5.6-1.2,11.3-1.8,16.9c-1-0.1-2-0.2-3.1-0.3C1230.6-235,1231.3-242.1,1232.1-249.2z"/>
		<path class="st1" d="M1272-227.1c-0.8,0.9-1.9,1.6-3.3,2.1c-1.3,0.5-2.8,0.7-4.4,0.6c-2.1-0.1-3.9-0.7-5.5-1.7s-2.7-2.4-3.5-4.1
			s-1.1-3.8-0.9-6.1c0.2-2.2,0.9-4.1,2-5.7c1.2-1.6,2.6-2.7,4.3-3.5c1.7-0.8,3.4-1.1,5.2-1c1.7,0.1,3.1,0.5,4.3,1.2
			c1.2,0.7,2.1,1.5,2.7,2.6c0.2-1,0.4-1.9,0.6-2.9c0.8,0.1,1.7,0.1,2.5,0.2c-0.6,10-1.2,20.1-1.8,30.1c-1,0.2-2.1,0.5-3.1,0.7
			C1271.5-218.9,1271.8-223,1272-227.1z M1269.1-227.6c1.3-0.6,2.3-1.5,3.1-2.6c0.1-2.4,0.3-4.8,0.4-7.2c0.1-1-0.2-2.1-0.7-3.1
			s-1.3-1.8-2.3-2.5s-2.2-1.1-3.7-1.2c-1.4-0.1-2.7,0.2-3.9,0.8c-1.2,0.6-2.3,1.5-3.1,2.8c-0.8,1.2-1.3,2.7-1.4,4.5
			c-0.1,1.7,0.1,3.2,0.6,4.6s1.4,2.5,2.5,3.3s2.5,1.3,4.1,1.4C1266.4-226.7,1267.8-227,1269.1-227.6z"/>
		<path class="st1" d="M1284.1-225.3c-1.6-1.4-2.3-3.6-2.2-6.5c0.2-4.5,0.5-8.9,0.7-13.4c1,0.1,2,0.1,3,0.1c-0.2,4.5-0.4,9-0.6,13.5
			c-0.1,1.9,0.4,3.4,1.5,4.4c1.1,1.1,2.7,1.7,4.7,1.7c2,0.1,3.5-0.4,4.5-1.4s1.6-2.4,1.7-4.3c0.2-4.5,0.3-9,0.5-13.5
			c1,0,2,0.1,3,0.1c-0.1,4.5-0.3,8.9-0.4,13.4c-0.1,2.6-0.9,4.6-2.6,6.1c-1.6,1.4-3.9,2.1-6.8,2
			C1288-223.1,1285.7-223.9,1284.1-225.3z"/>
		<path class="st1" d="M1308.3-225.2c-1.9-1.9-2.9-4.7-2.8-8.4c0.1-2.1,0.5-4,1.4-5.7s2.1-3,3.7-3.9s3.5-1.4,5.6-1.3
			c2.9,0,5.1,0.9,6.5,2.5s2.2,3.8,2.2,6.5c0,1.1-0.1,2.1-0.2,3c-5.4,0-10.8-0.1-16.2-0.2c0,2.5,0.7,4.4,2,5.8s3.4,2.1,6.2,2.2
			c1,0,2-0.1,3.2-0.3c1.2-0.2,2.2-0.6,3.2-1c0.2,0.8,0.3,1.5,0.5,2.3c-2.4,1-4.8,1.5-7.3,1.4C1313-222.3,1310.3-223.3,1308.3-225.2z
			 M1322-234.9c0-0.2,0-0.6,0-1.1c0-1.8-0.5-3.3-1.4-4.4s-2.4-1.7-4.5-1.7c-2.2,0-3.9,0.6-5.2,1.9c-1.3,1.3-2,3-2.2,5.1
			C1313.2-235,1317.6-234.9,1322-234.9z"/>
		<path class="st1" d="M1331.3-224.1c-1.5-1.3-2.2-2.9-2.2-5.1c0-1.7,0.6-3,1.9-4c1.2-0.9,3-1.4,5.4-1.4c1.2,0,2.3,0,3.5,0
			c1.1,0,2.3,0,3.8,0.1c0-0.7,0-1.3,0-2c0-2-0.5-3.4-1.5-4.3s-2.4-1.3-4.4-1.3c-2.1,0-4.3,0.4-6.5,1c-0.1-0.8-0.2-1.5-0.3-2.3
			c1-0.3,2.1-0.6,3.4-0.8c1.3-0.2,2.6-0.3,3.9-0.3c2.7,0,4.7,0.6,6.2,1.8c1.4,1.2,2.2,3.1,2.3,5.5c0.1,3,0.1,5.9,0.2,8.9
			c0,1.3,0.1,3.1,0.2,5.4c-0.9,0-1.7,0-2.6,0c-0.1-0.6-0.2-1.5-0.4-2.7h-0.1c-0.6,1-1.4,1.7-2.6,2.3c-1.1,0.6-2.6,0.9-4.3,0.9
			C1334.7-222.2,1332.8-222.9,1331.3-224.1z M1342-226.1c1.1-1,1.7-2.3,1.6-4c0-0.7,0-1.4,0-2.2c-2.6,0-5.1,0.1-7.7,0.1
			c-1.2,0-2.1,0.2-2.7,0.7s-1,1.2-1,2.3c0,1.4,0.5,2.5,1.5,3.3s2.3,1.2,3.8,1.2C1339.4-224.7,1340.9-225.2,1342-226.1z"/>
		<path class="st1" d="M1353.1-244.4c0.9,0,1.8-0.1,2.7-0.1c0.1,0.6,0.2,1.3,0.3,1.9c1-0.7,2.2-1.3,3.4-1.8c1.2-0.5,2.5-0.7,3.7-0.8
			c1.2,0,2.3,0.1,3.4,0.6c1,0.4,1.9,1,2.6,1.8c1.1-0.8,2.3-1.5,3.7-2c1.4-0.5,2.8-0.9,4.1-0.9c2.3-0.1,4.1,0.4,5.5,1.7
			c1.3,1.2,2.1,3.1,2.2,5.5c0.3,4.7,0.6,9.4,0.9,14.1c-1,0.1-2,0.1-3.1,0.2c-0.3-4.3-0.5-8.6-0.8-13c-0.1-1.9-0.5-3.3-1.1-4.4
			c-0.8-1.2-2.2-1.8-4.2-1.7c-1,0.1-2.1,0.3-3.4,0.8c-1.2,0.5-2.3,1.1-3,1.8c0.3,0.9,0.4,2,0.5,3.4c0.2,4.5,0.4,9.1,0.6,13.6
			c-1,0-2,0.1-3.1,0.1c-0.2-4.3-0.4-8.7-0.6-13c0-1.1-0.1-2-0.3-2.6c-0.1-0.7-0.4-1.2-0.7-1.8c-0.8-1.3-2.2-1.8-4-1.8
			c-1.2,0-2.3,0.3-3.5,0.8s-2.1,1.1-2.9,1.7c0.2,5.7,0.3,11.3,0.5,17c-1,0-2,0.1-3.1,0.1C1353.4-230.1,1353.3-237.2,1353.1-244.4z"
			/>
		<path class="st1" d="M1390.3-250.5c-0.5-0.4-0.7-0.9-0.8-1.6c0-0.7,0.1-1.2,0.6-1.7c0.4-0.5,1-0.7,1.6-0.8c0.7,0,1.2,0.1,1.7,0.5
			s0.8,0.9,0.8,1.6s-0.1,1.2-0.6,1.7c-0.4,0.5-1,0.7-1.6,0.8C1391.4-249.9,1390.8-250.1,1390.3-250.5z M1390.8-246.2
			c1-0.1,2-0.1,3-0.2c0.5,7.1,1,14.2,1.6,21.3c-1,0.1-2,0.1-3.1,0.2C1391.8-232,1391.3-239.1,1390.8-246.2z"/>
		<path class="st1" d="M1403.6-228.1c-2.1-1.7-3.3-4.4-3.6-8c-0.2-2.1,0.1-4.1,0.8-5.8c0.7-1.7,1.8-3.2,3.3-4.2
			c1.5-1.1,3.3-1.7,5.5-1.9c2.9-0.3,5.2,0.3,6.8,1.8c1.6,1.5,2.6,3.6,2.9,6.2c0.1,1.1,0.2,2.1,0.1,3c-5.4,0.5-10.8,1-16.2,1.5
			c0.3,2.4,1.2,4.3,2.6,5.6c1.5,1.3,3.6,1.8,6.4,1.5c1-0.1,2-0.3,3.2-0.7c1.1-0.4,2.2-0.8,3.1-1.3c0.2,0.7,0.5,1.5,0.7,2.2
			c-2.3,1.2-4.6,2-7.1,2.2C1408.6-225.7,1405.8-226.4,1403.6-228.1z M1416.2-239.1c0-0.2,0-0.6-0.1-1.1c-0.2-1.8-0.8-3.2-1.9-4.2
			c-1-1-2.6-1.4-4.7-1.3c-2.2,0.2-3.8,1-4.9,2.4s-1.7,3.2-1.7,5.3C1407.4-238.3,1411.8-238.7,1416.2-239.1z"/>
		<path class="st1" d="M1423.4-249.1c0.9-0.1,1.8-0.2,2.7-0.3c0.2,0.6,0.3,1.3,0.5,1.9c1.1-0.8,2.3-1.5,3.6-2.1
			c1.3-0.6,2.7-0.9,4-1.1c2.5-0.3,4.5,0.1,5.9,1.3c0.7,0.6,1.2,1.2,1.6,2.1c0.4,0.8,0.7,1.9,0.8,3.1c0.6,4.7,1.2,9.5,1.8,14.2
			c-1,0.1-2,0.3-3,0.4c-0.6-4.7-1.2-9.3-1.7-14c-0.2-1.7-0.7-2.9-1.5-3.7c-0.5-0.5-1-0.8-1.7-0.9c-0.6-0.2-1.5-0.2-2.5-0.1
			c-1.2,0.1-2.4,0.5-3.7,1.1c-1.2,0.6-2.3,1.3-3.3,2.1c0.6,5.6,1.2,11.3,1.9,16.9c-1,0.1-2,0.2-3.1,0.3
			C1424.9-234.9,1424.2-242,1423.4-249.1z"/>
		<path class="st1" d="M1452.1-232.3c-1.2-0.8-1.9-2.2-2.2-4.2c-0.9-6.7-1.8-13.5-2.7-20.2c0.9-0.4,1.9-0.8,2.8-1.3
			c0.3,2,0.5,4,0.8,5.9c2.6-0.4,5.2-0.7,7.8-1.1c-0.2,0.9-0.5,1.7-0.7,2.6c-2.2,0.3-4.5,0.6-6.7,1c0.6,4.1,1.1,8.2,1.7,12.2
			c0.2,1.4,0.6,2.4,1.2,3c0.6,0.5,1.6,0.7,3,0.5s2.7-0.5,3.9-1c0.2,0.7,0.4,1.4,0.5,2.2c-1.2,0.6-2.6,1-4.3,1.2
			C1455.1-231.2,1453.3-231.5,1452.1-232.3z"/>
		<path class="st1" d="M1469.4-234.6c-1.8-0.7-3.2-1.8-4.3-3.4c-1.1-1.5-1.8-3.3-2.1-5.4c-0.3-2.1-0.2-4,0.4-5.8s1.6-3.3,3.1-4.5
			s3.4-2,5.7-2.4c2.2-0.4,4.1-0.2,5.9,0.5c1.7,0.7,3.2,1.8,4.3,3.3c1.1,1.5,1.8,3.3,2.2,5.4c0.3,2,0.3,3.9-0.3,5.7
			c-0.6,1.8-1.6,3.3-3.1,4.6c-1.5,1.3-3.4,2.1-5.8,2.5C1473.2-233.7,1471.2-233.8,1469.4-234.6z M1480.4-239.6c1.1-1.8,1.5-4,1-6.7
			c-0.5-2.6-1.5-4.6-3.2-5.9s-3.6-1.8-5.9-1.4s-4,1.4-5.1,3.2c-1.1,1.8-1.5,4-1.1,6.6c0.3,1.8,0.8,3.2,1.7,4.4
			c0.9,1.2,1.9,2.1,3.2,2.6c1.3,0.5,2.7,0.7,4.2,0.4C1477.5-236.7,1479.3-237.8,1480.4-239.6z"/>
	</g>
</g>
<path class="st0" d="M1059,114.4c-161.1,30.7-326.5,30.7-487.6,0c7.3-38.1,14.5-76.3,21.8-114.4c146.7,28,297.3,28,443.9,0
	L1059,114.4"/>
<g>
	<g>
		<path class="st1" d="M698.9,83c-1.5-0.6-2.9-1.4-4.2-2.3c0.3-0.8,0.7-1.7,1-2.5c1.1,0.9,2.4,1.7,3.9,2.3c1.5,0.7,2.9,1.1,4.3,1.3
			c2.4,0.4,4.4,0.2,5.7-0.6c1.4-0.8,2.2-2,2.4-3.6c0.1-1,0.1-1.8-0.2-2.4c-0.3-0.7-0.9-1.3-1.8-1.9s-2.2-1.3-3.9-2.2
			c-2-1-3.6-1.9-4.7-2.8s-1.9-1.9-2.3-2.9s-0.5-2.3-0.3-3.6c0.4-2.2,1.6-3.7,3.6-4.6c2-0.9,4.3-1.2,7-0.8c2.3,0.4,4.7,1.1,7.1,2.3
			c-0.2,0.9-0.5,1.8-0.7,2.6c-2.3-1.3-4.6-2.1-6.7-2.4c-2.1-0.3-3.8-0.2-5,0.4c-1.2,0.6-1.9,1.6-2.2,2.9c-0.2,1-0.1,1.8,0.2,2.4
			c0.3,0.6,0.8,1.3,1.7,1.9c0.8,0.6,2.1,1.3,3.8,2.3c2.1,1.1,3.7,2,4.8,2.8c1.1,0.8,1.9,1.7,2.3,2.7c0.5,1,0.6,2.3,0.4,3.8
			c-0.4,2.4-1.6,4.2-3.8,5.3c-2.2,1.1-4.8,1.4-8,0.9C702,84,700.4,83.6,698.9,83z"/>
		<path class="st1" d="M721.8,84.2c-1.7-2.1-2.4-5-1.9-8.6c0.3-2.1,1-3.9,2-5.5c1.1-1.6,2.4-2.7,4.1-3.4c1.7-0.7,3.6-1,5.8-0.7
			c2.9,0.4,5,1.4,6.3,3.2c1.3,1.8,1.8,4,1.6,6.7c-0.1,1.1-0.3,2.1-0.5,3c-5.4-0.6-10.9-1.2-16.3-2c-0.2,2.4,0.2,4.4,1.4,6
			c1.2,1.5,3.2,2.5,6,2.8c1,0.1,2.1,0.1,3.3,0c1.2-0.1,2.3-0.3,3.3-0.6c0.1,0.8,0.1,1.5,0.2,2.3c-2.5,0.7-5,1-7.5,0.7
			C726.2,87.5,723.5,86.3,721.8,84.2z M736.5,76c0.1-0.2,0.1-0.6,0.2-1.1c0.2-1.8-0.1-3.3-1-4.5c-0.8-1.2-2.3-2-4.4-2.2
			c-2.2-0.3-3.9,0.2-5.4,1.3c-1.4,1.2-2.3,2.8-2.8,4.9C727.7,75,732.1,75.5,736.5,76z"/>
		<path class="st1" d="M745.7,67.8c0.9,0.1,1.8,0.2,2.7,0.3c0,0.7,0,1.3,0.1,2c1.2-0.6,2.5-1,4-1.3c1.4-0.3,2.8-0.4,4.2-0.3
			c2.5,0.2,4.4,1,5.5,2.4c0.5,0.7,0.9,1.4,1.2,2.3c0.2,0.9,0.3,2,0.2,3.2c-0.3,4.8-0.7,9.5-1,14.3c-1-0.1-2.1-0.1-3.1-0.2
			c0.4-4.7,0.7-9.3,1.1-14c0.1-1.7-0.1-3-0.8-3.9c-0.4-0.6-0.9-1-1.5-1.2c-0.6-0.3-1.4-0.5-2.4-0.5c-1.2-0.1-2.5,0-3.8,0.3
			s-2.5,0.8-3.7,1.4c-0.5,5.6-1.1,11.3-1.6,16.9c-1-0.1-2.1-0.2-3.1-0.3C744.3,82,745,74.9,745.7,67.8z"/>
		<path class="st1" d="M771.1,91.2c-1.3-0.4-2.4-0.8-3.3-1.3c0.2-0.8,0.3-1.7,0.5-2.5c1,0.6,2.1,1.1,3.3,1.4
			c1.2,0.4,2.4,0.6,3.6,0.6c1.6,0.1,2.9-0.2,3.8-0.8c0.9-0.6,1.4-1.5,1.5-2.6c0-0.8-0.1-1.4-0.4-1.9s-0.7-0.9-1.4-1.2
			c-0.6-0.3-1.6-0.8-3-1.3c-2.4-1-4.1-2-5.1-3.1c-1-1-1.4-2.3-1.3-3.8c0.1-1.7,0.9-3,2.4-3.9s3.3-1.3,5.6-1.2
			c1.9,0.1,3.7,0.5,5.5,1.2c-0.1,0.8-0.3,1.6-0.4,2.4c-1.8-0.7-3.5-1.1-5.1-1.2c-1.5-0.1-2.7,0.1-3.6,0.6s-1.3,1.2-1.4,2.2
			c-0.1,0.9,0.2,1.6,0.9,2.3c0.7,0.7,1.9,1.4,3.9,2.1c2.2,0.8,3.8,1.7,4.8,2.7c1,0.9,1.5,2.2,1.4,3.9c-0.1,2-0.9,3.5-2.4,4.6
			c-1.6,1-3.5,1.5-5.9,1.4C773.7,91.8,772.4,91.6,771.1,91.2z"/>
		<path class="st1" d="M789.2,66.3c-0.4-0.5-0.7-1-0.6-1.7c0-0.7,0.3-1.2,0.7-1.6c0.5-0.4,1-0.6,1.7-0.6s1.2,0.3,1.7,0.7
			c0.5,0.5,0.7,1,0.7,1.7s-0.3,1.2-0.7,1.6c-0.5,0.4-1.1,0.6-1.7,0.6C790.2,67,789.7,66.8,789.2,66.3z M789.3,70.7c1,0,2,0.1,3,0.1
			c-0.2,7.1-0.4,14.3-0.6,21.4c-1,0-2.1-0.1-3.1-0.1C788.8,84.9,789,77.8,789.3,70.7z"/>
		<path class="st1" d="M803.1,92.2c-1.7-0.4-3.1-0.9-4.4-1.6c0.2-9.2,0.3-18.4,0.5-27.5c1-0.3,2-0.5,3-0.8c0,3.8-0.1,7.6-0.1,11.4
			c0.1,0,0.1,0,0.2,0c0.8-0.9,1.8-1.6,3.1-2.2c1.3-0.6,2.8-0.9,4.4-0.9c1.9,0,3.6,0.4,5.1,1.2c1.5,0.8,2.7,2,3.6,3.6
			s1.3,3.5,1.4,5.7c0,2.3-0.4,4.4-1.3,6.1c-0.9,1.8-2.2,3.1-4,4.1c-1.7,1-3.8,1.4-6.1,1.4C806.5,92.8,804.8,92.6,803.1,92.2z
			 M814.5,88.1c1.5-1.6,2.2-3.8,2.1-6.6c0-2.7-0.7-4.8-2-6.2c-1.3-1.5-3-2.2-5.2-2.2c-1.3,0-2.5,0.3-3.7,0.8c-1.1,0.6-2,1.3-2.7,2.3
			s-1,2.1-1.1,3.3c0,3.2-0.1,6.4-0.1,9.7c1.9,0.8,4.1,1.2,6.5,1.2C811,90.4,813,89.6,814.5,88.1z"/>
		<path class="st1" d="M824.8,66.5c-0.5-0.4-0.7-1-0.7-1.6c0-0.7,0.2-1.2,0.6-1.7c0.4-0.4,1-0.7,1.7-0.7s1.2,0.2,1.7,0.6
			s0.7,1,0.7,1.6c0,0.7-0.2,1.2-0.7,1.7s-1,0.7-1.7,0.7C825.8,67.2,825.3,67,824.8,66.5z M825.1,70.8c1,0,2,0,3-0.1
			c0.2,7.1,0.4,14.3,0.6,21.4c-1,0-2.1,0.1-3.1,0.1C825.4,85.1,825.2,78,825.1,70.8z"/>
		<path class="st1" d="M834.7,62.8c1-0.3,2-0.7,2.9-1c0.4,10,0.8,20,1.3,30c-1,0-2.1,0.1-3.1,0.1C835.4,82.2,835.1,72.5,834.7,62.8z
			"/>
		<path class="st1" d="M844.5,65.8c-0.5-0.4-0.7-0.9-0.8-1.6c0-0.7,0.2-1.2,0.6-1.7s1-0.7,1.6-0.7c0.7,0,1.2,0.2,1.7,0.6
			c0.5,0.4,0.8,0.9,0.8,1.6s-0.2,1.2-0.6,1.7s-1,0.7-1.7,0.8C845.6,66.4,845,66.2,844.5,65.8z M844.9,70.1c1-0.1,2-0.1,3-0.2
			c0.4,7.1,0.8,14.2,1.2,21.4c-1,0.1-2.1,0.1-3.1,0.2C845.7,84.3,845.3,77.2,844.9,70.1z"/>
		<path class="st1" d="M859.8,89.6c-1.7-0.8-3.1-2-4.1-3.6s-1.6-3.5-1.7-5.6c-0.1-2.2,0.2-4.2,1.1-6s2.1-3.2,3.7-4.2
			c1.6-1.1,3.4-1.7,5.3-1.8c1.5-0.1,2.9,0,4.2,0.4c1.3,0.4,2.2,1,2.9,1.7h0.1c-0.3-3.4-0.6-6.7-0.9-10.1c1-0.4,1.9-0.8,2.9-1.1
			c0.8,8.2,1.6,16.3,2.4,24.5c0.1,1.3,0.3,3.1,0.6,5.4c-0.9,0.1-1.7,0.2-2.6,0.2c-0.1-0.5-0.4-1.5-0.7-2.9h-0.1
			c-0.7,1.1-1.7,2-3,2.7s-2.7,1.2-4.3,1.3C863.4,90.7,861.5,90.4,859.8,89.6z M869.9,86.7c1.2-0.8,2.1-1.9,2.7-3.1
			c-0.2-2.3-0.4-4.7-0.6-7c-0.2-1.8-0.9-3.3-2.3-4.4c-1.3-1.1-3.1-1.6-5.2-1.4c-1.5,0.1-2.9,0.6-4,1.4s-2,1.9-2.5,3.3
			c-0.6,1.4-0.8,2.9-0.7,4.6c0.1,1.8,0.6,3.3,1.3,4.5c0.8,1.2,1.8,2.2,3,2.8c1.2,0.6,2.6,0.8,4.1,0.7
			C867.3,88,868.7,87.5,869.9,86.7z"/>
		<path class="st1" d="M884,86.9c-1.6-1.1-2.6-2.7-2.8-4.8c-0.2-1.7,0.3-3.1,1.5-4.1c1.2-1.1,2.9-1.7,5.3-2c1.2-0.1,2.3-0.3,3.5-0.4
			c1.1-0.1,2.3-0.2,3.8-0.3c-0.1-0.7-0.2-1.3-0.3-2c-0.3-2-0.9-3.3-2-4.1c-1.1-0.8-2.6-1-4.5-0.8c-2.1,0.3-4.2,0.8-6.4,1.7
			c-0.2-0.7-0.4-1.5-0.6-2.2c1-0.4,2.1-0.8,3.3-1.1c1.3-0.4,2.5-0.6,3.8-0.8c2.7-0.3,4.8,0,6.4,1.1s2.5,2.8,2.9,5.2
			c0.4,2.9,0.8,5.9,1.2,8.8c0.2,1.3,0.4,3.1,0.8,5.4c-0.9,0.1-1.7,0.2-2.6,0.3c-0.2-0.6-0.4-1.4-0.7-2.6h-0.1
			c-0.5,1-1.3,1.9-2.3,2.6c-1.1,0.7-2.5,1.1-4.2,1.3C887.6,88.4,885.6,88,884,86.9z M894.6,83.7c1-1.1,1.4-2.5,1.2-4.1
			c-0.1-0.7-0.2-1.4-0.3-2.2c-2.6,0.3-5.1,0.6-7.7,0.9c-1.2,0.1-2.1,0.5-2.7,1s-0.8,1.3-0.7,2.4c0.2,1.4,0.8,2.5,1.9,3.1
			c1.1,0.7,2.4,0.9,3.9,0.7C892.1,85.4,893.6,84.8,894.6,83.7z"/>
		<path class="st1" d="M910.2,84c-1.8-0.7-3.2-1.8-4.3-3.3c-1.1-1.5-1.8-3.3-2.1-5.5c-0.3-2.2-0.1-4.2,0.7-6
			c0.7-1.8,1.9-3.3,3.4-4.5s3.3-1.9,5.2-2.2c1.5-0.2,2.9-0.2,4.2,0.1c1.3,0.3,2.3,0.8,3,1.4h0.1c-0.6-3.3-1.1-6.7-1.7-10
			c0.9-0.4,1.9-0.9,2.8-1.4c1.4,8.1,2.8,16.2,4.2,24.3c0.2,1.3,0.6,3.1,1,5.3c-0.9,0.1-1.7,0.3-2.6,0.4c-0.2-0.5-0.5-1.4-0.9-2.8
			h-0.1c-0.7,1.1-1.6,2.1-2.8,2.9c-1.2,0.8-2.6,1.4-4.2,1.6C913.9,84.9,912,84.7,910.2,84z M920.1,80.3c1.1-0.9,1.9-2,2.5-3.3
			c-0.4-2.3-0.8-4.6-1.2-6.9c-0.3-1.8-1.2-3.2-2.6-4.2s-3.2-1.3-5.3-1c-1.5,0.2-2.8,0.8-3.9,1.7c-1.1,0.9-1.8,2.1-2.3,3.5
			s-0.6,3-0.3,4.6c0.3,1.8,0.8,3.2,1.7,4.4c0.9,1.2,1.9,2,3.2,2.5c1.3,0.5,2.7,0.6,4.2,0.4C917.6,81.8,919,81.2,920.1,80.3z"/>
	</g>
</g>
<path class="st0" d="M1059-45.7C897.9-15,732.5-15,571.4-45.7c7.3-38.1,14.5-76.3,21.8-114.4c146.7,28,297.3,28,443.9,0L1059-45.7"
	/>
<g>
	<g>
		<path class="st1" d="M686.2-77.1c-1.5-0.6-2.9-1.4-4.2-2.3c0.3-0.8,0.7-1.7,1-2.5c1.1,0.9,2.4,1.7,3.9,2.3
			c1.5,0.7,2.9,1.1,4.3,1.3c2.4,0.4,4.3,0.2,5.7-0.6c1.4-0.8,2.2-2,2.4-3.6c0.1-1,0.1-1.8-0.2-2.4c-0.3-0.7-0.9-1.3-1.7-1.9
			c-0.9-0.6-2.2-1.3-3.9-2.2c-2-1-3.6-1.9-4.7-2.8s-1.9-1.9-2.3-2.9s-0.5-2.3-0.3-3.6c0.4-2.2,1.6-3.7,3.6-4.6s4.3-1.2,7-0.8
			c2.3,0.4,4.7,1.2,7.1,2.3c-0.2,0.9-0.5,1.8-0.7,2.6c-2.3-1.3-4.5-2.1-6.6-2.4s-3.8-0.2-5,0.4s-1.9,1.6-2.2,2.9
			c-0.2,1-0.1,1.8,0.2,2.4c0.3,0.6,0.8,1.3,1.7,1.9c0.8,0.6,2.1,1.4,3.8,2.3c2.1,1.1,3.7,2,4.8,2.8c1.1,0.8,1.9,1.7,2.3,2.7
			c0.5,1,0.6,2.3,0.4,3.8c-0.4,2.4-1.6,4.2-3.8,5.3c-2.2,1.1-4.8,1.4-7.9,0.9C689.2-76,687.7-76.5,686.2-77.1z"/>
		<path class="st1" d="M708.3-75.1c-1.3-1.5-1.8-3.2-1.5-5.3c0.2-1.7,1-2.9,2.4-3.7c1.4-0.8,3.2-1,5.6-0.7c1.2,0.2,2.3,0.3,3.5,0.4
			c1.1,0.1,2.3,0.3,3.8,0.6c0.1-0.7,0.2-1.3,0.2-2c0.2-2-0.1-3.4-0.9-4.4s-2.2-1.6-4.2-1.9c-2.1-0.3-4.3-0.2-6.6,0.1
			c0-0.8,0-1.5,0-2.3c1-0.2,2.2-0.3,3.5-0.3s2.6,0,3.9,0.2c2.6,0.3,4.6,1.2,5.9,2.6s1.8,3.3,1.5,5.8c-0.3,2.9-0.7,5.9-1,8.8
			c-0.2,1.3-0.3,3.1-0.5,5.4c-0.9-0.1-1.7-0.2-2.6-0.3c0-0.6,0-1.5-0.1-2.7h-0.1c-0.7,0.9-1.7,1.5-2.9,1.9c-1.2,0.4-2.7,0.5-4.4,0.3
			C711.5-72.7,709.6-73.6,708.3-75.1z M719.3-75.6c1.2-0.8,2-2,2.2-3.7c0.1-0.7,0.2-1.4,0.3-2.2c-2.6-0.3-5.1-0.6-7.7-1
			c-1.2-0.2-2.1,0-2.8,0.3c-0.7,0.4-1.1,1.1-1.3,2.2c-0.2,1.4,0.1,2.6,1,3.5s2.1,1.5,3.6,1.7C716.5-74.5,718.1-74.8,719.3-75.6z"/>
		<path class="st1" d="M733.8-99.9c1-0.2,2-0.4,3-0.5c-1,10-2.1,19.9-3.1,29.9c-1-0.1-2-0.2-3.1-0.3
			C731.7-80.5,732.7-90.2,733.8-99.9z"/>
		<path class="st1" d="M743.2-71.2c-1.6-1.5-2.2-3.7-1.9-6.6c0.4-4.4,0.8-8.9,1.3-13.3c1,0.1,2,0.2,3,0.3c-0.4,4.5-0.8,9-1.2,13.4
			c-0.2,1.9,0.3,3.4,1.4,4.5s2.6,1.8,4.6,1.9c2,0.2,3.5-0.2,4.6-1.2s1.7-2.4,1.8-4.2c0.3-4.5,0.7-9,1-13.5c1,0.1,2,0.1,3,0.2
			c-0.3,4.5-0.6,8.9-0.9,13.4c-0.2,2.6-1.1,4.6-2.8,6c-1.7,1.4-4,2-7,1.7C747-68.9,744.7-69.7,743.2-71.2z"/>
		<path class="st1" d="M769.6-68.7c-1.6-1-2.8-2.4-3.6-4.1c-0.8-1.7-1.1-3.6-1-5.8c0.1-2.2,0.8-4.1,1.8-5.8c1.1-1.6,2.5-2.9,4.2-3.7
			c1.7-0.8,3.6-1.2,5.5-1.1c1.5,0.1,2.9,0.4,4.1,1s2.1,1.2,2.7,2h0.1c0.1-3.4,0.2-6.7,0.4-10.1c1-0.3,2-0.5,3-0.8
			c-0.3,8.2-0.5,16.4-0.8,24.6c0,1.3-0.1,3.1-0.1,5.4c-0.9,0-1.7-0.1-2.6-0.1c-0.1-0.5-0.2-1.5-0.3-3h-0.1c-0.9,1-2,1.7-3.3,2.3
			c-1.4,0.6-2.9,0.8-4.5,0.7C773.1-67.1,771.2-67.7,769.6-68.7z M779.9-70.3c1.3-0.7,2.3-1.6,3-2.7c0.1-2.3,0.2-4.7,0.3-7
			c0.1-1.8-0.5-3.4-1.7-4.6c-1.2-1.3-2.9-1.9-5-2c-1.5-0.1-2.9,0.2-4.1,0.9c-1.2,0.7-2.2,1.7-2.9,2.9c-0.7,1.3-1.1,2.8-1.2,4.5
			c-0.1,1.8,0.1,3.3,0.8,4.7c0.6,1.3,1.5,2.4,2.6,3.1c1.2,0.7,2.5,1.2,4,1.2C777.2-69.3,778.7-69.6,779.9-70.3z"/>
		<path class="st1" d="M802.9-94.3c0.8,0,1.7,0,2.5,0c5.7,7.4,11.7,14.8,17.8,22.1c-0.1-7.4-0.3-14.8-0.4-22.2c0.9,0,1.9,0,2.8-0.1
			c0.2,9.2,0.4,18.5,0.6,27.7c-0.7,0-1.5,0-2.2,0c-6.3-7.4-12.3-15-18.2-22.6c0,7.6-0.1,15.1-0.1,22.7c-1,0-2,0-3,0
			C802.7-75.9,802.8-85.1,802.9-94.3z"/>
		<path class="st1" d="M834.5-68.5c-1.5-1.2-2.3-2.9-2.4-5c0-1.7,0.5-3,1.8-4c1.2-1,3-1.5,5.4-1.6c1.2,0,2.3-0.1,3.5-0.1
			c1.1,0,2.3,0,3.8,0c0-0.7-0.1-1.3-0.1-2c-0.1-2-0.6-3.4-1.6-4.2c-1-0.8-2.5-1.2-4.4-1.1c-2.1,0.1-4.3,0.5-6.5,1.2
			c-0.1-0.8-0.3-1.5-0.4-2.3c1-0.3,2.1-0.6,3.4-0.9s2.6-0.4,3.9-0.5c2.7-0.1,4.7,0.4,6.2,1.6s2.3,3,2.4,5.5c0.2,3,0.3,5.9,0.5,8.9
			c0.1,1.3,0.2,3.1,0.4,5.4c-0.9,0-1.7,0.1-2.6,0.1c-0.1-0.6-0.3-1.4-0.5-2.6h-0.1c-0.6,1-1.4,1.8-2.5,2.4s-2.6,0.9-4.3,1
			C838-66.7,836-67.2,834.5-68.5z M845.2-70.8c1.1-1,1.6-2.3,1.5-4c0-0.7-0.1-1.4-0.1-2.2c-2.6,0.1-5.2,0.2-7.7,0.3
			c-1.2,0-2.1,0.3-2.7,0.8s-0.9,1.3-0.9,2.4c0,1.4,0.6,2.5,1.6,3.3s2.3,1.1,3.8,1C842.6-69.3,844.1-69.8,845.2-70.8z"/>
		<path class="st1" d="M858.5-69.4c-1.2-0.9-1.8-2.3-1.9-4.4c-0.4-6.8-0.8-13.6-1.3-20.3c1-0.3,1.9-0.7,2.9-1.1c0.1,2,0.3,4,0.4,6
			c2.6-0.2,5.2-0.4,7.8-0.6c-0.3,0.8-0.6,1.7-0.9,2.5c-2.3,0.2-4.5,0.3-6.8,0.5c0.3,4.1,0.5,8.2,0.8,12.3c0.1,1.4,0.4,2.5,1,3
			c0.6,0.6,1.6,0.8,3,0.7c1.4-0.1,2.7-0.4,4-0.7c0.1,0.7,0.3,1.5,0.4,2.2c-1.2,0.5-2.7,0.8-4.4,0.9
			C861.4-68.2,859.6-68.5,858.5-69.4z"/>
		<path class="st1" d="M874.6-71c-1.8-1.2-2.8-3.3-3.1-6.1c-0.4-4.5-0.7-8.9-1.1-13.4c1-0.1,2-0.2,3-0.3c0.4,4.5,0.8,9,1.2,13.4
			c0.2,1.9,0.9,3.3,2.1,4.2c1.3,0.9,2.9,1.3,4.9,1.1c2-0.2,3.4-0.9,4.3-2s1.3-2.6,1.1-4.5c-0.5-4.5-0.9-8.9-1.4-13.4
			c1-0.1,2-0.2,3-0.3c0.5,4.4,1,8.9,1.4,13.3c0.3,2.6-0.3,4.7-1.7,6.4c-1.4,1.7-3.6,2.6-6.6,2.9C878.8-69.3,876.4-69.8,874.6-71z"/>
		<path class="st1" d="M895-92.9c0.9-0.1,1.8-0.2,2.7-0.3c0.2,1,0.4,2,0.6,3c0.8-1,1.8-1.9,3.1-2.7c1.3-0.8,2.7-1.4,4.2-1.7
			c0.1,1,0.1,1.9,0.2,2.9c-1.3,0.2-2.6,0.7-3.9,1.4c-1.3,0.7-2.4,1.5-3.3,2.5c0.6,5.3,1.3,10.6,1.9,15.9c-1,0.1-2,0.2-3.1,0.4
			C896.7-78.8,895.9-85.8,895-92.9z"/>
		<path class="st1" d="M913.5-75.2c-1.7-1-2.6-2.6-2.9-4.7c-0.2-1.7,0.2-3.1,1.3-4.2c1.1-1.1,2.8-1.8,5.2-2.2
			c1.2-0.2,2.3-0.3,3.5-0.5c1.1-0.2,2.3-0.3,3.8-0.4c-0.1-0.6-0.2-1.3-0.3-1.9c-0.3-1.9-1-3.3-2.1-4s-2.6-1-4.6-0.7
			c-2.1,0.3-4.2,0.9-6.3,1.9c-0.2-0.7-0.4-1.5-0.6-2.2c1-0.4,2.1-0.8,3.3-1.2c1.3-0.4,2.5-0.7,3.8-0.9c2.6-0.4,4.8-0.1,6.4,0.9
			s2.6,2.7,3,5.2c0.5,2.9,0.9,5.9,1.4,8.8c0.2,1.3,0.5,3.1,0.9,5.3c-0.8,0.1-1.7,0.3-2.5,0.4c-0.2-0.6-0.4-1.4-0.8-2.6h-0.1
			c-0.4,1-1.2,1.9-2.3,2.6c-1.1,0.7-2.4,1.2-4.2,1.5C917.1-73.8,915.1-74.2,913.5-75.2z M924-78.7c1-1.1,1.3-2.5,1.1-4.2
			c-0.1-0.7-0.2-1.4-0.3-2.1c-2.6,0.4-5.1,0.8-7.7,1.2c-1.2,0.2-2.1,0.5-2.6,1.1c-0.6,0.6-0.8,1.4-0.6,2.5c0.2,1.4,0.8,2.4,1.9,3.1
			c1.1,0.6,2.4,0.9,3.9,0.6C921.5-76.9,923-77.6,924-78.7z"/>
		<path class="st1" d="M931.2-106c0.9-0.4,1.9-0.9,2.8-1.4c1.7,9.9,3.4,19.7,5.2,29.6c-1,0.2-2,0.4-3.1,0.5
			C934.5-86.8,932.9-96.4,931.2-106z"/>
	</g>
</g>
<path class="st0" d="M1059-204.3c-161.1,30.7-326.5,30.7-487.6,0c7.3-38.1,14.5-76.3,21.8-114.4c146.7,28,297.3,28,443.9,0
	L1059-204.3"/>
<g>
	<g>
		<path class="st1" d="M670.4-263.6c0.8,0.1,1.6,0.3,2.4,0.4c2.7,7.2,5.4,14.3,8.2,21.5c0.1,0,0.1,0,0.2,0
			c4.9-5.9,9.7-11.9,14.4-17.9c0.8,0.1,1.6,0.2,2.5,0.3c-1.3,9.1-2.6,18.3-3.8,27.4c-1-0.1-1.9-0.3-2.9-0.4c1-7,2-14.1,3-21.1
			c-4.3,5.3-8.7,10.6-13.1,15.8c-0.5-0.1-1.1-0.2-1.6-0.3c-2.6-6.3-5.1-12.7-7.5-19.1c-1.2,7-2.4,14-3.6,21c-1-0.2-1.9-0.3-2.9-0.5
			C667.2-245.4,668.8-254.5,670.4-263.6z"/>
		<path class="st1" d="M704-232.1c-1.5-1.6-2.1-3.8-1.7-6.6c0.6-4.4,1.2-8.9,1.7-13.3c1,0.1,2,0.3,3,0.4c-0.6,4.5-1.1,8.9-1.7,13.4
			c-0.2,1.9,0.2,3.4,1.2,4.6s2.5,1.9,4.6,2.1c2,0.2,3.5-0.1,4.6-1s1.8-2.3,2-4.1c0.5-4.5,1-8.9,1.5-13.4c1,0.1,2,0.2,3,0.3
			c-0.5,4.4-1,8.9-1.5,13.3c-0.3,2.6-1.3,4.5-3,5.9c-1.8,1.3-4.1,1.8-7,1.5C707.8-229.6,705.5-230.6,704-232.1z"/>
		<path class="st1" d="M729.6-257c1-0.2,2-0.4,3-0.6c-1,10-1.9,19.9-2.9,29.9c-1-0.1-2-0.2-3.1-0.3
			C727.6-237.6,728.6-247.3,729.6-257z"/>
		<path class="st1" d="M738.2-228.1c-1-1-1.4-2.6-1.2-4.6c0.6-6.8,1.2-13.5,1.8-20.3c1-0.2,2-0.4,3-0.6c-0.2,2-0.3,4-0.5,6
			c2.6,0.2,5.2,0.4,7.8,0.6c-0.4,0.8-0.8,1.6-1.2,2.4c-2.3-0.2-4.5-0.4-6.8-0.6c-0.4,4.1-0.7,8.2-1.1,12.3c-0.1,1.4,0.1,2.5,0.6,3.2
			s1.4,1,2.8,1.2c1.4,0.1,2.8,0.1,4-0.1c0,0.7,0,1.5,0,2.2c-1.3,0.3-2.8,0.4-4.4,0.2C740.9-226.4,739.2-227.1,738.2-228.1z"/>
		<path class="st1" d="M753.7-251.4c-0.4-0.5-0.6-1-0.6-1.7s0.3-1.2,0.8-1.6s1.1-0.6,1.7-0.5c0.7,0,1.2,0.3,1.6,0.8s0.6,1,0.6,1.7
			s-0.3,1.2-0.8,1.6s-1.1,0.6-1.7,0.5C754.6-250.7,754.1-250.9,753.7-251.4z M753.5-247.1c1,0.1,2,0.1,3,0.2
			c-0.5,7.1-1,14.2-1.4,21.4c-1-0.1-2-0.1-3.1-0.2C752.5-232.9,753-240,753.5-247.1z"/>
		<path class="st1" d="M766.4-225c-1.6-0.5-3.1-1-4.3-1.7c0.5-9.2,1.1-18.3,1.6-27.5c1-0.2,2-0.5,3-0.7c-0.2,3.8-0.4,7.6-0.6,11.4
			c0.1,0,0.1,0,0.2,0c0.8-0.9,1.9-1.5,3.2-2.1c1.3-0.5,2.8-0.7,4.5-0.7c1.9,0.1,3.5,0.6,5,1.4c1.5,0.9,2.6,2.1,3.4,3.8
			c0.8,1.6,1.2,3.6,1.1,5.8c-0.1,2.3-0.6,4.3-1.6,6.1c-1,1.7-2.4,3-4.1,3.9c-1.8,0.9-3.8,1.3-6.1,1.1
			C769.8-224.2,768.1-224.5,766.4-225z M777.9-228.6c1.5-1.5,2.3-3.6,2.4-6.5c0.1-2.7-0.5-4.8-1.7-6.3s-2.9-2.3-5.1-2.4
			c-1.3-0.1-2.5,0.2-3.7,0.7s-2.1,1.2-2.8,2.2c-0.7,0.9-1.1,2-1.2,3.3c-0.2,3.2-0.4,6.4-0.5,9.7c1.9,0.9,4,1.4,6.4,1.5
			C774.3-226.5,776.4-227.1,777.9-228.6z"/>
		<path class="st1" d="M790.2-226.2c-1.9-1.9-2.8-4.7-2.7-8.4c0.1-2.1,0.5-4,1.4-5.7s2.1-2.9,3.7-3.9c1.6-0.9,3.5-1.4,5.6-1.3
			c2.9,0,5.1,0.9,6.5,2.5c1.4,1.7,2.2,3.8,2.2,6.5c0,1.1-0.1,2.1-0.2,3c-5.4,0-10.9-0.1-16.3-0.3c0,2.5,0.7,4.4,2,5.8
			s3.4,2.1,6.2,2.2c1,0,2-0.1,3.2-0.3c1.2-0.2,2.2-0.5,3.2-1c0.1,0.8,0.3,1.5,0.4,2.3c-2.4,1-4.8,1.5-7.3,1.4
			C794.8-223.4,792.1-224.4,790.2-226.2z M803.9-235.9c0-0.2,0-0.6,0.1-1.1c0-1.8-0.5-3.3-1.4-4.4s-2.4-1.7-4.5-1.7
			c-2.2,0-3.9,0.6-5.2,1.9c-1.3,1.3-2,3-2.2,5.1C795-236,799.4-235.9,803.9-235.9z"/>
		<path class="st1" d="M812.1-245c0.9,0,1.8,0,2.7,0c0.1,0.7,0.2,1.3,0.3,2c1.1-0.7,2.4-1.3,3.8-1.7c1.4-0.4,2.8-0.7,4.1-0.7
			c2.5,0,4.4,0.6,5.7,1.9c0.6,0.6,1,1.4,1.4,2.2c0.3,0.9,0.5,1.9,0.5,3.2c0.1,4.8,0.2,9.6,0.3,14.3c-1,0-2,0-3.1,0.1
			c-0.1-4.7-0.2-9.4-0.3-14.1c0-1.7-0.4-3-1.1-3.8c-0.4-0.5-0.9-0.9-1.6-1.1c-0.6-0.2-1.4-0.3-2.5-0.3c-1.2,0-2.5,0.2-3.7,0.7
			c-1.3,0.4-2.4,1-3.5,1.7c0,5.7,0,11.3,0.1,17c-1,0-2,0-3.1,0C812.1-230.7,812.1-237.9,812.1-245z"/>
		<path class="st1" d="M838.9-226.4c-2-1.8-3.1-4.5-3.2-8.2c-0.1-2.1,0.3-4,1.1-5.8c0.8-1.7,2-3.1,3.5-4.1c1.6-1,3.4-1.6,5.6-1.6
			c2.9-0.1,5.2,0.6,6.7,2.2s2.4,3.7,2.6,6.4c0.1,1.1,0.1,2.1,0,3c-5.4,0.3-10.8,0.5-16.3,0.7c0.2,2.5,0.9,4.4,2.3,5.7
			c1.4,1.3,3.5,1.9,6.3,1.8c1,0,2-0.2,3.2-0.5s2.2-0.7,3.1-1.1c0.2,0.7,0.4,1.5,0.6,2.2c-2.3,1.1-4.7,1.7-7.2,1.8
			C843.7-223.8,841-224.6,838.9-226.4z M852.1-236.8c0-0.2,0-0.6,0-1.1c-0.1-1.8-0.7-3.2-1.6-4.3c-1-1.1-2.5-1.6-4.6-1.5
			c-2.2,0.1-3.9,0.8-5.1,2.2c-1.2,1.4-1.9,3.1-1.9,5.3C843.2-236.4,847.6-236.5,852.1-236.8z"/>
		<path class="st1" d="M859.7-247.5c-0.1-2.5,0.5-4.5,1.8-5.9s3.2-2.2,5.6-2.4c1.9-0.1,3.6,0,5.2,0.4c-0.1,0.8-0.2,1.5-0.2,2.3
			c-0.6-0.1-1.4-0.2-2.2-0.3c-0.8-0.1-1.6-0.1-2.3,0c-1.8,0.1-3,0.6-3.8,1.5s-1.1,2.2-1,3.9c0,0.6,0.1,1.2,0.1,1.8
			c3-0.2,6-0.4,9-0.6c-0.3,0.8-0.6,1.7-0.9,2.5c-2.7,0.2-5.3,0.4-8,0.5c0.4,6.2,0.7,12.3,1.1,18.5c-1,0.1-2,0.1-3.1,0.2
			C860.5-232.5,860.1-240,859.7-247.5z M875.4-251.7c-0.5-0.4-0.8-0.9-0.8-1.6s0.1-1.2,0.6-1.7c0.4-0.5,1-0.7,1.6-0.8
			c0.7-0.1,1.2,0.1,1.7,0.5s0.8,0.9,0.8,1.6c0.1,0.7-0.1,1.2-0.6,1.7c-0.4,0.5-1,0.7-1.6,0.8C876.5-251.1,875.9-251.3,875.4-251.7z
			 M875.9-247.4c1-0.1,2-0.2,3-0.2c0.6,7.1,1.1,14.2,1.7,21.3c-1,0.1-2,0.2-3.1,0.2C877-233.2,876.5-240.3,875.9-247.4z"/>
		<path class="st1" d="M891.5-228.2c-1.8-0.7-3.3-1.9-4.4-3.5s-1.7-3.5-1.9-5.9c-0.2-2.2,0.1-4.2,1-5.9c0.9-1.7,2.1-3.1,3.7-4.2
			c1.6-1,3.5-1.7,5.6-1.9c2.5-0.2,4.6-0.1,6.5,0.5c-0.1,0.8-0.2,1.6-0.2,2.4c-0.8-0.2-1.7-0.4-2.8-0.5c-1.1-0.1-2.1-0.1-3.1,0
			c-1.7,0.2-3.1,0.7-4.3,1.5c-1.2,0.9-2.1,2-2.6,3.3c-0.6,1.3-0.8,2.8-0.6,4.5c0.2,2.6,1.1,4.6,2.7,6.1s3.8,2.1,6.8,1.8
			c1-0.1,2-0.3,3-0.7c1-0.3,2-0.8,2.9-1.3c0.2,0.7,0.5,1.5,0.7,2.2c-2.1,1.2-4.4,2-6.7,2.2C895.4-227.2,893.3-227.5,891.5-228.2z"/>
		<path class="st1" d="M906.2-254.7c-0.5-0.4-0.8-0.9-0.9-1.6s0.1-1.2,0.5-1.7s0.9-0.8,1.6-0.8c0.7-0.1,1.2,0.1,1.8,0.5
			c0.5,0.4,0.8,0.9,0.9,1.5c0.1,0.7-0.1,1.2-0.5,1.7s-1,0.8-1.6,0.8C907.3-254.1,906.7-254.3,906.2-254.7z M906.9-250.4
			c1-0.1,2-0.2,3-0.3c0.8,7.1,1.7,14.2,2.5,21.3c-1,0.1-2,0.2-3.1,0.4C908.5-236.2,907.7-243.3,906.9-250.4z"/>
		<path class="st1" d="M922.8-231.8c-1.8-0.7-3.2-1.9-4.2-3.5c-1.1-1.6-1.7-3.4-2-5.4c-0.3-2.1-0.1-4,0.6-5.8
			c0.6-1.8,1.7-3.2,3.2-4.4c1.5-1.2,3.4-1.9,5.8-2.2c2.2-0.3,4.1-0.1,5.8,0.6c1.7,0.7,3.1,1.9,4.2,3.4c1.1,1.6,1.8,3.4,2.1,5.4
			c0.3,2,0.2,3.9-0.4,5.7c-0.6,1.8-1.7,3.3-3.2,4.5s-3.5,2-5.9,2.3C926.6-230.9,924.5-231.1,922.8-231.8z M934-236.6
			c1.2-1.8,1.6-4,1.2-6.7c-0.4-2.6-1.4-4.6-3-6s-3.6-1.9-5.9-1.6s-4,1.3-5.2,3.1c-1.2,1.7-1.6,3.9-1.3,6.6c0.2,1.8,0.8,3.3,1.6,4.5
			c0.8,1.2,1.9,2.1,3.1,2.7c1.3,0.6,2.7,0.7,4.2,0.5C931-233.8,932.8-234.9,934-236.6z"/>
		<path class="st1" d="M947.2-234.4c-1.3-0.1-2.5-0.3-3.5-0.6c0-0.8-0.1-1.7-0.1-2.5c1.1,0.4,2.3,0.6,3.5,0.7s2.4,0,3.6-0.1
			c1.6-0.3,2.8-0.8,3.6-1.6c0.8-0.8,1.1-1.7,0.9-2.9c-0.1-0.8-0.4-1.4-0.8-1.8s-0.9-0.7-1.6-0.9c-0.7-0.2-1.7-0.4-3.2-0.7
			c-2.6-0.5-4.5-1.1-5.6-1.9c-1.2-0.8-1.8-1.9-2.1-3.4c-0.3-1.7,0.2-3.1,1.5-4.3c1.2-1.2,3-2,5.3-2.4c1.9-0.3,3.8-0.3,5.7,0
			c0,0.8,0.1,1.6,0.1,2.4c-1.9-0.3-3.7-0.3-5.3-0.1c-1.5,0.3-2.6,0.7-3.4,1.4c-0.7,0.7-1,1.5-0.9,2.4s0.6,1.6,1.4,2.1
			s2.2,0.9,4.2,1.2c2.3,0.4,4.1,0.9,5.3,1.6c1.2,0.7,1.9,1.9,2.2,3.5c0.3,2-0.1,3.6-1.4,5c-1.3,1.3-3.1,2.2-5.4,2.6
			C949.8-234.3,948.5-234.3,947.2-234.4z"/>
	</g>
</g>
<polygon class="st2" points="-494.4,248.5 -271.9,195.2 -50.5,248.5 -272.7,323.6 "/>
</svg>
