<svg id="Capa_1" data-name="Capa 1" xmlns="http://www.w3.org/2000/svg" viewBox="0 0 487.56 137.44"><defs><style>.cls-1{fill:#af0614;}.cls-2{fill:#fff;}</style></defs><path class="cls-1" d="M487.56,114.4A1301.21,1301.21,0,0,1,0,114.4Q10.91,57.22,21.82,0A1184.81,1184.81,0,0,0,465.75,0l21.81,114.4"/><path class="cls-2" d="M92.55,49.48l3.63.63c3,8.2,4.48,12.3,7.63,20.48l.17,0c5.49-6.82,8.19-10.25,13.51-17.15l3.57.51c-1.55,11-2.32,16.46-3.87,27.44l-4.23-.6c1.07-7.36,1.61-11,2.68-18.38-4.42,5.42-6.67,8.11-11.21,13.48l-2.85-.45C98.93,68.9,97.64,65.62,95.13,59,93.87,66.42,93.25,70.12,92,77.51l-4.21-.73C89.69,65.86,90.64,60.4,92.55,49.48Z"/><path class="cls-2" d="M126.28,81q-2.1-2.33-1.5-6.75l1.75-13.17,4.26.56-1.7,13.17q-.65,5.06,4.59,5.7a5.35,5.35,0,0,0,4.06-.83,5.05,5.05,0,0,0,1.76-3.59c.62-5.28.93-7.92,1.54-13.19l4.27.48c-.6,5.28-.89,7.92-1.48,13.2a8.07,8.07,0,0,1-3.14,6c-1.78,1.29-4.27,1.74-7.43,1.35S127.68,82.57,126.28,81Z"/><path class="cls-2" d="M151.35,64.06l3.77.39c0,.78.08,1.17.14,2A13.4,13.4,0,0,1,159,65.07a13.82,13.82,0,0,1,4.05-.24,7.25,7.25,0,0,1,5.27,2.45q1.69,2.11,1.38,6c-.46,5.56-.7,8.34-1.16,13.9l-4.37-.38c.47-5.37.71-8.06,1.18-13.43a5.17,5.17,0,0,0-.76-3.69,4.45,4.45,0,0,0-3.19-1.45,10.32,10.32,0,0,0-3.25.23,11.65,11.65,0,0,0-3,1.1c-.65,6.5-1,9.75-1.63,16.24-1.74-.17-2.62-.26-4.36-.45C150,76.83,150.46,72.57,151.35,64.06Z"/><path class="cls-2" d="M178.49,87.12a8.81,8.81,0,0,1-3.49-4,11.85,11.85,0,0,1-.91-6.07,12.44,12.44,0,0,1,1.91-6,9.52,9.52,0,0,1,4.12-3.54,11.26,11.26,0,0,1,5.34-.91,9.19,9.19,0,0,1,3.83,1,6.79,6.79,0,0,1,2.48,2.18l.13,0c.23-3.94.34-5.92.57-9.86l4.31-.91c-.53,9.73-.79,14.59-1.31,24.32-.07,1.28-.14,3.18-.22,5.7l-3.7-.21a23.71,23.71,0,0,1-.23-2.6h-.09a8.86,8.86,0,0,1-7.4,2.54A11.62,11.62,0,0,1,178.49,87.12Zm9.92-2.5a7.42,7.42,0,0,0,2.74-2.14c.16-2.65.23-4,.39-6.63A4.93,4.93,0,0,0,190.07,72a6.38,6.38,0,0,0-4.3-1.82,6.25,6.25,0,0,0-5,1.76,8.37,8.37,0,0,0-2.25,5.55,7.5,7.5,0,0,0,1.44,5.59,6.57,6.57,0,0,0,4.76,2.2A7.5,7.5,0,0,0,188.41,84.62Z"/><path class="cls-2" d="M204.91,88.48a9.34,9.34,0,0,1-3.71-4.07,11.92,11.92,0,0,1-1-5.8,12.3,12.3,0,0,1,1.62-5.73,9.76,9.76,0,0,1,4-3.76,13.23,13.23,0,0,1,11.82.43,9.69,9.69,0,0,1,3.73,4,12.24,12.24,0,0,1,1.2,5.83,12,12,0,0,1-1.47,5.71,9.37,9.37,0,0,1-4,3.79,13.82,13.82,0,0,1-12.16-.44Zm11.16-3.65a8.07,8.07,0,0,0,2-5.6,8,8,0,0,0-1.7-5.67,6.84,6.84,0,0,0-9.74-.36,8.1,8.1,0,0,0-2.1,5.54,8,8,0,0,0,1.63,5.73,6.95,6.95,0,0,0,9.87.36Z"/><path class="cls-2" d="M240.65,89.47a9,9,0,0,1-3.76-3.71,12.15,12.15,0,0,1-1.32-6,12.48,12.48,0,0,1,1.5-6.16,9.55,9.55,0,0,1,3.86-3.81,11.26,11.26,0,0,1,5.26-1.27,9.31,9.31,0,0,1,3.89.74,6.78,6.78,0,0,1,2.62,2l.13,0-.1-9.88c1.69-.47,2.54-.71,4.23-1.2.14,9.74.22,14.61.36,24.35,0,1.29.08,3.19.17,5.7l-3.7,0a22.44,22.44,0,0,1-.41-2.58h-.09a8.88,8.88,0,0,1-7.21,3A11.49,11.49,0,0,1,240.65,89.47Zm9.72-3.18A7.49,7.49,0,0,0,253,84c0-2.66,0-4-.07-6.65a5,5,0,0,0-1.73-3.77A6.37,6.37,0,0,0,246.74,72a6.23,6.23,0,0,0-4.88,2.1A8.35,8.35,0,0,0,240,79.83a7.46,7.46,0,0,0,1.82,5.48,6.51,6.51,0,0,0,4.9,1.86A7.37,7.37,0,0,0,250.37,86.29Z"/><path class="cls-2" d="M264.85,87.65c-2.06-1.82-3.11-4.48-3.18-8a13.16,13.16,0,0,1,1.16-6,9.5,9.5,0,0,1,3.6-4.08,11.1,11.1,0,0,1,5.69-1.6q4.62-.15,7,2.43a10.57,10.57,0,0,1,2.61,7,15.43,15.43,0,0,1-.1,2.67c-6.18.26-9.27.36-15.46.52a6.16,6.16,0,0,0,2.11,4.54,8,8,0,0,0,5.51,1.47,15.76,15.76,0,0,0,6.36-1.38l.65,3.3a19.24,19.24,0,0,1-7.36,1.58C269.78,90.34,266.9,89.48,264.85,87.65Zm12.57-10.41,0-.45a6.87,6.87,0,0,0-1.3-3.89q-1.2-1.68-4.08-1.59a5.67,5.67,0,0,0-4.25,1.81,6.62,6.62,0,0,0-1.6,4.47C270.67,77.48,272.92,77.41,277.42,77.24Z"/><path class="cls-2" d="M295.48,67.38l3.78-.23c.18.77.27,1.15.46,1.91a14,14,0,0,1,7.4-2.8,7.21,7.21,0,0,1,5.59,1.55q2,1.81,2.34,5.7c.44,5.56.66,8.34,1.11,13.89l-4.38.34c-.4-5.38-.6-8.07-1-13.45a5.16,5.16,0,0,0-1.35-3.52,4.46,4.46,0,0,0-3.38-.9,10.22,10.22,0,0,0-3.17.75,11.07,11.07,0,0,0-2.79,1.58c.41,6.51.62,9.77,1,16.28l-4.38.27Z"/><path class="cls-2" d="M320.21,61.45a3,3,0,0,1-.36-4.14,2.9,2.9,0,0,1,2-1,3,3,0,0,1,2.19.64,2.84,2.84,0,0,1,.38,4.12,3,3,0,0,1-2,1A2.89,2.89,0,0,1,320.21,61.45Zm.38,4.11,4.27-.38c.78,8.52,1.17,12.78,2,21.31l-4.38.39Z"/><path class="cls-2" d="M331.32,64.56l3.77-.39c.21.76.32,1.13.53,1.89a14.08,14.08,0,0,1,7.3-3.1,7.22,7.22,0,0,1,5.65,1.33c1.39,1.15,2.25,3,2.56,5.59.67,5.54,1,8.3,1.68,13.84l-4.36.52-1.56-13.4a5.18,5.18,0,0,0-1.5-3.46,4.39,4.39,0,0,0-3.41-.77,10.49,10.49,0,0,0-3.14.88,11.3,11.3,0,0,0-2.72,1.69l1.69,16.23-4.37.44C332.59,77.34,332.17,73.08,331.32,64.56Zm1.94-4.77A7.93,7.93,0,0,1,335,56.25a4.23,4.23,0,0,1,2.71-1.42,4.42,4.42,0,0,1,1.71.14,19.73,19.73,0,0,1,1.91.7l.71.27a8.57,8.57,0,0,0,1,.31,2.43,2.43,0,0,0,.74.06c.84-.1,1.42-.84,1.73-2.23l2.55.82a6.8,6.8,0,0,1-1.38,3.28,3.75,3.75,0,0,1-2.49,1.34,5,5,0,0,1-1.67-.1,12.08,12.08,0,0,1-1.84-.62c-.14,0-.41-.14-.8-.3a6.2,6.2,0,0,0-1-.35,2.52,2.52,0,0,0-.75-.06,2,2,0,0,0-1.32.74,4.45,4.45,0,0,0-.87,1.8Z"/><path class="cls-2" d="M362.63,81.48a9.28,9.28,0,0,1-4.36-3.36,11.88,11.88,0,0,1-2-5.52,12.32,12.32,0,0,1,.6-5.93,9.8,9.8,0,0,1,3.31-4.4,13.35,13.35,0,0,1,11.74-1.63A9.65,9.65,0,0,1,376.25,64a12.14,12.14,0,0,1,2.2,5.54,11.91,11.91,0,0,1-.46,5.87,9.32,9.32,0,0,1-3.28,4.42,13.78,13.78,0,0,1-12.08,1.68ZM373,76a8,8,0,0,0,1.05-5.87,8.09,8.09,0,0,0-2.67-5.29,6.88,6.88,0,0,0-9.67,1.35A8.05,8.05,0,0,0,360.6,72a8,8,0,0,0,2.61,5.36A7,7,0,0,0,373,76Z"/><path class="cls-2" d="M387.35,78.91a20,20,0,0,1-3.65-.42c-.07-1.47-.11-2.2-.19-3.67a17.11,17.11,0,0,0,3.47.57,15.32,15.32,0,0,0,3.49-.15,6.32,6.32,0,0,0,3.28-1.31,2.31,2.31,0,0,0,.79-2.19A2.13,2.13,0,0,0,393.22,70a15.88,15.88,0,0,0-3.88-.92,14.93,14.93,0,0,1-5-1.57,5.51,5.51,0,0,1-.87-8.58,10.91,10.91,0,0,1,5.67-2.44,21.33,21.33,0,0,1,6-.1c.09,1.38.13,2.07.22,3.46a15.61,15.61,0,0,0-5.41,0c-2.8.46-4.08,1.48-3.82,3.08a2,2,0,0,0,1.33,1.65,17.58,17.58,0,0,0,3.85.86,14.05,14.05,0,0,1,5.28,1.6,4.87,4.87,0,0,1,2.16,3.53,5.66,5.66,0,0,1-1.58,5.35,10.78,10.78,0,0,1-6,2.76A20.73,20.73,0,0,1,387.35,78.91Z"/></svg>