<svg id="Capa_1" data-name="Capa 1" xmlns="http://www.w3.org/2000/svg" viewBox="0 0 487.56 137.44"><defs><style>.cls-1{fill:#af0614;}.cls-2{fill:#fff;}</style></defs><path class="cls-1" d="M487.56,114.4A1301.21,1301.21,0,0,1,0,114.4Q10.91,57.22,21.82,0A1184.81,1184.81,0,0,0,465.75,0l21.81,114.4"/><path class="cls-2" d="M115.62,83a21.25,21.25,0,0,1-4.22-2.32c.34-.85.67-1.69,1-2.53a18.9,18.9,0,0,0,3.9,2.33,17.33,17.33,0,0,0,4.3,1.33,8.91,8.91,0,0,0,5.73-.57,4.7,4.7,0,0,0,2.45-3.59,4.26,4.26,0,0,0-.23-2.44,5.1,5.1,0,0,0-1.75-1.9,27.11,27.11,0,0,0-3.87-2.17,26,26,0,0,1-4.74-2.84,7.25,7.25,0,0,1-2.3-2.91,6.63,6.63,0,0,1-.27-3.62,6,6,0,0,1,3.57-4.63,11.82,11.82,0,0,1,7-.76,25,25,0,0,1,7.1,2.34c-.24.88-.48,1.76-.73,2.63A20.58,20.58,0,0,0,126,58.9a8.41,8.41,0,0,0-5,.39,3.75,3.75,0,0,0-2.15,2.88A4.24,4.24,0,0,0,119,64.6a4.89,4.89,0,0,0,1.67,1.85,34.5,34.5,0,0,0,3.84,2.27,38.87,38.87,0,0,1,4.79,2.8A6.1,6.1,0,0,1,132,78.07a6.75,6.75,0,0,1-3.77,5.33,12.7,12.7,0,0,1-7.93.92A21.32,21.32,0,0,1,115.62,83Z"/><path class="cls-2" d="M137.8,85a6.26,6.26,0,0,1-1.52-5.34A4.67,4.67,0,0,1,138.7,76a9.11,9.11,0,0,1,5.58-.68l3.48.45c1.06.13,2.31.34,3.76.63.08-.65.15-1.31.23-2a5.63,5.63,0,0,0-.9-4.42,6.29,6.29,0,0,0-4.2-1.87,24.8,24.8,0,0,0-6.6.07c0-.77,0-1.55,0-2.32a27.35,27.35,0,0,1,3.52-.29,26.89,26.89,0,0,1,3.91.2,9.19,9.19,0,0,1,5.88,2.63,7,7,0,0,1,1.49,5.79l-1,8.84c-.15,1.3-.33,3.1-.54,5.38l-2.56-.3c0-.58,0-1.48-.07-2.69h-.08a6.05,6.05,0,0,1-2.89,1.92,10,10,0,0,1-4.39.27A8.62,8.62,0,0,1,137.8,85Zm11-.53A4.81,4.81,0,0,0,151,80.78c.09-.72.18-1.44.26-2.16-2.57-.3-5.13-.63-7.7-1a4.72,4.72,0,0,0-2.83.32,2.72,2.72,0,0,0-1.28,2.19,4,4,0,0,0,1,3.49,5.89,5.89,0,0,0,3.62,1.68A6.9,6.9,0,0,0,148.82,84.5Z"/><path class="cls-2" d="M163.23,60.22l3.05-.55-3.06,29.9-3.08-.32Z"/><path class="cls-2" d="M172.66,88.85c-1.58-1.5-2.22-3.7-1.95-6.58q.61-6.67,1.24-13.35l3,.27q-.6,6.72-1.19,13.44a5.45,5.45,0,0,0,1.36,4.5,6.93,6.93,0,0,0,4.64,1.93,5.35,5.35,0,0,0,6.44-5.43q.48-6.73,1-13.46l3,.21-.9,13.38a8,8,0,0,1-2.81,6c-1.7,1.39-4,2-7,1.73A10.75,10.75,0,0,1,172.66,88.85Z"/><path class="cls-2" d="M199.12,91.4a9.47,9.47,0,0,1-3.56-4.08,11.85,11.85,0,0,1-1-5.77,11.5,11.5,0,0,1,1.84-5.78A10.48,10.48,0,0,1,200.64,72a11.31,11.31,0,0,1,5.5-1.12,10.59,10.59,0,0,1,4.07,1,6.91,6.91,0,0,1,2.66,2H213q.2-5.06.37-10.12l3-.76-.78,24.63c0,1.31-.07,3.12-.09,5.41L212.87,93c-.07-.52-.16-1.51-.28-3h-.09a9.2,9.2,0,0,1-3.34,2.3,10.26,10.26,0,0,1-4.45.75A11.13,11.13,0,0,1,199.12,91.4Zm10.32-1.67a8.33,8.33,0,0,0,3-2.71c.09-2.34.17-4.67.25-7A6.15,6.15,0,0,0,211,75.37a7,7,0,0,0-5-2,7.66,7.66,0,0,0-4.12.9,7.56,7.56,0,0,0-2.93,3,10.17,10.17,0,0,0-1.24,4.47,9.75,9.75,0,0,0,.76,4.66,7.18,7.18,0,0,0,2.65,3.12,8,8,0,0,0,4,1.22A8.22,8.22,0,0,0,209.44,89.73Z"/><path class="cls-2" d="M232.33,65.69l2.48,0q8.63,11.15,17.79,22.07-.19-11.1-.41-22.18l2.85-.06.63,27.71-2.24,0Q244,82.14,235.16,70.75L235,93.43l-3,0Q232.2,79.56,232.33,65.69Z"/><path class="cls-2" d="M264,91.54a6.3,6.3,0,0,1-2.41-5,4.7,4.7,0,0,1,1.76-4,9.12,9.12,0,0,1,5.38-1.61l3.5-.15c1.07,0,2.33,0,3.8,0,0-.66-.07-1.31-.1-2a5.64,5.64,0,0,0-1.64-4.2,6.27,6.27,0,0,0-4.45-1.13,24.55,24.55,0,0,0-6.48,1.19c-.13-.76-.27-1.53-.41-2.29a29.41,29.41,0,0,1,3.41-.88,25.36,25.36,0,0,1,3.88-.46,9.11,9.11,0,0,1,6.23,1.59A7,7,0,0,1,278.93,78l.48,8.89c.08,1.31.2,3.11.39,5.39l-2.57.14c-.12-.57-.29-1.45-.53-2.64h-.08a6.08,6.08,0,0,1-2.52,2.39,10,10,0,0,1-4.27,1A8.63,8.63,0,0,1,264,91.54Zm10.75-2.39a4.84,4.84,0,0,0,1.5-4c0-.72-.07-1.45-.11-2.17q-3.87.19-7.74.35a4.77,4.77,0,0,0-2.72.8,2.66,2.66,0,0,0-.9,2.37,4,4,0,0,0,1.61,3.27,5.89,5.89,0,0,0,3.85,1A7,7,0,0,0,274.75,89.15Z"/><path class="cls-2" d="M288,90.54a5.59,5.59,0,0,1-1.93-4.35l-1.3-20.33,2.91-1.06c.14,2,.27,4,.41,6,2.61-.17,5.21-.37,7.82-.57l-.85,2.53c-2.27.18-4.54.34-6.8.5l.84,12.31a4.5,4.5,0,0,0,1,3,3.74,3.74,0,0,0,3,.71,16.53,16.53,0,0,0,4-.75l.39,2.19a15.24,15.24,0,0,1-4.37.91A7.42,7.42,0,0,1,288,90.54Z"/><path class="cls-2" d="M303.39,89q-2.72-1.8-3.07-6.13-.56-6.69-1.12-13.36l3-.26q.58,6.72,1.18,13.44a5.47,5.47,0,0,0,2.13,4.19A6.94,6.94,0,0,0,310.41,88a5.34,5.34,0,0,0,5.39-6.48l-1.41-13.42,3-.32q.74,6.67,1.46,13.33a8,8,0,0,1-1.72,6.37Q315,90,310.56,90.39A10.74,10.74,0,0,1,303.39,89Z"/><path class="cls-2" d="M323.81,67l2.73-.32c.21,1,.41,2,.62,3a11.72,11.72,0,0,1,3.1-2.72,12.39,12.39,0,0,1,4.18-1.69l.21,2.87a11.5,11.5,0,0,0-3.87,1.4,14.54,14.54,0,0,0-3.33,2.46q1,7.94,1.94,15.87l-3.07.37Q325.06,77.66,323.81,67Z"/><path class="cls-2" d="M341.1,84.9a6.28,6.28,0,0,1-2.92-4.73A4.67,4.67,0,0,1,339.52,76a9.05,9.05,0,0,1,5.19-2.17l3.47-.51c1.06-.16,2.32-.3,3.79-.42l-.3-1.94a5.67,5.67,0,0,0-2.08-4,6.33,6.33,0,0,0-4.55-.66,24.94,24.94,0,0,0-6.34,1.87c-.21-.75-.43-1.49-.64-2.23a28,28,0,0,1,7.12-2.1,9.12,9.12,0,0,1,6.38.93,7,7,0,0,1,3,5.17L356,78.69c.21,1.3.52,3.07.94,5.33l-2.55.41c-.17-.56-.44-1.42-.79-2.58l-.09,0a6.08,6.08,0,0,1-2.26,2.63A10.09,10.09,0,0,1,347.08,86,8.6,8.6,0,0,1,341.1,84.9Zm10.47-3.5a4.86,4.86,0,0,0,1.08-4.17c-.11-.72-.23-1.43-.34-2.15q-3.84.6-7.68,1.16A4.71,4.71,0,0,0,342,77.32a2.68,2.68,0,0,0-.65,2.45,4,4,0,0,0,1.95,3.08,5.84,5.84,0,0,0,3.94.63A7,7,0,0,0,351.57,81.4Z"/><path class="cls-2" d="M358.87,54.11l2.78-1.35q2.6,14.81,5.17,29.6l-3.05.53Q361.31,68.51,358.87,54.11Z"/></svg>