<svg id="Capa_1" data-name="Capa 1" xmlns="http://www.w3.org/2000/svg" viewBox="0 0 487.56 137.44"><defs><style>.cls-1{fill:#af0614;}.cls-2{fill:#fff;}</style></defs><path class="cls-1" d="M487.56,114.4A1301.21,1301.21,0,0,1,0,114.4Q10.91,57.22,21.82,0A1184.81,1184.81,0,0,0,465.75,0l21.81,114.4"/><path class="cls-2" d="M196.52,57.57c-4.8-.3-7.2-.47-12-.84.13-1.72.2-2.57.34-4.28q14.48,1.17,29,1.69c-.07,1.72-.1,2.58-.17,4.29-4.82-.18-7.23-.29-12.05-.56l-1.92,34.76-5.39-.31Z"/><path class="cls-2" d="M239.38,79.5c0,10.39-7.67,14.89-14.85,14.73-8.05-.18-14-6-13.66-14.89.39-9.39,6.87-14.62,14.79-14.45C233.87,65.07,239.4,70.92,239.38,79.5Zm-23.14-.13c-.21,6.15,3.36,10.92,8.62,11s9-4.44,9.09-10.77c.05-4.75-2.32-10.79-8.5-10.93S216.42,74,216.24,79.37Z"/><path class="cls-2" d="M252.13,57.56c.05,3.22.07,4.84.12,8.06,3,0,4.47-.07,7.45-.14,0,1.55.05,2.33.09,3.88-3,.08-4.49.11-7.49.15.09,6.06.14,9.08.22,15.14,0,3.48,1.12,5.45,4.11,5.39a12.43,12.43,0,0,0,3.11-.42c.14,1.53.2,2.29.34,3.82a13.76,13.76,0,0,1-4.77.8,7.93,7.93,0,0,1-5.86-2.06c-1.48-1.5-2.12-4-2.14-7.3-.05-6.12-.07-9.19-.12-15.31l-4.46,0V65.7l4.43,0,0-6.73Z"/><path class="cls-2" d="M282.9,92.66c-.24-1.4-.37-2.1-.61-3.51h-.19a11.09,11.09,0,0,1-8.86,4.6c-6,.25-9.21-3.67-9.33-7.73-.2-6.79,5.93-10.63,17.13-11.16l0-.58c-.13-2.32-1-6.43-6.87-6.18a15,15,0,0,0-7.41,2.38l-1.3-3.32a18.5,18.5,0,0,1,9.31-2.86c8.73-.39,11.21,5.28,11.55,10.9.25,4.19.37,6.29.63,10.48a37.16,37.16,0,0,0,.89,6.69C285.85,92.5,284.87,92.56,282.9,92.66Zm-1.55-14.27c-5.79.2-12.31,1.43-12.11,6.88.12,3.3,2.5,4.79,5.25,4.67a7.28,7.28,0,0,0,6.9-5,5.17,5.17,0,0,0,.21-1.64Z"/><path class="cls-2" d="M293.08,50.75l5.1-.39q1.62,20.53,3.23,41.07l-5.39.41Z"/></svg>