<svg id="Capa_1" data-name="Capa 1" xmlns="http://www.w3.org/2000/svg" viewBox="0 0 487.6 137.43"><defs><style>.cls-1{fill:#af0614;}.cls-2{fill:#fff;}</style></defs><path class="cls-1" d="M487.6,114.4A1302.25,1302.25,0,0,1,0,114.4Q11,57.25,21.8,0A1183.4,1183.4,0,0,0,465.7,0l21.9,114.4"/><path class="cls-2" d="M109.7,53.3a12.84,12.84,0,0,1-4.3-5.8,14.16,14.16,0,0,1-.5-7.4,14.93,14.93,0,0,1,3.1-7,14.23,14.23,0,0,1,6-4.2,17.59,17.59,0,0,1,8-.6,18.56,18.56,0,0,1,4.6,1.3,18.08,18.08,0,0,1,3.7,2,25.82,25.82,0,0,1-.8,2.6,18.39,18.39,0,0,0-8-3.3,12,12,0,0,0-6.3.5,10.26,10.26,0,0,0-4.7,3.5,13.31,13.31,0,0,0-2.5,5.8,11.71,11.71,0,0,0,.5,6.2,10.06,10.06,0,0,0,3.4,4.7,13.21,13.21,0,0,0,5.8,2.4,23.63,23.63,0,0,0,4.6.2,18.26,18.26,0,0,0,4.3-.8V56a21.14,21.14,0,0,1-9.4.6A18.43,18.43,0,0,1,109.7,53.3Z"/><path class="cls-2" d="M133,56.7c-1.5-1.6-2-3.8-1.6-6.7.6-4.4,1.2-8.9,1.9-13.3,1,.1,2,.3,3,.4-.6,4.5-1.2,8.9-1.8,13.4a5.48,5.48,0,0,0,1.1,4.6,6.4,6.4,0,0,0,4.5,2.1,5.34,5.34,0,0,0,6.7-5.1c.5-4.5,1.1-8.9,1.6-13.4,1,.1,2,.2,3,.4-.5,4.4-1,8.9-1.6,13.3a7.79,7.79,0,0,1-3.1,5.8,9.32,9.32,0,0,1-7,1.4A11.27,11.27,0,0,1,133,56.7Z"/><path class="cls-2" d="M158.1,35.5a2.16,2.16,0,0,1-.5-1.7,2.36,2.36,0,0,1,.9-1.6,2.62,2.62,0,0,1,1.7-.5,2.26,2.26,0,0,1,1.6.8,2.16,2.16,0,0,1,.5,1.7,2.36,2.36,0,0,1-.9,1.6,2.73,2.73,0,0,1-1.8.5A2.48,2.48,0,0,1,158.1,35.5Zm-.2,4.3,3,.3c-.7,7.1-1.5,14.2-2.2,21.3l-3.1-.3C156.3,54,157.1,46.9,157.9,39.8Z"/><path class="cls-2" d="M169.4,61.5a9.93,9.93,0,0,1-3.4-4.2,12.24,12.24,0,0,1-.8-5.8,10.94,10.94,0,0,1,2.1-5.7,10.34,10.34,0,0,1,4.4-3.6,10.51,10.51,0,0,1,5.5-.9,9.84,9.84,0,0,1,4,1.1,7.05,7.05,0,0,1,2.6,2.1h.1c.3-3.4.5-6.7.8-10.1l3-.6-1.8,24.6q-.15,2-.3,5.4c-.9-.1-1.7-.1-2.6-.2,0-.5-.1-1.5-.2-3h-.1a10.52,10.52,0,0,1-3.4,2.2,11.17,11.17,0,0,1-4.5.6A12.85,12.85,0,0,1,169.4,61.5Zm10.3-1.3a7.24,7.24,0,0,0,3.1-2.6c.2-2.3.4-4.7.5-7a6.51,6.51,0,0,0-1.5-4.7,7,7,0,0,0-4.9-2.2,7.56,7.56,0,0,0-4.2.8,7.34,7.34,0,0,0-3,2.8,10.37,10.37,0,0,0-1.4,4.4,9,9,0,0,0,.6,4.7,7.34,7.34,0,0,0,2.5,3.2,8.3,8.3,0,0,0,3.9,1.4A9.11,9.11,0,0,0,179.7,60.2Z"/><path class="cls-2" d="M193.5,62.8a6.38,6.38,0,0,1-1.9-5.2,4.5,4.5,0,0,1,2.1-3.8c1.3-.9,3.1-1.2,5.5-1.1,1.2.1,2.3.1,3.5.2s2.3.2,3.8.3c0-.7.1-1.3.1-2,.1-2-.3-3.4-1.2-4.3a6.84,6.84,0,0,0-4.3-1.6,25.35,25.35,0,0,0-6.6.6c-.1-.8-.1-1.5-.2-2.3,1-.2,2.2-.4,3.5-.6a25.41,25.41,0,0,1,3.9-.1,8.68,8.68,0,0,1,6,2.2c1.4,1.3,2,3.2,1.9,5.7-.1,3-.3,5.9-.4,8.9-.1,1.3-.1,3.1-.1,5.4-.9,0-1.7-.1-2.6-.1-.1-.6-.1-1.5-.3-2.7h-.1a5.82,5.82,0,0,1-2.7,2.1,9.55,9.55,0,0,1-4.3.6A8.39,8.39,0,0,1,193.5,62.8Zm10.8-1.4a4.93,4.93,0,0,0,1.9-3.9c0-.7.1-1.4.1-2.2-2.6-.1-5.1-.3-7.7-.4a4.71,4.71,0,0,0-2.8.5,2.7,2.7,0,0,0-1.1,2.3,3.79,3.79,0,0,0,1.3,3.4,7.39,7.39,0,0,0,8.3.3Z"/><path class="cls-2" d="M219.5,64.5a9.28,9.28,0,0,1-3.6-4,11.88,11.88,0,0,1-1.1-5.7,11,11,0,0,1,1.7-5.8,10,10,0,0,1,4.1-3.8,11.44,11.44,0,0,1,5.5-1.3,9.15,9.15,0,0,1,4.1.9,6.38,6.38,0,0,1,2.7,2h.1c0-3.4.1-6.8.1-10.1,1-.3,2-.5,3-.8-.1,8.2-.2,16.4-.2,24.6v5.4h-2.6a28.61,28.61,0,0,1-.3-3h-.1a8.32,8.32,0,0,1-3.3,2.4,10.49,10.49,0,0,1-4.4.9A12.72,12.72,0,0,1,219.5,64.5Zm10.3-1.9a7.39,7.39,0,0,0,3-2.8c0-2.3.1-4.7.1-7a6.34,6.34,0,0,0-1.8-4.6,6.87,6.87,0,0,0-5-1.9,8,8,0,0,0-4.1,1,7.62,7.62,0,0,0-2.9,3,9.36,9.36,0,0,0-1.1,4.5,8.45,8.45,0,0,0,.9,4.6,7.36,7.36,0,0,0,2.7,3.1,7.74,7.74,0,0,0,4,1.1A8.68,8.68,0,0,0,229.8,62.6Z"/><path class="cls-2" d="M245.6,64.8a8.92,8.92,0,0,1-3.7-4,11.77,11.77,0,0,1-1.2-5.6,12,12,0,0,1,1.3-5.7,9.75,9.75,0,0,1,3.8-4,11.62,11.62,0,0,1,6-1.5,10.5,10.5,0,0,1,5.7,1.4,9.92,9.92,0,0,1,3.7,3.9,13.24,13.24,0,0,1,1.4,5.6,13,13,0,0,1-1.1,5.6,9.76,9.76,0,0,1-3.7,4.1,11.77,11.77,0,0,1-6.1,1.6A11.26,11.26,0,0,1,245.6,64.8Zm11.6-3.4a8.92,8.92,0,0,0,2-6.5,9.4,9.4,0,0,0-2.2-6.3,7.38,7.38,0,0,0-5.6-2.3,7.12,7.12,0,0,0-5.6,2.4,9.31,9.31,0,0,0-2.1,6.4,10.15,10.15,0,0,0,1,4.7,7.39,7.39,0,0,0,2.8,3,7,7,0,0,0,4.1,1A7.12,7.12,0,0,0,257.2,61.4Z"/><path class="cls-2" d="M281.1,64a8.73,8.73,0,0,1-3.9-3.7,11.45,11.45,0,0,1-1.6-5.6,10.51,10.51,0,0,1,1.3-5.9,10.72,10.72,0,0,1,3.8-4.1,11.1,11.1,0,0,1,5.4-1.7,9.09,9.09,0,0,1,4.1.6,5.69,5.69,0,0,1,2.8,1.8h.1c-.2-3.4-.4-6.7-.6-10.1,1-.3,1.9-.7,2.9-1,.5,8.2,1.1,16.4,1.6,24.6.1,1.3.2,3.1.4,5.4-.9.1-1.7.1-2.6.2-.1-.5-.3-1.5-.6-2.9h-.1a10,10,0,0,1-3.1,2.6,10.21,10.21,0,0,1-4.3,1.2A14.91,14.91,0,0,1,281.1,64Zm10.1-2.6a8.91,8.91,0,0,0,2.8-3c-.1-2.3-.3-4.7-.4-7a6.38,6.38,0,0,0-2.1-4.5,6.77,6.77,0,0,0-5.2-1.5,7.61,7.61,0,0,0-4,1.3,8.19,8.19,0,0,0-2.6,3.2,9.94,9.94,0,0,0-.8,4.6,10.76,10.76,0,0,0,1.2,4.6,6.52,6.52,0,0,0,2.9,2.8,7.78,7.78,0,0,0,4,.8A8.33,8.33,0,0,0,291.2,61.4Z"/><path class="cls-2" d="M305,61.2q-3.15-2.55-3.6-8.1a11.13,11.13,0,0,1,.9-5.8,9.7,9.7,0,0,1,3.3-4.2,10.64,10.64,0,0,1,5.5-1.9c2.9-.2,5.2.4,6.8,1.9a10.32,10.32,0,0,1,2.9,6.2c.1,1.1.1,2.1.1,3-5.4.5-10.8,1-16.2,1.4a8.45,8.45,0,0,0,2.6,5.6c1.5,1.3,3.6,1.8,6.4,1.6a22.09,22.09,0,0,0,3.2-.6A12.57,12.57,0,0,0,320,59c.2.7.5,1.5.7,2.2a20.87,20.87,0,0,1-7.1,2.2C309.9,63.6,307.1,62.9,305,61.2Zm12.7-10.9a5.38,5.38,0,0,0-.1-1.1,6.79,6.79,0,0,0-1.8-4.2,5.68,5.68,0,0,0-4.7-1.3,7,7,0,0,0-5,2.4,8.41,8.41,0,0,0-1.7,5.3C308.8,51,313.2,50.7,317.7,50.3Z"/><path class="cls-2" d="M333.3,31.6c1-.4,1.9-.8,2.9-1.2,1.2,10,2.3,19.9,3.5,29.9-1,.1-2,.2-3.1.4Z"/><path class="cls-2" d="M349.4,58a9.05,9.05,0,0,1-4.2-3.5,12.6,12.6,0,0,1-2-5.4,11.24,11.24,0,0,1,.6-5.8,8.91,8.91,0,0,1,3.3-4.4,11.23,11.23,0,0,1,5.8-2.2,11,11,0,0,1,5.8.6,9.93,9.93,0,0,1,4.2,3.4,12.73,12.73,0,0,1,2.1,5.4,12.1,12.1,0,0,1-.4,5.7,9.6,9.6,0,0,1-3.2,4.5,11.65,11.65,0,0,1-5.9,2.3A10.11,10.11,0,0,1,349.4,58Zm11.2-4.8a9.2,9.2,0,0,0,1.2-6.7,9.33,9.33,0,0,0-3-6,7.17,7.17,0,0,0-5.9-1.6,6.94,6.94,0,0,0-5.2,3.1,9.32,9.32,0,0,0-1.3,6.6,9,9,0,0,0,1.6,4.5,8,8,0,0,0,3.1,2.7,7.44,7.44,0,0,0,4.2.5A7.14,7.14,0,0,0,360.6,53.2Z"/><path class="cls-2" d="M373.9,55.5a17,17,0,0,1-3.5-.6c0-.8-.1-1.7-.1-2.5a13.59,13.59,0,0,0,3.5.7,21.66,21.66,0,0,0,3.6-.1,6.7,6.7,0,0,0,3.6-1.6,3.06,3.06,0,0,0,.9-2.9,3,3,0,0,0-.8-1.8,3.54,3.54,0,0,0-1.6-.9c-.7-.2-1.7-.4-3.2-.7a14.94,14.94,0,0,1-5.6-1.9,4.91,4.91,0,0,1-2.1-3.4,4.44,4.44,0,0,1,1.5-4.3,9.7,9.7,0,0,1,5.3-2.4,18.16,18.16,0,0,1,5.7,0c0,.8.1,1.6.1,2.4a19,19,0,0,0-5.3-.1,7.13,7.13,0,0,0-3.4,1.4,2.82,2.82,0,0,0-.9,2.4,2.79,2.79,0,0,0,1.4,2.1,11.86,11.86,0,0,0,4.2,1.2,16.71,16.71,0,0,1,5.3,1.6,4.81,4.81,0,0,1,2.2,3.5,5.6,5.6,0,0,1-1.4,5,9.82,9.82,0,0,1-5.4,2.6A13.77,13.77,0,0,1,373.9,55.5Z"/><path class="cls-2" d="M99.3,81.2c.9.2,1.9.3,2.8.5a12.1,12.1,0,0,1-.1,1.9,15.94,15.94,0,0,1,3.9-1,14.08,14.08,0,0,1,4.1,0,9.16,9.16,0,0,1,3.4,1.2,6.33,6.33,0,0,1,2.3,2.3,14.33,14.33,0,0,1,4.3-1.2,13.71,13.71,0,0,1,4.5-.1,8,8,0,0,1,5.4,2.7,7.5,7.5,0,0,1,1.2,5.9c-.6,4.7-1.2,9.3-1.9,14-1.1-.1-2.2-.3-3.2-.4l1.8-12.9a9,9,0,0,0-.3-4.5c-.6-1.4-2-2.2-4.1-2.5a11.68,11.68,0,0,0-3.7.1,10.31,10.31,0,0,0-3.5,1.1,10.38,10.38,0,0,1-.2,3.4c-.7,4.5-1.4,9-2,13.5-1.1-.2-2.2-.3-3.2-.5.7-4.3,1.3-8.6,2-12.8a13.8,13.8,0,0,0,.2-2.6,5.82,5.82,0,0,0-.3-1.9c-.6-1.4-1.9-2.2-3.9-2.6a9.78,9.78,0,0,0-3.8.1,12.76,12.76,0,0,0-3.3,1.1c-.9,5.6-1.9,11.2-2.8,16.8l-3.2-.6C96.8,95.3,98,88.2,99.3,81.2Z"/><path class="cls-2" d="M137.6,107a6,6,0,0,1-1.7-5.3,4.5,4.5,0,0,1,2.5-3.7c1.4-.8,3.4-1,5.9-.7,1.2.1,2.5.3,3.7.4a39.17,39.17,0,0,1,4,.6c.1-.7.1-1.3.2-2,.2-2-.1-3.4-1-4.4a6.71,6.71,0,0,0-4.5-1.8,27.46,27.46,0,0,0-7,.1,17.7,17.7,0,0,0-.1-2.3,20.52,20.52,0,0,1,3.7-.3,27.48,27.48,0,0,1,4.1.2,10.19,10.19,0,0,1,6.3,2.6c1.4,1.4,1.9,3.3,1.7,5.8-.3,2.9-.6,5.9-.9,8.8-.1,1.3-.3,3.1-.5,5.4l-2.7-.3c0-.6-.1-1.5-.1-2.7h-.1a5.78,5.78,0,0,1-3,1.9,11.28,11.28,0,0,1-4.6.3A9.25,9.25,0,0,1,137.6,107Zm11.6-.6a4.81,4.81,0,0,0,2.2-3.7,15,15,0,0,0,.2-2.2l-8.2-.9a7,7,0,0,0-3,.3,2.64,2.64,0,0,0-1.3,2.2,3.76,3.76,0,0,0,1.2,3.5,6.7,6.7,0,0,0,3.9,1.7A7.79,7.79,0,0,0,149.2,106.4ZM143.7,83c3.3-1.3,6.5-2.6,9.7-4,.5.9,1,1.8,1.5,2.8-3.3,1.1-6.7,2.2-10.1,3.3A21.16,21.16,0,0,0,143.7,83Z"/><path class="cls-2" d="M163.3,111.3a13.39,13.39,0,0,1-3.4-1.5c.2-.8.4-1.6.6-2.5a17.5,17.5,0,0,0,3.4,1.5,16.34,16.34,0,0,0,3.7.8,6.51,6.51,0,0,0,4.1-.6,2.92,2.92,0,0,0,1.6-2.5,2.85,2.85,0,0,0-.3-1.9,3.33,3.33,0,0,0-1.4-1.2c-.6-.4-1.7-.8-3.1-1.5a16.16,16.16,0,0,1-5.3-3.3,4.42,4.42,0,0,1-1.2-3.8,4.7,4.7,0,0,1,2.6-3.8,10.34,10.34,0,0,1,6-.9,19.67,19.67,0,0,1,5.8,1.4,20.48,20.48,0,0,0-.5,2.4,19.61,19.61,0,0,0-5.4-1.4,7.16,7.16,0,0,0-3.8.5,2.67,2.67,0,0,0-1.5,2.1,2.54,2.54,0,0,0,.9,2.3,14.45,14.45,0,0,0,4,2.3,14.93,14.93,0,0,1,5,2.9,4.49,4.49,0,0,1,1.3,3.9,5.67,5.67,0,0,1-2.7,4.5,9.84,9.84,0,0,1-6.3,1.1A24.82,24.82,0,0,1,163.3,111.3Z"/><path class="cls-2" d="M192.7,92.1c1,.1,1.9.1,2.9.2v3.3a9.7,9.7,0,0,1,3.7-2.5,11,11,0,0,1,4.8-.7,12,12,0,0,1,5.3,1.5,9.52,9.52,0,0,1,3.8,3.9,11.19,11.19,0,0,1,1.3,5.9,11.63,11.63,0,0,1-1.7,5.9,10.53,10.53,0,0,1-4.3,3.8,11.94,11.94,0,0,1-6,1.1,12.3,12.3,0,0,1-7.8-3.1l-.6,11.1c-1.1.2-2.2.4-3.3.7C191.4,112.7,192,102.4,192.7,92.1Zm16,17.7a9.26,9.26,0,0,0,2.3-6.2,8.82,8.82,0,0,0-.9-4.7,7.17,7.17,0,0,0-2.7-3,8.92,8.92,0,0,0-4-1.2,8.48,8.48,0,0,0-3.9.7,7.22,7.22,0,0,0-2.9,2.2,4.85,4.85,0,0,0-1.2,3.1c-.1,2.5-.3,5-.4,7.6a10.43,10.43,0,0,0,3.2,2.6,9.26,9.26,0,0,0,4.4,1.1A7,7,0,0,0,208.7,109.8Z"/><path class="cls-2" d="M221.5,112.4c-2.1-1.9-3-4.7-2.9-8.4a13.38,13.38,0,0,1,1.5-5.7,10,10,0,0,1,4-3.9,11.56,11.56,0,0,1,6-1.3c3.1.1,5.4.9,7,2.5a9.93,9.93,0,0,1,2.4,6.5,26.61,26.61,0,0,1-.2,3c-5.8,0-11.5-.1-17.3-.3a7.79,7.79,0,0,0,2.1,5.8c1.4,1.4,3.6,2.2,6.6,2.2a21.36,21.36,0,0,0,3.4-.3,11.29,11.29,0,0,0,3.4-1c.2.8.3,1.5.5,2.3a18.93,18.93,0,0,1-7.8,1.4C226.4,115.3,223.6,114.3,221.5,112.4Zm14.5-9.6c0-.2.1-.6.1-1.1a6.35,6.35,0,0,0-1.5-4.4,6.21,6.21,0,0,0-4.8-1.7,7.68,7.68,0,0,0-5.5,1.9,8.17,8.17,0,0,0-2.4,5.1C226.6,102.6,231.3,102.7,236,102.8Z"/><path class="cls-2" d="M262.7,112.1a9.23,9.23,0,0,1-3.3,2.3,11.44,11.44,0,0,1-4.6.9,12.5,12.5,0,0,1-5.9-1.3,10,10,0,0,1-4.1-3.8,11.62,11.62,0,0,1-1.5-6,10.73,10.73,0,0,1,1.7-5.9,10.53,10.53,0,0,1,4.3-3.8,11.43,11.43,0,0,1,5.4-1.4,11.6,11.6,0,0,1,4.7.8,7.43,7.43,0,0,1,3.1,2.3c.1-1,.2-1.9.3-2.9a24.37,24.37,0,0,0,2.7-.1c.3,10.1.5,20.1.8,30.2l-3.3.9C262.8,120.4,262.8,116.2,262.7,112.1Zm-3.2-.3a8.44,8.44,0,0,0,3.1-2.8c-.1-2.4-.1-4.8-.2-7.2a5.13,5.13,0,0,0-1-3,6.17,6.17,0,0,0-2.7-2.3,7.38,7.38,0,0,0-4-.8,8.69,8.69,0,0,0-4.1,1.1,7.23,7.23,0,0,0-3,3,8.49,8.49,0,0,0-1.1,4.6,9.33,9.33,0,0,0,1,4.5,7.89,7.89,0,0,0,2.9,3.1,9.36,9.36,0,0,0,4.5,1.1A10.78,10.78,0,0,0,259.5,111.8Z"/><path class="cls-2" d="M275.6,112.8c-1.8-1.3-2.8-3.4-2.9-6.3-.1-4.5-.3-8.9-.4-13.4,1.1,0,2.1-.1,3.2-.1.2,4.5.3,9,.5,13.5a5.37,5.37,0,0,0,2,4.3,7.51,7.51,0,0,0,5.1,1.3,6.55,6.55,0,0,0,4.7-1.8,5.86,5.86,0,0,0,1.4-4.4c-.2-4.5-.5-9-.7-13.5,1.1-.1,2.1-.1,3.2-.2.2,4.5.5,8.9.7,13.4a8,8,0,0,1-2.2,6.3c-1.6,1.6-4,2.5-7.1,2.6A11.66,11.66,0,0,1,275.6,112.8Z"/><path class="cls-2" d="M301.3,110.8c-2.2-1.7-3.4-4.4-3.7-8.1a12.26,12.26,0,0,1,1-5.8,10.41,10.41,0,0,1,3.6-4.2,12.1,12.1,0,0,1,5.8-1.9c3.1-.2,5.5.4,7.2,1.9a8.93,8.93,0,0,1,2.9,6.3c.1,1.1.1,2.1.1,3-5.7.5-11.5.9-17.2,1.3a8.1,8.1,0,0,0,2.7,5.6c1.5,1.3,3.8,1.8,6.8,1.6a27.32,27.32,0,0,0,3.4-.6,16.21,16.21,0,0,0,3.3-1.3c.2.7.5,1.5.7,2.2a20.56,20.56,0,0,1-7.6,2.1C306.5,113.2,303.6,112.5,301.3,110.8Zm13.6-10.9V98.8a6.36,6.36,0,0,0-1.9-4.2,6.27,6.27,0,0,0-5-1.3,7.56,7.56,0,0,0-5.3,2.4,8,8,0,0,0-1.9,5.3C305.6,100.6,310.3,100.3,314.9,99.9Z"/><path class="cls-2" d="M322.8,90l2.9-.3c.2.6.3,1.3.5,1.9a17.92,17.92,0,0,1,3.9-2.1,17,17,0,0,1,4.3-1.1c2.7-.3,4.7.1,6.2,1.3a5.6,5.6,0,0,1,1.6,2.1,8.78,8.78,0,0,1,.8,3.1c.6,4.8,1.1,9.5,1.7,14.3a31.06,31.06,0,0,0-3.2.4c-.5-4.7-1-9.3-1.6-14a6,6,0,0,0-1.5-3.7,3.1,3.1,0,0,0-1.8-.9,7.26,7.26,0,0,0-2.6-.1,14,14,0,0,0-3.9,1,13.56,13.56,0,0,0-3.5,2.1c.5,5.6,1.1,11.3,1.6,16.9l-3.2.3C324.1,104.2,323.4,97.1,322.8,90Zm1.8-5a6.5,6.5,0,0,1,1.7-3.3,4.49,4.49,0,0,1,2.6-1.4,5.46,5.46,0,0,1,1.8.1,7.53,7.53,0,0,1,2,.8,5.69,5.69,0,0,0,2.8.8,1.85,1.85,0,0,0,1.2-.7,5.18,5.18,0,0,0,.7-1.8c.7.2,1.4.5,2.2.7a5.88,5.88,0,0,1-1.3,3,3.76,3.76,0,0,1-2.6,1.4,5.46,5.46,0,0,1-1.8-.1,8.92,8.92,0,0,1-1.9-.7c-.7-.3-1.2-.5-1.7-.7a2.63,2.63,0,0,0-1.2-.1,2.25,2.25,0,0,0-1.4.8,4.8,4.8,0,0,0-.9,1.9C326,85.5,325.3,85.2,324.6,85Z"/><path class="cls-2" d="M355.2,106.9a9.39,9.39,0,0,1-4.4-3.4,11.43,11.43,0,0,1-2-5.4,11.25,11.25,0,0,1,.7-5.8,9.46,9.46,0,0,1,3.5-4.4,13.9,13.9,0,0,1,6.1-2.3,12.56,12.56,0,0,1,6.2.6,9.25,9.25,0,0,1,4.4,3.4,11.79,11.79,0,0,1,2.1,5.4,12.11,12.11,0,0,1-.5,5.7,10.1,10.1,0,0,1-3.4,4.6,13.91,13.91,0,0,1-6.2,2.4A16.59,16.59,0,0,1,355.2,106.9Zm11.9-4.9a8.75,8.75,0,0,0,1.3-6.7,9,9,0,0,0-3.1-6,8.2,8.2,0,0,0-6.2-1.5,8.09,8.09,0,0,0-5.6,3.1,8.62,8.62,0,0,0-1.4,6.6,10,10,0,0,0,1.6,4.5,8.58,8.58,0,0,0,3.3,2.7,9.09,9.09,0,0,0,4.4.5A8.2,8.2,0,0,0,367.1,102Z"/><path class="cls-2" d="M381.1,104.2a19.07,19.07,0,0,1-3.7-.6,20.9,20.9,0,0,0-.1-2.5,15.06,15.06,0,0,0,3.7.6,15.89,15.89,0,0,0,3.8-.2,7.06,7.06,0,0,0,3.8-1.6,3.12,3.12,0,0,0,1-2.9,3,3,0,0,0-.8-1.8,3.93,3.93,0,0,0-1.7-.9,25.42,25.42,0,0,0-3.3-.6,17.18,17.18,0,0,1-5.9-1.8,5,5,0,0,1-2.2-3.4,4.5,4.5,0,0,1,1.6-4.3,10.73,10.73,0,0,1,5.6-2.4,24.1,24.1,0,0,1,6-.1,19.27,19.27,0,0,0,.1,2.4,17.51,17.51,0,0,0-5.6,0,7.53,7.53,0,0,0-3.6,1.4,2.65,2.65,0,0,0-1,2.4,3,3,0,0,0,1.4,2.1,12.59,12.59,0,0,0,4.5,1.2,15.68,15.68,0,0,1,5.6,1.6,4.92,4.92,0,0,1,2.3,3.5,5.65,5.65,0,0,1-1.5,5,10.84,10.84,0,0,1-5.8,2.7A29.54,29.54,0,0,1,381.1,104.2Z"/></svg>