<svg id="Capa_1" data-name="Capa 1" xmlns="http://www.w3.org/2000/svg" viewBox="0 0 487.6 137.5"><defs><style>.cls-1{fill:#af0614;}.cls-2{fill:#fff;}</style></defs><path class="cls-1" d="M487.6,114.4A1298.1,1298.1,0,0,1,0,114.4Q11,57.25,21.8,0A1183.4,1183.4,0,0,0,465.7,0l21.9,114.4"/><path class="cls-2" d="M99,55.1c.8.1,1.6.3,2.5.4,2.7,7.2,5.4,14.3,8.2,21.5h.2c4.9-5.9,9.7-11.9,14.4-17.9l2.5.3c-1.3,9.1-2.6,18.3-3.8,27.4-1-.1-1.9-.3-2.9-.4,1-7,2-14.1,3-21.1-4.3,5.3-8.7,10.6-13.1,15.8l-1.6-.3c-2.6-6.3-5.1-12.7-7.5-19.1l-3.6,21c-1-.2-1.9-.3-2.9-.5C95.8,73.3,97.4,64.2,99,55.1Z"/><path class="cls-2" d="M132.6,86.6c-1.5-1.6-2.1-3.8-1.7-6.6.6-4.4,1.2-8.9,1.7-13.3,1,.1,2,.3,3,.4-.6,4.5-1.1,8.9-1.7,13.4a5.86,5.86,0,0,0,1.2,4.6,6.45,6.45,0,0,0,4.6,2.1,5.31,5.31,0,0,0,6.6-5.1c.5-4.5,1-8.9,1.5-13.4l3,.3c-.5,4.4-1,8.9-1.5,13.3a8.47,8.47,0,0,1-3,5.9c-1.7,1.3-4.1,1.8-7,1.5A12.71,12.71,0,0,1,132.6,86.6Z"/><path class="cls-2" d="M158.1,61.7l3-.6c-1,10-1.9,19.9-2.9,29.9l-3.1-.3C156.1,81.1,157.1,71.4,158.1,61.7Z"/><path class="cls-2" d="M166.8,90.6a5.54,5.54,0,0,1-1.2-4.6c.6-6.8,1.2-13.5,1.8-20.3l3-.6c-.2,2-.3,4-.5,6l7.8.6-1.2,2.4-6.8-.6c-.4,4.1-.7,8.2-1.1,12.3a5,5,0,0,0,.6,3.2c.5.7,1.4,1,2.8,1.2a17.54,17.54,0,0,0,4-.1v2.2a12.67,12.67,0,0,1-4.4.2A7.62,7.62,0,0,1,166.8,90.6Z"/><path class="cls-2" d="M182.2,67.3a2.52,2.52,0,0,1-.6-1.7,1.94,1.94,0,0,1,.8-1.6,2.16,2.16,0,0,1,1.7-.5,1.94,1.94,0,0,1,1.6.8,2.52,2.52,0,0,1,.6,1.7,1.94,1.94,0,0,1-.8,1.6,2.16,2.16,0,0,1-1.7.5A2.47,2.47,0,0,1,182.2,67.3Zm-.1,4.3c1,.1,2,.1,3,.2-.5,7.1-1,14.2-1.4,21.4-1-.1-2-.1-3.1-.2C181.1,85.8,181.6,78.7,182.1,71.6Z"/><path class="cls-2" d="M195,93.7a21.41,21.41,0,0,1-4.3-1.7c.5-9.2,1.1-18.3,1.6-27.5,1-.2,2-.5,3-.7l-.6,11.4h.2a9.38,9.38,0,0,1,3.2-2.1,12.51,12.51,0,0,1,4.5-.7,11.63,11.63,0,0,1,5,1.4,8.41,8.41,0,0,1,3.4,3.8,11.82,11.82,0,0,1,1.1,5.8,13.47,13.47,0,0,1-1.6,6.1,10.25,10.25,0,0,1-4.1,3.9,11.14,11.14,0,0,1-6.1,1.1A17.35,17.35,0,0,1,195,93.7Zm11.4-3.6c1.5-1.5,2.3-3.6,2.4-6.5a9.27,9.27,0,0,0-1.7-6.3,6.56,6.56,0,0,0-5.1-2.4,7.89,7.89,0,0,0-3.7.7,6.15,6.15,0,0,0-2.8,2.2,6,6,0,0,0-1.2,3.3c-.2,3.2-.4,6.4-.5,9.7a16.28,16.28,0,0,0,6.4,1.5C202.8,92.2,204.9,91.6,206.4,90.1Z"/><path class="cls-2" d="M218.7,92.5q-2.85-2.85-2.7-8.4a13.32,13.32,0,0,1,1.4-5.7,9.92,9.92,0,0,1,3.7-3.9,10.33,10.33,0,0,1,5.6-1.3c2.9,0,5.1.9,6.5,2.5a9.81,9.81,0,0,1,2.2,6.5,26.61,26.61,0,0,1-.2,3c-5.4,0-10.9-.1-16.3-.3a8.16,8.16,0,0,0,2,5.8c1.3,1.4,3.4,2.1,6.2,2.2a19.07,19.07,0,0,0,3.2-.3,10.89,10.89,0,0,0,3.2-1c.1.8.3,1.5.4,2.3a17,17,0,0,1-7.3,1.4A11.18,11.18,0,0,1,218.7,92.5Zm13.7-9.7a5.38,5.38,0,0,1,.1-1.1,6.82,6.82,0,0,0-1.4-4.4,5.52,5.52,0,0,0-4.5-1.7,7,7,0,0,0-5.2,1.9,8,8,0,0,0-2.2,5.1C223.6,82.7,228,82.8,232.4,82.8Z"/><path class="cls-2" d="M240.6,73.7h2.7c.1.7.2,1.3.3,2a14.64,14.64,0,0,1,3.8-1.7,15.33,15.33,0,0,1,4.1-.7c2.5,0,4.4.6,5.7,1.9a8.26,8.26,0,0,1,1.4,2.2,9.77,9.77,0,0,1,.5,3.2c.1,4.8.2,9.6.3,14.3-1,0-2,0-3.1.1L256,80.9a5.74,5.74,0,0,0-1.1-3.8,3.09,3.09,0,0,0-1.6-1.1,8.07,8.07,0,0,0-2.5-.3,9.71,9.71,0,0,0-3.7.7,14.19,14.19,0,0,0-3.5,1.7c0,5.7,0,11.3.1,17h-3.1Z"/><path class="cls-2" d="M267.5,92.3c-2-1.8-3.1-4.5-3.2-8.2a12.53,12.53,0,0,1,1.1-5.8,10,10,0,0,1,3.5-4.1,10.23,10.23,0,0,1,5.6-1.6c2.9-.1,5.2.6,6.7,2.2a10.1,10.1,0,0,1,2.6,6.4,15,15,0,0,1,0,3c-5.4.3-10.8.5-16.3.7.2,2.5.9,4.4,2.3,5.7s3.5,1.9,6.3,1.8a13.18,13.18,0,0,0,3.2-.5,18.51,18.51,0,0,0,3.1-1.1c.2.7.4,1.5.6,2.2a18.21,18.21,0,0,1-7.2,1.8C272.3,94.9,269.5,94.1,267.5,92.3Zm13.1-10.4V80.8a7.22,7.22,0,0,0-1.6-4.3c-1-1.1-2.5-1.6-4.6-1.5a6.75,6.75,0,0,0-5.1,2.2,7.8,7.8,0,0,0-1.9,5.3C271.8,82.3,276.2,82.2,280.6,81.9Z"/><path class="cls-2" d="M288.2,71.2a7.91,7.91,0,0,1,1.8-5.9,8.31,8.31,0,0,1,5.6-2.4,17.46,17.46,0,0,1,5.2.4,17.85,17.85,0,0,0-.2,2.3c-.6-.1-1.4-.2-2.2-.3a8.84,8.84,0,0,0-2.3,0,4.46,4.46,0,0,0-4.8,5.4c0,.6.1,1.2.1,1.8l9-.6c-.3.8-.6,1.7-.9,2.5-2.7.2-5.3.4-8,.5.4,6.2.7,12.3,1.1,18.5-1,.1-2,.1-3.1.2C289.1,86.2,288.6,78.7,288.2,71.2ZM304,67a1.94,1.94,0,0,1-.8-1.6,2.11,2.11,0,0,1,.6-1.7,2.47,2.47,0,0,1,1.6-.8,2.05,2.05,0,0,1,1.7.5,1.94,1.94,0,0,1,.8,1.6,1.83,1.83,0,0,1-.6,1.7,2.47,2.47,0,0,1-1.6.8A2,2,0,0,1,304,67Zm.5,4.3c1-.1,2-.2,3-.2.6,7.1,1.1,14.2,1.7,21.3a30.28,30.28,0,0,1-3.1.2C305.6,85.5,305,78.4,304.5,71.3Z"/><path class="cls-2" d="M320.1,90.5a9.46,9.46,0,0,1-4.4-3.5,11.79,11.79,0,0,1-1.9-5.9,10.42,10.42,0,0,1,1-5.9,11.5,11.5,0,0,1,3.7-4.2,12.86,12.86,0,0,1,5.6-1.9,16.89,16.89,0,0,1,6.5.5,19.42,19.42,0,0,0-.2,2.4,17.77,17.77,0,0,0-2.8-.5,16,16,0,0,0-3.1,0,9.57,9.57,0,0,0-4.3,1.5,7.52,7.52,0,0,0-2.6,3.3,8.26,8.26,0,0,0-.6,4.5,8.9,8.9,0,0,0,2.7,6.1c1.6,1.5,3.8,2.1,6.8,1.8a10.88,10.88,0,0,0,3-.7,15.11,15.11,0,0,0,2.9-1.3c.2.7.5,1.5.7,2.2a16.56,16.56,0,0,1-6.7,2.2A11.66,11.66,0,0,1,320.1,90.5Z"/><path class="cls-2" d="M334.8,64a2.36,2.36,0,0,1-.9-1.6,2.05,2.05,0,0,1,.5-1.7,1.94,1.94,0,0,1,1.6-.8,2.44,2.44,0,0,1,2.7,2,2.05,2.05,0,0,1-.5,1.7,2.09,2.09,0,0,1-1.6.8A1.92,1.92,0,0,1,334.8,64Zm.6,4.3,3-.3c.8,7.1,1.7,14.2,2.5,21.3-1,.1-2,.2-3.1.4C337.1,82.5,336.3,75.4,335.4,68.3Z"/><path class="cls-2" d="M351.3,86.9a8.5,8.5,0,0,1-4.2-3.5,12.6,12.6,0,0,1-2-5.4,11.24,11.24,0,0,1,.6-5.8,9.33,9.33,0,0,1,3.2-4.4,11.23,11.23,0,0,1,5.8-2.2,11,11,0,0,1,5.8.6,9.93,9.93,0,0,1,4.2,3.4,12.73,12.73,0,0,1,2.1,5.4,12.1,12.1,0,0,1-.4,5.7,9.6,9.6,0,0,1-3.2,4.5,11.65,11.65,0,0,1-5.9,2.3A11.89,11.89,0,0,1,351.3,86.9Zm11.2-4.8a9.2,9.2,0,0,0,1.2-6.7,9.59,9.59,0,0,0-3-6,7.17,7.17,0,0,0-5.9-1.6,6.94,6.94,0,0,0-5.2,3.1,9.32,9.32,0,0,0-1.3,6.6,10,10,0,0,0,1.6,4.5,8,8,0,0,0,3.1,2.7,8.16,8.16,0,0,0,9.5-2.6Z"/><path class="cls-2" d="M375.8,84.3a17,17,0,0,1-3.5-.6c0-.8-.1-1.7-.1-2.5a13.59,13.59,0,0,0,3.5.7,21.66,21.66,0,0,0,3.6-.1,6.7,6.7,0,0,0,3.6-1.6,3.06,3.06,0,0,0,.9-2.9,3,3,0,0,0-.8-1.8,3.54,3.54,0,0,0-1.6-.9c-.7-.2-1.7-.4-3.2-.7a14.94,14.94,0,0,1-5.6-1.9,4.91,4.91,0,0,1-2.1-3.4,4.44,4.44,0,0,1,1.5-4.3,9.7,9.7,0,0,1,5.3-2.4,18.16,18.16,0,0,1,5.7,0c0,.8.1,1.6.1,2.4a19,19,0,0,0-5.3-.1,7.13,7.13,0,0,0-3.4,1.4,2.82,2.82,0,0,0-.9,2.4,2.79,2.79,0,0,0,1.4,2.1,11.86,11.86,0,0,0,4.2,1.2,16.71,16.71,0,0,1,5.3,1.6,4.81,4.81,0,0,1,2.2,3.5,5.6,5.6,0,0,1-1.4,5,9.82,9.82,0,0,1-5.4,2.6A11,11,0,0,1,375.8,84.3Z"/></svg>