<svg id="Capa_1" data-name="Capa 1" xmlns="http://www.w3.org/2000/svg" viewBox="0 0 487.56 137.44"><defs><style>.cls-1{fill:#af0614;}.cls-2{fill:#fff;}</style></defs><path class="cls-1" d="M487.56,114.4A1301.21,1301.21,0,0,1,0,114.4Q10.91,57.22,21.82,0A1184.81,1184.81,0,0,0,465.75,0l21.81,114.4"/><path class="cls-2" d="M165.78,84.46l2.73-34.73,4.92.37c3.95,7.36,6,11,10.09,18.35a108.45,108.45,0,0,1,5.75,11.68l.11,0c-.17-4.67,0-8.91.27-14.33.32-5.82.48-8.74.81-14.56l4.24.23q-.88,17.4-1.78,34.8L188.2,86c-4.2-7.31-6.26-11-10.29-18.35a100.57,100.57,0,0,1-5.77-12.07l-.16,0c-.07,4.41-.27,8.59-.7,14.36l-1.1,14.85Z"/><path class="cls-2" d="M215.31,87.12c-.12-1.26-.17-1.9-.29-3.16h-.16a9.68,9.68,0,0,1-8.06,3.46c-5.26-.2-7.79-3.89-7.62-7.51.27-6,5.91-9.06,15.79-8.72l0-.51c.06-2.07-.41-5.79-5.61-6a13,13,0,0,0-6.69,1.6c-.37-1.21-.55-1.82-.92-3a16.16,16.16,0,0,1,8.41-1.89c7.74.27,9.5,5.5,9.37,10.52-.09,3.74-.13,5.61-.23,9.35a34.38,34.38,0,0,0,.28,6ZM215,74.34c-5.08-.25-10.89.39-11.09,5.25a4.09,4.09,0,0,0,4.27,4.51,6.41,6.41,0,0,0,6.39-4,5,5,0,0,0,.31-1.44Z"/><path class="cls-2" d="M232.66,55.26c0,2.87,0,4.31-.09,7.18,2.64,0,4,.05,6.6.06,0,1.38,0,2.08,0,3.46l-6.62,0-.15,13.49c0,3.1.85,4.87,3.47,4.89a10.9,10.9,0,0,0,2.74-.29c.07,1.37.11,2,.19,3.41a11.69,11.69,0,0,1-4.19.59,6.85,6.85,0,0,1-5.08-2c-1.26-1.36-1.77-3.59-1.72-6.54.09-5.46.13-8.19.22-13.65l-3.94-.07.07-3.46,3.93.07.1-6Z"/><path class="cls-2" d="M266,80.46c.06,2.58.16,4.85.37,6.81l-4.19.09c-.14-1.63-.21-2.45-.34-4.08h-.11a9.73,9.73,0,0,1-8.52,4.77c-4.08,0-9-2.12-9-10.91,0-5.85,0-8.78,0-14.63h4.61c0,5.54,0,8.31.07,13.85,0,4.76,1.54,8,5.82,7.92A6.77,6.77,0,0,0,260.84,80a6.4,6.4,0,0,0,.39-2.33c-.11-6.14-.17-9.21-.27-15.35,1.84,0,2.76,0,4.6-.1C265.73,69.54,265.81,73.18,266,80.46Z"/><path class="cls-2" d="M273.44,69.87c-.08-3-.21-5.48-.44-7.8l4-.13c.13,2,.2,2.94.33,4.9h.21a7.65,7.65,0,0,1,6.82-5.75,4.91,4.91,0,0,1,1.31.1c.07,1.71.11,2.57.18,4.29a6.47,6.47,0,0,0-1.58-.09c-3.25.13-5.48,2.64-6,6.08a11.6,11.6,0,0,0-.14,2.12c.19,5.33.28,8,.47,13.33-1.87.07-2.8.1-4.67.15C273.76,80.19,273.65,76.75,273.44,69.87Z"/><path class="cls-2" d="M305.64,85.61c-.23-1.25-.35-1.88-.57-3.13h-.17a9.72,9.72,0,0,1-7.71,4.18c-5.26.28-8.11-3.17-8.28-6.79-.27-6,5.07-9.56,14.94-10.12l0-.51c-.12-2.07-.93-5.73-6.12-5.44a13,13,0,0,0-6.52,2.2l-1.2-3a16.21,16.21,0,0,1,8.21-2.65c7.74-.43,10,4.62,10.29,9.63.25,3.73.37,5.6.62,9.33a33.06,33.06,0,0,0,.83,6ZM304.15,72.9c-5.09.21-10.82,1.39-10.57,6.24a4.08,4.08,0,0,0,4.66,4.1,6.38,6.38,0,0,0,6-4.54,4.61,4.61,0,0,0,.18-1.46C304.31,75.5,304.26,74.64,304.15,72.9Z"/><path class="cls-2" d="M314.41,48.22l4.54-.35,2.88,36.59-4.72.36Z"/></svg>