<svg id="Capa_1" data-name="Capa 1" xmlns="http://www.w3.org/2000/svg" viewBox="0 0 487.6 137.42"><defs><style>.cls-1{fill:#af0614;}.cls-2{fill:#fff;}</style></defs><path class="cls-1" d="M487.6,114.4A1302.25,1302.25,0,0,1,0,114.4Q11,57.25,21.8,0A1183.4,1183.4,0,0,0,465.7,0l21.9,114.4"/><path class="cls-2" d="M115.6,83a21.35,21.35,0,0,1-4.2-2.3c.3-.8.7-1.7,1-2.5a18.9,18.9,0,0,0,8.2,3.6,8.58,8.58,0,0,0,5.7-.6,4.6,4.6,0,0,0,2.4-3.6,4.5,4.5,0,0,0-.2-2.4,5,5,0,0,0-1.7-1.9c-.9-.6-2.2-1.3-3.9-2.2a26.36,26.36,0,0,1-4.7-2.8,7.56,7.56,0,0,1-2.3-2.9,7.08,7.08,0,0,1-.3-3.6,5.9,5.9,0,0,1,3.6-4.6,12.29,12.29,0,0,1,7-.8,29.32,29.32,0,0,1,7.1,2.3c-.2.9-.5,1.8-.7,2.6a19,19,0,0,0-6.6-2.4,8.71,8.71,0,0,0-5,.4,4.09,4.09,0,0,0-2.2,2.9,3.69,3.69,0,0,0,.2,2.4,4.86,4.86,0,0,0,1.7,1.9,30.69,30.69,0,0,0,3.8,2.3,41.32,41.32,0,0,1,4.8,2.8,6.43,6.43,0,0,1,2.3,2.7,6.6,6.6,0,0,1,.4,3.8,6.8,6.8,0,0,1-3.8,5.3,12.72,12.72,0,0,1-7.9.9A19.31,19.31,0,0,1,115.6,83Z"/><path class="cls-2" d="M137.8,85a6.26,6.26,0,0,1-1.5-5.3,4.61,4.61,0,0,1,2.4-3.7,8.85,8.85,0,0,1,5.6-.7c1.2.2,2.3.3,3.5.4a36.27,36.27,0,0,1,3.8.6,13.55,13.55,0,0,0,.2-2,5.83,5.83,0,0,0-.9-4.4c-.8-1-2.2-1.6-4.2-1.9a24.43,24.43,0,0,0-6.6.1V65.8a18.27,18.27,0,0,1,3.5-.3,25.49,25.49,0,0,1,3.9.2,9.27,9.27,0,0,1,5.9,2.6c1.3,1.4,1.8,3.3,1.5,5.8-.3,2.9-.7,5.9-1,8.8-.2,1.3-.3,3.1-.5,5.4l-2.6-.3c0-.6,0-1.5-.1-2.7h-.1a5.91,5.91,0,0,1-2.9,1.9,10.31,10.31,0,0,1-4.4.3A7.34,7.34,0,0,1,137.8,85Zm11-.5a4.92,4.92,0,0,0,2.2-3.7c.1-.7.2-1.4.3-2.2-2.6-.3-5.1-.6-7.7-1a4.84,4.84,0,0,0-2.8.3,2.89,2.89,0,0,0-1.3,2.2,4.22,4.22,0,0,0,1,3.5,6.1,6.1,0,0,0,3.6,1.7A6.49,6.49,0,0,0,148.8,84.5Z"/><path class="cls-2" d="M163.2,60.2c1-.2,2-.4,3-.5-1,10-2,19.9-3.1,29.9l-3.1-.3C161.2,79.6,162.2,69.9,163.2,60.2Z"/><path class="cls-2" d="M172.7,88.8c-1.6-1.5-2.2-3.7-1.9-6.6.4-4.4.8-8.9,1.2-13.3l3,.3c-.4,4.5-.8,9-1.2,13.4a5.27,5.27,0,0,0,1.4,4.5,6.72,6.72,0,0,0,4.6,1.9,5.65,5.65,0,0,0,4.6-1.2,5.85,5.85,0,0,0,1.8-4.2c.3-4.5.6-9,1-13.5,1,.1,2,.1,3,.2-.3,4.5-.6,8.9-.9,13.4a8.16,8.16,0,0,1-2.8,6c-1.7,1.4-4,2-7,1.7A10.34,10.34,0,0,1,172.7,88.8Z"/><path class="cls-2" d="M199.1,91.4a9.53,9.53,0,0,1-3.6-4.1,12,12,0,0,1-1-5.8,12.38,12.38,0,0,1,1.8-5.8,10.66,10.66,0,0,1,4.2-3.7,11.55,11.55,0,0,1,5.5-1.1,10.76,10.76,0,0,1,4.1,1,7.32,7.32,0,0,1,2.7,2h.1c.1-3.4.2-6.7.4-10.1,1-.3,2-.5,3-.8-.3,8.2-.5,16.4-.8,24.6,0,1.3-.1,3.1-.1,5.4-.9,0-1.7-.1-2.6-.1a28.61,28.61,0,0,1-.3-3h-.1a9.79,9.79,0,0,1-3.3,2.3,11.24,11.24,0,0,1-4.5.8A10.4,10.4,0,0,1,199.1,91.4Zm10.3-1.7a7.89,7.89,0,0,0,3-2.7c.1-2.3.2-4.7.3-7a5.88,5.88,0,0,0-1.7-4.6,6.93,6.93,0,0,0-5-2,7.1,7.1,0,0,0-4.1.9,8.06,8.06,0,0,0-2.9,2.9,10.7,10.7,0,0,0-1.2,4.5,10.13,10.13,0,0,0,.8,4.7,6.81,6.81,0,0,0,2.7,3.1,7.82,7.82,0,0,0,4,1.2A8.3,8.3,0,0,0,209.4,89.7Z"/><path class="cls-2" d="M232.3,65.7h2.5c5.8,7.4,11.7,14.8,17.8,22.1-.1-7.4-.3-14.8-.4-22.2a26.2,26.2,0,0,0,2.8-.1c.2,9.2.4,18.5.6,27.7h-2.2c-6.3-7.4-12.4-15-18.3-22.5,0,7.6-.1,15.1-.1,22.7h-3C232.2,84.2,232.2,74.9,232.3,65.7Z"/><path class="cls-2" d="M264,91.5a6.51,6.51,0,0,1-2.4-5,4.39,4.39,0,0,1,1.8-4,8.89,8.89,0,0,1,5.4-1.6c1.2,0,2.3-.1,3.5-.2s2.3-.1,3.8,0c0-.7-.1-1.3-.1-2-.1-2-.6-3.4-1.6-4.2a6.42,6.42,0,0,0-4.4-1.1,25.56,25.56,0,0,0-6.5,1.2c-.1-.8-.3-1.5-.4-2.3,1-.3,2.1-.6,3.4-.9a26,26,0,0,1,3.9-.5c2.7-.1,4.7.4,6.2,1.6a7.35,7.35,0,0,1,2.5,5.5c.2,3,.3,5.9.5,8.9.1,1.3.2,3.1.4,5.4-.9,0-1.7.1-2.6.1-.1-.6-.3-1.4-.5-2.6h-.1a5.81,5.81,0,0,1-2.5,2.4,10.48,10.48,0,0,1-4.3,1A8.75,8.75,0,0,1,264,91.5Zm10.7-2.4a4.69,4.69,0,0,0,1.5-4c0-.7-.1-1.4-.1-2.2-2.6.1-5.2.2-7.7.4a4.14,4.14,0,0,0-2.7.8,3,3,0,0,0-.9,2.4,4.08,4.08,0,0,0,1.6,3.3,5.33,5.33,0,0,0,3.8,1A6.62,6.62,0,0,0,274.7,89.1Z"/><path class="cls-2" d="M288,90.5c-1.2-.9-1.8-2.3-1.9-4.4-.4-6.8-.9-13.6-1.3-20.3,1-.3,1.9-.7,2.9-1.1.1,2,.3,4,.4,6l7.8-.6a24.13,24.13,0,0,0-.8,2.5c-2.3.2-4.5.3-6.8.5.3,4.1.6,8.2.8,12.3a4.42,4.42,0,0,0,1,3,3.75,3.75,0,0,0,3,.7,17.73,17.73,0,0,0,4-.8c.1.7.3,1.5.4,2.2a13.69,13.69,0,0,1-4.4.9A6.35,6.35,0,0,1,288,90.5Z"/><path class="cls-2" d="M303.4,89c-1.8-1.2-2.8-3.2-3.1-6.1-.4-4.5-.7-8.9-1.1-13.4l3-.3c.4,4.5.8,9,1.2,13.4a5.7,5.7,0,0,0,2.1,4.2,7.06,7.06,0,0,0,4.9,1.1,6,6,0,0,0,4.3-2,6.33,6.33,0,0,0,1.1-4.5c-.5-4.5-.9-8.9-1.4-13.4l3-.3c.5,4.4,1,8.9,1.5,13.3a8.13,8.13,0,0,1-1.7,6.4c-1.4,1.7-3.6,2.6-6.6,2.9A10.24,10.24,0,0,1,303.4,89Z"/><path class="cls-2" d="M323.8,67l2.7-.3.6,3a11.82,11.82,0,0,1,3.1-2.7,12.81,12.81,0,0,1,4.2-1.7c.1,1,.1,1.9.2,2.9a12.24,12.24,0,0,0-3.9,1.4,14.31,14.31,0,0,0-3.3,2.5c.6,5.3,1.3,10.6,1.9,15.9-1,.1-2,.2-3.1.4C325.5,81.2,324.6,74.1,323.8,67Z"/><path class="cls-2" d="M341.1,84.9a6.07,6.07,0,0,1-2.9-4.7,4.8,4.8,0,0,1,1.3-4.2,9.31,9.31,0,0,1,5.2-2.2c1.2-.2,2.3-.3,3.5-.5a34.26,34.26,0,0,1,3.8-.4c-.1-.6-.2-1.3-.3-1.9a5.55,5.55,0,0,0-2.1-4,6.55,6.55,0,0,0-4.6-.7,21.65,21.65,0,0,0-6.3,1.9c-.2-.7-.4-1.5-.6-2.2q1.5-.6,3.3-1.2a26.15,26.15,0,0,1,3.8-.9,9.34,9.34,0,0,1,6.4.9c1.6,1,2.6,2.7,3,5.2.5,2.9.9,5.9,1.4,8.8.2,1.3.5,3.1.9,5.3-.8.1-1.7.3-2.5.4-.2-.6-.4-1.4-.8-2.6h-.1a5.68,5.68,0,0,1-2.3,2.6A10.86,10.86,0,0,1,347,86,9,9,0,0,1,341.1,84.9Zm10.5-3.5a5,5,0,0,0,1.1-4.2l-.3-2.1-7.7,1.2a4.2,4.2,0,0,0-2.6,1.1,2.61,2.61,0,0,0-.6,2.5,4.1,4.1,0,0,0,1.9,3.1,5.63,5.63,0,0,0,3.9.6A8,8,0,0,0,351.6,81.4Z"/><path class="cls-2" d="M358.9,54.1c.9-.4,1.9-.9,2.8-1.4,1.7,9.9,3.4,19.7,5.2,29.6a28.68,28.68,0,0,1-3.1.5C362.1,73.3,360.5,63.7,358.9,54.1Z"/></svg>