<svg id="Capa_1" data-name="Capa 1" xmlns="http://www.w3.org/2000/svg" viewBox="0 0 487.56 137.44"><defs><style>.cls-1{fill:#af0614;}.cls-2{fill:#fff;}</style></defs><path class="cls-1" d="M487.56,114.4A1301.21,1301.21,0,0,1,0,114.4Q10.91,57.22,21.82,0A1184.81,1184.81,0,0,0,465.75,0l21.81,114.4"/><path class="cls-2" d="M113.83,85.79a16.63,16.63,0,0,0,8.1,2.91c4.72.34,7.65-1.92,7.9-5.45.22-3.28-1.59-5.36-6.22-7.44-5.54-2.49-9-5.69-8.6-10.63.43-5.45,5.27-9.14,12.09-8.65a16.18,16.18,0,0,1,7.65,2.25l-1.5,3.61a14.13,14.13,0,0,0-6.57-2.13c-4.8-.34-6.84,2.37-7,4.76-.25,3.27,1.78,5,6.53,7.27C132,75,134.9,78.05,134.56,83.2c-.35,5.41-4.76,9.83-13.22,9.21a18.81,18.81,0,0,1-9-2.92Z"/><path class="cls-2" d="M143.74,81.59c-.26,6.19,3.62,9,8.3,9.24a17,17,0,0,0,7.19-.92c.25,1.32.38,2,.63,3.32a21.12,21.12,0,0,1-8.65,1.1c-7.94-.44-12.36-5.84-11.88-13.43S144.69,67.62,152.08,68c8.29.46,10.13,7.79,9.91,12.42a16.65,16.65,0,0,1-.27,2.12C154.53,82.22,150.93,82,143.74,81.59Zm13.82-2.51c.2-2.92-.83-7.5-6-7.79-4.67-.26-7,3.87-7.54,7C149.42,78.64,152.13,78.79,157.56,79.08Z"/><path class="cls-2" d="M168,76.25c.12-2.61.16-4.74.1-6.83l4.1.18c0,1.67,0,2.51.08,4.18h.1a9.42,9.42,0,0,1,8.6-4.39c3.51.13,8.9,2.4,8.62,11-.2,6-.3,9-.49,15l-4.69-.16.51-14.53c.15-4.06-1.26-7.49-5.62-7.66a6.72,6.72,0,0,0-6.81,6.55c-.26,6.06-.4,9.09-.66,15.15l-4.68-.21C167.44,87.27,167.61,83.59,168,76.25Z"/><path class="cls-2" d="M196.17,91a12.45,12.45,0,0,0,6.12,2c3.41.08,5-1.55,5.09-3.64s-1.27-3.43-4.67-4.74c-4.53-1.75-6.65-4.3-6.57-7.32.12-4.06,3.52-7.29,9-7.16a12.93,12.93,0,0,1,6.22,1.69c-.49,1.33-.74,2-1.23,3.31a10.15,10.15,0,0,0-5.18-1.57c-2.73-.06-4.3,1.46-4.35,3.33C200.53,79,202,80,205.33,81.29c4.4,1.77,6.64,4,6.57,7.75-.09,4.43-3.67,7.49-9.8,7.34a14.81,14.81,0,0,1-7.2-1.92Z"/><path class="cls-2" d="M223.42,64a2.85,2.85,0,0,1-5.7-.09,2.85,2.85,0,1,1,5.7.09Zm-5.64,32.22.4-25.21,4.62.06c-.13,10.09-.19,15.13-.33,25.22Z"/><path class="cls-2" d="M230.05,96.33c.12-1.72.24-4.27.26-6.51q.13-15.24.26-30.48l4.53,0c0,6.34,0,9.5-.09,15.84h.11a9.55,9.55,0,0,1,8.68-4.61c6.3,0,10.77,5.2,10.79,12.83,0,9-5.73,13.53-11.49,13.53-3.73,0-6.71-1.42-8.61-4.77h-.16c-.09,1.67-.14,2.5-.23,4.17ZM235,86.25a8.88,8.88,0,0,0,.2,1.67,7.17,7.17,0,0,0,7,5.39c4.89,0,7.81-3.91,7.79-9.7,0-5-2.66-9.36-7.61-9.37a7.4,7.4,0,0,0-7.08,5.61,8.54,8.54,0,0,0-.27,1.87C235,83.53,235,84.44,235,86.25Z"/><path class="cls-2" d="M265.4,64a2.85,2.85,0,0,1-5.7.06,2.8,2.8,0,0,1,2.84-2.89A2.76,2.76,0,0,1,265.4,64Zm-4.81,32.36c-.1-10.09-.15-15.13-.24-25.22L265,71c.12,10.09.18,15.13.31,25.21Z"/><path class="cls-2" d="M272.43,59.16l4.59-.09q.36,18.5.73,37l-4.69.09Z"/><path class="cls-2" d="M290,63.45a2.85,2.85,0,0,1-5.7.15,2.81,2.81,0,0,1,2.8-2.94A2.76,2.76,0,0,1,290,63.45Zm-4.33,32.43c-.25-10.09-.37-15.13-.62-25.21l4.62-.12c.28,10.08.42,15.12.69,25.21Z"/><path class="cls-2" d="M318.71,57.71l1.38,30.45c.1,2.24.27,4.78.51,6.49l-4.21.19-.4-4.36h-.11a9.53,9.53,0,0,1-8.58,5.3c-6.24.23-11.17-4.8-11.43-12.43-.28-8.36,4.78-13.7,11-13.93,3.88-.15,6.58,1.56,7.82,3.54h.1c-.25-6-.38-9-.64-15C316,57.84,316.88,57.8,318.71,57.71Zm-3.65,22.22a8,8,0,0,0-.29-1.92,6.83,6.83,0,0,0-6.9-5c-4.79.19-7.49,4.44-7.3,10,.17,5.1,2.87,9.23,7.92,9a7,7,0,0,0,6.63-5.74,8,8,0,0,0,.13-2C315.17,82.55,315.13,81.68,315.06,79.93Z"/><path class="cls-2" d="M342.43,93.52c-.22-1.26-.33-1.89-.56-3.15h-.16a9.61,9.61,0,0,1-7.66,4.18c-5.22.28-8.06-3.19-8.24-6.83-.29-6.09,5-9.66,14.89-10.18l0-.52c-.12-2.08-.91-5.79-6.11-5.5A12.84,12.84,0,0,0,328,73.75l-1.2-3a16,16,0,0,1,8.22-2.67c7.76-.43,10,4.69,10.28,9.74l.57,9.41a35,35,0,0,0,.79,6ZM341,80.71c-5.07.19-10.79,1.38-10.54,6.27a4.1,4.1,0,0,0,4.64,4.13,6.37,6.37,0,0,0,6-4.56,4.94,4.94,0,0,0,.18-1.47C341.15,83.33,341.09,82.46,341,80.71Z"/><path class="cls-2" d="M373.17,54.34q1.18,15.19,2.38,30.38c.18,2.24.43,4.78.73,6.48l-4.21.32c-.21-1.73-.32-2.6-.54-4.34h-.11a9.5,9.5,0,0,1-8.4,5.58c-6.23.44-11.33-4.42-11.84-12-.56-8.34,4.32-13.85,10.5-14.29,3.88-.27,6.63,1.35,7.94,3.28h.11c-.46-6-.69-9-1.14-15Zm-2.92,22.33a7.93,7.93,0,0,0-.35-1.91A6.84,6.84,0,0,0,362.83,70c-4.78.35-7.34,4.69-7,10.25.34,5.1,3.17,9.14,8.21,8.78a7,7,0,0,0,6.44-6,7.66,7.66,0,0,0,.06-2C370.45,79.29,370.39,78.41,370.25,76.67Z"/></svg>