<svg id="Capa_1" data-name="Capa 1" xmlns="http://www.w3.org/2000/svg" viewBox="0 0 487.6 137.43"><defs><style>.cls-1{fill:#af0614;}.cls-2{fill:#fff;}</style></defs><path class="cls-1" d="M487.6,114.4A1302.25,1302.25,0,0,1,0,114.4Q11,57.25,21.8,0A1183.4,1183.4,0,0,0,465.7,0l21.9,114.4"/><path class="cls-2" d="M127.5,83a21.35,21.35,0,0,1-4.2-2.3c.3-.8.7-1.7,1-2.5a18.9,18.9,0,0,0,8.2,3.6c2.4.4,4.4.2,5.7-.6a4.6,4.6,0,0,0,2.4-3.6,4.5,4.5,0,0,0-.2-2.4,4.58,4.58,0,0,0-1.8-1.9c-.9-.6-2.2-1.3-3.9-2.2a26.36,26.36,0,0,1-4.7-2.8,7.56,7.56,0,0,1-2.3-2.9,7.08,7.08,0,0,1-.3-3.6,5.9,5.9,0,0,1,3.6-4.6,12.29,12.29,0,0,1,7-.8,25.53,25.53,0,0,1,7.1,2.3c-.2.9-.5,1.8-.7,2.6a19.42,19.42,0,0,0-6.7-2.4,8.71,8.71,0,0,0-5,.4,4.09,4.09,0,0,0-2.2,2.9,3.69,3.69,0,0,0,.2,2.4,4.86,4.86,0,0,0,1.7,1.9c.8.6,2.1,1.3,3.8,2.3a41.32,41.32,0,0,1,4.8,2.8,6.43,6.43,0,0,1,2.3,2.7,6.6,6.6,0,0,1,.4,3.8,6.8,6.8,0,0,1-3.8,5.3,12.94,12.94,0,0,1-8,.9A27.08,27.08,0,0,1,127.5,83Z"/><path class="cls-2" d="M150.3,84.2c-1.7-2.1-2.4-5-1.9-8.6a13.92,13.92,0,0,1,2-5.5,9,9,0,0,1,4.1-3.4,11,11,0,0,1,5.8-.7c2.9.4,5,1.4,6.3,3.2a9.77,9.77,0,0,1,1.6,6.7,23.42,23.42,0,0,1-.5,3c-5.4-.6-10.9-1.2-16.3-2a8.45,8.45,0,0,0,1.4,6c1.2,1.5,3.2,2.5,6,2.8a18.15,18.15,0,0,0,3.3,0,16.15,16.15,0,0,0,3.3-.6c.1.8.1,1.5.2,2.3a19.18,19.18,0,0,1-7.5.7C154.7,87.5,152.1,86.3,150.3,84.2ZM165.1,76a7.47,7.47,0,0,0,.2-1.1,6.09,6.09,0,0,0-1-4.5,5.68,5.68,0,0,0-4.4-2.2,7,7,0,0,0-5.4,1.3,8.86,8.86,0,0,0-2.8,4.9C156.2,75,160.7,75.5,165.1,76Z"/><path class="cls-2" d="M174.2,67.8l2.7.3a13.4,13.4,0,0,0,.1,2,15.65,15.65,0,0,1,4-1.3,14.89,14.89,0,0,1,4.2-.3c2.5.2,4.4,1,5.5,2.4a8.36,8.36,0,0,1,1.2,2.3,10.79,10.79,0,0,1,.2,3.2c-.3,4.8-.7,9.5-1,14.3-1-.1-2.1-.1-3.1-.2.4-4.7.7-9.3,1.1-14a5.7,5.7,0,0,0-.8-3.9,2.89,2.89,0,0,0-1.5-1.2,5.36,5.36,0,0,0-2.4-.5,12.46,12.46,0,0,0-3.8.3,16.57,16.57,0,0,0-3.7,1.4c-.5,5.6-1.1,11.3-1.6,16.9l-3.1-.3C172.8,82,173.5,74.9,174.2,67.8Z"/><path class="cls-2" d="M199.7,91.2a17.46,17.46,0,0,1-3.3-1.3c.2-.8.3-1.7.5-2.5a12.15,12.15,0,0,0,3.3,1.4,11.33,11.33,0,0,0,3.6.6,6.15,6.15,0,0,0,3.8-.8,3.36,3.36,0,0,0,1.5-2.6,3.58,3.58,0,0,0-.4-1.9,2.81,2.81,0,0,0-1.4-1.2,25.58,25.58,0,0,0-3-1.3,14.47,14.47,0,0,1-5.1-3.1,4.69,4.69,0,0,1-1.3-3.8,4.64,4.64,0,0,1,2.4-3.9,9.71,9.71,0,0,1,5.6-1.2,17.5,17.5,0,0,1,5.5,1.2c-.1.8-.3,1.6-.4,2.4a17.06,17.06,0,0,0-5.1-1.2,6.5,6.5,0,0,0-3.6.6,2.58,2.58,0,0,0-1.4,2.2,2.64,2.64,0,0,0,.9,2.3,10.34,10.34,0,0,0,3.9,2.1,13.18,13.18,0,0,1,4.8,2.7,4.61,4.61,0,0,1,1.4,3.9,5.72,5.72,0,0,1-2.4,4.6,10,10,0,0,1-5.9,1.4A12.26,12.26,0,0,1,199.7,91.2Z"/><path class="cls-2" d="M217.8,66.3a2.52,2.52,0,0,1-.6-1.7,2.18,2.18,0,0,1,.7-1.6,2.52,2.52,0,0,1,1.7-.6,2.61,2.61,0,0,1,1.7.7,2.29,2.29,0,0,1,0,3.3,2.72,2.72,0,0,1-1.7.6A2,2,0,0,1,217.8,66.3Zm0,4.4c1,0,2,.1,3,.1-.2,7.1-.4,14.3-.6,21.4-1,0-2.1-.1-3.1-.1C217.3,84.9,217.6,77.8,217.8,70.7Z"/><path class="cls-2" d="M231.6,92.2a17.5,17.5,0,0,1-4.4-1.6c.2-9.2.3-18.4.5-27.5,1-.3,2-.5,3-.8,0,3.8-.1,7.6-.1,11.4h.2a9.1,9.1,0,0,1,3.1-2.2,10.49,10.49,0,0,1,4.4-.9,10.67,10.67,0,0,1,5.1,1.2,8.91,8.91,0,0,1,3.6,3.6,12.62,12.62,0,0,1,1.4,5.7,13.06,13.06,0,0,1-1.3,6.1,9.32,9.32,0,0,1-4,4.1,12,12,0,0,1-6.1,1.4A19.08,19.08,0,0,1,231.6,92.2ZM243,88.1a8.78,8.78,0,0,0,2.1-6.6,8.88,8.88,0,0,0-2-6.2,6.45,6.45,0,0,0-5.2-2.2,9.46,9.46,0,0,0-3.7.8,7.54,7.54,0,0,0-2.7,2.3,6.5,6.5,0,0,0-1.1,3.3c0,3.2-.1,6.4-.1,9.7a16.74,16.74,0,0,0,6.5,1.2A8.15,8.15,0,0,0,243,88.1Z"/><path class="cls-2" d="M253.3,66.5a2,2,0,0,1-.7-1.6,2.52,2.52,0,0,1,.6-1.7,2.41,2.41,0,0,1,1.7-.7,2.52,2.52,0,0,1,1.7.6,2,2,0,0,1,.7,1.6,2.39,2.39,0,0,1-2.4,2.4A1.82,1.82,0,0,1,253.3,66.5Zm.3,4.3c1,0,2,0,3-.1.2,7.1.4,14.3.6,21.4-1,0-2.1.1-3.1.1C253.9,85.1,253.8,78,253.6,70.8Z"/><path class="cls-2" d="M263.2,62.8c1-.3,2-.7,2.9-1,.4,10,.8,20,1.3,30-1,0-2.1.1-3.1.1C264,82.2,263.6,72.5,263.2,62.8Z"/><path class="cls-2" d="M273,65.8a2.26,2.26,0,0,1-.8-1.6,2.52,2.52,0,0,1,.6-1.7,2,2,0,0,1,1.6-.7,2.52,2.52,0,0,1,1.7.6,1.94,1.94,0,0,1,.8,1.6,2.52,2.52,0,0,1-.6,1.7,2.49,2.49,0,0,1-1.7.8A3.74,3.74,0,0,1,273,65.8Zm.5,4.3c1-.1,2-.1,3-.2.4,7.1.8,14.2,1.2,21.4-1,.1-2.1.1-3.1.2C274.2,84.3,273.8,77.2,273.5,70.1Z"/><path class="cls-2" d="M288.4,89.6a9.53,9.53,0,0,1-4.1-3.6,11.52,11.52,0,0,1-1.7-5.6,11.94,11.94,0,0,1,1.1-6,10.1,10.1,0,0,1,3.7-4.2,10.2,10.2,0,0,1,5.3-1.8,11.57,11.57,0,0,1,4.2.4,6.76,6.76,0,0,1,2.9,1.7h.1c-.3-3.4-.6-6.7-.9-10.1,1-.4,1.9-.8,2.9-1.1.8,8.2,1.6,16.3,2.4,24.5q.15,2,.6,5.4a22.75,22.75,0,0,1-2.6.2c-.1-.5-.4-1.5-.7-2.9h-.1a7.89,7.89,0,0,1-3,2.7,10.29,10.29,0,0,1-4.3,1.3A11,11,0,0,1,288.4,89.6Zm10-2.9a8,8,0,0,0,2.7-3.1c-.2-2.3-.4-4.7-.6-7a6.18,6.18,0,0,0-2.3-4.4,7,7,0,0,0-5.2-1.4,7.69,7.69,0,0,0-4,1.4,7,7,0,0,0-2.5,3.3,10.89,10.89,0,0,0,.6,9.1,8,8,0,0,0,3,2.8,8.1,8.1,0,0,0,4.1.7A8.41,8.41,0,0,0,298.4,86.7Z"/><path class="cls-2" d="M312.5,86.9a6.33,6.33,0,0,1-2.8-4.8,4.37,4.37,0,0,1,1.5-4.1,9.24,9.24,0,0,1,5.3-2c1.2-.1,2.3-.3,3.5-.4s2.3-.2,3.8-.3c-.1-.7-.2-1.3-.3-2-.3-2-.9-3.3-2-4.1a6.34,6.34,0,0,0-4.5-.8,26.46,26.46,0,0,0-6.4,1.7c-.2-.7-.4-1.5-.6-2.2a32.23,32.23,0,0,1,7.1-1.9c2.7-.3,4.8,0,6.4,1.1a7,7,0,0,1,2.9,5.2c.4,2.9.8,5.9,1.2,8.8.2,1.3.4,3.1.8,5.4l-2.6.3c-.2-.6-.4-1.4-.7-2.6H325a7.11,7.11,0,0,1-2.3,2.6,9.91,9.91,0,0,1-4.2,1.3A8.64,8.64,0,0,1,312.5,86.9Zm10.6-3.2a5,5,0,0,0,1.2-4.1c-.1-.7-.2-1.4-.3-2.2l-7.7.9a4.79,4.79,0,0,0-2.7,1,2.61,2.61,0,0,0-.7,2.4,3.93,3.93,0,0,0,1.9,3.1,5.64,5.64,0,0,0,3.9.7A6,6,0,0,0,323.1,83.7Z"/><path class="cls-2" d="M338.8,84a9.43,9.43,0,0,1-4.3-3.3,11.75,11.75,0,0,1-2.1-5.5,11,11,0,0,1,9.3-12.7,11.74,11.74,0,0,1,4.2.1,7,7,0,0,1,3,1.4h.1c-.6-3.3-1.1-6.7-1.7-10,.9-.4,1.9-.9,2.8-1.4l4.2,24.3c.2,1.3.6,3.1,1,5.3-.9.1-1.7.3-2.6.4-.2-.5-.5-1.4-.9-2.8h-.1a9.79,9.79,0,0,1-7,4.5A9,9,0,0,1,338.8,84Zm9.8-3.7a9,9,0,0,0,2.5-3.3l-1.2-6.9a6.25,6.25,0,0,0-2.6-4.2,7.13,7.13,0,0,0-5.3-1,7.4,7.4,0,0,0-6.2,5.2,8.88,8.88,0,0,0-.3,4.6,9.68,9.68,0,0,0,1.7,4.4,7,7,0,0,0,3.2,2.5,8.42,8.42,0,0,0,4.2.4A8,8,0,0,0,348.6,80.3Z"/></svg>