<svg id="Capa_1" data-name="Capa 1" xmlns="http://www.w3.org/2000/svg" viewBox="0 0 487.56 137.44"><defs><style>.cls-1{fill:#af0614;}.cls-2{fill:#fff;}</style></defs><path class="cls-1" d="M487.56,114.4A1301.21,1301.21,0,0,1,0,114.4Q10.91,57.22,21.82,0A1184.81,1184.81,0,0,0,465.75,0l21.81,114.4"/><path class="cls-2" d="M154.32,55.86c8.15.64,12.23.93,20.4,1.42l-.25,4.09c-6.23-.37-9.34-.58-15.57-1-.37,5-.56,7.53-.93,12.55,5.81.43,8.72.63,14.54,1l-.25,4c-5.84-.36-8.76-.56-14.59-1-.51,6.84-.77,10.25-1.27,17.09l-5.05-.39Z"/><path class="cls-2" d="M192.42,96.11c-.1-1.37-.15-2.06-.26-3.44H192a10.49,10.49,0,0,1-8.79,3.63C177.5,96,174.83,92,175.06,88c.38-6.56,6.55-9.76,17.25-9.23,0-.22,0-.34,0-.56.1-2.24-.35-6.3-6-6.58a14,14,0,0,0-7.28,1.64c-.38-1.33-.58-2-1-3.32A17.49,17.49,0,0,1,187.27,68c8.4.41,10.22,6.14,10,11.58l-.4,10.16a37,37,0,0,0,.2,6.53Zm-.14-13.89c-5.51-.36-11.82.26-12.11,5.53-.17,3.2,2,4.83,4.55,5a6.91,6.91,0,0,0,7-4.22,4.84,4.84,0,0,0,.36-1.56Z"/><path class="cls-2" d="M205.52,76.77c.09-2.8.11-5.11,0-7.36l4.38.14.1,4.38h.17A9.57,9.57,0,0,1,219,69.16a8.18,8.18,0,0,1,7.7,5.59h.11a11.28,11.28,0,0,1,3.13-3.49A9.54,9.54,0,0,1,236,69.4c3.63,0,9,2.39,9,11.82,0,6.41,0,9.61,0,16h-5l.05-15.39c0-5.23-1.92-8.37-6-8.41a6.53,6.53,0,0,0-6,4.43,7.89,7.89,0,0,0-.44,2.47c-.09,6.71-.14,10.07-.23,16.79l-5-.08c.11-6.52.17-9.77.29-16.29.08-4.32-1.8-7.5-5.62-7.58-3.14-.08-5.48,2.33-6.35,4.78a6.54,6.54,0,0,0-.47,2.4c-.19,6.56-.29,9.84-.48,16.39-2,0-3-.09-5-.15C205.13,88.66,205.26,84.7,205.52,76.77Z"/><path class="cls-2" d="M258.63,62.31a3.08,3.08,0,0,1-6.16.07,3,3,0,0,1,3.08-3.12A3,3,0,0,1,258.63,62.31Zm-5.25,34.88c-.09-10.87-.13-16.31-.22-27.18l5-.05c.14,10.87.2,16.31.34,27.18C256.45,97.17,255.43,97.18,253.38,97.19Z"/><path class="cls-2" d="M266.21,57.13l4.94-.11,1,39.87L267,97Z"/><path class="cls-2" d="M285.16,61.66a3.08,3.08,0,0,1-6.15.21,3,3,0,0,1,3-3.19A3,3,0,0,1,285.16,61.66Zm-4.44,35-.85-27.17,5-.17c.38,10.87.58,16.3,1,27.17Z"/><path class="cls-2" d="M309.9,95.37c-.24-1.35-.36-2-.59-3.39h-.18a10.52,10.52,0,0,1-8.38,4.48c-5.7.28-8.77-3.49-8.93-7.41-.27-6.57,5.54-10.37,16.25-10.91l0-.56c-.12-2.24-1-6.23-6.61-6A14.06,14.06,0,0,0,294.35,74c-.52-1.29-.77-1.93-1.28-3.21A17.4,17.4,0,0,1,302,68c8.4-.43,10.78,5.08,11.1,10.52.24,4.06.37,6.09.61,10.15a36.83,36.83,0,0,0,.85,6.47C312.69,95.22,311.76,95.27,309.9,95.37Zm-1.52-13.81c-5.52.2-11.74,1.44-11.5,6.72.15,3.19,2.42,4.61,5,4.48a6.92,6.92,0,0,0,6.53-4.9,5.08,5.08,0,0,0,.2-1.58C308.54,84.39,308.48,83.45,308.38,81.56Z"/><path class="cls-2" d="M321.09,76c-.21-3.2-.45-5.94-.79-8.45l4.37-.3c.21,2.13.32,3.19.54,5.31h.23c1-3.73,3.83-6.25,7.18-6.51a5.53,5.53,0,0,1,1.43.06c.14,1.86.22,2.79.36,4.65a7.94,7.94,0,0,0-1.72,0c-3.53.28-5.84,3.09-6.26,6.83a13.32,13.32,0,0,0-.07,2.32c.41,5.78.62,8.67,1,14.45l-5.05.35Z"/></svg>