<svg id="Capa_1" data-name="Capa 1" xmlns="http://www.w3.org/2000/svg" viewBox="0 0 487.56 137.44"><defs><style>.cls-1{fill:#af0614;}.cls-2{fill:#fff;}</style></defs><path class="cls-1" d="M487.56,114.4A1301.21,1301.21,0,0,1,0,114.4Q10.91,57.22,21.82,0A1184.81,1184.81,0,0,0,465.75,0l21.81,114.4"/><path class="cls-2" d="M71.7,44.56a48.74,48.74,0,0,1,8.14.71c4.39.73,7.11,2,9,3.81a6.78,6.78,0,0,1,2,6.05c-.47,3-3.08,5.4-6.92,6v.09c3.16,1.28,6.63,4.36,5.92,9.07a8.21,8.21,0,0,1-3.94,5.9c-2.69,1.66-6.88,2-12.61,1a55.81,55.81,0,0,1-7-1.58Zm2.19,13.71c1.62.28,2.42.42,4,.68,4.71.78,7.84-1,8.32-4.1.59-3.72-2.23-5.65-6.68-6.39a20.78,20.78,0,0,0-3.95-.37ZM71.31,73.44a25.62,25.62,0,0,0,3.76.82c4.68.78,9.24-.09,10-4.7.68-4.33-3.1-6.75-8-7.56l-3.7-.63Z"/><path class="cls-2" d="M99.25,46.81l4.45.64L99,80.93l-4.6-.66Z"/><path class="cls-2" d="M120.72,83.78c0-1.17,0-1.76,0-2.93l-.16,0a9.78,9.78,0,0,1-8.16,2.44c-5.13-.66-7.3-4.28-6.85-7.58.75-5.52,6.52-7.78,16.16-6.57l.06-.47c.23-1.89.08-5.35-5-6a13.44,13.44,0,0,0-6.69.85c-.27-1.15-.4-1.72-.66-2.87a16.8,16.8,0,0,1,8.4-1c7.57.95,8.86,5.92,8.33,10.51l-1,8.56a28.8,28.8,0,0,0-.22,5.53ZM121.45,72c-5-.7-10.7-.63-11.29,3.81-.35,2.69,1.46,4.22,3.81,4.52a6.29,6.29,0,0,0,6.58-3.07A3.9,3.9,0,0,0,121,76C121.16,74.4,121.26,73.61,121.45,72Z"/><path class="cls-2" d="M133.75,68.35c.26-2.36.42-4.31.47-6.22l4,.43c-.06,1.52-.08,2.29-.14,3.81h.1a9.45,9.45,0,0,1,8.66-3.48c3.43.34,8.6,2.71,7.91,10.59-.49,5.48-.73,8.22-1.21,13.7l-4.62-.41c.49-5.29.73-7.94,1.22-13.23.35-3.7-.86-6.91-5.13-7.33a6.44,6.44,0,0,0-6.52,3.64,5.73,5.73,0,0,0-.51,1.92c-.58,5.51-.86,8.26-1.44,13.78-1.85-.2-2.77-.29-4.61-.5C132.66,78.38,133,75,133.75,68.35Z"/><path class="cls-2" d="M178.61,85.52h-.1C177,87.7,174,89.33,169.94,89c-5.94-.43-10.4-5.48-9.82-12.46.71-8.59,7-11.89,12.27-11.52,3.85.27,6.3,2.19,7.4,4.51h.1c.15-1.38.22-2.07.37-3.46l4.27.27c-.22,1.94-.39,3.93-.53,6.31l-1.55,26.1-4.67-.29C178.11,93.3,178.28,90.71,178.61,85.52Zm.65-10.13a6.92,6.92,0,0,0-.1-1.77A6.59,6.59,0,0,0,173,68.43c-4.69-.33-7.8,3.1-8.21,8.28-.35,4.55,1.75,8.74,6.83,9.1a6.79,6.79,0,0,0,6.9-4.12,6.63,6.63,0,0,0,.49-2C179.09,78,179.15,77.12,179.26,75.39Z"/><path class="cls-2" d="M212.14,84.39c-.08,2.38-.09,4.48,0,6.29l-4.1-.13c-.06-1.51-.08-2.26-.13-3.77h-.11a9.69,9.69,0,0,1-8.57,4c-4-.18-8.69-2.42-8.27-10.51l.7-13.46,4.53.23c-.24,5.1-.37,7.65-.61,12.75-.21,4.37,1.12,7.4,5.32,7.58a6.63,6.63,0,0,0,6.22-3.57,5.6,5.6,0,0,0,.5-2.13l.5-14.13,4.53.15C212.45,74.34,212.35,77.69,212.14,84.39Z"/><path class="cls-2" d="M222.43,80.19c0,5.66,3.93,8.09,8.55,8.15a17.8,17.8,0,0,0,7-1.13c.31,1.2.46,1.8.77,3a22.26,22.26,0,0,1-8.49,1.35c-7.85-.11-12.41-4.92-12.24-11.87s4.75-12.29,12-12.19c8.13.12,10.27,6.71,10.25,10.95a14.63,14.63,0,0,1-.16,2C233.06,80.38,229.52,80.34,222.43,80.19Zm13.47-2.8c.07-2.67-1.13-6.81-6.24-6.88-4.59-.07-6.69,3.78-7.11,6.68C227.89,77.3,230.56,77.34,235.9,77.39Z"/><path class="cls-2" d="M260.11,91.06c-.17-1.16-.25-1.74-.42-2.9h-.15a9.73,9.73,0,0,1-7.75,3.51c-5.16,0-7.8-3.26-7.79-6.59,0-5.57,5.4-8.59,15.1-8.68v-.48c0-1.9-.65-5.31-5.76-5.26a13.45,13.45,0,0,0-6.5,1.75c-.41-1.11-.62-1.66-1-2.76A16.69,16.69,0,0,1,254,67.57c7.62-.08,9.56,4.67,9.65,9.29.07,3.45.1,5.17.16,8.62a29.1,29.1,0,0,0,.53,5.51Zm-.86-11.75c-5,0-10.67.82-10.65,5.29,0,2.72,2,4,4.38,4a6.29,6.29,0,0,0,6.09-3.93,4.21,4.21,0,0,0,.24-1.34Z"/><path class="cls-2" d="M270.93,74c-.06-2.38-.17-4.33-.37-6.23l4-.11c.13,1.48.19,2.22.32,3.7H275a8.78,8.78,0,0,1,7.69-4.5,7.41,7.41,0,0,1,7.26,4.32h.1a9.9,9.9,0,0,1,2.65-3.12,9,9,0,0,1,5.42-1.9c3.29-.17,8.29,1.53,8.78,9.52l.83,13.54c-1.81.12-2.71.17-4.52.27-.3-5.21-.44-7.81-.74-13-.25-4.42-2.16-7-5.82-6.79a5.87,5.87,0,0,0-5.19,4.07,6.3,6.3,0,0,0-.26,2.11l.65,14.23-4.53.19c-.23-5.52-.34-8.28-.57-13.79-.15-3.67-2-6.26-5.47-6.13a6.15,6.15,0,0,0-5.5,4.38,5.34,5.34,0,0,0-.3,2l.42,13.9-4.52.13C271.19,84.11,271.1,80.75,270.93,74Z"/><path class="cls-2" d="M318.22,59a2.8,2.8,0,0,1-5.57.39,2.66,2.66,0,0,1,2.62-2.81A2.62,2.62,0,0,1,318.22,59Zm-3,29.81c-.63-9.2-.94-13.8-1.57-23l4.52-.32c.67,9.2,1,13.79,1.68,23Z"/><path class="cls-2" d="M329.21,76.91c.57,5.63,4.75,7.63,9.35,7.21a17.93,17.93,0,0,0,6.9-1.85c.43,1.16.64,1.74,1.08,2.91a22.26,22.26,0,0,1-8.31,2.22c-7.83.71-12.87-3.59-13.42-10.52s3.44-12.72,10.67-13.38c8.11-.73,10.92,5.61,11.35,9.83a15.19,15.19,0,0,1,0,2C339.81,76,336.28,76.32,329.21,76.91Zm13.11-4.19c-.2-2.66-1.83-6.66-6.93-6.2-4.57.42-6.26,4.47-6.38,7.39C334.34,73.47,337,73.23,342.32,72.72Z"/><path class="cls-2" d="M352,68.67c-.26-2.37-.51-4.3-.87-6.18l4-.43c.27,1.5.4,2.25.67,3.75H356a9.39,9.39,0,0,1,7.71-5.24c3.43-.41,9,.81,10,8.65l1.74,13.65-4.6.58c-.65-5.27-1-7.91-1.62-13.19-.46-3.68-2.32-6.56-6.59-6.06a6.43,6.43,0,0,0-5.59,5,5.72,5.72,0,0,0-.09,2c.61,5.51.91,8.27,1.53,13.78l-4.62.5Z"/><path class="cls-2" d="M384.08,51.77l.92,6.55c2.58-.36,3.87-.54,6.44-.92.19,1.26.28,1.89.46,3.16-2.58.38-3.87.56-6.45.92.69,4.93,1,7.39,1.72,12.31.4,2.83,1.51,4.31,4.06,3.95a10.84,10.84,0,0,0,2.62-.67c.26,1.23.4,1.85.66,3.08a12.24,12.24,0,0,1-4,1.15,7,7,0,0,1-5.21-1c-1.41-1-2.22-3-2.58-5.7-.68-5-1-7.47-1.69-12.46l-3.85.52-.42-3.17,3.84-.51-.75-5.47Z"/><path class="cls-2" d="M420.46,64.22c1.47,8.4-4.35,13.18-10.46,14.17-6.83,1.1-12.79-2.64-13.86-9.84-1.15-7.63,3.59-12.91,10.42-14C413.64,53.38,419.25,57.27,420.46,64.22Zm-19.75,3.49c.77,5,4.53,8.27,9,7.54s7-5,6.14-10.09c-.65-3.85-3.57-8.37-8.89-7.51S400,63.38,400.71,67.71Z"/></svg>