<svg id="Capa_1" data-name="Capa 1" xmlns="http://www.w3.org/2000/svg" viewBox="0 0 487.56 137.44"><defs><style>.cls-1{fill:#af0614;}.cls-2{fill:#fff;}</style></defs><path class="cls-1" d="M487.56,114.4A1301.21,1301.21,0,0,1,0,114.4Q10.91,57.22,21.82,0A1184.81,1184.81,0,0,0,465.75,0l21.81,114.4"/><path class="cls-2" d="M175.5,51.35q-1.31,17.57-2.6,35.15l-4.72-.36L170.94,51Z"/><path class="cls-2" d="M182.74,68.68c.17-2.61.26-4.76.23-6.85l4.13.25c0,1.68,0,2.52,0,4.2h.1A9.61,9.61,0,0,1,196,62c3.55.18,9,2.51,8.62,11.19-.25,6-.38,9.06-.63,15.1l-4.79-.21c.27-5.83.41-8.75.68-14.58.18-4.07-1.2-7.53-5.61-7.76a6.68,6.68,0,0,0-6.56,4.34,6.51,6.51,0,0,0-.45,2.12l-.9,15.2-4.79-.3C182,79.73,182.27,76.05,182.74,68.68Z"/><path class="cls-2" d="M212.24,88.6c.29-8.72.43-13.08.72-21.8l-3.62-.13c0-1.4.08-2.1.13-3.5l3.6.13,0-1.21c.12-3.55,1-6.76,3.23-8.74a9,9,0,0,1,6.24-2.19,11,11,0,0,1,3.92.81l-.7,3.55a7,7,0,0,0-2.93-.64c-3.94-.09-5,3.33-5.15,7.2l0,1.36,6.2.15c0,1.4,0,2.1-.07,3.5-2.49,0-3.74-.08-6.23-.15-.24,8.72-.37,13.08-.61,21.8Z"/><path class="cls-2" d="M242.26,89.11c-.16-1.28-.23-1.91-.38-3.19h-.16a9.87,9.87,0,0,1-8.08,3.71c-5.34,0-8-3.72-7.93-7.38.12-6.12,5.75-9.33,15.77-9.25v-.52c0-2.09-.57-5.85-5.84-5.89a13.21,13.21,0,0,0-6.73,1.8l-1-3a16.41,16.41,0,0,1,8.47-2.15c7.85.07,9.77,5.31,9.78,10.39l0,9.46a34.86,34.86,0,0,0,.45,6.07Zm-.68-12.92c-5.16-.12-11,.7-11.1,5.61,0,3,2,4.42,4.45,4.45a6.48,6.48,0,0,0,6.36-4.2,4.5,4.5,0,0,0,.28-1.47Z"/><path class="cls-2" d="M253.72,70.6c0-2.62-.11-4.76-.29-6.85l4.14,0c.13,1.67.2,2.51.33,4.18H258a9.53,9.53,0,0,1,8.4-4.93c3.56-.09,9.14,1.83,9.43,10.51.21,6,.31,9.06.51,15.1-1.92.07-2.87.1-4.79.15-.17-5.83-.25-8.75-.42-14.58-.12-4.08-1.76-7.43-6.18-7.33a6.69,6.69,0,0,0-6.2,4.83,6.43,6.43,0,0,0-.29,2.15c.09,6.09.14,9.13.24,15.22l-4.8.06Z"/><path class="cls-2" d="M288.14,55.47c.13,2.91.2,4.36.34,7.27,2.67-.13,4-.2,6.68-.35.08,1.4.11,2.1.19,3.5-2.68.15-4,.22-6.7.34l.65,13.64c.15,3.13,1.15,4.87,3.81,4.73a10.66,10.66,0,0,0,2.75-.46c.16,1.38.24,2.07.41,3.44a11.91,11.91,0,0,1-4.22.85,7,7,0,0,1-5.26-1.69c-1.35-1.3-2-3.52-2.13-6.5-.23-5.52-.35-8.28-.59-13.8l-4,.16L280,63.1l4-.16c-.1-2.42-.15-3.64-.26-6.06Z"/><path class="cls-2" d="M305.12,54.67a2.87,2.87,0,0,1-5.72.36A2.81,2.81,0,0,1,302.11,52,2.76,2.76,0,0,1,305.12,54.67Zm-3.19,32.69c-.61-10.11-.92-15.16-1.53-25.27l4.66-.29c.67,10.1,1,15.15,1.66,25.26Z"/><path class="cls-2" d="M311.93,49.47c1.84-.13,2.76-.2,4.6-.35l2.91,37-4.79.37Q313.29,68,311.93,49.47Z"/></svg>