<svg id="Capa_1" data-name="Capa 1" xmlns="http://www.w3.org/2000/svg" viewBox="0 0 487.6 137.42"><defs><style>.cls-1{fill:#af0614;}.cls-2{fill:#fff;}</style></defs><path class="cls-1" d="M487.6,114.4A1302.25,1302.25,0,0,1,0,114.4Q11,57.25,21.8,0A1183.4,1183.4,0,0,0,465.7,0l21.9,114.4"/><path class="cls-2" d="M87.6,82.1a12.62,12.62,0,0,1-4.2-5.8,14.16,14.16,0,0,1-.5-7.4,14.93,14.93,0,0,1,3.1-7,14.23,14.23,0,0,1,6-4.2,17.59,17.59,0,0,1,8-.6,24.17,24.17,0,0,1,4.6,1.3,18.08,18.08,0,0,1,3.7,2c-.3.9-.5,1.7-.8,2.6a17.27,17.27,0,0,0-8-3.3,12,12,0,0,0-6.3.5,9.61,9.61,0,0,0-4.7,3.5A13.31,13.31,0,0,0,86,69.5a11.71,11.71,0,0,0,.5,6.2,10.06,10.06,0,0,0,3.4,4.7,13.21,13.21,0,0,0,5.8,2.4,23.63,23.63,0,0,0,4.6.2,18.26,18.26,0,0,0,4.3-.8v2.6a21,21,0,0,1-9.4.6A19.52,19.52,0,0,1,87.6,82.1Z"/><path class="cls-2" d="M110.9,85.5c-1.5-1.6-2-3.8-1.6-6.7.6-4.4,1.3-8.8,1.9-13.3,1,.1,2,.3,3,.4-.6,4.5-1.3,8.9-1.9,13.4a5.48,5.48,0,0,0,1.1,4.6,6.9,6.9,0,0,0,4.5,2.2,5.62,5.62,0,0,0,4.6-1,6,6,0,0,0,2-4.1c.6-4.5,1.1-8.9,1.7-13.4,1,.1,2,.2,3,.4-.5,4.4-1.1,8.9-1.6,13.3a8.13,8.13,0,0,1-3.1,5.8,9.32,9.32,0,0,1-7,1.4C114.6,88.1,112.3,87.1,110.9,85.5Z"/><path class="cls-2" d="M136.1,64.5a2.16,2.16,0,0,1-.5-1.7,2,2,0,0,1,.9-1.5,2.62,2.62,0,0,1,1.7-.5,2.72,2.72,0,0,1,1.6.8,2.16,2.16,0,0,1,.5,1.7,2.36,2.36,0,0,1-.9,1.6,2.73,2.73,0,0,1-1.8.5A3.77,3.77,0,0,1,136.1,64.5Zm-.3,4.3,3,.3-2.4,21.3-3-.3C134.1,82.9,135,75.8,135.8,68.8Z"/><path class="cls-2" d="M147,90.5a9.7,9.7,0,0,1-3.3-4.2,12.41,12.41,0,0,1-.7-5.8,10.94,10.94,0,0,1,2.1-5.7,10,10,0,0,1,4.4-3.5,11.62,11.62,0,0,1,5.5-.9,8.55,8.55,0,0,1,4,1.2,5.48,5.48,0,0,1,2.5,2.2h.1c.3-3.4.6-6.7.9-10.1l3-.6-2.1,24.6c-.1,1.3-.2,3.1-.4,5.4-.8-.1-1.7-.1-2.5-.2,0-.5-.1-1.5-.1-3h-.1a8.93,8.93,0,0,1-3.4,2.1,9.65,9.65,0,0,1-4.5.5A11.43,11.43,0,0,1,147,90.5Zm10.4-1.1a8.19,8.19,0,0,0,3.2-2.6c.2-2.3.4-4.7.6-7a5.74,5.74,0,0,0-1.5-4.7,7.12,7.12,0,0,0-4.9-2.3,8.49,8.49,0,0,0-4.2.7,8.28,8.28,0,0,0-3.1,2.8,9.16,9.16,0,0,0-1.4,4.4,10.2,10.2,0,0,0,.5,4.7,6.68,6.68,0,0,0,2.5,3.2A7.35,7.35,0,0,0,153,90,8.17,8.17,0,0,0,157.4,89.4Z"/><path class="cls-2" d="M171,92.1a6.12,6.12,0,0,1-1.8-5.2,4.59,4.59,0,0,1,2.2-3.8,8.92,8.92,0,0,1,5.5-1c1.2.1,2.3.2,3.5.2s2.3.2,3.8.4c0-.7.1-1.3.1-2a5.81,5.81,0,0,0-1.2-4.4,6.32,6.32,0,0,0-4.3-1.6,25.13,25.13,0,0,0-6.6.5c-.1-.8-.1-1.5-.2-2.3a29.38,29.38,0,0,1,3.5-.5,25.39,25.39,0,0,1,3.9,0c2.7.2,4.7.9,6,2.3a6.94,6.94,0,0,1,1.8,5.7c-.2,3-.3,5.9-.5,8.9-.1,1.3-.2,3.1-.2,5.4a21.05,21.05,0,0,1-2.5-.2c-.1-.6-.1-1.5-.2-2.7h-.1a7.05,7.05,0,0,1-2.7,2.1,8.39,8.39,0,0,1-4.3.5A8.25,8.25,0,0,1,171,92.1Zm10.9-1.2a4.88,4.88,0,0,0,1.9-3.8c0-.7.1-1.4.1-2.2-2.6-.2-5.1-.3-7.7-.5a4.71,4.71,0,0,0-2.8.5,2.48,2.48,0,0,0-1.1,2.3,4,4,0,0,0,1.2,3.4,6.22,6.22,0,0,0,3.7,1.5A6.9,6.9,0,0,0,181.9,90.9Z"/><path class="cls-2" d="M197,94.2a9,9,0,0,1-3.6-4.1,12,12,0,0,1-1-5.8,11.34,11.34,0,0,1,1.8-5.8,10.92,10.92,0,0,1,4.2-3.8,12.65,12.65,0,0,1,5.5-1.2,13,13,0,0,1,4.1.9,7.32,7.32,0,0,1,2.7,2h.1c.1-3.4.2-6.7.3-10.1,1-.3,2-.5,3-.8-.2,8.2-.5,16.4-.7,24.6,0,1.3-.1,3.1-.1,5.4-.9,0-1.7-.1-2.6-.1a28.61,28.61,0,0,1-.3-3h-.1a9.79,9.79,0,0,1-3.3,2.3,10.76,10.76,0,0,1-4.4.8A8,8,0,0,1,197,94.2Zm10.2-1.7a7.89,7.89,0,0,0,3-2.7c.1-2.3.2-4.7.2-7a5.88,5.88,0,0,0-1.7-4.6,6.93,6.93,0,0,0-5-2,7.1,7.1,0,0,0-4.1.9,7.62,7.62,0,0,0-2.9,3,10.7,10.7,0,0,0-1.2,4.5,10.13,10.13,0,0,0,.8,4.7,6.81,6.81,0,0,0,2.7,3.1,8.9,8.9,0,0,0,3.9,1.2A10.13,10.13,0,0,0,207.2,92.5Z"/><path class="cls-2" d="M222.9,95a9.53,9.53,0,0,1-3.6-4.1,11.88,11.88,0,0,1-1.1-5.7,12.53,12.53,0,0,1,1.4-5.6,9.17,9.17,0,0,1,3.9-3.9,12.66,12.66,0,0,1,6-1.4,10.53,10.53,0,0,1,5.7,1.5,9.28,9.28,0,0,1,3.6,4,13.22,13.22,0,0,1,1.2,5.7,11.84,11.84,0,0,1-1.3,5.6,9.15,9.15,0,0,1-3.8,4,13.13,13.13,0,0,1-12-.1Zm11.7-3.1a9.31,9.31,0,0,0,2.1-6.4,9.31,9.31,0,0,0-2.1-6.4,6.91,6.91,0,0,0-5.5-2.4,7,7,0,0,0-5.6,2.3,9.09,9.09,0,0,0-2.2,6.3,11.59,11.59,0,0,0,.9,4.7,6.81,6.81,0,0,0,2.7,3.1,7.74,7.74,0,0,0,4,1.1A6.81,6.81,0,0,0,234.6,91.9Z"/><path class="cls-2" d="M254.6,68.4c5.8-.1,11.6-.2,17.4-.4-.4.9-.7,1.8-1.1,2.7-4.4.1-8.9.3-13.3.3.1,3.5.1,6.9.2,10.4l12.1-.3c0,.9-.1,1.8-.1,2.6l-12,.3c.1,4,.1,8,.2,12.1-1,0-2.1,0-3.1.1C254.9,86.9,254.8,77.7,254.6,68.4Z"/><path class="cls-2" d="M276,94.1a6.51,6.51,0,0,1-2.4-5,4.56,4.56,0,0,1,1.7-4,8.79,8.79,0,0,1,5.3-1.6c1.2-.1,2.3-.1,3.5-.2a24,24,0,0,1,3.8,0c0-.7-.1-1.3-.1-2-.1-2-.6-3.4-1.6-4.2a6.42,6.42,0,0,0-4.4-1.1,25.56,25.56,0,0,0-6.5,1.2c-.1-.8-.3-1.5-.4-2.3,1-.3,2.1-.6,3.4-.9a26,26,0,0,1,3.9-.5c2.7-.1,4.7.4,6.2,1.6a7,7,0,0,1,2.4,5.5c.2,3,.3,5.9.5,8.9.1,1.3.2,3.1.4,5.4-.8,0-1.7.1-2.5.1-.1-.6-.3-1.4-.5-2.6h-.1a5.81,5.81,0,0,1-2.5,2.4,10,10,0,0,1-4.2,1A9,9,0,0,1,276,94.1Zm10.6-2.4a4.69,4.69,0,0,0,1.5-4c0-.7-.1-1.4-.1-2.2-2.6.1-5.1.3-7.7.4a4.81,4.81,0,0,0-2.7.8,3,3,0,0,0-.9,2.4,4.38,4.38,0,0,0,1.6,3.3,5.33,5.33,0,0,0,3.8,1A7.38,7.38,0,0,0,286.6,91.7Z"/><path class="cls-2" d="M297,73.1c.9-.1,1.8-.1,2.7-.2a12.86,12.86,0,0,0,.4,1.9,15.8,15.8,0,0,1,3.4-1.9,12.5,12.5,0,0,1,3.7-.9,9.63,9.63,0,0,1,3.4.4,6.54,6.54,0,0,1,2.6,1.7,14.46,14.46,0,0,1,3.6-2.2,13.21,13.21,0,0,1,4.1-1.1,7,7,0,0,1,5.5,1.5,7.66,7.66,0,0,1,2.4,5.5c.5,4.7.9,9.4,1.4,14.1l-3.1.3-1.2-12.9a9.11,9.11,0,0,0-1.3-4.3c-.9-1.2-2.3-1.7-4.3-1.6a11.71,11.71,0,0,0-3.3.9,11,11,0,0,0-3,1.9,13.91,13.91,0,0,1,.6,3.4c.4,4.5.7,9.1,1.1,13.6a30.28,30.28,0,0,1-3.1.2c-.3-4.3-.7-8.6-1-13a13,13,0,0,0-.4-2.6,6.69,6.69,0,0,0-.7-1.7,4.08,4.08,0,0,0-4.1-1.6,10.08,10.08,0,0,0-3.4.9,12.3,12.3,0,0,0-2.8,1.8c.4,5.7.7,11.3,1.1,17-1,.1-2,.1-3.1.2Q297.75,83.75,297,73.1Z"/><path class="cls-2" d="M334.1,65.7a1.94,1.94,0,0,1-.8-1.6,2.05,2.05,0,0,1,.5-1.7,1.94,1.94,0,0,1,1.6-.8,2.38,2.38,0,0,1,1.8.5,2.36,2.36,0,0,1,.9,1.6,2.05,2.05,0,0,1-.5,1.7,2.09,2.09,0,0,1-1.6.8A2.29,2.29,0,0,1,334.1,65.7Zm.6,4.3,3-.3c.8,7.1,1.5,14.2,2.3,21.3l-3,.3C336.2,84.2,335.4,77.1,334.7,70Z"/><path class="cls-2" d="M343.7,61.2c1-.4,1.9-.8,2.9-1.2,1.2,9.9,2.3,19.9,3.5,29.8-1,.1-2,.2-3,.4C345.9,80.5,344.8,70.8,343.7,61.2Z"/><path class="cls-2" d="M353.7,63.5a2.37,2.37,0,0,1-.9-1.5,2.05,2.05,0,0,1,.5-1.7,2.36,2.36,0,0,1,1.6-.9,2.83,2.83,0,0,1,1.8.4,2.37,2.37,0,0,1,.9,1.5,2.05,2.05,0,0,1-.5,1.7,2.36,2.36,0,0,1-1.6.9A2.23,2.23,0,0,1,353.7,63.5Zm.7,4.2c1-.1,2-.3,3-.4.9,7.1,1.8,14.2,2.7,21.2-1,.1-2,.3-3,.4C356.2,81.9,355.3,74.8,354.4,67.7Z"/><path class="cls-2" d="M367.9,86a6.35,6.35,0,0,1-2.9-4.7,4.8,4.8,0,0,1,1.3-4.2,9.31,9.31,0,0,1,5.2-2.2c1.2-.2,2.3-.3,3.5-.5a34.26,34.26,0,0,1,3.8-.4c-.1-.6-.2-1.3-.3-1.9a5.87,5.87,0,0,0-2-4,6.37,6.37,0,0,0-4.5-.7,24.9,24.9,0,0,0-6.3,1.8c-.2-.7-.4-1.5-.6-2.2q1.5-.6,3.3-1.2a23.39,23.39,0,0,1,3.8-.9c2.6-.4,4.8-.1,6.4,1a7.2,7.2,0,0,1,3,5.2c.5,2.9.9,5.9,1.4,8.8.2,1.3.5,3.1.9,5.3-.8.1-1.7.3-2.5.4-.2-.6-.4-1.4-.8-2.6h-.1a5.68,5.68,0,0,1-2.3,2.6,9.46,9.46,0,0,1-4.1,1.4C371.5,87.4,369.5,87.1,367.9,86Zm10.3-3.4a5,5,0,0,0,1.1-4.2l-.3-2.1c-2.5.4-5.1.8-7.6,1.1a4.48,4.48,0,0,0-2.6,1.1,2.49,2.49,0,0,0-.6,2.4,4.1,4.1,0,0,0,1.9,3.1,5.63,5.63,0,0,0,3.9.6A6.21,6.21,0,0,0,378.2,82.6Z"/><path class="cls-2" d="M386.8,63.1c.9-.1,1.8-.3,2.7-.4.2,1,.5,2,.7,3a10.18,10.18,0,0,1,3-2.8,12.76,12.76,0,0,1,4.1-1.9c.1,1,.2,1.9.3,2.9a10.33,10.33,0,0,0-3.8,1.6,14.45,14.45,0,0,0-3.2,2.6c.9,5.3,1.7,10.5,2.6,15.8-1,.2-2,.3-3,.5C389.1,77.1,387.9,70.1,386.8,63.1Z"/></svg>