<svg id="Capa_1" data-name="Capa 1" xmlns="http://www.w3.org/2000/svg" viewBox="0 0 487.56 137.44"><defs><style>.cls-1{fill:#af0614;}.cls-2{fill:#fff;}</style></defs><path class="cls-1" d="M487.56,114.4A1301.21,1301.21,0,0,1,0,114.4Q10.91,57.22,21.82,0A1184.81,1184.81,0,0,0,465.75,0l21.81,114.4"/><path class="cls-2" d="M87.59,82.12a12.55,12.55,0,0,1-4.24-5.83,14.53,14.53,0,0,1-.52-7.42,15.13,15.13,0,0,1,3.09-7,13.15,13.15,0,0,1,6-4.19,16.47,16.47,0,0,1,8-.56,19.64,19.64,0,0,1,4.59,1.29,18.45,18.45,0,0,1,3.7,2c-.25.86-.51,1.72-.76,2.58a17.4,17.4,0,0,0-8-3.34,12.48,12.48,0,0,0-6.32.49,10.42,10.42,0,0,0-4.72,3.46A12.63,12.63,0,0,0,86,69.38a12,12,0,0,0,.46,6.19,10.53,10.53,0,0,0,3.43,4.71,12.26,12.26,0,0,0,5.75,2.4,20.33,20.33,0,0,0,4.62.2,19,19,0,0,0,4.33-.78c0,.85,0,1.71,0,2.56a20.75,20.75,0,0,1-9.39.56A16.14,16.14,0,0,1,87.59,82.12Z"/><path class="cls-2" d="M110.81,85.51q-2.24-2.37-1.6-6.67.95-6.63,1.91-13.27l3,.42q-.95,6.67-1.88,13.36a5.49,5.49,0,0,0,1.12,4.56,6.88,6.88,0,0,0,4.5,2.17A5.34,5.34,0,0,0,124.52,81q.86-6.69,1.7-13.38l3,.37q-.81,6.66-1.64,13.31a8,8,0,0,1-3.11,5.81,9.45,9.45,0,0,1-7,1.37A10.79,10.79,0,0,1,110.81,85.51Z"/><path class="cls-2" d="M136,64.47a2.33,2.33,0,0,1,.38-3.26,2.31,2.31,0,0,1,1.74-.46,2.38,2.38,0,0,1,1.6.84,2.26,2.26,0,0,1-.36,3.26,2.39,2.39,0,0,1-1.76.46A2.32,2.32,0,0,1,136,64.47Zm-.31,4.3,3,.34-2.4,21.26L133.25,90Q134.5,79.4,135.72,68.77Z"/><path class="cls-2" d="M147,90.55a9.57,9.57,0,0,1-3.34-4.24,12,12,0,0,1-.72-5.81,11.6,11.6,0,0,1,2.1-5.69,10.52,10.52,0,0,1,4.39-3.53,11.28,11.28,0,0,1,5.54-.86,10.39,10.39,0,0,1,4,1.15,7,7,0,0,1,2.55,2.16h.08q.45-5,.88-10.09l3-.6q-1,12.27-2.05,24.55c-.11,1.31-.24,3.11-.37,5.4l-2.55-.21c0-.53-.08-1.52-.12-3h-.09a9.18,9.18,0,0,1-3.43,2.13,10.13,10.13,0,0,1-4.45.53A11.12,11.12,0,0,1,147,90.55Zm10.32-1.18a8.4,8.4,0,0,0,3.16-2.56l.6-7a6.17,6.17,0,0,0-1.45-4.72,7,7,0,0,0-4.88-2.28,7.62,7.62,0,0,0-4.16.71,7.45,7.45,0,0,0-3,2.8,10.19,10.19,0,0,0-1.45,4.41,9.87,9.87,0,0,0,.54,4.69,7.14,7.14,0,0,0,2.48,3.24,7.8,7.8,0,0,0,3.88,1.4A8,8,0,0,0,157.3,89.37Z"/><path class="cls-2" d="M171,92.15a6.33,6.33,0,0,1-1.84-5.24,4.67,4.67,0,0,1,2.18-3.8,8.83,8.83,0,0,1,5.49-1l3.48.23c1.06.07,2.31.21,3.76.41l.12-2A5.69,5.69,0,0,0,183,76.4a6.28,6.28,0,0,0-4.28-1.62,24.68,24.68,0,0,0-6.56.48c-.05-.77-.1-1.54-.16-2.32a27.65,27.65,0,0,1,3.48-.5,26.72,26.72,0,0,1,3.9,0,9.1,9.1,0,0,1,6,2.28,7.06,7.06,0,0,1,1.82,5.69q-.27,4.44-.52,8.88c-.08,1.31-.16,3.12-.23,5.41l-2.55-.15c0-.58-.13-1.47-.22-2.68h-.09a6,6,0,0,1-2.74,2.09,9.86,9.86,0,0,1-4.33.53A8.47,8.47,0,0,1,171,92.15ZM181.84,91a4.87,4.87,0,0,0,1.94-3.84c0-.73.09-1.45.13-2.17-2.56-.16-5.13-.33-7.69-.51a4.73,4.73,0,0,0-2.78.5,2.69,2.69,0,0,0-1.14,2.26,4,4,0,0,0,1.24,3.42,5.76,5.76,0,0,0,3.68,1.45A6.81,6.81,0,0,0,181.84,91Z"/><path class="cls-2" d="M196.92,94.25a9.42,9.42,0,0,1-3.56-4.06,11.94,11.94,0,0,1-1-5.76,11.4,11.4,0,0,1,1.79-5.79,10.38,10.38,0,0,1,4.19-3.76,11.13,11.13,0,0,1,5.48-1.16,10.4,10.4,0,0,1,4.06.94,6.87,6.87,0,0,1,2.66,2h.08c.11-3.37.23-6.75.34-10.12l3-.77q-.37,12.31-.74,24.63c0,1.31-.06,3.12-.07,5.41l-2.55-.08c-.07-.52-.17-1.5-.29-3h-.08a9.25,9.25,0,0,1-3.31,2.3,10.11,10.11,0,0,1-4.42.78A11.08,11.08,0,0,1,196.92,94.25Zm10.22-1.73a8.23,8.23,0,0,0,3-2.73c.08-2.33.15-4.67.23-7a6.2,6.2,0,0,0-1.7-4.64,7,7,0,0,0-5-2,7.6,7.6,0,0,0-4.1.93,7.47,7.47,0,0,0-2.9,3,10.15,10.15,0,0,0-1.21,4.47,9.85,9.85,0,0,0,.79,4.66,7.13,7.13,0,0,0,2.65,3.1,7.86,7.86,0,0,0,3.94,1.19A8.06,8.06,0,0,0,207.14,92.52Z"/><path class="cls-2" d="M222.82,95A9.45,9.45,0,0,1,219.18,91a13.23,13.23,0,0,1,.28-11.31,9.6,9.6,0,0,1,3.86-3.9,11.79,11.79,0,0,1,6-1.36A10.87,10.87,0,0,1,235,75.91a9.44,9.44,0,0,1,3.6,4,12.87,12.87,0,0,1,1.23,5.66,12.12,12.12,0,0,1-1.27,5.56,9.58,9.58,0,0,1-3.81,4,11.73,11.73,0,0,1-6.12,1.44A11.14,11.14,0,0,1,222.82,95Zm11.7-3.09a9.18,9.18,0,0,0,2.15-6.41,9.25,9.25,0,0,0-2.08-6.38A7.8,7.8,0,0,0,223.44,79a9.31,9.31,0,0,0-2.24,6.34,10.32,10.32,0,0,0,.89,4.67,7.25,7.25,0,0,0,2.7,3.1,7.59,7.59,0,0,0,4,1.13A7.2,7.2,0,0,0,234.52,91.94Z"/><path class="cls-2" d="M254.57,68.42q8.7-.14,17.41-.43l-1.07,2.66q-6.65.22-13.28.34c.06,3.48.13,7,.19,10.42q6-.12,12.1-.31l-.09,2.63q-6,.19-12,.3.12,6,.23,12l-3.11,0Z"/><path class="cls-2" d="M275.92,94.1a6.26,6.26,0,0,1-2.41-5,4.69,4.69,0,0,1,1.73-4,8.89,8.89,0,0,1,5.34-1.63l3.48-.16c1.06-.05,2.32-.05,3.78,0,0-.65-.07-1.31-.1-2a5.65,5.65,0,0,0-1.64-4.21A6.21,6.21,0,0,0,281.67,76a24.79,24.79,0,0,0-6.46,1.21l-.42-2.28a27.24,27.24,0,0,1,3.4-.89,25.26,25.26,0,0,1,3.87-.48,9.11,9.11,0,0,1,6.22,1.59,7,7,0,0,1,2.44,5.45c.16,3,.32,5.93.49,8.89.07,1.31.19,3.11.38,5.4L289,95c-.12-.57-.29-1.45-.52-2.64h-.09a5.94,5.94,0,0,1-2.49,2.39,9.76,9.76,0,0,1-4.23,1A8.43,8.43,0,0,1,275.92,94.1Zm10.65-2.41a4.84,4.84,0,0,0,1.49-4c0-.72-.07-1.44-.11-2.17-2.56.13-5.13.25-7.69.36a4.66,4.66,0,0,0-2.71.81,2.69,2.69,0,0,0-.88,2.38,4,4,0,0,0,1.62,3.26,5.8,5.8,0,0,0,3.82,1A6.76,6.76,0,0,0,286.57,91.69Z"/><path class="cls-2" d="M297,73.1l2.7-.17c.13.64.25,1.27.38,1.91A15.37,15.37,0,0,1,303.4,73a11.91,11.91,0,0,1,3.71-.9,7.91,7.91,0,0,1,3.39.45,6.72,6.72,0,0,1,2.62,1.68A15.46,15.46,0,0,1,316.76,72a13.53,13.53,0,0,1,4.1-1.07,7.1,7.1,0,0,1,5.53,1.47,7.81,7.81,0,0,1,2.41,5.46q.68,7,1.36,14.08l-3.05.28L325.9,79.29A9.21,9.21,0,0,0,324.62,75c-.87-1.22-2.3-1.73-4.29-1.55a10.44,10.44,0,0,0-3.33.94,10.2,10.2,0,0,0-3,1.89,14.15,14.15,0,0,1,.6,3.36q.56,6.81,1.1,13.61l-3.05.24q-.51-6.48-1-12.95a16.7,16.7,0,0,0-.37-2.63,5.63,5.63,0,0,0-.72-1.73,4.2,4.2,0,0,0-4.09-1.63,9.52,9.52,0,0,0-3.45.94,11.13,11.13,0,0,0-2.8,1.83q.56,8.49,1.1,17l-3.05.2Z"/><path class="cls-2" d="M334,65.73a2.33,2.33,0,0,1-.33-3.27,2.3,2.3,0,0,1,1.59-.82,2.4,2.4,0,0,1,1.75.47,2.16,2.16,0,0,1,.87,1.56,2.13,2.13,0,0,1-.52,1.7,2.51,2.51,0,0,1-3.36.36Zm.63,4.26,3-.32L339.9,91l-3,.32Q335.74,80.63,334.64,70Z"/><path class="cls-2" d="M343.6,61.17,346.45,60q1.76,14.91,3.52,29.84l-3,.36Z"/><path class="cls-2" d="M353.6,63.48a2.14,2.14,0,0,1-.88-1.54,2.21,2.21,0,0,1,.47-1.71,2.32,2.32,0,0,1,1.58-.86,2.43,2.43,0,0,1,1.76.43,2.27,2.27,0,0,1,.42,3.26,2.38,2.38,0,0,1-1.6.86A2.3,2.3,0,0,1,353.6,63.48Zm.72,4.25,3-.38Q358.67,78,360,88.58L357,89Z"/><path class="cls-2" d="M367.8,86.05a6.29,6.29,0,0,1-2.9-4.73,4.67,4.67,0,0,1,1.33-4.17A9,9,0,0,1,371.39,75l3.46-.5c1-.16,2.31-.29,3.77-.4-.1-.65-.2-1.3-.29-1.94a5.68,5.68,0,0,0-2.05-4,6.29,6.29,0,0,0-4.54-.68,24.74,24.74,0,0,0-6.32,1.85l-.64-2.23a29,29,0,0,1,3.3-1.23,26.2,26.2,0,0,1,3.81-.85,9.07,9.07,0,0,1,6.36,1,7.06,7.06,0,0,1,3,5.18q.67,4.39,1.36,8.79.3,1.95.91,5.34l-2.53.39-.78-2.58h-.08a6.05,6.05,0,0,1-2.25,2.62,9.86,9.86,0,0,1-4.13,1.43A8.41,8.41,0,0,1,367.8,86.05Zm10.39-3.46a4.86,4.86,0,0,0,1.09-4.16L379,76.28q-3.81.59-7.64,1.12a4.7,4.7,0,0,0-2.62,1.08,2.68,2.68,0,0,0-.64,2.45A4,4,0,0,0,370,84a5.81,5.81,0,0,0,3.91.65A6.9,6.9,0,0,0,378.19,82.59Z"/><path class="cls-2" d="M386.73,63.07l2.71-.45.75,3a11.79,11.79,0,0,1,3-2.84,12.27,12.27,0,0,1,4.1-1.85l.33,2.85a11.74,11.74,0,0,0-3.81,1.55,15,15,0,0,0-3.22,2.6q1.32,7.89,2.62,15.77l-3,.5Q388.43,73.63,386.73,63.07Z"/></svg>