<svg id="Capa_1" data-name="Capa 1" xmlns="http://www.w3.org/2000/svg" viewBox="0 0 487.6 137.43"><defs><style>.cls-1{fill:#af0614;}.cls-2{fill:#fff;}</style></defs><path class="cls-1" d="M487.6,114.4A1302.25,1302.25,0,0,1,0,114.4Q11,57.25,21.8,0A1183.4,1183.4,0,0,0,465.7,0l21.9,114.4"/><path class="cls-2" d="M88.2,55.1c3.2.6,6.3,1.1,9.5,1.6a12.74,12.74,0,0,1,6.4,2.6q2.1,2,1.5,5.7a6.18,6.18,0,0,1-4.7,5.4v.1a6.77,6.77,0,0,1,3.7,2.9,6.08,6.08,0,0,1,.8,4.4,7.42,7.42,0,0,1-3.5,5.7c-1.9,1.1-4.4,1.3-7.6.8L83.4,82.5C85.1,73.3,86.6,64.2,88.2,55.1Zm8.1,13.6a6.14,6.14,0,0,0,4.2-.5,4.53,4.53,0,0,0,2-3.4,3.79,3.79,0,0,0-.9-3.7,7.82,7.82,0,0,0-4-1.7c-2.3-.4-4.6-.8-6.8-1.1-.5,3.1-1.1,6.2-1.6,9.3C91.5,67.9,93.9,68.3,96.3,68.7ZM95,81.7a7.86,7.86,0,0,0,5-.5,5,5,0,0,0,2.3-3.8,4.16,4.16,0,0,0-1.2-4.1,9.69,9.69,0,0,0-4.8-2c-2.5-.4-5-.8-7.5-1.3-.6,3.4-1.2,6.8-1.8,10.3C89.6,80.8,92.3,81.2,95,81.7Z"/><path class="cls-2" d="M113.6,57.7c1-.1,2-.3,3.1-.4-1.4,9.9-2.8,19.8-4.2,29.8-1-.1-2-.3-3-.4C110.8,76.9,112.2,67.3,113.6,57.7Z"/><path class="cls-2" d="M120.6,86.6a6.16,6.16,0,0,1-1.5-5.3,4.61,4.61,0,0,1,2.4-3.7,8.65,8.65,0,0,1,5.5-.7c1.2.1,2.3.3,3.5.4a31.24,31.24,0,0,1,3.7.6,13.55,13.55,0,0,0,.2-2,5.83,5.83,0,0,0-.9-4.4c-.8-1-2.2-1.6-4.2-1.9a24.43,24.43,0,0,0-6.6.1V67.4a18.27,18.27,0,0,1,3.5-.3,25.49,25.49,0,0,1,3.9.2,9.27,9.27,0,0,1,5.9,2.6c1.3,1.4,1.8,3.3,1.5,5.8-.3,2.9-.7,5.9-1,8.8-.2,1.3-.3,3.1-.5,5.4l-2.5-.3c0-.6,0-1.5-.1-2.7h-.1a5.91,5.91,0,0,1-2.9,1.9,10.31,10.31,0,0,1-4.4.3A7.66,7.66,0,0,1,120.6,86.6Zm10.9-.6a4.92,4.92,0,0,0,2.2-3.7c.1-.7.2-1.4.3-2.2l-7.7-.9a5.86,5.86,0,0,0-2.8.3,2.89,2.89,0,0,0-1.3,2.2,4.22,4.22,0,0,0,1,3.5,6.1,6.1,0,0,0,3.6,1.7A7,7,0,0,0,131.5,86Z"/><path class="cls-2" d="M144.9,69.5l2.7.3v2a15.65,15.65,0,0,1,4-1.3,11.44,11.44,0,0,1,4.1-.2,7.72,7.72,0,0,1,5.5,2.5,7,7,0,0,1,1.1,2.3,10.79,10.79,0,0,1,.2,3.2c-.4,4.8-.8,9.5-1.2,14.3l-3.1-.3c.4-4.7.8-9.3,1.3-14a5.73,5.73,0,0,0-.7-3.9,3.48,3.48,0,0,0-1.4-1.3,7,7,0,0,0-2.4-.6,12.46,12.46,0,0,0-3.8.3,16.27,16.27,0,0,0-3.7,1.3c-.6,5.6-1.2,11.3-1.8,16.9l-3.1-.3C143.4,83.7,144.2,76.6,144.9,69.5Z"/><path class="cls-2" d="M184.8,91.6a7.83,7.83,0,0,1-3.3,2.1,10.46,10.46,0,0,1-4.4.6,11.15,11.15,0,0,1-5.5-1.7,8.72,8.72,0,0,1-3.5-4.1,11.94,11.94,0,0,1-.9-6.1,11.79,11.79,0,0,1,2-5.7,11.12,11.12,0,0,1,4.3-3.5,10.52,10.52,0,0,1,5.2-1,9.43,9.43,0,0,1,4.3,1.2,6.78,6.78,0,0,1,2.7,2.6c.2-1,.4-1.9.6-2.9.8.1,1.7.1,2.5.2-.6,10-1.2,20.1-1.8,30.1-1,.2-2.1.5-3.1.7C184.3,99.8,184.6,95.7,184.8,91.6Zm-2.9-.5a7.88,7.88,0,0,0,3.1-2.6c.1-2.4.3-4.8.4-7.2a5.86,5.86,0,0,0-.7-3.1,6.84,6.84,0,0,0-2.3-2.5,7.07,7.07,0,0,0-3.7-1.2,7.41,7.41,0,0,0-3.9.8,7.53,7.53,0,0,0-3.1,2.8,8.87,8.87,0,0,0-1.4,4.5,11.42,11.42,0,0,0,.6,4.6,7,7,0,0,0,2.5,3.3,7.73,7.73,0,0,0,4.1,1.4A10.17,10.17,0,0,0,181.9,91.1Z"/><path class="cls-2" d="M196.9,93.4c-1.6-1.4-2.3-3.6-2.2-6.5.2-4.5.5-8.9.7-13.4,1,.1,2,.1,3,.1l-.6,13.5a5.29,5.29,0,0,0,1.5,4.4,6.43,6.43,0,0,0,4.7,1.7,5.7,5.7,0,0,0,4.5-1.4,6.28,6.28,0,0,0,1.7-4.3c.2-4.5.3-9,.5-13.5,1,0,2,.1,3,.1-.1,4.5-.3,8.9-.4,13.4a8,8,0,0,1-2.6,6.1c-1.6,1.5-3.9,2.1-6.8,2A10.47,10.47,0,0,1,196.9,93.4Z"/><path class="cls-2" d="M221.2,93.5c-1.9-1.9-2.9-4.7-2.8-8.4a13.32,13.32,0,0,1,1.4-5.7,9.3,9.3,0,0,1,3.7-3.9,10.33,10.33,0,0,1,5.6-1.3c2.9,0,5.1.9,6.5,2.5a9.63,9.63,0,0,1,2.2,6.5,26.61,26.61,0,0,1-.2,3c-5.4,0-10.8-.1-16.2-.2a8.16,8.16,0,0,0,2,5.8c1.3,1.4,3.4,2.1,6.2,2.2a19.07,19.07,0,0,0,3.2-.3,15,15,0,0,0,3.2-1c.2.8.3,1.5.5,2.3a18.71,18.71,0,0,1-7.3,1.5A12.34,12.34,0,0,1,221.2,93.5Zm13.6-9.7V82.7a6.82,6.82,0,0,0-1.4-4.4,5.52,5.52,0,0,0-4.5-1.7,7,7,0,0,0-5.2,1.9,8,8,0,0,0-2.2,5.1C226,83.7,230.4,83.8,234.8,83.8Z"/><path class="cls-2" d="M244.1,94.6a6.25,6.25,0,0,1-2.2-5.1,4.71,4.71,0,0,1,1.9-4,8.93,8.93,0,0,1,5.4-1.4h3.5c1.1,0,2.3,0,3.8.1v-2a5.47,5.47,0,0,0-1.5-4.3,6.26,6.26,0,0,0-4.4-1.3,25,25,0,0,0-6.5,1c-.1-.8-.2-1.5-.3-2.3a24.44,24.44,0,0,1,3.4-.8,25.61,25.61,0,0,1,3.9-.3,9.54,9.54,0,0,1,6.2,1.8c1.5,1.2,2.2,3.1,2.3,5.5.1,3,.1,5.9.2,8.9,0,1.3.1,3.1.2,5.4h-2.6c-.1-.6-.2-1.5-.4-2.7h-.1a5.88,5.88,0,0,1-2.6,2.3,9.14,9.14,0,0,1-4.3.9A8.48,8.48,0,0,1,244.1,94.6Zm10.8-2.1a4.75,4.75,0,0,0,1.6-4V86.3c-2.6,0-5.1.1-7.7.1a4.15,4.15,0,0,0-2.7.7,2.78,2.78,0,0,0-1,2.3,4,4,0,0,0,1.5,3.3,6,6,0,0,0,3.8,1.2A6.25,6.25,0,0,0,254.9,92.5Z"/><path class="cls-2" d="M265.9,74.3c.9,0,1.8-.1,2.7-.1.1.6.2,1.3.3,1.9a18.29,18.29,0,0,1,3.4-1.8,12.29,12.29,0,0,1,3.7-.8,7.89,7.89,0,0,1,3.4.6,6.77,6.77,0,0,1,2.6,1.8,14.57,14.57,0,0,1,3.7-2,12.65,12.65,0,0,1,4.1-.9,7.17,7.17,0,0,1,5.5,1.7,7.56,7.56,0,0,1,2.2,5.5l.9,14.1c-1,.1-2,.1-3.1.2-.3-4.3-.5-8.6-.8-13a10.11,10.11,0,0,0-1.1-4.4c-.8-1.2-2.2-1.8-4.2-1.7a12.66,12.66,0,0,0-3.4.8,9.55,9.55,0,0,0-3,1.8,14.45,14.45,0,0,1,.5,3.4c.2,4.5.4,9.1.6,13.6-1,0-2,.1-3.1.1-.2-4.3-.4-8.7-.6-13a8.8,8.8,0,0,0-.3-2.6,5.63,5.63,0,0,0-.7-1.8c-.8-1.3-2.1-1.8-4-1.8a8.9,8.9,0,0,0-3.5.8,15.84,15.84,0,0,0-2.9,1.7c.2,5.7.4,11.3.5,17-1,0-2,.1-3.1.1C266.3,88.5,266.1,81.4,265.9,74.3Z"/><path class="cls-2" d="M303.1,68.1a2.26,2.26,0,0,1-.8-1.6,2.11,2.11,0,0,1,.6-1.7,2.43,2.43,0,0,1,3.3-.3,1.94,1.94,0,0,1,.8,1.6,2.11,2.11,0,0,1-.6,1.7,2.47,2.47,0,0,1-1.6.8A2.16,2.16,0,0,1,303.1,68.1Zm.5,4.3c1-.1,2-.1,3-.2.5,7.1,1,14.2,1.6,21.3-1,.1-2,.1-3.1.2C304.6,86.7,304.1,79.5,303.6,72.4Z"/><path class="cls-2" d="M316.5,90.5c-2.1-1.7-3.3-4.4-3.6-8a12.24,12.24,0,0,1,.8-5.8,9.16,9.16,0,0,1,3.3-4.2,10.64,10.64,0,0,1,5.5-1.9c2.9-.3,5.2.3,6.8,1.8a9.79,9.79,0,0,1,2.9,6.2,15.54,15.54,0,0,1,.1,3l-16.2,1.5a8.94,8.94,0,0,0,2.6,5.6c1.5,1.3,3.6,1.8,6.4,1.5a14.28,14.28,0,0,0,3.2-.7,22.22,22.22,0,0,0,3.1-1.3c.2.7.5,1.5.7,2.2a18.34,18.34,0,0,1-7.1,2.2C321.4,92.9,318.6,92.2,316.5,90.5Zm12.5-11a5.38,5.38,0,0,0-.1-1.1,6.36,6.36,0,0,0-1.9-4.2c-1-1-2.6-1.4-4.7-1.2a6.62,6.62,0,0,0-4.9,2.4,8.41,8.41,0,0,0-1.7,5.3Z"/><path class="cls-2" d="M336.2,69.5l2.7-.3c.2.6.3,1.3.5,1.9A21.22,21.22,0,0,1,343,69a12,12,0,0,1,4-1.1c2.5-.3,4.5.1,5.9,1.3a5.6,5.6,0,0,1,1.6,2.1,8.78,8.78,0,0,1,.8,3.1c.6,4.7,1.2,9.5,1.8,14.2-1,.1-2,.3-3,.4-.6-4.7-1.2-9.3-1.7-14a6,6,0,0,0-1.5-3.7,2.84,2.84,0,0,0-1.7-.9,6.58,6.58,0,0,0-2.5-.1,11.08,11.08,0,0,0-3.7,1.1,18.52,18.52,0,0,0-3.3,2.1c.6,5.6,1.2,11.3,1.9,16.9l-3.1.3C337.7,83.7,337,76.6,336.2,69.5Z"/><path class="cls-2" d="M365,86.3a5.42,5.42,0,0,1-2.2-4.2c-.9-6.7-1.8-13.5-2.7-20.2.9-.4,1.9-.8,2.8-1.3.3,2,.5,4,.8,5.9,2.6-.4,5.2-.7,7.8-1.1a25,25,0,0,1-.7,2.6c-2.2.3-4.5.6-6.7,1,.6,4.1,1.1,8.1,1.7,12.2a5.24,5.24,0,0,0,1.2,3,3.81,3.81,0,0,0,3,.5,15.94,15.94,0,0,0,3.9-1,14.19,14.19,0,0,1,.5,2.2,12.83,12.83,0,0,1-4.3,1.2C367.9,87.3,366.2,87.1,365,86.3Z"/><path class="cls-2" d="M381.3,84.1a9,9,0,0,1-4.3-3.4,11.79,11.79,0,0,1-2.1-5.4,12.43,12.43,0,0,1,.4-5.8,9.41,9.41,0,0,1,3.1-4.5,12.33,12.33,0,0,1,5.7-2.4,10.54,10.54,0,0,1,5.9.5,10,10,0,0,1,4.3,3.3,13.1,13.1,0,0,1,2.2,5.4,13.56,13.56,0,0,1-.3,5.7,9.46,9.46,0,0,1-3.1,4.6,11.43,11.43,0,0,1-5.8,2.5A9.9,9.9,0,0,1,381.3,84.1Zm11-5a9.2,9.2,0,0,0,1-6.7,9.25,9.25,0,0,0-3.2-5.9,7.17,7.17,0,0,0-5.9-1.4,7,7,0,0,0-5.1,3.2,9,9,0,0,0-1.1,6.6,9.68,9.68,0,0,0,1.7,4.4,7.27,7.27,0,0,0,3.2,2.6,7.43,7.43,0,0,0,4.2.4A6.87,6.87,0,0,0,392.3,79.1Z"/></svg>