<svg id="Capa_1" data-name="Capa 1" xmlns="http://www.w3.org/2000/svg" viewBox="0 0 487.56 137.44"><defs><style>.cls-1{fill:#af0614;}.cls-2{fill:#fff;}</style></defs><path class="cls-1" d="M487.56,114.4A1301.21,1301.21,0,0,1,0,114.4Q10.91,57.22,21.82,0A1184.81,1184.81,0,0,0,465.75,0l21.81,114.4"/><path class="cls-2" d="M99,55.05l2.45.43q4,10.77,8.23,21.5l.17,0q7.35-8.91,14.42-18l2.46.35q-1.91,13.73-3.83,27.45l-2.92-.41q1.5-10.56,3-21.11-6.45,8-13.11,15.82l-1.64-.25q-3.87-9.52-7.51-19.06l-3.6,21-2.91-.5Z"/><path class="cls-2" d="M132.58,86.53c-1.51-1.56-2.06-3.78-1.69-6.65q.87-6.64,1.75-13.29l3,.38q-.86,6.69-1.7,13.38a5.48,5.48,0,0,0,1.18,4.55A6.9,6.9,0,0,0,139.64,87a5.34,5.34,0,0,0,6.63-5.17q.75-6.7,1.51-13.41c1,.12,2,.23,3,.33q-.72,6.67-1.45,13.33a8,8,0,0,1-3,5.85q-2.62,2-7,1.46A10.81,10.81,0,0,1,132.58,86.53Z"/><path class="cls-2" d="M158.09,61.7l3-.56-2.91,29.91-3.06-.31Q156.63,76.22,158.09,61.7Z"/><path class="cls-2" d="M166.77,90.56A5.63,5.63,0,0,1,165.54,86q.9-10.16,1.81-20.3l3-.6-.51,6q3.9.34,7.81.64L176.46,74l-6.79-.55-1,12.29a4.57,4.57,0,0,0,.56,3.16A3.8,3.8,0,0,0,172,90.1a16.73,16.73,0,0,0,4-.14c0,.74,0,1.48,0,2.23a15,15,0,0,1-4.43.22A7.4,7.4,0,0,1,166.77,90.56Z"/><path class="cls-2" d="M182.2,67.27a2.14,2.14,0,0,1-.57-1.68,2.17,2.17,0,0,1,.8-1.59,2.35,2.35,0,0,1,1.71-.54,2.4,2.4,0,0,1,1.64.77,2.26,2.26,0,0,1-.22,3.27,2.35,2.35,0,0,1-1.74.54A2.27,2.27,0,0,1,182.2,67.27Zm-.12,4.31,3,.2-1.44,21.36-3.07-.21Q181.33,82.25,182.08,71.58Z"/><path class="cls-2" d="M195,93.68a18.54,18.54,0,0,1-4.28-1.74q.81-13.75,1.63-27.5l3-.69-.63,11.38h.21a8.86,8.86,0,0,1,3.22-2.07,10.68,10.68,0,0,1,4.47-.66,10.43,10.43,0,0,1,5,1.44A8.81,8.81,0,0,1,211,77.61a12.14,12.14,0,0,1,1.07,5.8,12.67,12.67,0,0,1-1.61,6.06,9.58,9.58,0,0,1-4.12,3.88,12.13,12.13,0,0,1-6.1,1.15A23.72,23.72,0,0,1,195,93.68ZM206.42,90a9.21,9.21,0,0,0,2.44-6.49,9.17,9.17,0,0,0-1.71-6.33,6.69,6.69,0,0,0-5.1-2.42,8.09,8.09,0,0,0-3.69.67,6.9,6.9,0,0,0-2.81,2.17,5.71,5.71,0,0,0-1.19,3.26l-.54,9.66a16.46,16.46,0,0,0,6.4,1.52A7.92,7.92,0,0,0,206.42,90Z"/><path class="cls-2" d="M218.7,92.41c-1.94-1.89-2.84-4.69-2.73-8.38a12.72,12.72,0,0,1,1.42-5.68,9.5,9.5,0,0,1,3.73-3.86,10.77,10.77,0,0,1,5.65-1.32c2.94,0,5.12.89,6.55,2.55a9.79,9.79,0,0,1,2.21,6.49,23,23,0,0,1-.19,3q-8.13,0-16.28-.26a8.23,8.23,0,0,0,2,5.81c1.32,1.41,3.4,2.15,6.21,2.19a15.37,15.37,0,0,0,3.22-.32,15.57,15.57,0,0,0,3.17-1l.45,2.26a18.18,18.18,0,0,1-7.31,1.43C223.35,95.3,220.63,94.31,218.7,92.41Zm13.71-9.61c0-.25.05-.61.06-1.11a6.82,6.82,0,0,0-1.4-4.4q-1.38-1.7-4.55-1.75a6.77,6.77,0,0,0-5.17,1.89,8.05,8.05,0,0,0-2.23,5.13Q225.77,82.74,232.41,82.8Z"/><path class="cls-2" d="M240.62,73.66h2.7c.09.65.17,1.31.26,2a16.07,16.07,0,0,1,3.8-1.72,14.65,14.65,0,0,1,4.09-.68c2.52,0,4.42.59,5.7,1.88a6.37,6.37,0,0,1,1.36,2.21,9.9,9.9,0,0,1,.5,3.2q.17,7.18.32,14.35l-3.08.06q-.12-7-.25-14.06a5.9,5.9,0,0,0-1.11-3.79A3.62,3.62,0,0,0,253.34,76a7.25,7.25,0,0,0-2.46-.31,12,12,0,0,0-3.75.67,14.43,14.43,0,0,0-3.5,1.72q0,8.5.05,17h-3.07Q240.61,84.37,240.62,73.66Z"/><path class="cls-2" d="M267.46,92.29c-2-1.78-3.1-4.53-3.21-8.21a12.68,12.68,0,0,1,1.1-5.76,9.58,9.58,0,0,1,3.51-4.07,10.8,10.8,0,0,1,5.56-1.64c2.94-.12,5.16.6,6.69,2.17a9.85,9.85,0,0,1,2.58,6.36,24.33,24.33,0,0,1,0,3q-8.13.42-16.27.67a8.26,8.26,0,0,0,2.34,5.69c1.41,1.33,3.52,2,6.33,1.83a16.08,16.08,0,0,0,3.19-.5,15.37,15.37,0,0,0,3.12-1.14c.2.75.39,1.49.58,2.23a18.08,18.08,0,0,1-7.22,1.85C272.27,94.9,269.5,94.07,267.46,92.29ZM280.61,81.9c0-.24,0-.61,0-1.1A6.88,6.88,0,0,0,279,76.48c-1-1.08-2.53-1.57-4.64-1.48a6.77,6.77,0,0,0-5.06,2.17,8.12,8.12,0,0,0-1.93,5.26Q274,82.22,280.61,81.9Z"/><path class="cls-2" d="M288.21,71.12A7.66,7.66,0,0,1,290,65.18a8.08,8.08,0,0,1,5.61-2.36,16.25,16.25,0,0,1,5.19.41l-.24,2.28a14.82,14.82,0,0,0-2.22-.29,17.42,17.42,0,0,0-2.28,0,4.59,4.59,0,0,0-4.88,5.49c0,.61.08,1.23.11,1.84q4.51-.27,9-.6c-.3.85-.6,1.69-.91,2.53q-4,.28-8,.52.57,9.26,1.13,18.5l-3.07.18ZM304,66.94a2.15,2.15,0,0,1-.8-1.58,2.2,2.2,0,0,1,.55-1.69,2.32,2.32,0,0,1,1.62-.78,2.38,2.38,0,0,1,1.73.52,2.16,2.16,0,0,1,.83,1.58,2.12,2.12,0,0,1-.56,1.69,2.42,2.42,0,0,1-1.65.79A2.3,2.3,0,0,1,304,66.94Zm.52,4.28,3-.23q.87,10.67,1.72,21.33l-3.07.24Q305.3,81.9,304.48,71.22Z"/><path class="cls-2" d="M320.07,90.45A9.35,9.35,0,0,1,315.72,87a11.93,11.93,0,0,1-1.94-5.86,11.07,11.07,0,0,1,1-5.94A10.2,10.2,0,0,1,318.51,71a12.5,12.5,0,0,1,5.55-1.87,15.73,15.73,0,0,1,6.46.52l-.24,2.41a14.52,14.52,0,0,0-2.77-.53,15.86,15.86,0,0,0-3.08,0A8.65,8.65,0,0,0,320.17,73a7.74,7.74,0,0,0-2.62,3.29,10.29,10.29,0,0,0,2.06,10.58q2.36,2.28,6.81,1.83a13.39,13.39,0,0,0,3-.66,15.15,15.15,0,0,0,2.87-1.27c.23.73.47,1.46.71,2.19a16.88,16.88,0,0,1-6.73,2.19A13,13,0,0,1,320.07,90.45Z"/><path class="cls-2" d="M334.77,64a2.32,2.32,0,0,1-.37-3.26,2.28,2.28,0,0,1,1.58-.84,2.37,2.37,0,0,1,1.76.45,2.11,2.11,0,0,1,.89,1.55,2.15,2.15,0,0,1-.5,1.71,2.44,2.44,0,0,1-1.61.85A2.38,2.38,0,0,1,334.77,64Zm.68,4.25,3-.34q1.24,10.62,2.51,21.25l-3.06.36Z"/><path class="cls-2" d="M351.32,86.83a9.44,9.44,0,0,1-4.22-3.47,12.22,12.22,0,0,1-2-5.44,12.48,12.48,0,0,1,.57-5.79A9.58,9.58,0,0,1,349,67.7a11.92,11.92,0,0,1,5.76-2.24,10.91,10.91,0,0,1,5.84.64,9.46,9.46,0,0,1,4.19,3.42,12.8,12.8,0,0,1,2.07,5.41,12.18,12.18,0,0,1-.43,5.69,9.58,9.58,0,0,1-3.19,4.53,11.75,11.75,0,0,1-5.87,2.34A11.29,11.29,0,0,1,351.32,86.83ZM362.5,82a9.22,9.22,0,0,0,1.17-6.66,9.18,9.18,0,0,0-3-6,7.86,7.86,0,0,0-11.08,1.53,9.19,9.19,0,0,0-1.29,6.59A10.25,10.25,0,0,0,349.85,82,7.26,7.26,0,0,0,353,84.64a7.67,7.67,0,0,0,4.18.51A7.27,7.27,0,0,0,362.5,82Z"/><path class="cls-2" d="M375.78,84.3a15.4,15.4,0,0,1-3.49-.58l-.09-2.52a14.89,14.89,0,0,0,3.49.67,15.23,15.23,0,0,0,3.59-.15,6.44,6.44,0,0,0,3.57-1.55,3.06,3.06,0,0,0,.88-2.85,3.17,3.17,0,0,0-.78-1.76,3.39,3.39,0,0,0-1.56-.88c-.67-.19-1.72-.42-3.17-.68a14.71,14.71,0,0,1-5.61-1.89,5,5,0,0,1-2.08-3.43,4.66,4.66,0,0,1,1.47-4.3A9.57,9.57,0,0,1,377.26,62a17.46,17.46,0,0,1,5.68,0c0,.81.05,1.63.08,2.44a16.2,16.2,0,0,0-5.28-.06,6.67,6.67,0,0,0-3.38,1.36,2.53,2.53,0,0,0-.89,2.41,3,3,0,0,0,1.38,2.06,11.39,11.39,0,0,0,4.24,1.22,14.76,14.76,0,0,1,5.26,1.6,4.8,4.8,0,0,1,2.18,3.49,5.44,5.44,0,0,1-1.41,5,9.49,9.49,0,0,1-5.44,2.6A17,17,0,0,1,375.78,84.3Z"/></svg>