<svg id="Capa_1" data-name="Capa 1" xmlns="http://www.w3.org/2000/svg" viewBox="0 0 595.28 234.33"><defs><style>.cls-1{fill:#fff;}</style></defs><path class="cls-1" d="M130.5,87.69c-6,0-10.28-1.5-12.81-4.45-2.75-3.2-3.44-8.18-2.11-14.78,2.46-12,12.86-29.85,31.53-29.85,4.51,0,7.89,1.28,10,3.8,2.48,2.89,3.24,7.41,2.16,12.74-6.31,31-25.09,32.54-28.78,32.54m17.09-61.16c-25,0-52.59,15-57.67,40.26-5.4,27,18.64,32.8,34.06,33,34.69.42,55.79-20.34,60.66-41.5,4.64-20.32-13.29-31.73-37-31.73"/><path class="cls-1" d="M376.18,64.4c-13.1,1.35-18,4.75-19.07,11.06-.88,5,2.37,9.75,14.57,9.22,7.12-.32,14.85-2.05,20.3-4.77L398,64.05a130,130,0,0,0-21.86.35M356.75,28.85a182.16,182.16,0,0,1,34.24-3c26.66,0,43,8.83,35.4,28.73-3.32,8.59-6.73,17.58-9.64,25.18-4,10.6-3.16,14.64-2.32,18.4,0,0-6.29-2.3-19.35-1.92-11.68.32-16.74,3.31-35.9,3.31-20.72,0-28.3-10.26-27.5-21.11.73-9.53,6-17.82,17.87-22.53,7.85-3.13,15.67-4.18,23.78-4.82a200.74,200.74,0,0,1,29.72,0c1.08-3.56,2.64-10.83-14.93-10.94-18.82-.14-31.66,3.15-37.61,5Z"/><path class="cls-1" d="M270.34,85.9c-14.45,0-13.14-14.06-8.06-25,6.52-14,19.68-20.48,28-20.79,6.24-.25,11.43.7,15.59,4.66C296.1,82.9,276.24,85.9,270.34,85.9M325,30c-12.73,0-13.3-3.49-34-3.49-29.74,0-54.18,21.9-57.67,46.06-1.1,7.61,1,14.43,5.43,19.2,4.54,5,11.41,6.91,19.56,7.27,12,.53,23.08-1.88,33.65-8.78-6.19,18.35-27.29,22.17-41.46,22.08-6.91,0-14.49-.33-20.48-3.2l-6.2,15.59a99.65,99.65,0,0,0,22.9,2.74c34.75,0,57.09-12.44,66.41-36.89l23.73-62.51S329.79,30,325,30"/><path class="cls-1" d="M81.41,78C76.89,80.11,66,83.39,57.3,83.39c-23.35,0-30.51-14.18-28-28,4.1-22.77,26.05-40,52.09-40A56.26,56.26,0,0,1,103,19.54L110.6,4.73C104.19,1.81,95.1,0,86.63,0,45,0,6.14,23.72.63,55.31-4.24,83.2,19.85,98.74,49.42,98.74a110.28,110.28,0,0,0,24.07-3Z"/><path class="cls-1" d="M479,26l5.21-14L457.9,16.54,454.28,26H442.67l-4.2,11.55H450L436.15,71.82c-3.55,8.7-3.74,15.07-.56,19.45s9.26,6.38,18.84,6.38a79.86,79.86,0,0,0,18.3-2.6l5.59-13.5h0a40.49,40.49,0,0,1-12.47,2.78c-3,.12-4.71-.54-5.78-2-1.58-2-1.16-6.17,1.09-11.82,0,0,11.43-28.08,13.4-33H491.9L496.33,26Z"/><path class="cls-1" d="M540.71,38c4.51,0,7.66,1.13,9.39,3.4,2,2.67,2.14,7,.3,12.61H518.11c2.46-7.66,9.66-16,22.6-16m18.9,44.2h0c-6.92,3.37-18.9,5.19-26.9,5.19-7,0-12.67-2.33-16.05-6.57-3.08-3.84-3.85-9-2.31-14.55h56.83l.28-.75c4.45-12.37,3.9-23.1-1.6-30.24-5-6.53-13.73-9.84-25.8-9.84-26.9,0-49.79,15-55.75,36.45-3,10.84-1.43,20.36,4.5,27.5,6.53,7.88,18,12.22,32.25,12.22a98.7,98.7,0,0,0,27.14-4.17Z"/><path class="cls-1" d="M540.71,38c4.51,0,7.66,1.13,9.39,3.4,2,2.67,2.14,7,.3,12.61H518.11c2.46-7.66,9.66-16,22.6-16m18.9,44.2h0c-6.92,3.37-18.9,5.19-26.9,5.19-7,0-12.67-2.33-16.05-6.57-3.08-3.84-3.85-9-2.31-14.55h56.83l.28-.75c4.45-12.37,3.9-23.1-1.6-30.24-5-6.53-13.73-9.84-25.8-9.84-26.9,0-49.79,15-55.75,36.45-3,10.84-1.43,20.36,4.5,27.5,6.53,7.88,18,12.22,32.25,12.22a98.7,98.7,0,0,0,27.14-4.17Z"/><path class="cls-1" d="M583.55,21.72h.85c1,0,1.75-.48,1.75-1.13s-.7-1.19-1.63-1.19c-.37,0-.75.07-1,.07Zm-.11,5.4h-2.93V17.66a25.51,25.51,0,0,1,4.15-.34c2.16,0,3.1.29,3.83.75a2.54,2.54,0,0,1,1,2.09c0,1-.9,1.79-2.21,2.15v.11a2.81,2.81,0,0,1,2,2.45,9.58,9.58,0,0,0,.66,2.25h-3.27a5.16,5.16,0,0,1-.66-2c-.17-1-.62-1.43-1.58-1.43h-1Zm1.17-12.55a7.41,7.41,0,0,0-7.31,7.74,7.44,7.44,0,1,0,14.88-.07,7.44,7.44,0,0,0-7.52-7.67Zm.27-2.56a10.63,10.63,0,1,1-.2,0Z"/><polygon class="cls-1" points="220.13 2 182.87 98.15 207.6 98.15 244.87 2 220.13 2"/><path class="cls-1" d="M443.41,131h0c-20.06,22.57-43.6,41.22-69.85,53.85A191.41,191.41,0,0,1,290,204.19a191.15,191.15,0,0,1-83.56-19.42c-26.22-12.65-49.7-31.31-69.72-53.88l-7.1,18.31a193.36,193.36,0,0,0,320.74-.39Z"/></svg>