<svg id="Capa_1" data-name="Capa 1" xmlns="http://www.w3.org/2000/svg" viewBox="0 0 487.56 137.44"><defs><style>.cls-1{fill:#af0614;}.cls-2{fill:#fff;}</style></defs><path class="cls-1" d="M487.56,114.4A1301.21,1301.21,0,0,1,0,114.4Q10.91,57.22,21.82,0A1184.81,1184.81,0,0,0,465.75,0l21.81,114.4"/><path class="cls-2" d="M82.71,44.36l3.63.63c3,8.2,4.48,12.3,7.61,20.49l.16,0c5.5-6.81,8.21-10.24,13.53-17.13l3.57.51c-1.57,11-2.36,16.47-3.92,27.44l-4.22-.61c1.08-7.35,1.62-11,2.71-18.38-4.43,5.42-6.68,8.11-11.21,13.47-1.15-.17-1.72-.27-2.86-.45-2.63-6.56-3.91-9.85-6.43-16.43C84,61.3,83.4,65,82.14,72.39l-4.2-.73C79.85,60.74,80.8,55.28,82.71,44.36Z"/><path class="cls-2" d="M116,75.11c-1.75-2.13-2.37-4.91-1.9-8.35a13.29,13.29,0,0,1,2.07-5.7,9.46,9.46,0,0,1,4.2-3.47,11.11,11.11,0,0,1,5.88-.69c3.06.39,5.24,1.55,6.56,3.51a10.5,10.5,0,0,1,1.49,7.33,16.33,16.33,0,0,1-.52,2.63c-6.15-.72-9.22-1.1-15.36-1.91a6.13,6.13,0,0,0,1.38,4.81A8,8,0,0,0,125,75.59a15.87,15.87,0,0,0,6.49-.37c.05,1.34.07,2,.12,3.36a19.25,19.25,0,0,1-7.51.41C120.46,78.53,117.75,77.23,116,75.11Zm14.05-8.32,0-.45a6.93,6.93,0,0,0-.67-4.05q-.93-1.84-3.79-2.2a5.65,5.65,0,0,0-4.48,1.12,6.67,6.67,0,0,0-2.29,4.17C123.34,66,125.58,66.25,130.05,66.79Z"/><path class="cls-2" d="M130.11,88.55c.28-1.32.42-2,.69-3.3a9.37,9.37,0,0,0,2.84.78,3.31,3.31,0,0,0,3.05-.85A7.34,7.34,0,0,0,138,81.24c1-8.92,1.47-13.38,2.46-22.3l4.26.46c-.94,8.86-1.41,13.29-2.34,22.14-.63,5.93-3.42,8.64-8.38,8.08A12.19,12.19,0,0,1,130.11,88.55Zm10.75-33.7a3,3,0,0,1,.45-4.14,2.9,2.9,0,0,1,2.2-.58,3,3,0,0,1,2,1.06,2.84,2.84,0,0,1-.43,4.11,3,3,0,0,1-2.21.61A2.86,2.86,0,0,1,140.86,54.85Z"/><path class="cls-2" d="M152.82,80.74a9.37,9.37,0,0,1-3.49-4.25A13.15,13.15,0,0,1,150.49,65a9.62,9.62,0,0,1,4.2-3.55,13.23,13.23,0,0,1,11.78,1A9.71,9.71,0,0,1,170,66.73a12.19,12.19,0,0,1,.89,5.89,12,12,0,0,1-1.77,5.62,9.35,9.35,0,0,1-4.18,3.57,13.79,13.79,0,0,1-12.1-1.07Zm11.32-3.07a8,8,0,0,0,2.33-5.48,8,8,0,0,0-1.39-5.75,6.85,6.85,0,0,0-9.71-.86A8.09,8.09,0,0,0,153,71a8,8,0,0,0,1.34,5.81,6.92,6.92,0,0,0,9.82.87Z"/><path class="cls-2" d="M176.67,62.23l3.77.27.1,3a14,14,0,0,1,3.64-2,12.22,12.22,0,0,1,4.3-.83c-.23,1.65-.35,2.47-.58,4.12a14.68,14.68,0,0,0-7.37,2c-.41,6-.61,9.08-1,15.13-1.75-.11-2.63-.17-4.37-.3C175.76,75,176.06,70.77,176.67,62.23Z"/><path class="cls-2" d="M191.68,83.08a6.4,6.4,0,0,1-2-5.26A5,5,0,0,1,192,73.63c1.41-.91,3.56-1.29,6.47-1.15l1.34.07a23.2,23.2,0,0,1,4.38.56c0-.69.05-1,.08-1.72a4.12,4.12,0,0,0-1.2-3.48,6.9,6.9,0,0,0-4.16-1.23,24.81,24.81,0,0,0-6.34.58c-.07-1.39-.11-2.08-.18-3.46a29.56,29.56,0,0,1,7.23-.58c3.09.15,5.38.86,6.88,2.16a6.89,6.89,0,0,1,2.09,5.77c-.15,4.11-.23,6.17-.38,10.28-.06,1.8-.09,3.12-.06,3.94l-3.74-.15c-.13-1-.21-1.78-.24-2.39h-.08a6.48,6.48,0,0,1-2.78,2,9.47,9.47,0,0,1-3.84.54A8.58,8.58,0,0,1,191.68,83.08Zm10.62-2A3.73,3.73,0,0,0,204,78c0-.85.06-1.28.09-2.13-2.61-.11-3.91-.16-6.52-.29-2.19-.11-3.32.75-3.42,2.58a3.29,3.29,0,0,0,1.06,2.76A4.94,4.94,0,0,0,198.37,82,6.1,6.1,0,0,0,202.3,81Z"/><path class="cls-2" d="M225.11,84.25c-1.14-1.2-1.67-3.17-1.61-5.9.16-7.46.24-11.19.39-18.65l4.28-.78-.1,5.94c3.07,0,4.61.07,7.69.1-.51,1.41-.77,2.11-1.28,3.51-2.59,0-3.88,0-6.47-.08-.07,4.15-.11,6.22-.17,10.37a4.16,4.16,0,0,0,.79,3,4.25,4.25,0,0,0,3,.9,14,14,0,0,0,3.52-.37c.09,1.31.13,2,.22,3.28a16.64,16.64,0,0,1-4.68.56C228.12,86.07,226.25,85.44,225.11,84.25Z"/><path class="cls-2" d="M241.74,84.4q-2.37-2-2.34-6.5c0-5.31,0-8,.06-13.29h4.28V77.91c0,3.39,1.75,5.09,5.25,5.07a5.36,5.36,0,0,0,3.91-1.34,5.06,5.06,0,0,0,1.29-3.79L254,64.57l4.28-.06c.09,5.32.13,8,.21,13.29a8.07,8.07,0,0,1-2.34,6.34c-1.61,1.5-4,2.27-7.18,2.28S243.32,85.76,241.74,84.4Z"/><path class="cls-2" d="M276.54,85.51a18.82,18.82,0,0,1-3.55-.87c.1-1.46.16-2.19.27-3.66a16,16,0,0,0,3.35,1,15.59,15.59,0,0,0,3.47.29,6.19,6.19,0,0,0,3.39-.9,2.29,2.29,0,0,0,1.06-2.07,2.15,2.15,0,0,0-1.09-1.86,16,16,0,0,0-3.72-1.4,14.55,14.55,0,0,1-4.79-2.19,5.51,5.51,0,0,1,.19-8.62A11,11,0,0,1,281,63.52a20.93,20.93,0,0,1,5.94.65c-.09,1.38-.13,2.07-.22,3.46a15.64,15.64,0,0,0-5.33-.72q-4.26.16-4.17,2.58a2.06,2.06,0,0,0,1.11,1.8,17.53,17.53,0,0,0,3.7,1.34,13.93,13.93,0,0,1,5,2.25,4.89,4.89,0,0,1,1.69,3.78,5.66,5.66,0,0,1-2.22,5.1,10.73,10.73,0,0,1-6.26,2A20.33,20.33,0,0,1,276.54,85.51Z"/><path class="cls-2" d="M297.63,83.54a9.34,9.34,0,0,1-4.08-3.68,12.05,12.05,0,0,1-1.62-5.67,12.26,12.26,0,0,1,1-5.86,9.73,9.73,0,0,1,3.62-4.14,13.2,13.2,0,0,1,11.8-.73,9.66,9.66,0,0,1,4.1,3.65,12.16,12.16,0,0,1,1.77,5.69,12,12,0,0,1-.91,5.82,9.28,9.28,0,0,1-3.59,4.16,13.78,13.78,0,0,1-12.13.76Zm10.73-4.73A8,8,0,0,0,309.84,73a8,8,0,0,0-2.24-5.48,6.84,6.84,0,0,0-9.72.6,8.09,8.09,0,0,0-1.55,5.72,8.05,8.05,0,0,0,2.19,5.54,6.93,6.93,0,0,0,9.84-.61Z"/><path class="cls-2" d="M318.44,61.67l3.77-.31c.19.76.29,1.13.49,1.89a14,14,0,0,1,7.35-3,7.19,7.19,0,0,1,5.61,1.45q2.05,1.77,2.45,5.65c.55,5.54.83,8.32,1.38,13.87l-4.36.42c-.51-5.37-.77-8.06-1.28-13.43a5.19,5.19,0,0,0-1.42-3.49,4.41,4.41,0,0,0-3.39-.84,10.55,10.55,0,0,0-3.16.82,11.55,11.55,0,0,0-2.75,1.63c.55,6.51.82,9.76,1.37,16.26l-4.37.36C319.45,74.47,319.11,70.2,318.44,61.67Z"/><path class="cls-2" d="M343.33,59.36l3.76-.41c.25,1.18.37,1.77.62,2.94a14.13,14.13,0,0,1,3.23-2.65A12.24,12.24,0,0,1,355,57.67c.06,1.66.1,2.49.16,4.15a14.68,14.68,0,0,0-6.91,3.27c.66,6,1,9,1.67,15.08l-4.36.47C344.68,72.13,344.23,67.87,343.33,59.36Z"/><path class="cls-2" d="M359,53.41a2.8,2.8,0,0,1-1.09-1.95,2.77,2.77,0,0,1,.58-2.18,3,3,0,0,1,2-1.08,3,3,0,0,1,2.21.57,2.84,2.84,0,0,1,.53,4.1,3,3,0,0,1-2,1.11A3,3,0,0,1,359,53.41Zm.53,4.08,4.25-.53c1.09,8.49,1.64,12.74,2.73,21.23l-4.36.54C361.11,70.24,360.59,66,359.54,57.49Z"/><path class="cls-2" d="M375.34,77.05a18.71,18.71,0,0,1-3.63-.5c0-1.46-.06-2.2-.11-3.66a16.75,16.75,0,0,0,3.45.64,14.94,14.94,0,0,0,3.49-.07,6.19,6.19,0,0,0,3.29-1.24,2.33,2.33,0,0,0,.84-2.17,2.16,2.16,0,0,0-1.28-1.74,16.13,16.13,0,0,0-3.85-1,14.7,14.7,0,0,1-5-1.69,5.51,5.51,0,0,1-.69-8.59,10.88,10.88,0,0,1,5.72-2.31,21,21,0,0,1,6,0c.06,1.38.08,2.08.14,3.46a15.77,15.77,0,0,0-5.39-.16c-2.82.4-4.11,1.39-3.89,3a2,2,0,0,0,1.29,1.68,17.36,17.36,0,0,0,3.83,1,14.07,14.07,0,0,1,5.23,1.72A4.88,4.88,0,0,1,386.83,69a5.7,5.7,0,0,1-1.69,5.32,10.76,10.76,0,0,1-6,2.61A19.34,19.34,0,0,1,375.34,77.05Z"/><path class="cls-2" d="M393,72.86a6.42,6.42,0,0,1-3-4.74,5,5,0,0,1,1.36-4.56c1.2-1.19,3.23-2,6.11-2.48l1.33-.21a23.09,23.09,0,0,1,4.42-.37c-.11-.68-.17-1-.29-1.7A4.09,4.09,0,0,0,401,55.65a6.93,6.93,0,0,0-4.34-.34,25.69,25.69,0,0,0-6.1,1.89l-.9-3.34a29.73,29.73,0,0,1,7-2.08c3.07-.5,5.46-.28,7.2.68a6.91,6.91,0,0,1,3.26,5.2c.71,4.06,1.06,6.09,1.77,10.14.31,1.78.56,3.07.76,3.86l-3.7.64c-.33-.94-.58-1.7-.74-2.28h-.08a6.57,6.57,0,0,1-2.32,2.49,9.56,9.56,0,0,1-3.65,1.33A8.65,8.65,0,0,1,393,72.86Zm10-4.22a3.74,3.74,0,0,0,1-3.33c-.15-.84-.22-1.26-.36-2.1-2.58.44-3.87.65-6.46,1.07q-3.24.52-2.82,3.24A3.32,3.32,0,0,0,396,70a5,5,0,0,0,3.37.45A6.17,6.17,0,0,0,403,68.64Z"/></svg>