<svg id="Capa_1" data-name="Capa 1" xmlns="http://www.w3.org/2000/svg" viewBox="0 0 487.56 137.44"><defs><style>.cls-1{fill:#af0614;}.cls-2{fill:#fff;}</style></defs><path class="cls-1" d="M487.56,114.4A1301.21,1301.21,0,0,1,0,114.4Q10.91,57.22,21.82,0A1184.81,1184.81,0,0,0,465.75,0l21.81,114.4"/><path class="cls-2" d="M40.94,47.79c3.62.63,5.43.94,9.06,1.54,5.59.93,8,3.53,7.36,7.86a5.56,5.56,0,0,1-4.34,5v.07A6.32,6.32,0,0,1,56.33,65,6.6,6.6,0,0,1,57,69.43a6.46,6.46,0,0,1-3.37,5.07,11.15,11.15,0,0,1-7.09.77c-4-.67-6.06-1-10.1-1.72Zm7.48,12.42a4.88,4.88,0,0,0,3.38-.43,3.61,3.61,0,0,0,1.59-2.68,3.34,3.34,0,0,0-.64-2.91,5.29,5.29,0,0,0-3.14-1.39l-5.4-.92c-.5,3-.76,4.44-1.26,7.4ZM47.14,71.84c3.43.57,5.37-.52,5.81-3.25a3.7,3.7,0,0,0-.78-3.26,6.53,6.53,0,0,0-3.79-1.64l-6-1c-.56,3.25-.84,4.87-1.39,8.12Z"/><path class="cls-2" d="M62.15,76.2Q60.32,74,61,69.82c.77-5,1.15-7.43,1.91-12.39l3.85.59c-.74,5-1.12,7.43-1.87,12.39q-.72,4.75,4,5.45a4.73,4.73,0,0,0,3.69-.72,4.9,4.9,0,0,0,1.7-3.35c.71-5,1.06-7.45,1.77-12.41l3.86.55c-.7,5-1,7.44-1.74,12.41a7.72,7.72,0,0,1-3,5.59q-2.48,1.77-6.74,1.14T62.15,76.2Z"/><path class="cls-2" d="M84.64,81a17.48,17.48,0,0,1-3-1.35c.32-1.34.48-2,.81-3.36a14,14,0,0,0,2.84,1.43,13.43,13.43,0,0,0,3,.8,5.48,5.48,0,0,0,3.17-.32,2.19,2.19,0,0,0,1.27-1.77,2.06,2.06,0,0,0-.68-1.9,14.06,14.06,0,0,0-3.11-1.86A13.2,13.2,0,0,1,85,69.9a5.34,5.34,0,0,1,1.51-8,9.6,9.6,0,0,1,5.56-.7,18.7,18.7,0,0,1,5.22,1.52c-.3,1.28-.45,1.91-.74,3.19a13.52,13.52,0,0,0-4.66-1.49c-2.56-.33-3.93.25-4.13,1.76A2,2,0,0,0,88.47,68a16,16,0,0,0,3.1,1.81,12.42,12.42,0,0,1,4.13,2.86,4.76,4.76,0,0,1,.92,3.78,5.48,5.48,0,0,1-2.79,4.41,9.4,9.4,0,0,1-5.88.89A17.61,17.61,0,0,1,84.64,81Z"/><path class="cls-2" d="M104.11,82.51a8.94,8.94,0,0,1-3.31-4,11.25,11.25,0,0,1-.66-5.69,11.11,11.11,0,0,1,2-5.43,9,9,0,0,1,4.22-3.14,12.38,12.38,0,0,1,5.73-.59,15.61,15.61,0,0,1,5.3,1.59l-.88,3.18a12.23,12.23,0,0,0-4.48-1.47,7.18,7.18,0,0,0-5.44,1.31,7,7,0,0,0-2.5,5,7.31,7.31,0,0,0,1.25,5.4,6.8,6.8,0,0,0,5,2.6,12.1,12.1,0,0,0,5.14-.53c0,1.27.08,1.9.12,3.17a14.68,14.68,0,0,1-6.08.58A12,12,0,0,1,104.11,82.51Z"/><path class="cls-2" d="M120.9,83.77a6.17,6.17,0,0,1-1.54-5,4.78,4.78,0,0,1,2.26-3.85c1.32-.8,3.29-1.06,5.91-.81l1.21.12a19.85,19.85,0,0,1,3.94.73l.15-1.62a3.94,3.94,0,0,0-.9-3.33,6.08,6.08,0,0,0-3.71-1.35,21.79,21.79,0,0,0-5.78.28V65.63a26.22,26.22,0,0,1,6.58-.24q4.22.42,6.13,2.35a6.59,6.59,0,0,1,1.61,5.53c-.35,3.87-.52,5.8-.87,9.67-.15,1.7-.24,2.93-.26,3.71l-3.36-.31c-.07-.94-.1-1.69-.1-2.26h-.07a6,6,0,0,1-2.61,1.72,8.28,8.28,0,0,1-3.49.34A7.59,7.59,0,0,1,120.9,83.77Zm9.69-1.47a3.57,3.57,0,0,0,1.66-2.8l.19-2-5.88-.57q-3-.29-3.22,2.29a3.17,3.17,0,0,0,.83,2.65A4.36,4.36,0,0,0,127,83.08,5.41,5.41,0,0,0,130.59,82.3Z"/><path class="cls-2" d="M151,86.42q-1.44-1.78-1.13-5.64c.55-7,.82-10.53,1.38-17.55l3.92-.51-.42,5.59,7,.51c-.54,1.29-.82,1.94-1.36,3.24l-5.85-.43c-.3,3.91-.44,5.86-.74,9.76a4,4,0,0,0,.56,2.84,3.72,3.72,0,0,0,2.68,1,12.36,12.36,0,0,0,3.2-.16c0,1.24,0,1.86,0,3.1a14.55,14.55,0,0,1-4.25.28Q152.45,88.21,151,86.42Z"/><path class="cls-2" d="M166,87.46c-1.35-1.36-1.92-3.45-1.74-6.25.33-5,.5-7.51.83-12.51L169,69c-.32,5-.47,7.51-.79,12.51-.2,3.19,1.28,4.89,4.44,5.08a4.67,4.67,0,0,0,3.6-1,4.88,4.88,0,0,0,1.4-3.48c.27-5,.41-7.51.69-12.52l3.88.21-.65,12.52A7.79,7.79,0,0,1,179,88.06c-1.54,1.31-3.75,1.89-6.61,1.72S167.34,88.83,166,87.46Z"/><path class="cls-2" d="M196.05,70.35l3.13.12c.13,1.08.19,1.61.32,2.69a7.9,7.9,0,0,1,6.63-2.8A9.88,9.88,0,0,1,211,71.73a8.7,8.7,0,0,1,3.31,3.63,11.58,11.58,0,0,1,1.12,5.56A11.71,11.71,0,0,1,214,86.55a9,9,0,0,1-3.63,3.6,9.93,9.93,0,0,1-5.08,1.13,10.33,10.33,0,0,1-3.45-.68A7.74,7.74,0,0,1,199.25,89c-.14,3.88-.22,5.82-.36,9.7l-4,.93Q195.47,85,196.05,70.35Zm13.63,15.76a8.06,8.06,0,0,0,1.74-5.18,7.38,7.38,0,0,0-1.58-5.31,6.5,6.5,0,0,0-8.5-.69,4.56,4.56,0,0,0-1.7,3.53l-.25,6.73a6.25,6.25,0,0,0,2.44,2,8,8,0,0,0,3.28.8A5.46,5.46,0,0,0,209.68,86.11Z"/><path class="cls-2" d="M220.18,71.08l3.43.06c.08,1.13.13,1.7.21,2.83a12.55,12.55,0,0,1,3.21-2.1,10.83,10.83,0,0,1,3.86-1l-.35,3.91A12.94,12.94,0,0,0,224,77c-.09,5.72-.14,8.59-.24,14.31l-3.94-.07Z"/><path class="cls-2" d="M237.19,90.56a8.63,8.63,0,0,1-3.48-3.7,11.72,11.72,0,0,1-1.15-5.43A11.94,11.94,0,0,1,233.82,76a8.92,8.92,0,0,1,3.51-3.69,11.48,11.48,0,0,1,10.71,0,8.92,8.92,0,0,1,3.5,3.7,12.91,12.91,0,0,1,.09,10.89,8.61,8.61,0,0,1-3.48,3.69,12,12,0,0,1-11,0Zm9.93-3.82a7.78,7.78,0,0,0,1.68-5.34,7.81,7.81,0,0,0-1.71-5.3,6,6,0,0,0-8.82,0,7.77,7.77,0,0,0-1.71,5.29,7.76,7.76,0,0,0,1.66,5.35,6.07,6.07,0,0,0,8.9,0Z"/><path class="cls-2" d="M260.89,90.61a8.23,8.23,0,0,1-3.45-3.44,11.8,11.8,0,0,1-1.3-5.63,12.08,12.08,0,0,1,1.25-5.84A8.76,8.76,0,0,1,260.82,72a9.72,9.72,0,0,1,4.75-1.28,8.17,8.17,0,0,1,3.54.65,6.07,6.07,0,0,1,2.4,1.86l.11,0c-.09-3.73-.13-5.59-.22-9.32l3.83-1.18c.25,9.19.37,13.78.62,23,0,1.21.1,3,.22,5.37l-3.34.09c-.17-.77-.3-1.58-.4-2.43h-.08a7.86,7.86,0,0,1-6.45,3A10,10,0,0,1,260.89,90.61Zm8.71-3.13a6.88,6.88,0,0,0,2.3-2.22c-.06-2.51-.09-3.76-.14-6.27a4.76,4.76,0,0,0-1.62-3.54,6.09,6.09,0,0,0-8.41.68,8,8,0,0,0-1.59,5.4,7.22,7.22,0,0,0,1.73,5.14,5.76,5.76,0,0,0,4.44,1.69A6.63,6.63,0,0,0,269.6,87.48Z"/><path class="cls-2" d="M283.68,89.32q-2.21-1.84-2.33-6.06L281,70.73l3.89-.13c.17,5,.26,7.52.43,12.53.11,3.19,1.75,4.74,4.91,4.62a4.69,4.69,0,0,0,3.48-1.38,4.87,4.87,0,0,0,1-3.61c-.21-5-.32-7.51-.53-12.52l3.88-.17c.23,5,.35,7.51.58,12.52a7.85,7.85,0,0,1-1.93,6Q294.6,90.83,290.3,91T283.68,89.32Z"/><path class="cls-2" d="M308.4,88.9a9,9,0,0,1-3.93-3.41,12.31,12.31,0,0,1-.53-11.19,9,9,0,0,1,3.63-3.81,12.37,12.37,0,0,1,5.54-1.56,15.24,15.24,0,0,1,5.48.68c-.13,1.31-.19,2-.32,3.27a12.27,12.27,0,0,0-4.67-.68,6.65,6.65,0,0,0-6.76,7.51A7.37,7.37,0,0,0,309,84.82a6.79,6.79,0,0,0,5.38,1.71,11.91,11.91,0,0,0,5-1.39l.65,3.1a14.45,14.45,0,0,1-5.9,1.6A11.91,11.91,0,0,1,308.4,88.9Z"/><path class="cls-2" d="M325.85,87.2c-1.12-1-1.77-2.84-1.94-5.42-.47-7-.71-10.53-1.18-17.56l3.81-1.08c.16,2.24.23,3.36.39,5.6l7-.51c-.36,1.36-.53,2-.88,3.4-2.34.18-3.51.27-5.86.43.28,3.91.42,5.86.69,9.76a4,4,0,0,0,1,2.73,3.71,3.71,0,0,0,2.81.61,12,12,0,0,0,3.13-.62c.19,1.23.28,1.84.47,3.07a14.88,14.88,0,0,1-4.17.89C328.7,88.67,327,88.23,325.85,87.2Z"/><path class="cls-2" d="M342.33,86.54a8.74,8.74,0,0,1-3.79-3.38,11.76,11.76,0,0,1-1.62-5.31,12,12,0,0,1,.78-5.55,9,9,0,0,1,3.17-4,11.56,11.56,0,0,1,10.69-.93,9.07,9.07,0,0,1,3.81,3.38,11.87,11.87,0,0,1,1.72,5.34,11.65,11.65,0,0,1-.68,5.5,8.62,8.62,0,0,1-3.15,4,12,12,0,0,1-10.93,1Zm9.57-4.67a7.84,7.84,0,0,0,1.21-5.47,7.8,7.8,0,0,0-2.17-5.12,6,6,0,0,0-8.79.76,7.73,7.73,0,0,0-1.25,5.42A7.75,7.75,0,0,0,343,82.64a6.07,6.07,0,0,0,8.87-.77Z"/><path class="cls-2" d="M368.7,60.8a2.87,2.87,0,0,1-.42-3.9,2.63,2.63,0,0,1,1.84-1,2.68,2.68,0,0,1,2,.58,2.74,2.74,0,0,1-1.41,4.88A2.55,2.55,0,0,1,368.7,60.8Zm.43,3.87,3.86-.42,2.2,20.08-3.93.42C370.41,76.72,370,72.7,369.13,64.67Z"/><path class="cls-2" d="M384.47,82.49a8.25,8.25,0,0,1-3.79-3.06A11.83,11.83,0,0,1,378.81,74a12.11,12.11,0,0,1,.64-5.94,8.72,8.72,0,0,1,3-4,9.76,9.76,0,0,1,4.6-1.76,8.1,8.1,0,0,1,3.6.28,6.12,6.12,0,0,1,2.58,1.6l.11-.05c-.47-3.7-.7-5.55-1.17-9.25l3.69-1.57c1.19,9.12,1.78,13.67,3,22.79.16,1.2.41,3,.77,5.32l-3.31.43a22.71,22.71,0,0,1-.65-2.37h-.08a7.89,7.89,0,0,1-6.13,3.6A10.14,10.14,0,0,1,384.47,82.49Zm8.36-4A6.87,6.87,0,0,0,394.89,76l-.78-6.21a4.73,4.73,0,0,0-2-3.36,5.63,5.63,0,0,0-4.15-.95A5.52,5.52,0,0,0,383.82,68a8.05,8.05,0,0,0-1,5.54A7.2,7.2,0,0,0,385,78.47a5.77,5.77,0,0,0,4.6,1.22A6.62,6.62,0,0,0,392.83,78.48Z"/><path class="cls-2" d="M406,78.27c-2-1.51-3.27-3.89-3.71-7.14a12.81,12.81,0,0,1,.41-5.69,8.85,8.85,0,0,1,2.81-4.19,9.85,9.85,0,0,1,5-2.06q4.16-.6,6.6,1.6a10.23,10.23,0,0,1,3.07,6.33,16.06,16.06,0,0,1,.18,2.52c-5.54.82-8.31,1.22-13.86,2a6,6,0,0,0,2.37,4,7,7,0,0,0,5.11.84,13.87,13.87,0,0,0,5.57-1.9l.92,3A16.91,16.91,0,0,1,414,79.83C410.68,80.3,408,79.77,406,78.27Zm10.22-11-.06-.42a6.73,6.73,0,0,0-1.57-3.52,4,4,0,0,0-3.85-1.09,5,5,0,0,0-3.65,2.11,6.4,6.4,0,0,0-1,4.35C410.13,68.15,412.15,67.86,416.19,67.27Z"/><path class="cls-2" d="M426.73,76.08A6.17,6.17,0,0,1,424,71.59a4.75,4.75,0,0,1,1.22-4.29c1.07-1.11,2.92-1.86,5.52-2.28l1.21-.19a20.47,20.47,0,0,1,4-.29l-.26-1.61a3.92,3.92,0,0,0-1.72-3,6.09,6.09,0,0,0-3.94-.37,22.21,22.21,0,0,0-5.52,1.73c-.34-1.27-.5-1.9-.83-3.16A25.71,25.71,0,0,1,430,56.25q4.18-.68,6.54.72a6.62,6.62,0,0,1,3,5c.63,3.83.95,5.74,1.59,9.58.28,1.68.51,2.89.68,3.65l-3.34.55c-.3-.89-.52-1.61-.66-2.17l-.08,0a5.93,5.93,0,0,1-2.09,2.31,8.29,8.29,0,0,1-3.3,1.22A7.65,7.65,0,0,1,426.73,76.08Zm9-3.87a3.57,3.57,0,0,0,.9-3.13c-.13-.79-.19-1.19-.32-2-2.34.38-3.51.57-5.84.93-2,.31-2.81,1.32-2.55,3a3.19,3.19,0,0,0,1.47,2.35,4.34,4.34,0,0,0,3.05.46A5.42,5.42,0,0,0,435.76,72.21Z"/><path class="cls-2" d="M442.61,47.34l3.63-1.73q2.43,14,4.88,27.94l-3.91.68Z"/></svg>