<svg id="Capa_1" data-name="Capa 1" xmlns="http://www.w3.org/2000/svg" viewBox="0 0 487.56 137.44"><defs><style>.cls-1{fill:#af0614;}.cls-2{fill:#fff;}</style></defs><path class="cls-1" d="M487.56,114.4A1301.21,1301.21,0,0,1,0,114.4Q10.91,57.22,21.82,0A1184.81,1184.81,0,0,0,465.75,0l21.81,114.4"/><path class="cls-2" d="M87.74,42.35a5.94,5.94,0,0,1-1.42,3.07,12.84,12.84,0,0,1-3.76,2.64,19.23,19.23,0,0,0-3.21,2,3.71,3.71,0,0,0-.21,5.22A6.67,6.67,0,0,0,83,56.94a16.24,16.24,0,0,0,3.73.15,20.69,20.69,0,0,0,3.79-.61c0,1.34.08,2,.13,3.34a20.33,20.33,0,0,1-8.73.51,11,11,0,0,1-6.59-3.1,6.52,6.52,0,0,1-1.54-5.76,6.78,6.78,0,0,1,1.16-2.9,7.18,7.18,0,0,1,1.93-1.85,26,26,0,0,1,2.81-1.47c1.3-.61,2.25-1.09,2.83-1.42a4.48,4.48,0,0,0,1.37-1.12,4.07,4.07,0,0,0,.7-1.67l.2-.93,3.27.54Zm1.76-8.79a2.79,2.79,0,0,1-.63,3.93,2.86,2.86,0,0,1-2.16.45,2.94,2.94,0,0,1-1.9-1.12,2.66,2.66,0,0,1,.65-3.9,2.94,2.94,0,0,1,2.15-.48A2.84,2.84,0,0,1,89.5,33.56Z"/><path class="cls-2" d="M99.82,54.86a12.36,12.36,0,0,1-4.37-5.8,15,15,0,0,1-.6-7.46,15.07,15.07,0,0,1,2.9-7.06,12.8,12.8,0,0,1,5.89-4.24,17,17,0,0,1,8.18-.67,21.58,21.58,0,0,1,4.43,1.08,15.22,15.22,0,0,1,3.4,1.63l-.9,3.68a18,18,0,0,0-7.27-2.71,12.06,12.06,0,0,0-5.82.48,9,9,0,0,0-4.21,3.09,11.47,11.47,0,0,0-2.1,5.28,11.32,11.32,0,0,0,.51,5.76,9.11,9.11,0,0,0,3.27,4.25,12.4,12.4,0,0,0,5.62,2.12,20.45,20.45,0,0,0,4,.13,14.3,14.3,0,0,0,3.74-.66c0,1.47,0,2.2,0,3.67a16.72,16.72,0,0,1-4,.65,24.08,24.08,0,0,1-4.64-.2A17,17,0,0,1,99.82,54.86Z"/><path class="cls-2" d="M123.62,57.9c-1.41-1.54-1.93-3.78-1.56-6.74L123.71,38l4.26.52c-.64,5.28-1,7.91-1.59,13.19C126,55.05,127.51,57,131,57.35a5.36,5.36,0,0,0,4.05-.86,5,5,0,0,0,1.73-3.6l1.45-13.21,4.27.46-1.39,13.21a8.05,8.05,0,0,1-3.09,6c-1.78,1.29-4.25,1.77-7.41,1.4S125,59.44,123.62,57.9Z"/><path class="cls-2" d="M147.33,60.6a6.44,6.44,0,0,1-1.75-5.35,5,5,0,0,1,2.47-4.08q2.17-1.26,6.52-.86l1.34.12a22.23,22.23,0,0,1,4.36.76l.15-1.72a4.07,4.07,0,0,0-1-3.53,6.9,6.9,0,0,0-4.11-1.41,25.06,25.06,0,0,0-6.37.3c0-1.39,0-2.08,0-3.47a30.38,30.38,0,0,1,7.27-.26c3.09.29,5.35,1.1,6.78,2.47a6.85,6.85,0,0,1,1.85,5.85c-.33,4.1-.5,6.16-.83,10.26q-.23,2.7-.24,3.93L160,63.3c-.09-1-.13-1.8-.14-2.4h-.08a6.46,6.46,0,0,1-2.87,1.83,9.5,9.5,0,0,1-3.86.37A8.66,8.66,0,0,1,147.33,60.6ZM158.05,59a3.75,3.75,0,0,0,1.81-3l.18-2.13c-2.61-.22-3.91-.34-6.51-.58q-3.27-.3-3.53,2.43a3.3,3.3,0,0,0,.94,2.81,5,5,0,0,0,3.14,1.28A6.16,6.16,0,0,0,158.05,59Zm-5.12-23c3.62-1.7,5.42-2.56,9-4.29.67,1.39,1,2.09,1.69,3.48-3.76,1.41-5.66,2.11-9.45,3.48C153.67,37.63,153.42,37.1,152.93,36Z"/><path class="cls-2" d="M171.23,42.73,175,43l.2,1.94a13.69,13.69,0,0,1,3.67-1.43,13.47,13.47,0,0,1,4-.35,7.24,7.24,0,0,1,5.33,2.29q1.75,2.07,1.55,6c-.31,5.57-.47,8.35-.77,13.92l-4.38-.25c.33-5.39.49-8.08.81-13.47a5.14,5.14,0,0,0-.87-3.67,4.43,4.43,0,0,0-3.22-1.35,10.41,10.41,0,0,0-3.25.32,11.6,11.6,0,0,0-3,1.19L174,64.39l-4.37-.32Z"/><path class="cls-2" d="M196.79,64.14q-1.66-1.85-1.45-5.94c.37-7.46.55-11.18.92-18.64l4.3-.65c-.11,2.37-.16,3.56-.27,5.93,3.08.14,4.62.2,7.69.32-.55,1.39-.82,2.09-1.38,3.48l-6.47-.27c-.18,4.14-.28,6.21-.46,10.36a4.11,4.11,0,0,0,.71,3,4.25,4.25,0,0,0,3,1,13.36,13.36,0,0,0,3.53-.27c.05,1.32.08,2,.13,3.29a16.77,16.77,0,0,1-4.69.43Q198.45,66,196.79,64.14Z"/><path class="cls-2" d="M215,65.45a9.35,9.35,0,0,1-3.75-4,12,12,0,0,1-1.14-5.78,12.26,12.26,0,0,1,1.54-5.76,9.63,9.63,0,0,1,4-3.81,11.78,11.78,0,0,1,5.94-1.26,11.93,11.93,0,0,1,5.88,1.53,9.69,9.69,0,0,1,3.78,4,12.17,12.17,0,0,1,1.27,5.82,11.9,11.9,0,0,1-1.4,5.72,9.33,9.33,0,0,1-3.93,3.84A13.8,13.8,0,0,1,215,65.45Zm11.09-3.8a8,8,0,0,0,2-5.62,8.14,8.14,0,0,0-1.77-5.65,6.33,6.33,0,0,0-4.83-2.15,6.26,6.26,0,0,0-4.91,1.92,8.09,8.09,0,0,0-2,5.57,8.09,8.09,0,0,0,1.71,5.71,6.92,6.92,0,0,0,9.85.22Z"/><path class="cls-2" d="M249.16,66.88a19.2,19.2,0,0,1-3.53-1c.15-1.46.22-2.19.37-3.65a16.67,16.67,0,0,0,3.33,1.09,15.11,15.11,0,0,0,3.46.39,6.25,6.25,0,0,0,3.42-.8,2.31,2.31,0,0,0,1.11-2,2.18,2.18,0,0,0-1-1.9,16.35,16.35,0,0,0-3.69-1.49,14.56,14.56,0,0,1-4.72-2.33A5,5,0,0,1,246,51a4.94,4.94,0,0,1,2.3-4.45,10.9,10.9,0,0,1,6-1.55,21.13,21.13,0,0,1,5.92.83c-.13,1.38-.19,2.07-.32,3.45a15.64,15.64,0,0,0-5.31-.87c-2.84,0-4.26.84-4.24,2.45a2,2,0,0,0,1.06,1.84,17.56,17.56,0,0,0,3.66,1.44A14.21,14.21,0,0,1,260,56.55a4.93,4.93,0,0,1,1.58,3.83,5.69,5.69,0,0,1-2.37,5,10.69,10.69,0,0,1-6.31,1.8A19.7,19.7,0,0,1,249.16,66.88Z"/><path class="cls-2" d="M267.17,65A6.38,6.38,0,0,1,264.79,60a5,5,0,0,1,1.94-4.35c1.34-1,3.46-1.56,6.37-1.65l1.34,0a23,23,0,0,1,4.42.22c0-.69,0-1-.06-1.72A4.12,4.12,0,0,0,277.34,49a7,7,0,0,0-4.25-.91,25,25,0,0,0-6.28,1.08l-.45-3.44a30.72,30.72,0,0,1,7.17-1.14q4.65-.13,7,1.63a6.9,6.9,0,0,1,2.54,5.58c.16,4.12.25,6.17.41,10.29q.11,2.7.24,3.93l-3.73.14c-.21-1-.35-1.77-.43-2.36h-.08A6.44,6.44,0,0,1,276.88,66a9.38,9.38,0,0,1-3.78.84A8.65,8.65,0,0,1,267.17,65Zm10.43-2.87A3.72,3.72,0,0,0,279,59L279,56.87c-2.61.1-3.92.14-6.53.22q-3.29.09-3.21,2.83a3.32,3.32,0,0,0,1.28,2.68,5,5,0,0,0,3.27.89A6.13,6.13,0,0,0,277.6,62.17Z"/><path class="cls-2" d="M294,65.44a17.78,17.78,0,0,1-4.35-1.17c-.51-10.94-.76-16.41-1.27-27.36,1.68-.53,2.52-.8,4.19-1.35.22,4.41.34,6.61.56,11h.12a9.82,9.82,0,0,1,3-2.15,10.38,10.38,0,0,1,4-1,10.09,10.09,0,0,1,5,.92,8.9,8.9,0,0,1,3.74,3.4,12.06,12.06,0,0,1,1.69,5.74c.25,3.6-.62,6.48-2.64,8.64s-4.95,3.36-8.8,3.57A25,25,0,0,1,294,65.44Zm10.67-5.6a7.81,7.81,0,0,0,1.6-5.85,8,8,0,0,0-2.06-5.35A6,6,0,0,0,299.36,47a6.36,6.36,0,0,0-4.4,1.84,5.68,5.68,0,0,0-1.51,4.47c.17,3.28.25,4.91.42,8.19a13.49,13.49,0,0,0,5.21.71A7.55,7.55,0,0,0,304.65,59.84Z"/><path class="cls-2" d="M318,61.66c-2.14-1.71-3.33-4.31-3.58-7.77a13.1,13.1,0,0,1,.85-6,9.5,9.5,0,0,1,3.38-4.27,11.29,11.29,0,0,1,5.61-1.89c3.07-.25,5.45.43,7.15,2.08a10.51,10.51,0,0,1,3,6.87,16,16,0,0,1,0,2.67c-6.16.57-9.24.84-15.41,1.31a6.13,6.13,0,0,0,2.33,4.42,7.93,7.93,0,0,0,5.59,1.19,16,16,0,0,0,6.27-1.7c.32,1.3.49,2,.81,3.26a19.07,19.07,0,0,1-7.26,2C323,64.09,320.11,63.38,318,61.66Zm12-11,0-.45a7,7,0,0,0-1.49-3.82c-.87-1.07-2.25-1.53-4.17-1.37a5.67,5.67,0,0,0-4.15,2,6.65,6.65,0,0,0-1.37,4.55C323.25,51.2,325.49,51,330,50.62Z"/><path class="cls-2" d="M342.69,61.94a19.6,19.6,0,0,1-3.61-.63c0-1.47,0-2.2,0-3.67a17,17,0,0,0,3.42.77,15.69,15.69,0,0,0,3.48.06,6.32,6.32,0,0,0,3.34-1.12,2.34,2.34,0,0,0,.92-2.14,2.19,2.19,0,0,0-1.22-1.79,16.79,16.79,0,0,0-3.81-1.14,14.37,14.37,0,0,1-4.93-1.87,5,5,0,0,1-2.25-4,5,5,0,0,1,1.87-4.65,11,11,0,0,1,5.8-2.1,21.35,21.35,0,0,1,6,.25c0,1.39,0,2.08,0,3.47a15.52,15.52,0,0,0-5.38-.36c-2.83.3-4.16,1.24-4,2.84a2.06,2.06,0,0,0,1.23,1.73,17.44,17.44,0,0,0,3.79,1.09,14.09,14.09,0,0,1,5.16,1.91,4.87,4.87,0,0,1,1.94,3.66,5.71,5.71,0,0,1-1.89,5.25,10.73,10.73,0,0,1-6.11,2.39A20.6,20.6,0,0,1,342.69,61.94Z"/><path class="cls-2" d="M372.63,57.6a8.83,8.83,0,0,1-4.22-3.17,12,12,0,0,1-2.12-5.77,12.41,12.41,0,0,1,.66-6.3,9.58,9.58,0,0,1,3.32-4.3,11.33,11.33,0,0,1,5.06-2,9.54,9.54,0,0,1,4,.21A6.94,6.94,0,0,1,382.17,38l.12-.05c-.57-3.92-.85-5.87-1.41-9.78l4-1.76c1.44,9.64,2.15,14.46,3.59,24.09q.27,1.9.92,5.63l-3.67.54a21.74,21.74,0,0,1-.75-2.51l-.08,0a9,9,0,0,1-6.75,4A11.62,11.62,0,0,1,372.63,57.6Zm9.22-4.44a7.63,7.63,0,0,0,2.26-2.64l-.95-6.58a5,5,0,0,0-2.22-3.51,6.39,6.39,0,0,0-4.59-.91,6.24,6.24,0,0,0-4.57,2.73,8.26,8.26,0,0,0-1.09,5.89,7.47,7.47,0,0,0,2.53,5.19,6.55,6.55,0,0,0,5.11,1.19A7.54,7.54,0,0,0,381.85,53.16Z"/><path class="cls-2" d="M396.39,52.59c-2.28-1.54-3.67-4-4.2-7.46a13.14,13.14,0,0,1,.37-6.05,9.49,9.49,0,0,1,3-4.53,11.24,11.24,0,0,1,5.46-2.33c3-.5,5.47,0,7.3,1.49a10.5,10.5,0,0,1,3.51,6.61,15.06,15.06,0,0,1,.25,2.66c-6.11,1.07-9.17,1.58-15.29,2.55a6.14,6.14,0,0,0,2.68,4.22,8,8,0,0,0,5.67.74,16,16,0,0,0,6.14-2.21c.43,1.28.64,1.92,1.07,3.19a19.21,19.21,0,0,1-7.1,2.53Q399.81,54.9,396.39,52.59Zm11.13-12-.08-.45a6.9,6.9,0,0,0-1.79-3.69q-1.42-1.5-4.27-1a5.65,5.65,0,0,0-4,2.35,6.62,6.62,0,0,0-1,4.64C400.84,41.74,403.07,41.37,407.52,40.62Z"/><path class="cls-2" d="M110.81,106.58a10.08,10.08,0,0,1-3.83-4.37,10.93,10.93,0,0,1-.76-6.06,11.06,11.06,0,0,1,2.37-5.7,10.08,10.08,0,0,1,4.9-3.22,15.56,15.56,0,0,1,6.64-.49,19.33,19.33,0,0,1,6.13,1.8l-1,3.35a15.35,15.35,0,0,0-5.2-1.65,8.75,8.75,0,0,0-6.3,1.26,7.12,7.12,0,0,0-2.92,5.18,7.41,7.41,0,0,0,1.45,5.77,8.38,8.38,0,0,0,5.83,2.88,15.23,15.23,0,0,0,6-.44c.06,1.34.09,2,.14,3.36a18.42,18.42,0,0,1-7.07.47A15,15,0,0,1,110.81,106.58Z"/><path class="cls-2" d="M131.42,108.33c-1.51-1.52-2.09-3.77-1.76-6.73l1.47-13.2,4.48.48c-.56,5.29-.85,7.93-1.41,13.21-.36,3.37,1.29,5.26,5,5.63a5.81,5.81,0,0,0,4.23-.9,4.93,4.93,0,0,0,1.76-3.62c.5-5.28.76-7.93,1.27-13.22l4.49.42c-.49,5.29-.73,7.94-1.22,13.23a7.87,7.87,0,0,1-3.13,6.05c-1.84,1.31-4.42,1.81-7.75,1.47S132.93,109.86,131.42,108.33Z"/><path class="cls-2" d="M157.76,86.87a2.87,2.87,0,0,1,.35-4.14,3.13,3.13,0,0,1,2.3-.63,3.2,3.2,0,0,1,2.15,1,2.74,2.74,0,0,1-.33,4.12,3.23,3.23,0,0,1-2.3.66A3.15,3.15,0,0,1,157.76,86.87ZM157.43,91l4.49.37c-.69,8.54-1,12.8-1.72,21.34l-4.58-.38C156.34,103.78,156.71,99.51,157.43,91Z"/><path class="cls-2" d="M171.19,112.69a9.12,9.12,0,0,1-3.69-4,11.57,11.57,0,0,1-1-6.08,12,12,0,0,1,2-6,9.77,9.77,0,0,1,4.3-3.53,12.23,12.23,0,0,1,5.61-.9,10.25,10.25,0,0,1,4,1A6.93,6.93,0,0,1,185,95.38l.14,0,.57-9.86,4.52-.9c-.52,9.73-.77,14.59-1.29,24.32q-.1,1.92-.21,5.7l-3.88-.22a21.19,21.19,0,0,1-.26-2.6h-.08q-2.85,2.84-7.76,2.52A12.5,12.5,0,0,1,171.19,112.69Zm10.38-2.48a7.79,7.79,0,0,0,2.87-2.14l.38-6.63a4.87,4.87,0,0,0-1.56-3.89,6.88,6.88,0,0,0-4.53-1.82,6.72,6.72,0,0,0-5.26,1.75,8,8,0,0,0-2.33,5.55,7.22,7.22,0,0,0,1.54,5.59,7.06,7.06,0,0,0,5,2.21A8.3,8.3,0,0,0,181.57,110.21Z"/><path class="cls-2" d="M196.29,113.43a6.29,6.29,0,0,1-2.13-5.25,4.89,4.89,0,0,1,2.35-4.2c1.47-.92,3.73-1.31,6.78-1.19l1.41.06a25.16,25.16,0,0,1,4.62.53l.05-1.72a4,4,0,0,0-1.29-3.47A7.51,7.51,0,0,0,203.7,97a27.91,27.91,0,0,0-6.66.62c-.1-1.38-.14-2.08-.24-3.46a32.8,32.8,0,0,1,7.6-.62c3.26.13,5.68.83,7.26,2.12a6.74,6.74,0,0,1,2.26,5.75l-.3,10.29c-.05,1.8-.06,3.11,0,3.94l-3.92-.13c-.15-1-.24-1.78-.28-2.38h-.09a6.67,6.67,0,0,1-2.9,2,10.31,10.31,0,0,1-4,.57A9.37,9.37,0,0,1,196.29,113.43Zm11.14-2.11a3.7,3.7,0,0,0,1.72-3.06l.07-2.13-6.85-.26c-2.3-.09-3.48.77-3.56,2.6a3.24,3.24,0,0,0,1.14,2.76,5.37,5.37,0,0,0,3.36,1.12A6.66,6.66,0,0,0,207.43,111.32Z"/><path class="cls-2" d="M223.85,115a9.1,9.1,0,0,1-3.88-3.77,11.53,11.53,0,0,1-1.3-6,11.94,11.94,0,0,1,1.67-6.13,9.69,9.69,0,0,1,4.11-3.75A12.25,12.25,0,0,1,230,94.19a10.24,10.24,0,0,1,4.07.8,7,7,0,0,1,2.72,2.06l.14,0c0-4,0-5.93.06-9.88L241.46,86l-.05,24.35c0,1.29,0,3.19.07,5.7H237.6a23,23,0,0,1-.38-2.59h-.09a9.6,9.6,0,0,1-7.61,2.92A12.67,12.67,0,0,1,223.85,115Zm10.24-3a7.73,7.73,0,0,0,2.75-2.27l0-6.64a4.81,4.81,0,0,0-1.75-3.81,6.92,6.92,0,0,0-4.61-1.59,6.71,6.71,0,0,0-5.17,2,8.07,8.07,0,0,0-2,5.66,7.21,7.21,0,0,0,1.82,5.51,7,7,0,0,0,5.1,1.95A8.24,8.24,0,0,0,234.09,112Z"/><path class="cls-2" d="M251.56,115a9.57,9.57,0,0,1-4.09-3.87,11.6,11.6,0,0,1-1.42-5.74,11.8,11.8,0,0,1,1.4-5.8,9.81,9.81,0,0,1,4-4,14.52,14.52,0,0,1,12.42-.17A10,10,0,0,1,268,99.35a11.63,11.63,0,0,1,1.55,5.76,11.46,11.46,0,0,1-1.26,5.77,9.62,9.62,0,0,1-4,4,13.64,13.64,0,0,1-6.36,1.5A13.45,13.45,0,0,1,251.56,115Zm11.49-4.21a9.06,9.06,0,0,0-.21-11.27,7.43,7.43,0,0,0-10.23.14,9,9,0,0,0,.1,11.27,7.52,7.52,0,0,0,10.34-.14Z"/><path class="cls-2" d="M289.09,114.08a9.49,9.49,0,0,1-4.23-3.72,11.47,11.47,0,0,1-1.62-5.68,11.7,11.7,0,0,1,1.18-5.86,10,10,0,0,1,3.86-4.1,13.22,13.22,0,0,1,6.14-1.7,13,13,0,0,1,6.28,1.09A9.86,9.86,0,0,1,305,97.8a12.59,12.59,0,0,1,.72,11.52,9.58,9.58,0,0,1-3.84,4.12,15.11,15.11,0,0,1-12.74.64Zm11.33-4.62a9,9,0,0,0-.62-11.26,7.44,7.44,0,0,0-10.22.51,7.83,7.83,0,0,0-1.71,5.7,7.75,7.75,0,0,0,2.22,5.56,7.5,7.5,0,0,0,10.33-.51Z"/><path class="cls-2" d="M311.29,92.41l4-.27c.21,1.18.31,1.78.52,3a14.61,14.61,0,0,1,3.5-2.53,13.61,13.61,0,0,1,4.37-1.43c0,1.66,0,2.5,0,4.16a16,16,0,0,0-7.4,3c.43,6.05.65,9.08,1.08,15.13l-4.59.31C312.14,105.22,311.86,101,311.29,92.41Z"/><path class="cls-2" d="M329.84,110.94A6.33,6.33,0,0,1,327,106a4.93,4.93,0,0,1,1.79-4.47c1.35-1.1,3.54-1.78,6.59-2.05l1.4-.13a26.22,26.22,0,0,1,4.65-.06c-.06-.69-.1-1-.16-1.71a4,4,0,0,0-1.73-3.28,7.59,7.59,0,0,0-4.51-.63,27.53,27.53,0,0,0-6.53,1.47c-.27-1.36-.4-2-.67-3.4a33.13,33.13,0,0,1,7.46-1.6c3.25-.29,5.74.09,7.47,1.18a6.73,6.73,0,0,1,3,5.41c.41,4.09.61,6.14,1,10.24q.27,2.68.48,3.9l-3.91.39c-.27-1-.47-1.74-.58-2.33h-.09a6.71,6.71,0,0,1-2.63,2.33,10.31,10.31,0,0,1-3.92,1.08A9.41,9.41,0,0,1,329.84,110.94Zm10.78-3.53a3.68,3.68,0,0,0,1.32-3.25c-.09-.85-.13-1.28-.21-2.12l-6.83.63q-3.43.3-3.21,3a3.24,3.24,0,0,0,1.5,2.59,5.38,5.38,0,0,0,3.48.68A6.74,6.74,0,0,0,340.62,107.41Z"/><path class="cls-2" d="M350.63,81.48,355,79.86q1.65,14.92,3.31,29.87l-4.58.49Z"/><path class="cls-2" d="M369.19,99a5.93,5.93,0,0,1,.55-3.36,13.49,13.49,0,0,1,3-3.61,19,19,0,0,0,2.61-2.82,3.3,3.3,0,0,0,.49-2.34A3.41,3.41,0,0,0,374,84.11a7.14,7.14,0,0,0-4.23-.51,17.41,17.41,0,0,0-3.69.91,23.31,23.31,0,0,0-3.57,1.62l-1-3.18A22.07,22.07,0,0,1,369.85,80a11.6,11.6,0,0,1,7.32,1,6.51,6.51,0,0,1,3.25,5,6.59,6.59,0,0,1-.24,3.11,7,7,0,0,1-1.35,2.35,25,25,0,0,1-2.35,2.26c-1.12,1-1.93,1.7-2.41,2.19a4.51,4.51,0,0,0-1,1.48,3.75,3.75,0,0,0-.22,1.8c0,.38,0,.57.07.94l-3.48.43C369.32,100,369.28,99.64,369.19,99Zm.74,8.93a2.65,2.65,0,0,1-.48-4,3.16,3.16,0,0,1,2.06-1.06,3.29,3.29,0,0,1,2.27.52,2.55,2.55,0,0,1,.49,3.93,3.25,3.25,0,0,1-2.07,1.09A3.19,3.19,0,0,1,369.93,107.89Z"/></svg>